<svg
  version="1"
  id="Capa_1"
  xmlns="http://www.w3.org/2000/svg"
  xmlns:xlink="http://www.w3.org/1999/xlink"
  x="0px"
  y="0px"
  width="30px"
  height="30px"
  viewBox="0 0 512 512"
  enable-background="new 0 0 512 512"
  xml:space="preserve"
>
  <g>
    <g>
      <g>
        <g>
          <path
            fill="#F84AAD"
            d="M441.5,134.2c-18.3-59-65.7-106.8-123.7-124.8C256-9.7,191.5,0.6,140.9,37.9 c-24.2,17.9-44.3,41.4-58.1,68.1C68.5,133.7,61,164.7,61,195.9c0,42.5,13.5,83,38.9,116.9L256,512L412,313.1l0.2-0.3 C450.3,262,461,196.9,441.5,134.2z"
          ></path>
        </g>
      </g>
    </g>
    <g>
      <g>
        <path
          fill="#FFFFFF"
          d="M234.4,241.7c2.3-4.8,4.5-9.6,6.8-14.3c5.3-11,10.6-21.9,15.7-32.9c0.5-1.1,0.6-2.6,0.3-3.7 c-1-4.2-2.2-8.3-3.5-12.4c-0.4-1.4-0.3-2.2,0.9-3.2c31.7-26.2,63.4-52.5,95.2-78.7c2.8-2.3,6.2-3.9,9.5-5.7 c-1.2,3.7-2,7.4-4.7,10.4c-27.3,30.5-54.5,61.1-81.7,91.7c-1.2,1.3-2.2,2.8-2.9,4.4c-8.4,17.7-16.7,35.4-25,53.2 c-0.5,1-0.7,2.5-0.3,3.5c3.2,9.6,1.4,18.3-4.1,26.5c-2.5,3.8-5.8,6.9-9.7,9.3c-3.2,2-4.7,5.1-4.9,8.6c-0.4,5.3-0.1,10.5-0.3,15.8 c0,1.3-0.3,2.7-0.5,4c-1.6-0.3-3.3-0.1-4.6-0.8c-1.1-0.6-2.1-2.1-2.3-3.4c-0.8-4.7-0.8-9.5-2.9-13.8c-1.7-3.3-3.9-5.9-7.7-7.1 c-11.1-3.5-17.3-15.1-15-27.5c2.7-14.4,14.2-24.9,28.7-26.2c2.2-0.2,4.5,0.1,6.6,0.5C230.1,240.1,232.1,240.9,234.4,241.7z M222.5,246.9c-1,0-2,0-2.9,0.2c-9.7,1.8-17.8,10.1-19.5,19.9c-2.1,12.6,7.7,21.8,20.1,18.8c9.3-2.2,17-10.8,18.2-20.3 C239.7,255,232.6,246.6,222.5,246.9z M271.3,180c0-2.2-1.8-4-4-4s-4,1.7-4.1,3.9c0,2.2,1.9,4.2,4.1,4.1 C269.4,184,271.3,182.1,271.3,180z"
        ></path>
        <path
          fill="#FFFFFF"
          d="M247.4,180.5c1.6,4.5,3.2,8.8,4.8,13.3c-7.7,2.9-15.3,5.7-22.9,8.6c-7.6,2.8-15.1,5.7-22.4,8.4 c0.2,3.6,0.8,7.1,0.5,10.5c-0.4,5.7-2.4,10.8-5.9,15.4c-0.7,0.9-1,1.7-0.4,3c1.3,2.6,0.4,5.7-1.7,7.5c-2.2,1.8-5.4,2.2-7.6,0.4 c-1.2-1-2.1-0.8-3.4-0.2c-6.5,2.9-13.2,3.7-19.9,1.4c-10.9-3.7-17.2-14.4-15.5-25.8c2.4-15.1,14.2-26.3,29.6-27.4 c6.2-0.4,11.9,1.2,16.7,5.3c1.1,0.9,1.9,1,3.1,0.4c14.1-6.5,28.3-13,42.4-19.5C245.7,181.2,246.5,180.9,247.4,180.5z M199.7,218.8c0-9.3-7.3-16.3-16.5-15.7c-11.6,0.8-21.1,9.8-22.6,21.3c-1.1,8.9,5,16.9,13.6,17.7 C187.3,243.3,199.8,231.9,199.7,218.8z"
        ></path>
      </g>
    </g>
  </g>
</svg>
