<svg
  version="1"
  id="Capa_1"
  xmlns="http://www.w3.org/2000/svg"
  xmlns:xlink="http://www.w3.org/1999/xlink"
  x="0px"
  y="0px"
  width="30px"
  height="30px"
  viewBox="0 0 512 512"
  enable-background="new 0 0 512 512"
  xml:space="preserve"
>
  <g>
    <g>
      <g>
        <g>
          <path
            fill="#9A60CC"
            d="M441.5,134.2c-18.3-59-65.7-106.8-123.7-124.8C256-9.7,191.5,0.6,140.9,37.9 c-24.2,17.9-44.3,41.4-58.1,68.1C68.5,133.7,61,164.7,61,195.9c0,42.5,13.5,83,38.9,116.9L256,512L412,313.1l0.2-0.3 C450.3,262,461,196.9,441.5,134.2z"
          ></path>
        </g>
      </g>
    </g>
    <g>
      <path
        fill="#FFFFFF"
        d="M112.3,251.2c1.8-7.1,6.7-11.4,12.5-15.3C159,213,193.1,189.9,227.3,167c1.8-1.2,2.4-2.4,2.4-4.5 c0-12.8,7.6-22.9,20-26.2c1.6-0.4,2.1-1,2.1-2.6c-0.1-3.3-0.2-6.6,0.2-9.8c1-8,6.9-13.3,14.9-13.6c13.8-0.6,21.8-14.3,15.2-25.8 c-3.7-6.5-11.2-9.8-18.4-8.4c-7.4,1.6-12.7,7.6-13.6,15.5c-0.1,0.4-0.1,1-0.1,1.4c-0.3,2.6-2.1,4.3-4.4,4.2c-2.3-0.1-4.1-2-4-4.5 c0.2-8.4,3.6-15.2,10.2-20.3c8.9-6.8,21.1-6.9,30.1-0.5c9,6.3,13,17.6,10,28.2c-3,10.6-12.7,18-23.9,18.5 c-5.1,0.2-7.5,2.7-7.6,7.7c-0.1,2.5-0.2,5.1,0.1,7.6c0.1,0.8,1,2,1.7,2.2c13,3.9,20.2,13.3,20.3,26.9c0,1.9,0.7,2.9,2.1,3.8 c13.8,9.3,27.6,18.6,41.4,27.9c2.3,1.5,17.3,11.8,18.4,12.5c15.9,10.6,31.7,21.2,47.5,32c5.3,3.6,7.8,8.9,7.9,15.3 c0.1,4.8,0.1,9.5,0,14.3c-0.2,8.3-8.6,12.9-15.7,8.5c-5.8-3.7-11.3-7.6-17-11.3c-1.2-0.8-2.9-1.3-4.4-1.3 c-71.1-0.1-142.2-0.1-213.3,0c-1.5,0-3.1,0.6-4.4,1.4c-4.9,3.2-9.9,6.4-14.7,9.9c-6.5,4.9-13.8,4.4-17.9-4.4 C112.3,264.6,112.3,257.9,112.3,251.2z M160.3,255.5c64.1,0,127.5,0,191.4,0c-1.3-0.9-2.1-1.5-3-2.1 c-28.5-19.1-56.9-38.4-85.4-57.5c-5.6-3.7-9.2-3.8-14.7-0.1c-12.6,8.5-25.3,17-37.9,25.6c-3.5,2.4-17.7,12-20.2,13.6 C180.7,241.7,170.8,248.4,160.3,255.5z"
      ></path>
    </g>
  </g>
</svg>
