<svg
  version="1"
  id="Capa_1"
  xmlns="http://www.w3.org/2000/svg"
  xmlns:xlink="http://www.w3.org/1999/xlink"
  x="0px"
  y="0px"
  width="30px"
  height="30px"
  viewBox="0 0 512 512"
  enable-background="new 0 0 512 512"
  xml:space="preserve"
>
  <g>
    <g>
      <g>
        <g>
          <path
            fill="#B67154"
            d="M441.2,134.4C423,75.5,375.6,27.8,317.7,9.9C256-9.2,191.6,1.1,141.2,38.4c-24.2,17.8-44.2,41.3-58,68 c-14.2,27.5-21.8,58.6-21.8,89.7c0,42.5,13.4,82.8,38.8,116.7L256,511.5L411.6,313l0.2-0.3C449.9,262,460.6,197,441.2,134.4z"
          ></path>
        </g>
      </g>
    </g>
    <g>
      <path
        fill="#FFFFFF"
        d="M368.9,211.4c-1.9-10.3-7.8-17.1-17.7-20.4c-5.1-1.7-10.3-1.9-15.8-0.9c0.2,2.3,0.5,4.5,0.7,6.7 c0.2,2.3,0.4,4.5,0.5,6.7c2.5,0,4.7-0.1,7,0c7.2,0.5,12.1,5.4,11.8,12.3c-0.2,3.7-0.8,7.5-1.9,11c-3.1,10-8.3,19.1-16.3,25.8 c-5.8,4.8-8.6,10.6-10.5,17.4c-0.8,2.7-2,5.3-3.1,7.9c0.2,0.1,0.3,0.2,0.3,0.2c0.3-0.1,0.6-0.2,0.8-0.3 c19.3-8.8,32.7-23.3,40.5-42.9c1.9-4.8,2.7-10,4.1-15.1c0-2.5,0-5,0-7.5C369.2,212.1,368.9,211.7,368.9,211.4z"
      ></path>
      <path
        fill="#FFFFFF"
        d="M310.9,174.9c-26,0-52,0-78.1,0c-26.2,0-52.3,0-78.5,0c-5.3,0-7.7,1.9-8.7,7.1 c-4.2,22.6-3.8,45.2,1.6,67.6c5.4,21.8,14.9,41.5,30.5,58c2.3,2.4,4.7,3.4,8,3.4c14.1-0.1,28.2,0,42.3,0c17.4,0,34.8,0,52.2,0 c2.6,0,5-0.4,6.8-2.5c3-3.4,6.1-6.6,8.8-10.2c16.2-21.4,24.1-45.8,26.5-72.2c1.3-14.5,0.6-28.9-2.1-43.1 C319.1,176.7,317,174.9,310.9,174.9z"
      ></path>
      <path
        fill="#FFFFFF"
        d="M228.2,134.6c1.7,2.2,1.7,3.4,0,5.5c-1.1,1.5-2.3,2.9-3.3,4.4c-1.9,3.1-1,7,1.8,9.1c3,2.1,6.8,1.7,9.2-1 c1.4-1.5,2.7-3.2,3.8-4.8c2.3-3.1,3.4-6.5,3.4-10.3c-0.1-1-0.2-2-0.3-3.1c-0.5-3.8-2.6-6.8-4.9-9.7c-2.4-2.9-2.3-4-0.1-6.9 c0.4-0.6,0.9-1.2,1.4-1.7c2.6-3.3,4-7,3.8-11.2c-0.1-3.6-2.8-6.4-6.4-6.7c-3.5-0.3-6.9,2-7.2,5.5c-0.2,2.5-1.4,4.2-2.9,6 c-3.8,4.6-5,9.7-3.9,15.5C223.6,128.8,225.9,131.7,228.2,134.6z"
      ></path>
      <path
        fill="#FFFFFF"
        d="M197.2,141.1c-0.8,1.1-1.7,2.1-2.4,3.2c-2,3.2-1.3,7.1,1.6,9.2c3,2.3,7,1.7,9.5-1.2 c0.8-0.9,1.5-1.9,2.2-2.7c6.5-8.1,6.5-16.2,0-24.3c-3.1-3.8-3.1-4.4,0-8.2c2.7-3.3,4.6-7,4.6-10.6c0.3-4.9-2.3-8-6.2-8.4 c-3.8-0.4-7,2-7.4,5.9c-0.2,2.3-1.5,3.8-2.7,5.4c-2.8,3.4-4.3,7.3-4.4,11.7c0,4.9,1.9,8.8,5,12.4 C199.9,136.9,199.8,137.8,197.2,141.1z"
      ></path>
      <path
        fill="#FFFFFF"
        d="M257,142.1c-0.7,0.9-1.4,1.8-1.9,2.7c-1.7,3.1-0.8,6.9,2,8.8c3,2.1,6.8,1.6,9.2-1.2c1.2-1.5,2.4-3,3.6-4.5 c2.7-3.5,3.7-7.6,3.5-12c-0.2-4.8-2.7-8.5-5.6-12c-1.8-2.2-1.7-3.5,0-5.7c0.6-0.8,1.2-1.5,1.8-2.3c2.3-3,3.8-6.3,3.8-9.7 c0.3-4.7-2.2-7.8-6.1-8.2c-3.9-0.4-6.8,2.1-7.7,6.3c-0.4,1.8-1.4,3.5-2.5,5c-2.5,3.3-4.2,6.9-4.3,11.1c-0.1,4.6,1.2,8.5,4.1,12 C260.8,137.4,260.7,137.4,257,142.1z"
      ></path>
    </g>
  </g>
</svg>
