<svg 
version="1"
x="0px"
y="0px"
width="30px"
height="30px"
enable-background="new 0 0 512 512"
xml:space="preserve"
id="Layer_1" data-name="Layer 1" xmlns="http://www.w3.org/2000/svg" viewBox="0 0 384.4 504.6"><title>electric</title><g id="Group_2" data-name="Group 2"><g id="Group_1" data-name="Group 1"><path id="Path_1" data-name="Path 1" d="M374.27,132.2c-18-58.1-64.7-105.2-121.9-122.9C191.47-9.6,127.77.6,78.07,37.4A193,193,0,0,0-.73,193a190.31,190.31,0,0,0,38.4,115.3l153.8,196.3,153.7-196,.2-.3C382.87,258.2,393.47,194,374.27,132.2Z" style="fill:#da9129"/></g></g><rect x="187.18" y="55.83" width="8.28" height="34.22" rx="4.07" ry="4.07" style="fill:#fff"/><rect x="65.74" y="178.1" width="34.22" height="8.28" rx="4.07" ry="4.07" style="fill:#fff"/><rect x="282.95" y="178.1" width="34.22" height="8.28" rx="4.07" ry="4.07" style="fill:#fff"/><path d="M115.35,88.4h.13a4.08,4.08,0,0,1,4.08,4.08v26.07a4.07,4.07,0,0,1-4.07,4.07h-.13a4.07,4.07,0,0,1-4.07-4.07V92.47A4.07,4.07,0,0,1,115.35,88.4Z" transform="translate(-40.8 112.57) rotate(-45.02)" style="fill:#fff"/><path d="M268.35,241.4h.13a4.07,4.07,0,0,1,4.07,4.07v26.07a4.08,4.08,0,0,1-4.08,4.08h-.13a4.07,4.07,0,0,1-4.07-4.07V245.47A4.07,4.07,0,0,1,268.35,241.4Z" transform="translate(-104.18 265.51) rotate(-45)" style="fill:#fff"/><path d="M254.74,101.37h26.08a4.07,4.07,0,0,1,4.07,4.07v.13a4.07,4.07,0,0,1-4.07,4.07H254.75a4.08,4.08,0,0,1-4.08-4.08v-.13a4.07,4.07,0,0,1,4.07-4.07Z" transform="translate(3.82 220.26) rotate(-45)" style="fill:#fff"/><path d="M102.38,253.74h26.07a4.08,4.08,0,0,1,4.08,4.08v.13a4.07,4.07,0,0,1-4.07,4.07H102.38a4.07,4.07,0,0,1-4.07-4.07v-.13a4.07,4.07,0,0,1,4.07-4.07Z" transform="translate(-148.54 157.14) rotate(-45)" style="fill:#fff"/><path d="M173.62,306.58A19,19,0,0,0,192.21,323c10.41,0,18.84-8.68,18.84-19.39,0-.11,0-.22,0-.33Z" style="fill:#fff"/><path d="M254.26,184.25a63.22,63.22,0,1,0-96,54.08v12.3l-6.51.55a27.52,27.52,0,0,0-3.93,14.69c.2,6,2.07,9.49,3.31,10.61-.75,1-3.47,7.38-3.22,14.74.21,6,3.09,12.72,4.32,13.84l81-7.87c.92-2.36,3.41-9.09,2.94-14.94s-.61-10.37-1.92-12.56a28.78,28.78,0,0,0-2.14-25.3l-7,.59v-7.52A63.15,63.15,0,0,0,254.26,184.25Zm-93.84,79.81,63.1-5.55.25,2.9L160.68,267Zm.79,26.8L161,288l63.1-5.55.25,2.9Zm50.07-60.59v15.88l-39.13,3.31V230.84a50.27,50.27,0,1,1,39.13-.57Z" style="fill:#fff"/><polygon points="197.66 154.92 168.96 209.29 195.46 209.29 191.04 246.55 219.19 193.56 192.63 193.28 197.66 154.92" style="fill:#fff"/></svg>