<svg
  version="1"
  id="Capa_1"
  xmlns="http://www.w3.org/2000/svg"
  xmlns:xlink="http://www.w3.org/1999/xlink"
  x="0px"
  y="0px"
  width="30px"
  height="30px"
  viewBox="0 0 512 512"
  enable-background="new 0 0 512 512"
  xml:space="preserve"
>
  <g>
    <g>
      <g>
        <g>
          <path
            fill="#ED3C3B"
            d="M441.2,134.4C423,75.5,375.6,27.8,317.7,9.9C256-9.2,191.6,1.1,141.2,38.4c-24.2,17.8-44.2,41.3-58,68 c-14.2,27.5-21.8,58.6-21.8,89.7c0,42.5,13.4,82.8,38.8,116.7L256,511.5L411.6,313l0.2-0.3C449.9,262,460.6,197,441.2,134.4z"
          ></path>
        </g>
      </g>
    </g>
    <g>
      <path
        fill="#FFFFFF"
        d="M163,275.1c-4,9-7.9,18-11.9,27c-0.5,1-1,2-1.6,3.1c0,2,0,3.9,0,5.8c1.8,0,3.6,0,5.4,0 c0.3-0.2,0.7-0.5,1-0.6c14.4-6.3,28.9-12.6,43.3-19c0.7-0.3,1.4-0.7,2.4-1.1c-12.8-5.9-25.2-11.6-37.7-17.3 C163.6,273.7,163.3,274.4,163,275.1z"
      ></path>
      <path
        fill="#FFFFFF"
        d="M220.4,164.3c-1.2-1.2-2.4-2.5-3.7-3.7c-6.4-5.8-16.3-4.4-21,2.9c-3.6,5.7-2.7,12.6,2.5,17.8 c16.6,16.6,33.2,33.2,49.8,49.8c10.8,10.8,21.6,21.5,32.4,32.4c2.9,2.9,6.2,4.5,8.9,4.6c7.5,0,12.8-3.8,14.6-9.7 c1.7-5.7,0.1-10.6-4.1-14.8C273.3,217.3,246.8,190.8,220.4,164.3z"
      ></path>
      <path
        fill="#FFFFFF"
        d="M169.2,261c0.4,0.2,0.6,0.3,0.7,0.4c15.4,7.1,30.9,14.3,46.4,21.3c0.8,0.4,2,0.2,2.9-0.1 c9.3-4,18.5-8,27.7-12.1c0.4-0.2,0.8-0.4,1.5-0.7c-22.9-11.4-45.4-22.6-68.2-33.9C176.4,244.4,172.8,252.7,169.2,261z"
      ></path>
      <path
        fill="#FFFFFF"
        d="M358,160.4c-3.3-0.9-6.6,0.9-7.7,4.3c-0.5,1.5-0.8,3-1.2,4.4c-1.1,4.2-2.2,8.4-3.3,12.9 c-1-0.7-1.9-1.1-2.7-1.7c-2.5-1.7-4.9-3.6-7.4-5.4c-2.8-2-5.8-2.3-8.8-0.8c-3,1.5-4.6,3.9-4.9,7.2c-0.2,1.9-0.3,3.9-0.5,5.8 c-0.2,2.7-0.4,5.4-0.6,8.4c-1-0.5-1.6-0.7-2.3-1.1c-4.9-2.7-9.8-5.4-14.8-8c-5.6-2.9-12.3,0.7-12.5,6.9c-0.2,5.9-0.1,11.9,0,17.9 c0,3.3,2.8,5.8,6.1,5.8c3.6,0,6.2-2.7,6.3-6.6c0-3.2,0-6.4,0-9.9c1.2,0.6,2,1.1,2.9,1.5c4.6,2.4,9.1,4.9,13.9,7.1 c1.8,0.8,4.2,1.1,6.2,0.8c4-0.7,6.4-4,6.6-8.4c0.2-4,0.4-8,0.6-12.3c0.8,0.5,1.4,0.8,1.9,1.1c2.5,1.5,5.1,3.2,7.7,4.6 c5.8,3.2,11.7,0.8,13.5-5.7c1.9-7.1,3.6-14.2,5.4-21.3C363.1,164.5,361.2,161.3,358,160.4z"
      ></path>
      <path
        fill="#FFFFFF"
        d="M185.4,224.1c24.7,12.3,49.2,24.5,73.6,36.6c-20.8-20.8-41.5-41.5-62.3-62.3 C193,206.8,189.2,215.4,185.4,224.1z"
      ></path>
      <path
        fill="#FFFFFF"
        d="M343.4,135.6c10.2,0.2,18.8-8.1,19.1-18.5c0.2-10.2-8.2-18.9-18.5-19.1c-10.4-0.2-19,8.2-19.2,18.6 C324.6,126.9,332.9,135.4,343.4,135.6z"
      ></path>
      <path
        fill="#FFFFFF"
        d="M263.2,127.6c3.5,2,7.1,3.8,10.5,5.8c1.1,0.7,2.2,1.7,2.8,2.8c2,3.4,3.7,6.9,5.8,10.3 c0.5,0.9,1.6,1.9,2.5,2c0.7,0,1.8-1,2.3-1.9c2.1-3.5,3.9-7.2,5.9-10.7c0.5-0.9,1.4-1.7,2.2-2.2c3.6-2.1,7.3-4,10.9-6 c0.8-0.5,1.4-1.2,2.5-2.2c-1-1-1.6-2-2.5-2.6c-3.6-2.1-7.3-4-10.9-6.1c-0.9-0.5-1.7-1.4-2.2-2.2c-2-3.5-3.9-7.2-5.9-10.7 c-0.5-0.8-1.6-1.9-2.4-1.9c-0.8,0-1.9,1-2.4,1.8c-2.1,3.5-3.9,7.2-5.9,10.7c-0.5,1-1.5,1.9-2.4,2.4c-3.6,2.1-7.3,4-10.9,6 C260.7,124.3,260.7,126.2,263.2,127.6z"
      ></path>
      <path
        fill="#FFFFFF"
        d="M268.2,181.8c6.2-2.2,12.3-4.7,18.3-7.1c3.3-1.4,4.7-4.9,3.4-8.1s-4.7-4.7-8.1-3.4 c-6.1,2.3-12.1,4.7-18.1,7.1c-2.5,1-3.9,3-4,5.2C259.8,180.3,263.9,183.3,268.2,181.8z"
      ></path>
      <path
        fill="#FFFFFF"
        d="M215.9,136.3c3.2,1.1,6.6-0.3,7.8-3.6c2.4-6.3,4.7-12.6,6.7-18.9c1.3-4-1.8-8-6.7-7.9 c-2,0.1-4,1.3-4.9,3.8c-2.4,6.3-4.6,12.6-6.7,18.9C210.9,131.8,212.7,135.2,215.9,136.3z"
      ></path>
      <path
        fill="#FFFFFF"
        d="M315.2,161.2c3.4,0,6.2-3,6.2-6.3c0-3.4-2.9-6.2-6.3-6.2c-3.4,0-6.2,2.9-6.2,6.3 C308.9,158.4,311.8,161.2,315.2,161.2z"
      ></path>
      <path
        fill="#FFFFFF"
        d="M317.3,223.4c-3.4,0-6.3,2.7-6.3,6.1c0,3.4,2.7,6.2,6.2,6.2c3.5,0,6.2-2.6,6.3-6.1 C323.5,226.2,320.8,223.4,317.3,223.4z"
      ></path>
      <path
        fill="#FFFFFF"
        d="M252.8,158.4c3.5,0,6.2-2.7,6.2-6.1c0-3.5-2.7-6.3-6.1-6.3c-3.3,0-6.2,2.8-6.3,6.2 C246.6,155.5,249.4,158.3,252.8,158.4z"
      ></path>
    </g>
  </g>
</svg>
