<svg
  version="1"
  id="Capa_1"
  xmlns="http://www.w3.org/2000/svg"
  xmlns:xlink="http://www.w3.org/1999/xlink"
  x="0px"
  y="0px"
  width="30px"
  height="30px"
  viewBox="0 0 512 512"
  enable-background="new 0 0 512 512"
  xml:space="preserve"
>
  <g>
    <g>
      <g>
        <g>
          <path
            fill="#743B3B"
            d="M441.2,134.4C423,75.5,375.6,27.8,317.7,9.9C256-9.2,191.6,1.1,141.2,38.4c-24.2,17.8-44.2,41.3-58,68 c-14.2,27.5-21.8,58.6-21.8,89.7c0,42.5,13.4,82.8,38.8,116.7L256,511.5L411.6,313l0.2-0.3C449.9,262,460.6,197,441.2,134.4z"
          ></path>
        </g>
      </g>
    </g>
    <g>
      <g>
        <path
          fill="#FFFFFF"
          d="M322,94.9c1.8,1.2,3.5,2.6,5.3,3.8c0.4,0.3,1,0.3,1.5,0.3c5.1-0.9,8.6,1.9,8.7,7.1c0,1.6,0,3.1,0,4.8 c2.9,0.7,4.9,2.2,4.7,5.4c-0.2,2.7-2,4.1-4.7,4.6c0,1.6,0,3.2,0,4.7c0,5.3-3.5,8.1-8.7,7.2c-0.5-0.1-1.3,0.3-1.7,0.6 c-2.8,3.1-6.1,4.1-9.6,2.8c-3.4-1.2-5.4-4.3-5.6-8.4c-0.1-2.3,0-4.5,0-7c-1.4,0-2.6,0-4.1,0c0,0.9,0,1.6,0,2.4 c0,10.4-0.1,20.7,0,31.1c0.1,6.8-2.1,12.5-6.9,17.3c-5.7,5.7-11.1,11.6-16.8,17.4c-1.2,1.2-1.5,2.4-1.5,3.9 c0,36.2,0,72.4,0,108.6c0,5.8-2.5,9.9-7.1,11.6c-7.4,2.9-14.9-2.4-15.1-10.6c-0.1-4.8,0-9.6,0-14.3c0-12.6,0-25.3,0-37.9 c0-0.8,0-1.5,0-2.5c-2.9,0-5.6,0-8.7,0c0,0.8,0,1.6,0,2.4c0,17.2,0,34.4,0,51.6c0,4.7-1.6,8.5-5.9,10.8 c-6.3,3.4-14.2-0.1-15.9-7.1c-0.3-1.5-0.4-3-0.4-4.5c0-36,0-72,0-107.9c0-1.8-0.4-3-1.7-4.3c-5.8-5.9-11.4-11.9-17.2-17.9 c-4.3-4.5-6.3-9.7-6.3-15.8c0-10.6,0-21.3,0-31.9c0-0.8,0-1.5,0-2.4c-1.4,0-2.6,0-4.1,0c0,2.4,0.1,4.9,0,7.2 c-0.3,6.6-6.4,10.7-11.9,7.7c-2.8-1.5-5.1-3.1-8.6-3.1c-3,0-4.9-3.2-5.1-6.5c0-1.8,0-3.6,0-5.3c-3.3-1.1-4.8-2.7-4.8-5.1 c0-2.4,1.5-3.9,4.8-5c0-1.5,0-3.2,0-4.8c0.1-5.1,3.6-8,8.7-7.1c0.5,0.1,1.1,0,1.5-0.3c1.7-1.2,3.5-2.5,5.2-3.8c1.2,0,2.3,0,3.4,0 c5.1,1.8,7.1,5.5,6.8,10.7c-0.1,1.7,0,3.4,0,5c3.9,0.5,3.9,0.5,5.7-2.2c3.8-5.5,12.1-5.1,15.4,0.8c0.7,1.4,1.6,1.7,3,1.7 c21.1,0,42.3,0,63.4,0c1.4,0,2.2-0.3,3-1.7c3.3-6,11.8-6.3,15.5-0.6c1.6,2.5,2.4,2.7,5.5,1.9c0.2-3.1,0.1-6.3,0.6-9.3 c0.6-3.4,3.3-5.1,6.3-6.3C319.7,94.9,320.8,94.9,322,94.9z M289.4,121c-22.4,0-44.6,0-66.7,0c-0.1,0.3-0.1,0.4-0.1,0.6 c0,11.5,0,23,0,34.4c0,0.8,0.5,1.8,1.1,2.4c5.1,5.4,10.2,10.8,15.4,16.1c0.6,0.6,1.7,1.1,2.6,1.1c9.6,0.1,19.1,0.1,28.7,0 c0.9,0,2-0.5,2.6-1.1c5.2-5.3,10.3-10.7,15.4-16.1c0.6-0.7,1.1-1.8,1.1-2.8c0.1-4.1,0-8.1,0-12.2 C289.4,136,289.4,128.6,289.4,121z"
        ></path>
        <path
          fill="#FFFFFF"
          d="M256,126.5c12.1,0,21.9,9.9,21.9,21.9c0,12-10,21.9-22,21.9c-11.9,0-21.8-9.9-21.8-21.8 C234.1,136.4,243.9,126.5,256,126.5z"
        ></path>
      </g>
    </g>
  </g>
</svg>
