<svg
version="1"
x="0px"
y="0px"
width="30px"
height="30px"
enable-background="new 0 0 512 512"
xml:space="preserve" id="Layer_1" data-name="Layer 1" xmlns="http://www.w3.org/2000/svg" viewBox="0 0 384.38 504.59"><title>hospital</title><g id="Group_2" data-name="Group 2"><g id="Group_1" data-name="Group 1"><path id="Path_1" data-name="Path 1" d="M375,132.19C357,74.09,310.3,27,253.1,9.29,192.2-9.61,128.5.59,78.8,37.39A193.25,193.25,0,0,0,0,193a190.31,190.31,0,0,0,38.4,115.3l153.8,196.3,153.7-196,.2-.3C383.6,258.19,394.2,194,375,132.19Z" style="fill:#e87779"/></g></g><polygon points="210.5 94.89 201.7 94.89 201.7 86.39 190.7 86.39 190.7 94.89 182.3 94.89 182.3 105.89 190.7 105.89 190.7 114.29 201.7 114.29 201.7 105.89 210.5 105.89 210.5 94.89" style="fill:#e30913"/><path d="M262.7,107.89H205.1v9h-18v-9H125.6v25h5v147.7H262.7V132.89h3.9v-25Zm-12.3,92.4v13.2H141.9v-13.2Zm-108.5-16.9v-13.2H250.4v13.2Zm24.3,93.5h-24v-46.5h24Zm28.1,0h-24v-46.5h24Zm28.2,0h-24v-46.5h24Zm28.2,0h-24v-46.5h24Zm0-124H142.2v-13.2H250.7Zm13-23H128.6v-6.5H263.7v6.5Z" style="fill:#fff"/><path d="M263.7,147v133.5h62.6V147Zm27.1,78H273.2v-17.6h17.6Zm0-26.9H273.2v-17.6h17.6Zm0-25.6H273.2v-17.6h17.6Zm26,52.5H299.2v-17.6h17.6Zm0-26.9H299.2v-17.6h17.6Zm0-25.6H299.2v-17.6h17.6Z" style="fill:#fff"/><path d="M66.1,146.49v134.1h62.6V146.49Zm27.1,79.9H75.6v-17.7H93.2Zm0-27.1H75.6v-17.7H93.2Zm0-25.7H75.6v-17.7H93.2Zm26,52.8H101.6v-17.7h17.6Zm0-27.1H101.6v-17.7h17.6Zm0-25.7H101.6v-17.7h17.6Z" style="fill:#fff"/></svg>