<svg
  version="1"
  id="Layer_1"
  xmlns="http://www.w3.org/2000/svg"
  xmlns:xlink="http://www.w3.org/1999/xlink"
  x="0px"
  y="0px"
  width="30px"
  height="30px"
  viewBox="0 0 512 512"
  enable-background="new 0 0 512 512"
  xml:space="preserve"
>
  <g>
    <g>
      <g>
        <g>
          <path
            fill="#539AEC"
            d="M440.1,132.6C421.3,74.1,373.6,27,315.5,9.7C253.7-8.7,189.6,2.4,139.7,40 C115.7,58.1,96,81.8,82.5,108.5c-13.9,27.6-21.1,58.7-20.7,89.8c0.5,42.4,14.3,82.5,40,116L259.5,511l153.2-199.8l0.2-0.3 C450.2,259.9,460.2,194.9,440.1,132.6z"
          ></path>
        </g>
      </g>
    </g>
    <g>
      <path
        fill="#FFFFFF"
        d="M305,103.4c9,0,17.7,0,26.5,0c0,67,0,133.8,0,200.7c-22.7,0-45.3,0-68.2,0c0-13.5,0-27,0-40.6 c-4.6,0-8.8,0-13.3,0c0,13.5,0,27,0,40.6c-23.3,0-46.4,0-69.7,0c0-4-0.1-8,0-11.9c0-0.7,0-108.7,0-109.4c-0.1-26.1,0-52.3,0-78.4 c0-0.2,0.1-0.4,0.2-0.8c8.9,0,17.7,0,26.8,0c0-4.6,0-8.9,0-13.3c32.6,0,65,0,97.6,0C305,94.5,305,98.7,305,103.4z M250,136.4 c0-5.1,0-10.1,0-15.2c-4.5,0-8.8,0-13.2,0c0,14.8,0,29.4,0,44.1c4.4,0,8.7,0,13.2,0c0-5.2,0-10.3,0-15.3c4.5,0,8.8,0,13.4,0 c0,5.2,0,10.2,0,15.3c4.6,0,8.8,0,13.1,0c0-14.8,0-29.4,0-44.1c-4.4,0-8.7,0-13.2,0c0,5.1,0,10.2,0,15.2 C258.8,136.4,254.5,136.4,250,136.4z M250.2,183.2c0,4.5,0,8.8,0,13.1c4.4,0,8.7,0,13,0c0-4.4,0-8.7,0-13.1 C258.8,183.2,254.6,183.2,250.2,183.2z M276.7,196.5c3,0,5.9,0,8.8,0c4.5,0,4.5,0,4.5-4.5c0-2.9,0-5.8,0-8.6c-4.7,0-9,0-13.3,0 C276.7,187.7,276.7,191.9,276.7,196.5z M250.2,209.3c0,4.5,0,8.8,0,13c4.4,0,8.7,0,13,0c0-4.4,0-8.6,0-13 C258.9,209.3,254.6,209.3,250.2,209.3z M276.7,222.3c4.5,0,8.8,0,13.1,0c0-4.4,0-8.6,0-12.9c-4.4,0-8.8,0-13.1,0 C276.7,213.7,276.7,217.9,276.7,222.3z M250.2,235.9c0,4.5,0,8.7,0,13c4.4,0,8.7,0,13.1,0c0-4.4,0-8.7,0-13 C258.8,235.9,254.6,235.9,250.2,235.9z M289.8,249c0-4.4,0-8.7,0-13c-4.4,0-8.7,0-13,0c0,4.4,0,8.7,0,13 C281.2,249,285.5,249,289.8,249z M236.5,196.4c0-4.5,0-8.8,0-13.1c-4.4,0-8.6,0-12.9,0c0,4.4,0,8.7,0,13.1 C227.9,196.4,232.1,196.4,236.5,196.4z M223.5,222.3c4.5,0,8.7,0,13,0c0-4.4,0-8.7,0-13c-4.4,0-8.7,0-13,0 C223.5,213.7,223.5,217.9,223.5,222.3z M223.6,235.9c0,4.5,0,8.7,0,13c4.4,0,8.7,0,13,0c0-4.4,0-8.7,0-13 C232.2,235.9,228,235.9,223.6,235.9z"
      ></path>
    </g>
  </g>
</svg>
