<svg
  version="1"
  id="Layer_1"
  xmlns="http://www.w3.org/2000/svg"
  xmlns:xlink="http://www.w3.org/1999/xlink"
  x="0px"
  y="0px"
  width="30px"
  height="30px"
  viewBox="0 0 512 512"
  enable-background="new 0 0 512 512"
  xml:space="preserve"
>
  <g>
    <g>
      <g>
        <g>
          <path
            fill="#9A60CC"
            d="M440.8,134.6C422.6,75.9,375.4,28.3,317.6,10.4C256-8.7,191.7,1.6,141.4,38.8 C117.2,56.6,97.2,80,83.5,106.6c-14.2,27.5-21.7,58.4-21.7,89.5c0,42.4,13.4,82.7,38.8,116.5L256,511l155.3-198.1l0.2-0.3 C449.5,262,460.2,197.1,440.8,134.6z"
          ></path>
        </g>
      </g>
    </g>
    <path
      fill="#FFFFFF"
      d="M279.9,219.8c-3.3-7.6-6.8-14.8-10-22.2c6,0,26.6,0,32.8,0c2.7,0,5.4,0.2,8-0.1c8.4-1,14.7-7.9,14.7-16.5 c0.1-24.4,0.1-48.7,0-73.1c0-7.5-4.9-13.7-12-15.9c-0.6-0.2-1.2-0.4-1.8-0.6c-37.7,0-75.5,0-113.2,0c-0.9,0.3-1.9,0.7-2.8,1 c-6.5,2.4-11,8.3-11,15.2c-0.1,24.6-0.1,49.1,0,73.7c0,9,7.3,16.1,16.3,16.3c4.2,0.1,8.3,0,12.5,0c4.2,0,22.4,0,26.5,0 c-2.8,6.4-7.8,18.5-9.1,22.2h-64.8v84.1H182v-61.3h148.7v61.3h15.5v-84.1H279.9z"
    ></path>
  </g>
</svg>
