<svg
version="1"
x="0px"
y="0px"
width="30px"
height="30px"
enable-background="new 0 0 512 512"
xml:space="preserve"
 id="Layer_1" data-name="Layer 1" xmlns="http://www.w3.org/2000/svg" viewBox="0 0 384.37 504.59"><title>opticals</title><g id="Group_2" data-name="Group 2"><g id="Group_1" data-name="Group 1"><path id="Path_1" data-name="Path 1" d="M375,132.19C357,74.09,310.3,27,253.1,9.29,192.2-9.61,128.5.59,78.8,37.39A193,193,0,0,0,0,193a190.31,190.31,0,0,0,38.4,115.3l153.7,196.3,153.7-196,.2-.3C383.6,258.19,394.2,194,375,132.19Z" style="fill:#a4d1b2"/></g></g><path d="M309.1,121.19H76.1A40.84,40.84,0,0,0,35.3,162h0a39.94,39.94,0,0,0,1.1,9.2,40.91,40.91,0,0,1,39.3-29.9h233a40.67,40.67,0,0,1,39.7,31.6,39.31,39.31,0,0,0,1.5-10.9h0A40.84,40.84,0,0,0,309.1,121.19Z" style="fill:#fff"/><path d="M309.5,233.49H74.9a39.85,39.85,0,0,1-37.7-26.8,40.46,40.46,0,0,0-2.2,13.1h0a39.88,39.88,0,0,0,39.9,39.9H309.5a39.88,39.88,0,0,0,39.9-39.9h0a40.46,40.46,0,0,0-2.2-13.1A39.85,39.85,0,0,1,309.5,233.49Z" style="fill:#fff"/><path d="M269.4,147.09c-21,.1-41.2,5.9-61.8,8.3a119.89,119.89,0,0,1-26.1.3c-11.5-1.2-22.5-4.4-34-5.8-10.2-1.3-20.6-2.6-30.9-2.7-18-.1-35.4,4.9-53,7.6,0,4.6-1,10.4,1.6,13.6s7.3,6.3,8.5,10.8a151.32,151.32,0,0,0,12,31.1c2.5,4.9,7.2,8.3,12.4,10.6,12.6,5.6,27.6,6.5,41.5,4.7,19.7-2.5,30.4-15.6,38.6-30.6,3.1-6.1,3.4-13.1,7.4-18.7,2.4-3.3,7.9-1.9,11.9-1.9s7.3,5.8,8.6,9.7c4.4,13.8,11.6,28.4,26.1,35.6,21.6,10.8,55.6,8.8,69.6-10.7,5.5-7.6,7-16.8,9.7-25.5,1.7-5.2,3.2-11.5,9.1-14.4,2.4-1.2.7-5.8,1.1-8.5.4-2.9,1.1-5.5-3.6-6.1-8.2-1-16.2-4.1-24.7-5.1-8-.9-15.9-2.4-24-2.3ZM130.6,152a104,104,0,0,1,17.7,1.4c34.5,6.5,35.2,19.1,21,45.1-11.6,21.2-35.6,26.5-59.7,21.5-11.1-2.3-18.8-9.2-22.4-18.7-3.8-10-6.7-20.5-6-31,.9-14,18.8-16,31.6-17.3,5.8-.5,11.8-1,17.8-1Zm126,0a175.34,175.34,0,0,1,17.8,1.1c12.8,1.3,30.7,3.2,31.6,17.3.6,10.5-2.2,21-6,31-3.6,9.4-11.2,16.3-22.4,18.7-24.2,5.1-48.1-.2-59.7-21.5-14.2-26-13.5-38.6,21-45.1a80.4,80.4,0,0,1,17.7-1.5Z" style="stroke:#000"/><path d="M134.2,148.59l-4.7-.7-1.7.1C130,148.09,132.1,148.29,134.2,148.59Z" style="fill:#fff;stroke:#000;opacity:0.600000023841858;isolation:isolate"/><path d="M168.8,198.79c14.2-26,13.5-38.6-21-45.1a86.93,86.93,0,0,0-17.7-1.4h0a175.34,175.34,0,0,0-17.8,1.1c-12.8,1.3-30.7,3.2-31.6,17.3-.6,10.5,2.2,21,6,31a28.89,28.89,0,0,0,17.9,17.4l8.1,1.9C135.6,224.69,157.8,218.89,168.8,198.79Z" style="fill:#fff;stroke:#000;opacity:0.600000023841858;isolation:isolate"/><path d="M305.5,170.59c-.9-14-18.8-16-31.6-17.3-5.9-.6-11.9-1-17.8-1.1h0c-3.4,0-6.7.1-10,.4l-9.7,1.4c-32.5,6.6-32.9,19.2-18.9,44.7,11.6,21.2,35.6,26.5,59.7,21.5,11.1-2.3,18.8-9.2,22.4-18.7C303.3,191.59,306.2,181,305.5,170.59Z" style="fill:#fff;stroke:#000;opacity:0.600000023841858;isolation:isolate"/><path d="M169,154c3.5.7,7.1,1.3,10.7,1.7Z" style="fill:#fff;stroke:#000;opacity:0.600000023841858;isolation:isolate"/><path d="M301.2,209.29c-.1.1-.2.3-.3.4l1.8-1.7.3-1.6A22.87,22.87,0,0,1,301.2,209.29Z" style="fill:#fff;stroke:#000;opacity:0.600000023841858;isolation:isolate"/><path d="M80.5,151.89l-1.4.1v.2A5.77,5.77,0,0,1,80.5,151.89Z" style="fill:#fff;stroke:#000;opacity:0.600000023841858;isolation:isolate"/><path d="M283.4,222.49l4.5-.7,3.8-3.5A58.67,58.67,0,0,1,283.4,222.49Z" style="fill:#fff;stroke:#000;opacity:0.600000023841858;isolation:isolate"/></svg>