<svg
version="1"
x="0px"
y="0px"
width="30px"
height="30px"
enable-background="new 0 0 512 512"
xml:space="preserve" id="Layer_1" data-name="Layer 1" xmlns="http://www.w3.org/2000/svg" viewBox="0 0 384.4 504.6"><title>placetovisit</title><g id="placestovisit"><g id="Layer_1-2" data-name="Layer 1"><g id="Group_2" data-name="Group 2"><g id="Group_1" data-name="Group 1"><path id="Path_1" data-name="Path 1" d="M374.66,133.59c-18-58.08-64.72-105.18-121.91-122.89C191.81-8.19,128.19,2,78.42,38.8A193,193,0,0,0-.34,194.41a190.41,190.41,0,0,0,38.39,115.3L191.81,506,345.46,310l.2-.29C383.26,259.64,393.85,195.41,374.66,133.59Z" style="fill:#9b609a"/></g></g><path id="Path_17" data-name="Path 17" d="M342.66,194.41a150.81,150.81,0,0,1-301.62,0c0-48.24,24.51-95.08,63.52-123,3.16-2.25,6.52-4.43,6.52-4.43s35.64-22.82,80.77-23.38C241.76,43,342.66,93.71,342.66,194.41Z" style="fill:#fff"/><path d="M285.4,154.8c-26.2,28.81-136.68,26.7-167.95,64-15.17,18.09,2.84,33.95,22.49,45a213,213,0,0,0,33.9,14.82,104.38,104.38,0,0,1,18-1.5c22.46,0,40.67,6.48,40.67,14.48s-18.21,14.48-40.67,14.48c-14.05,0-26.43-2.54-33.74-6.4-4.37-2.31-6.92-5.09-6.92-8.08a6,6,0,0,1,1-3.26c-19-7.17-44.69-19.58-54-39.35-37.31-79.56,153.07-75.17,165.69-104.25S68.22,108,68.22,108A161.56,161.56,0,0,1,95.29,78.25S177.47,87,227.73,98.65,311.6,126,285.4,154.8Z" style="fill:#333"/><path id="Path_19" data-name="Path 19" d="M191.66,125A54.27,54.27,0,0,0,144,205.27l47.69,79.85,47.7-79.85A54.27,54.27,0,0,0,191.66,125Zm-.61,31.53h.61a23.21,23.21,0,1,1-.61,0Z" style="fill:#a81917"/></g></g></svg>