<svg
version="1"
x="0px"
y="0px"
width="30px"
height="30px"
enable-background="new 0 0 512 512"
xml:space="preserve"
 id="Layer_1" data-name="Layer 1" xmlns="http://www.w3.org/2000/svg" viewBox="0 0 384.4 504.6"><title>recovery</title><g id="Group_2" data-name="Group 2"><g id="Group_1" data-name="Group 1"><path id="Path_1" data-name="Path 1" d="M375,132.2C357,74.1,310.31,27,253.11,9.3,192.21-9.6,128.51.6,78.81,37.4A193,193,0,0,0,0,193a190.31,190.31,0,0,0,38.4,115.3l153.8,196.3,153.7-196,.2-.3C383.61,258.2,394.21,194,375,132.2Z" style="fill:#9fbb36"/></g></g><path d="M89,187.6H189a0,0,0,0,1,0,0v30a0,0,0,0,1,0,0H86a0,0,0,0,1,0,0v-27A3,3,0,0,1,89,187.6Z" style="fill:#fff"/><path d="M176.34,140.6h8.32a4.34,4.34,0,0,1,4.34,4.34V184.6a0,0,0,0,1,0,0H172a0,0,0,0,1,0,0V144.94A4.34,4.34,0,0,1,176.34,140.6Z" style="fill:#fff"/><path d="M312.27,218.93h-.21a1,1,0,0,1-1.06-1V207.6c0-4-.75-5.5-4.75-10.25s-32.5-14.25-37.75-15.5c-4.82-1.15-6.27-3.35-6.47-3.7a.86.86,0,0,0-.07-.1c-.89-1-15.45-18-23-26-7.75-8.25-9.5-6.5-9.5-6.5H198.75a4.67,4.67,0,0,0-4.71,3.34,1,1,0,0,0,0,.29v68.35a1,1,0,0,1-1,1H85.73A5.74,5.74,0,0,0,80,224.33v11.54a5.74,5.74,0,0,0,5.73,5.73H312.27a5.74,5.74,0,0,0,5.73-5.73V224.66A5.74,5.74,0,0,0,312.27,218.93Z" style="fill:#fff"/><path d="M170,183.67l0-13.39-44.83-34.94L170,151.9l0-7.19-58.39-20L106.75,121a4.46,4.46,0,0,0-5.67.16l-.08,0v.24s-.33.33-.49.53a4.43,4.43,0,0,0,.78,6.22l.71.07v7.45H96.25a3.79,3.79,0,0,0-1.93,1.75l-2.08,5.21a2.05,2.05,0,0,0,0,1.54l2.08,5.21c.32.79,1.93,1.29,1.93,1.29H97a2,2,0,0,0,2,2h1v.77a2,2,0,0,1-1.28,2,4.29,4.29,0,0,0-2,1.49A7,7,0,1,0,109,161.07a1.34,1.34,0,0,0-.55-1,2.05,2.05,0,0,0-3.43,1.54,2.31,2.31,0,0,1-.39,1.48A3,3,0,0,1,99,161.6a3,3,0,0,1,1.69-2.7,6.12,6.12,0,0,0,3.31-5.53v-.77h1a2,2,0,0,0,2-2h2.1a2.11,2.11,0,0,0,2-1.33l2.1-5.42a2,2,0,0,0,0-1.5l-2.1-5.42a2.11,2.11,0,0,0-2-1.33H104v-6.27Z" style="fill:#fff"/><path d="M256.47,182.6h-48a4.49,4.49,0,0,1-4.5-4.5v-19a4.49,4.49,0,0,1,4.5-4.5h25.27Z"/><circle cx="130.5" cy="235.1" r="24.5"/><circle cx="130.5" cy="235.1" r="14.5" style="fill:#fff"/><circle cx="273.5" cy="235.1" r="24.5"/><circle cx="273.5" cy="235.1" r="14.5" style="fill:#fff"/></svg>