<svg
version="1"
x="0px"
y="0px"
width="30px"
height="30px"
enable-background="new 0 0 512 512"
xml:space="preserve" id="Layer_1" data-name="Layer 1" xmlns="http://www.w3.org/2000/svg" viewBox="0 0 384.4 504.6"><title>rentacar</title><g id="Group_2" data-name="Group 2"><g id="Group_1" data-name="Group 1"><path id="Path_1" data-name="Path 1" d="M375.27,132.2c-18-58.1-64.7-105.2-121.9-122.9C192.47-9.6,128.77.6,79.07,37.4A193,193,0,0,0,.27,193a190.31,190.31,0,0,0,38.4,115.3l153.8,196.3,153.7-196,.2-.3C383.87,258.2,394.47,194,375.27,132.2Z" style="fill:#4b89a5"/></g></g><path d="M106.77,171.25a62.93,62.93,0,0,0-31,16.66s-4,5.83-4.79,8.74,0,7.17,0,7.17-4.58,2.88-4.58,5.35V225.1l1.25,10.69s-1.25,9.58,3.75,10.41c3.62,3.28,2.08,4.58,2.92,7.91a16.64,16.64,0,0,0,11.21,11.44c6.87,2.29,15-.61,16.68-1.45s7.91-6.24,10.2-11.45c0,0,69.13,4.48,76,1,0,0,.84,13.74,11.25,17.08,0,0,18.22,10.4,28.73-9.8,3.53-10.61,3.74-14.35,3.74-14.35l45.39-7.92S280,250.36,292,250.36c12.3,0,14.53-18.75,14.48-21.86,0-3.47-1.19-7.69-.56-13.91a146.39,146.39,0,0,0,.05-24.81c-1.7-22.28-6.75-50.26-14.66-54.55-33-19.36-108.55-11.1-114.63-10.82-17.9.83-32.94,5.24-43.24,17.25C121.19,156,112.84,165.3,106.77,171.25Z" style="fill:#fff"/><path d="M266.82,138.18c-.74.19-.69.59.39,4.45,3.86,13.83,7,28.2,7,31.91v2l7.23-.3c4-.14,8.8-.39,10.75-.54l3.57-.29-.29-3c-1.42-14-5-26.68-8.65-30-1.71-1.61-6.16-3.47-9.68-4C274.05,137.84,268.43,137.74,266.82,138.18Z"/><path d="M243.6,139.35c-2.73,1.32-4.35,3.28-7.18,8.46l-2.35,4.3,1.13,8.26c1.07,7.62,1.22,8.26,2.15,8.26,1.81,0,2.1-.69,2.59-5.82.58-6.55.93-6.89,6.79-6.89,6.7,0,7.87,1.12,8.9,8.46,1.22,8.84.63,9.82-6.31,10.89-2.54.35-6.35.83-8.4,1-3.57.29-3.82.39-3.82,1.47,0,.88.3,1.17,1.13,1.17,2.15.05,21.16-1.07,22.77-1.27l1.66-.24-.29-5.72a106.58,106.58,0,0,0-1.32-11.59c-1-5.71-4.3-20.62-4.74-21.4-.1-.2-2.54-.34-5.42-.34C246.58,138.33,245.31,138.52,243.6,139.35Z"/><path d="M293.26,205.72a7.36,7.36,0,0,0-1.91,2.45c0,.34,1,.53,2.49.53,4.11,0,6.6.88,8.51,3a8,8,0,0,1,1.71,2.5c0,.29.1.44.24.29a10.67,10.67,0,0,0-.73-3.47c-1.37-4.4-3.91-7.18-6.6-7.18C295.51,203.82,294.77,204.16,293.26,205.72Z"/><path d="M215.35,206.7a17.51,17.51,0,0,0-4.15,3.22l-2.2,2.35,2.1-.34a22.4,22.4,0,0,1,10.31,1.66,15.52,15.52,0,0,1,6.55,7.33c2.4,5.57,2.35,5.52,2.11.15S228.55,211.78,226,209A9.19,9.19,0,0,0,215.35,206.7Z"/><path d="M296.63,217.74c-4.2,2.3-6.11,15.06-3.18,20.82,1.37,2.64,2.3,3.23,4.11,2.59,5.62-2,7.28-19.2,2.25-23.16C298.34,216.86,298.34,216.86,296.63,217.74Z"/><path d="M215.26,225.52c-4.5,3.81-7,15-5.38,24,2.74,15.1,12.27,15.35,15.79.34.58-2.39.73-4.93.58-9.62-.29-7.48-1.37-11.1-4.3-14.08C219.7,223.9,217.41,223.71,215.26,225.52Z"/><path d="M223.57,139.81c-16.66-4.16-88.15-1-89.11,1.05l-27.69,30.39q11.4,1,23.32,1.67a678,678,0,0,0,72.87,0s6.87,0,9.16-2.92,14.19-27.48,14.19-27.48S227.61,140.82,223.57,139.81Z"/><path d="M175.89,193.53c-12.07,5.44-27.69,5.2-37.63,5.62s-49-1.46-56.47-2.5-6-8.74-6-8.74-4.41,5.92-5.46,10a15.15,15.15,0,0,0-.1,2.51c.79,3.44,1.27,4.82,14.31,7,10,1.69,34.26,2.28,58.29,2.91,18.83.49,36.47-.84,42.68-1.22,13.11-.79,14.16-9,14.57-15.61S188,188.08,175.89,193.53Z"/><path d="M66.38,225.1l1.25,10.69s5.8,5.78,26.41,6.84c30.74,1.59,74.37,5.26,80.32,0,3.74-3.31,5.55-5.4,5.15-7.6s-.2-1.61-5-1.41-60.29-2.69-72.4-2.69C86.29,230.93,68.08,227.29,66.38,225.1Z" style="fill:#070806"/></svg>