<svg
  version="{1.0}"
  id="Capa_1"
  xmlns="http://www.w3.org/2000/svg"
  xmlnsxlink="http://www.w3.org/1999/xlink"
  x="0px"
  y="0px"
  width="30px"
  height="30px"
  viewBox="0 0 512 512"
  enablebackground="new 0 0 512 512"
  xmlspace="preserve"
>
  <g>
    <g>
      <g>
        <g>
          <path
            fill="#EE5F29"
            d="M441.2,134.4C423,75.5,375.6,27.8,317.7,9.9C256-9.2,191.6,1.1,141.2,38.4c-24.2,17.8-44.2,41.3-58,68 c-14.2,27.5-21.8,58.6-21.8,89.7c0,42.5,13.4,82.8,38.8,116.7L256,511.5L411.6,313l0.2-0.3C449.9,262,460.6,197,441.2,134.4z"
          ></path>
        </g>
      </g>
    </g>
    <g>
      <g>
        <path
          fill="#FFFFFF"
          d="M234.1,106.1c-5.6-5.2-12.2-8.4-20.1-7.9c-7.4,0.5-13.5,4-18.5,9.2c-9.5,9.6-14.8,21.2-17,34.4 c-2.8,17,6.5,33.9,22.3,40.5c1.9,0.8,2.2,1.7,2.2,3.5c0,36.8,0,73.7,0,110.6c0,1.2,0,2.4,0.1,3.5c0.6,5,3.4,8.4,8,10.3 c0.7,0.3,1.4,0.5,2.1,0.8c1.5,0,3,0,4.6,0c8.4-3.6,10.2-6.4,10.2-15.7c0-20.3,0-40.6,0-60.9c0-16.2,0-32.4,0-48.6 c0-1.8,0.4-2.7,2.2-3.5c2.9-1.2,5.7-2.8,8.2-4.8c11.5-9.2,16.2-21.3,14-35.9C250.2,127.8,244.4,115.7,234.1,106.1z"
        ></path>
        <path
          fill="#FFFFFF"
          d="M334,105.1c0-0.7-0.1-1.5-0.2-2.3c-0.6-2.7-3.2-4.7-6.1-4.7c-2.9,0-5.5,2.2-6,5.1c-0.2,1-0.2,1.9-0.2,2.9 c0,13.1,0,26.2,0,39.3c0,0.8,0,1.6,0,2.5c-4.3,0-8.3,0-12.5,0c0-1,0-1.8,0-2.7c0-13,0-26.1,0-39.1c0-1,0-2-0.2-2.9 c-0.5-2.8-2.9-4.9-5.8-5.1c-2.7-0.1-5.4,1.7-6.2,4.3c-0.3,1.1-0.3,2.3-0.3,3.5c0,13.2,0,26.3,0,39.5c0,0.8,0,1.6,0,2.5 c-4.2,0-8.2,0-12.5,0c0-0.9,0-1.7,0-2.5c0-13.4,0-26.7,0-40.1c0-4.3-2.5-7.1-6.2-7.2c-3.8,0-6.3,2.8-6.3,7.2c0,0.5,0,1,0,1.5 c0,16.2,0,32.4,0,48.6c0,4.2,0,8.4,0.1,12.7c0.2,5,2.4,9.1,6.1,12.6c3.5,3.2,7.7,4.6,12.5,4.9c0,1,0,2,0,3c0,36,0,71.9,0,107.9 c0,1.1,0,2.2,0.1,3.3c0.5,5.1,3.3,8.5,8,10.5c0.7,0.3,1.4,0.5,2.1,0.8c1.5,0,3,0,4.6,0c0.1-0.1,0.2-0.2,0.3-0.2 c7-2.3,9.9-6.3,9.9-13.7c0-36.3,0-72.5,0-108.7c0-0.9,0-1.9,0-2.6c1.9-0.3,3.4-0.5,4.9-0.9c8.3-2.2,13.8-9.4,13.8-18.5 C334,145.8,334,125.4,334,105.1z"
        ></path>
      </g>
    </g>
  </g>
</svg>
