<svg
  version="1"
  id="Capa_1"
  xmlns="http://www.w3.org/2000/svg"
  xmlns:xlink="http://www.w3.org/1999/xlink"
  x="0px"
  y="0px"
  width="30px"
  height="30px"
  viewBox="0 0 512 512"
  enable-background="new 0 0 512 512"
  xml:space="preserve"
>
  <g>
    <g>
      <g>
        <g>
          <path
            fill="#D5B573"
            d="M441.2,134.4C423,75.5,375.6,27.8,317.7,9.9C256-9.2,191.6,1.1,141.2,38.4c-24.2,17.8-44.2,41.3-58,68 c-14.2,27.5-21.8,58.6-21.8,89.7c0,42.5,13.4,82.8,38.8,116.7L256,511.5L411.6,313l0.2-0.3C449.9,262,460.6,197,441.2,134.4z"
          ></path>
        </g>
      </g>
    </g>
    <g>
      <g>
        <path
          fill="#FFFFFF"
          d="M384.3,225.7c-14.8-4.1-29.6-8.3-44.3-12.7c-4.8-1.4-9.6-2.1-14.7-2.1c-19.7,0.2-39.4,0.1-59,0.1 c-6.7,0-9.7-3-9.7-9.6c0-10.4,0-20.8,0-31.3c0-6.5,3.1-9.6,9.7-9.6c9.1,0,18.2,0,27.2,0c0.9,0,1.7-0.1,2.9-0.2 c-0.8-0.9-1.3-1.4-1.9-2c-4.8-4.8-9.7-9.5-14.3-14.4c-2.6-2.7-5.6-3.8-9.3-3.8c-47.2,0.1-94.3,0.1-141.6,0c-5,0-8.4,1.6-10.2,6.4 c0,38.5,0,76.9,0,115.4c1.4,3.3,4.1,5.1,7.4,6.4c9.2,3.5,18.3,7.3,27.8,11.1c2.5-13.8,9.6-24.3,21.7-31c8.3-4.6,17.3-6,26.6-4.5 c17.7,2.9,34.2,17.9,35.1,41c14.9,0,29.8,0,44.7,0c0.8-26.4,23-42.2,43.1-41.6c20.6,0.6,40.2,16.9,41,41.6 c6.6,0,13.1,0.2,19.7-0.1c3.3-0.2,5-2.9,6.4-5.7c0-15.7,0-31.4,0-47C391.2,228.4,388.1,226.8,384.3,225.7z M228.8,211 c-11,0-21.9,0-32.8,0c-11,0-21.9,0-32.8,0c-6.6,0-9.6-3-9.6-9.7c0-10.4,0-20.8,0-31.2c0-6.4,3.2-9.5,9.6-9.5 c21.9,0,43.8,0,65.7,0c6.4,0,9.6,3.2,9.6,9.5c0,10.5,0,21,0,31.5C238.4,208,235.3,211,228.8,211z"
        ></path>
        <path
          fill="#FFFFFF"
          d="M136.8,114.1c5.9,0,11.8,0.1,17.6-0.1c1.7-0.1,2.6,0.4,3.3,2c1,2.4,2.2,4.6,3.4,6.9 c0.3,0.6,1.1,1.3,1.7,1.3c5.5,0.1,11,0.1,16.9,0.1c-1.8-3.6-3.3-6.8-5-10.3c18.1,0,35.7,0.2,53.4-0.2c4.6-0.1,7.4,1,8.6,5.4 c1.1,4.2,3.8,5.5,8.1,5c3.9-0.4,7.9-0.1,12.2-0.1c-1.8-3.6-3.3-6.7-5.1-10.3c7.1,0,13.8,0,20.5,0c5.2,0,8.8-3.2,8.9-8 c0.1-4.8-3.5-8.1-9-8.1c-45.1,0-90.3,0-135.4,0c-5.3,0-9,3.4-9,8.1C128,110.8,131.6,114.1,136.8,114.1z"
        ></path>
        <path
          fill="#FFFFFF"
          d="M275.3,176.7c-0.9,0-1.7,0-2.5,0c0,6.4,0,12.2,0,18.2c19.3,0,38.4,0,58.2,0c-5.9-5.9-11.2-11.3-16.7-16.5 c-1-0.9-2.6-1.6-3.9-1.6C298.8,176.6,287,176.7,275.3,176.7z"
        ></path>
        <path
          fill="#FFFFFF"
          d="M195.4,259.5c-13.9,0.3-25.4,12.1-25.2,26c0.2,14.3,12,25.7,26.1,25.5c14.2-0.3,25.6-11.9,25.4-25.9 C221.5,270.6,209.7,259.1,195.4,259.5z"
        ></path>
        <path
          fill="#FFFFFF"
          d="M324.6,259.5c-14,0.1-25.6,11.6-25.7,25.7c-0.1,14.2,11.6,25.9,25.9,25.8c14.2-0.1,25.6-11.5,25.7-25.6 C350.6,271.1,338.9,259.4,324.6,259.5z"
        ></path>
        <path
          fill="#FFFFFF"
          d="M169.7,194.8c17.6,0,35,0,52.4,0c0-6.1,0-12,0-17.8c-17.6,0-34.9,0-52.4,0 C169.7,183,169.7,188.8,169.7,194.8z"
        ></path>
      </g>
    </g>
  </g>
</svg>
