<svg
  version="1"
  id="Capa_1"
  xmlns="http://www.w3.org/2000/svg"
  xmlns:xlink="http://www.w3.org/1999/xlink"
  x="0px"
  y="0px"
  width="30px"
  height="30px"
  viewBox="0 0 512 512"
  enable-background="new 0 0 512 512"
  xml:space="preserve"
>
  <g>
    <g>
      <g>
        <g>
          <path
            fill="#C3C031"
            d="M440.9,134.7C422.7,75.9,375.3,28.1,317.4,10.2C255.6-8.9,191.3,1.5,140.8,38.7 c-24.2,17.8-44.2,41.3-58,68C68.6,134.2,61,165.2,61,196.3c0,42.5,13.4,82.8,38.8,116.7l155.8,198.8l155.6-198.5l0.2-0.3 C449.6,262.3,460.3,197.3,440.9,134.7z"
          ></path>
        </g>
      </g>
    </g>
    <path
      fill="#FFFFFF"
      d="M367.3,126.7c-55.8,0.1-111.7,0-167.5,0c-0.9,0-1.9,0-3,0c-1.3-6-2.6-11.8-4-17.7c-0.3-1.5-0.6-3.1-1-4.6 c-0.9-3.7-3.5-6-7.2-6c-14.3-0.1-28.7,0-43.1,0c-3.6,0-5.5,2.4-7,5.2c0,1.3,0,2.5,0,3.8c1.9,4.1,5.2,5.3,9.6,5.3 c10.7-0.2,21.4,0,32.2,0c0.9,0,1.7,0,2.7,0c8.5,38.4,17,76.7,25.5,114.7c-2.7,2.3-5.5,4.1-7.6,6.5c-5.6,6.6-6.7,14.2-3.2,22.1 c3.7,8.3,10.6,12.4,19.6,12.7c3.5,0.1,7.1,0,10.6,0.1c-13.5,3.1-18.9,14.4-17.7,23.5c1.4,11.1,10.4,19.1,21.2,19 c11.1-0.1,19.9-8.2,21.1-19.7c0.9-9.4-5-20-18.3-22.8c31.6,0,62.6,0,93.6,0c-5.8,1.3-10.6,4.1-14,9c-3.5,5-4.5,10.5-3.5,16.4 c1.8,9.8,11.6,17.6,21.5,17c11.3-0.7,19.6-8.8,20.5-20.3c0.8-10.3-7-19.9-17.8-22.3c3.5,0,6.9,0,10.4,0c5.4-0.1,8.9-4.9,7-9.7 c-1.1-2.7-3.2-4.2-6.2-4.4c-0.9-0.1-1.8,0-2.6,0c-41.2,0-82.3,0-123.4,0c-0.6,0-1.3,0-1.9,0c-4.6,0-7.8-3-7.8-7.1 c0-4.1,3.2-7.1,7.9-7.1c41.6,0,83.3,0,124.9,0c6.6,0,8.3-1.3,10.2-7.8c9-31.6,18-63.1,27-94.7c0.2-0.7,0.6-1.4,0.9-2.1 c0-1.3,0-2.5,0-3.8C374.9,127.9,371.7,126.7,367.3,126.7z"
    ></path>
  </g>
</svg>
