<svg
  version="1"
  id="Capa_1"
  xmlns="http://www.w3.org/2000/svg"
  xmlns:xlink="http://www.w3.org/1999/xlink"
  x="0px"
  y="0px"
  width="30px"
  height="30px"
  viewBox="0 0 512 512"
  enable-background="new 0 0 512 512"
  xml:space="preserve"
>
  <g>
    <g>
      <g>
        <g>
          <path
            fill="#61B35E"
            d="M441.2,134.4C423,75.5,375.6,27.8,317.7,9.9C256-9.2,191.6,1.1,141.2,38.4c-24.2,17.8-44.2,41.3-58,68 c-14.2,27.5-21.8,58.6-21.8,89.7c0,42.5,13.4,82.8,38.8,116.7L256,511.5L411.6,313l0.2-0.3C449.9,262,460.6,197,441.2,134.4z"
          ></path>
        </g>
      </g>
    </g>
    <g>
      <g>
        <path
          fill="#FFFFFF"
          d="M141.3,262.1c0-3.1,0-6.3,0-9.4c0.1-0.4,0.3-0.7,0.4-1.1c0.9-8.3,3.9-15.9,8.1-23 c8.9-15.3,17.7-30.7,26.6-46.1c11.6-20,22.6-40.3,34.8-59.9c11.8-18.9,29.9-26.7,51.9-24.1c17.4,2.1,30.5,11.3,39.3,26.5 c20.4,35.2,40.6,70.3,60.9,105.6c6.2,10.7,8.6,22.2,6.7,34.4c-4.1,26.7-26.1,45.7-53.1,45.8c-40.7,0.1-81.3,0.1-122,0 c-24-0.1-44.2-15.1-51.2-38.1C142.6,269.3,142.1,265.7,141.3,262.1z M233.7,262c6,6.6,13.3,10.3,22.3,10.2 c8.9,0,16.3-3.6,22.2-10.3c9.9,10.1,21.4,13.3,34.3,7.6c11-4.9,17.1-13.9,17.1-25.9c0-15.8-8.9-25.3-23.9-29.4 c2.8-8.5,2.1-16.7-2.3-24.4s-11.3-12.2-20-14.1c4.8-15.1-1.8-27.3-10.3-33.5c-9.7-7-22.7-7.4-32.8-0.9 c-11.2,7.2-15.1,18.5-11.8,34.5c-8.6,1.9-15.4,6.4-19.9,14.2c-4.5,7.7-5.1,15.9-2.3,24.4c-14.5,3.9-23.2,13-23.9,28.1 c-0.5,12,5.1,21.4,15.9,26.6C211.5,275.5,223.4,272.3,233.7,262z"
        ></path>
        <path
          fill="#FFFFFF"
          d="M256,227.6c8.6,0,15.5,6.9,15.5,15.5c0,8.6-7,15.5-15.5,15.5c-8.6,0-15.5-7-15.5-15.5 C240.4,234.5,247.4,227.6,256,227.6z"
        ></path>
        <path
          fill="#FFFFFF"
          d="M256,181.2c-8.6,0-15.6-6.9-15.6-15.4c0-8.6,6.9-15.6,15.4-15.6c8.6,0,15.5,6.9,15.6,15.4 C271.7,174.1,264.6,181.2,256,181.2z"
        ></path>
        <path
          fill="#FFFFFF"
          d="M293.8,204.6c-0.2,8.6-7.3,15.5-15.8,15.3c-8.5-0.2-15.4-7.3-15.3-15.8c0.1-8.5,7.4-15.5,15.8-15.3 C287.1,189.1,294,196.1,293.8,204.6z"
        ></path>
        <path
          fill="#FFFFFF"
          d="M195.8,243.1c0-8.6,6.8-15.5,15.4-15.5c8.7,0,15.6,6.9,15.6,15.6c0,8.6-7,15.4-15.5,15.4 C202.7,258.6,195.9,251.7,195.8,243.1z"
        ></path>
        <path
          fill="#FFFFFF"
          d="M316.1,243.1c0,8.6-6.9,15.5-15.5,15.5c-8.6,0-15.5-7-15.5-15.5s6.9-15.5,15.5-15.5 C309.2,227.6,316.1,234.5,316.1,243.1z"
        ></path>
        <path
          fill="#FFFFFF"
          d="M218.1,204.1c0.2-8.6,7.4-15.6,15.8-15.3c8.6,0.3,15.5,7.4,15.3,15.8c-0.2,8.6-7.3,15.5-15.8,15.3 C224.9,219.8,218,212.6,218.1,204.1z"
        ></path>
      </g>
    </g>
  </g>
</svg>
