<svg
  version="1"
  id="Capa_1"
  xmlns="http://www.w3.org/2000/svg"
  xmlns:xlink="http://www.w3.org/1999/xlink"
  x="0px"
  y="0px"
  width="30px"
  height="30px"
  viewBox="0 0 512 512"
  enable-background="new 0 0 512 512"
  xml:space="preserve"
>
  <g>
    <g>
      <g>
        <g>
          <path
            fill="#22C1DF"
            d="M441.2,134.4C423,75.5,375.6,27.8,317.7,9.9C256-9.2,191.6,1.1,141.2,38.4c-24.2,17.8-44.2,41.3-58,68 c-14.2,27.5-21.8,58.6-21.8,89.7c0,42.5,13.4,82.8,38.8,116.7L256,511.5L411.6,313l0.2-0.3C449.9,262,460.6,197,441.2,134.4z"
          ></path>
        </g>
      </g>
    </g>
    <g>
      <g>
        <path
          fill="#FFFFFF"
          d="M310.1,311c-1.4-0.4-2.8-0.7-4.2-1.2c-12-3.9-19.3-16.1-16.9-28.4c2.4-12.4,13.6-21,26.1-20.3 c12.3,0.8,22.6,10.9,23.2,22.8c0.7,13.4-7.7,24.4-20.5,26.7c-0.4,0.1-0.8,0.2-1.2,0.4C314.5,311,312.3,311,310.1,311z"
        ></path>
        <path
          fill="#FFFFFF"
          d="M195.7,311c-4.5-1-8.8-2.4-12.4-5.4c-8.8-6.9-11.9-18.7-7.7-29c4.2-10.3,14.8-16.7,25.5-15.4 c11.4,1.3,20.3,9.6,22.1,20.8c2.2,13.3-6.6,26-20,28.6c-0.5,0.1-0.9,0.3-1.3,0.4C199.9,311,197.8,311,195.7,311z"
        ></path>
        <path
          fill="#FFFFFF"
          d="M272.7,219.9c19.7-12.4,19-37.7,5.8-50.5c-12.8-12.4-33.4-12.1-45.7,0.9c-12.8,13.4-12.1,37.6,6.7,49.7 c-6.1-1.3-11.5-3.2-16.7-5.9c-16.4-8.5-28.4-21-32.8-39.2c-5.4-22.3,1.6-41.1,18.5-56.1c15.4-13.7,33.9-18.8,54.4-17.1 c16.9,1.4,31.7,7.8,43.7,19.8c25.7,25.6,22.2,65-7.6,86.6c-7.6,5.5-16,9.4-25.1,11.6C273.5,219.7,273.2,219.8,272.7,219.9z M241.1,151.9c0-3.5-2.7-6.2-6.2-6.2c-3.4,0-6.2,2.8-6.2,6.2c0,3.3,2.9,6.2,6.3,6.2C238.2,158.2,241.1,155.3,241.1,151.9z M281,151.9c0-3.5-2.7-6.2-6.2-6.2c-3.4,0-6.2,2.8-6.2,6.2c0,3.3,2.9,6.2,6.3,6.2C278.2,158.2,281,155.3,281,151.9z"
        ></path>
        <path
          fill="#FFFFFF"
          d="M198.7,212.5c16.3,14.5,35.5,21.7,57.2,21.7c21.7,0,41-7.2,57.8-22.1c1.1,3.9,2.4,7.4,3.2,11.1 c1.7,7.8,1.5,15.7-0.3,23.5c-0.4,1.5-1,1.9-2.5,1.9c-17.8-0.2-33,11.6-37,28.9c-0.7,3.1-0.8,6.4-1,9.7c-0.1,1.2-0.3,1.8-1.5,2.2 c-12.4,3.5-24.7,3.5-37.1,0c-1.4-0.4-1.4-1.1-1.4-2.2c0.2-19-12.1-34.3-30.6-38c-2.6-0.5-5.4-0.4-8.1-0.7 c-0.6-0.1-1.5-0.6-1.7-1.2c-3-11.8-2.1-23.3,2.6-34.6C198.3,212.7,198.5,212.7,198.7,212.5z"
        ></path>
        <path
          fill="#FFFFFF"
          d="M247.3,174.9c1.2,4.5,4,7.3,8.6,7.3c4.8,0.1,7.6-2.7,8.9-7.2c7,2.6,11.9,11.9,10.6,19.8 c-1.6,9.8-9.1,16.6-18.9,17c-8.9,0.4-17.2-5.9-19.4-14.8C234.8,188.3,239.1,178.8,247.3,174.9z"
        ></path>
        <path
          fill="#FFFFFF"
          d="M166.3,267.2c-10.6-24-2.9-53.6,18.7-71.7c1.4,2,2.8,4,4.1,6.2c0.2,0.4,0,1.3-0.2,1.8 c-5.4,10.6-7.9,21.8-7.2,33.7c0.2,4.3,1.2,8.6,1.8,12.9c0.1,0.6-0.2,1.7-0.7,2C175.8,255.5,170.4,260.5,166.3,267.2z"
        ></path>
        <path
          fill="#FFFFFF"
          d="M327.1,195.4c22.4,19.7,28.8,48.2,18.8,71.5c-0.4-0.5-0.7-0.8-1-1.3c-3.8-5.8-8.8-10.3-15.1-13.3 c-1.2-0.6-1.5-1.1-1.2-2.5c3.7-15.9,2-31.2-5.2-45.8c-0.6-1.2-0.8-2.2,0.2-3.3c0.7-0.7,1.2-1.7,1.8-2.5 C325.9,197.3,326.4,196.4,327.1,195.4z"
        ></path>
        <path
          fill="#FFFFFF"
          d="M179.7,138.8c-6.4-6.5-9.1-20.3-0.7-31.2c7.4-9.5,21.7-12.5,31.8-6.2 C196.4,110.6,185.8,122.7,179.7,138.8z"
        ></path>
        <path
          fill="#FFFFFF"
          d="M331.9,137.8c-6.2-15.8-16.9-27.7-31.2-36.7c7.4-4.9,21.7-4.7,30.6,5.8 C340.2,117.5,337.8,131.6,331.9,137.8z"
        ></path>
      </g>
    </g>
  </g>
</svg>
