<svg id="svg" version="1.1" xmlns="http://www.w3.org/2000/svg" xmlns:xlink="http://www.w3.org/1999/xlink" width="400" height="400" viewBox="0, 0, 400,400"><g id="svgg"><path id="path0" d="M105.152 79.020 C 104.580 79.872,103.758 80.532,103.095 80.671 C 101.612 80.981,101.243 82.475,102.208 84.266 C 103.451 86.575,103.478 86.581,112.561 86.843 C 122.701 87.135,123.546 87.372,124.811 90.274 C 126.770 94.768,126.662 94.699,131.800 94.755 C 136.549 94.806,136.916 94.651,136.187 92.908 C 133.776 87.136,135.753 86.684,162.600 86.868 C 184.185 87.016,183.599 86.934,184.961 90.021 C 185.328 90.852,186.342 92.268,187.214 93.166 L 188.799 94.800 192.100 94.796 C 196.948 94.789,198.662 94.459,197.624 93.731 C 196.151 92.700,195.362 90.461,196.043 89.245 C 197.022 87.498,199.028 87.081,207.668 86.829 C 211.995 86.703,215.617 86.510,215.717 86.400 C 215.817 86.290,216.201 85.606,216.570 84.879 C 216.940 84.153,217.502 83.459,217.821 83.337 C 218.905 82.921,218.379 81.803,216.587 80.715 C 215.604 80.119,214.800 79.360,214.800 79.029 C 214.800 77.625,213.819 77.600,159.678 77.600 L 106.103 77.600 105.152 79.020 M100.200 112.366 C 95.268 113.019,95.605 109.578,95.602 159.284 C 95.600 209.110,95.348 205.828,99.280 207.261 C 100.550 207.724,102.127 208.617,102.784 209.245 C 103.550 209.977,104.593 210.477,105.690 210.637 C 109.961 211.260,112.755 212.482,113.250 213.943 C 113.761 215.450,119.600 214.978,119.600 213.430 C 119.600 212.543,120.275 211.250,121.390 210.000 C 121.881 209.450,122.508 208.162,122.783 207.138 C 123.413 204.791,124.608 202.800,125.386 202.800 C 125.715 202.800,126.393 201.945,126.892 200.900 C 127.590 199.439,128.100 198.912,129.100 198.617 C 129.923 198.375,130.400 197.979,130.400 197.538 C 130.400 196.697,132.569 195.007,134.117 194.641 C 134.732 194.495,135.350 194.067,135.492 193.688 C 136.063 192.167,137.890 191.287,141.585 190.753 C 143.206 190.519,144.486 190.083,145.015 189.586 C 147.689 187.073,158.905 187.059,160.661 189.566 C 161.013 190.068,161.922 190.394,163.489 190.581 C 167.099 191.011,168.746 191.633,169.969 193.026 C 170.592 193.735,171.663 194.438,172.350 194.589 C 173.038 194.740,173.600 195.029,173.600 195.232 C 173.600 195.434,173.825 195.606,174.100 195.613 C 174.770 195.631,176.177 196.839,176.495 197.669 C 176.636 198.037,177.543 198.935,178.510 199.664 C 179.854 200.677,180.524 201.608,181.346 203.605 C 182.026 205.259,182.746 206.363,183.304 206.610 C 184.248 207.027,185.556 210.965,185.585 213.474 C 185.608 215.403,186.135 216.419,188.197 218.500 L 190.079 220.400 204.159 220.400 L 218.239 220.400 218.683 219.100 C 218.927 218.385,219.243 216.900,219.386 215.800 C 219.702 213.361,220.583 211.344,221.563 210.820 C 221.998 210.587,222.399 209.769,222.555 208.793 C 222.949 206.327,224.266 203.852,225.605 203.061 C 226.262 202.672,226.800 202.050,226.800 201.677 C 226.801 200.675,228.440 198.967,229.700 198.656 C 230.421 198.478,230.800 198.122,230.800 197.621 C 230.800 196.695,232.359 195.408,234.225 194.792 C 234.981 194.542,235.600 194.196,235.600 194.024 C 235.600 192.626,238.648 191.244,243.200 190.579 C 244.190 190.434,245.360 189.991,245.800 189.595 C 248.590 187.083,259.121 187.059,261.225 189.561 C 261.651 190.067,262.672 190.397,264.425 190.597 C 267.234 190.916,271.064 192.546,271.390 193.561 C 271.503 193.913,272.451 194.546,273.498 194.970 C 275.337 195.715,277.200 197.247,277.200 198.016 C 277.200 198.221,277.901 198.832,278.758 199.373 C 279.824 200.046,280.603 200.994,281.229 202.378 C 281.731 203.490,282.288 204.400,282.466 204.400 C 283.266 204.400,284.929 207.788,285.436 210.452 C 285.748 212.090,286.317 213.693,286.753 214.166 C 287.175 214.625,287.763 215.725,288.060 216.612 C 288.357 217.499,288.983 218.748,289.452 219.390 L 290.303 220.555 296.208 220.054 C 305.146 219.294,304.400 221.256,304.400 198.508 L 304.400 182.328 302.554 180.167 C 300.498 177.760,299.945 177.537,294.221 176.806 C 290.336 176.310,290.445 176.348,288.400 174.772 C 287.430 174.024,286.325 173.620,284.800 173.458 C 278.700 172.808,277.019 172.388,275.444 171.122 C 273.990 169.954,273.478 169.819,267.842 169.116 C 264.519 168.701,260.540 167.977,259.000 167.507 C 256.314 166.688,255.183 166.642,231.200 166.387 C 195.660 166.010,198.845 168.098,198.818 145.160 C 198.798 128.469,198.946 127.442,201.498 126.632 C 201.972 126.482,202.463 126.053,202.590 125.680 C 203.291 123.611,204.297 123.416,215.513 123.167 C 226.846 122.915,228.087 122.673,225.303 121.252 C 224.316 120.749,223.463 119.919,223.060 119.071 C 222.687 118.284,221.910 117.494,221.234 117.214 C 219.858 116.644,218.940 115.701,218.741 114.654 C 218.646 114.150,217.820 113.635,216.200 113.068 C 213.767 112.217,106.239 111.566,100.200 112.366 M179.708 123.456 C 182.221 123.668,182.895 123.880,183.668 124.701 C 184.181 125.245,185.500 126.582,186.600 127.672 L 188.600 129.655 188.600 144.958 L 188.600 160.262 187.551 161.631 C 185.889 163.801,184.344 165.204,183.437 165.366 C 182.977 165.449,181.509 165.715,180.176 165.958 C 177.032 166.531,130.555 166.551,126.600 165.981 C 118.537 164.819,118.800 165.527,118.801 144.954 C 118.803 128.162,118.904 127.349,121.093 126.509 C 121.472 126.363,122.365 125.662,123.076 124.950 C 123.788 124.238,124.872 123.580,125.485 123.488 C 127.334 123.209,176.447 123.180,179.708 123.456 M135.700 141.337 L 134.000 141.754 134.000 146.022 L 134.000 150.291 135.856 150.546 C 138.225 150.870,169.724 150.881,170.567 150.557 C 171.408 150.235,171.472 142.592,170.643 141.500 C 170.017 140.675,138.989 140.530,135.700 141.337 M216.700 141.429 C 215.609 142.020,215.600 142.061,215.600 146.163 L 215.600 150.300 216.850 150.550 C 218.686 150.917,253.260 150.800,254.200 150.423 C 254.898 150.143,254.782 150.007,253.285 149.351 C 252.042 148.807,251.396 148.204,250.936 147.162 C 250.499 146.172,249.887 145.575,248.971 145.244 C 248.036 144.906,247.444 144.315,246.975 143.252 C 246.366 141.872,246.111 141.700,244.030 141.271 C 240.428 140.527,218.125 140.656,216.700 141.429 M149.835 205.290 C 145.875 205.608,145.867 205.611,144.396 207.204 C 143.586 208.082,142.711 208.800,142.451 208.800 C 141.394 208.800,137.230 213.631,136.995 215.130 C 136.869 215.938,136.503 217.770,136.182 219.200 C 135.285 223.195,135.441 224.571,137.800 233.460 C 137.932 233.957,138.477 234.433,139.090 234.587 C 140.261 234.881,141.036 235.681,141.624 237.200 C 141.953 238.053,142.494 238.308,145.305 238.938 C 147.117 239.343,149.050 239.834,149.600 240.028 C 151.071 240.546,154.344 240.557,156.400 240.049 C 157.390 239.805,159.370 239.335,160.799 239.004 C 162.229 238.674,163.471 238.188,163.559 237.924 C 163.646 237.661,164.187 237.018,164.759 236.495 C 165.332 235.972,166.128 235.242,166.529 234.872 C 166.929 234.502,167.522 233.641,167.847 232.958 C 168.171 232.275,168.875 231.481,169.412 231.194 C 170.726 230.491,170.899 229.267,170.737 221.872 L 170.600 215.660 168.903 214.094 C 167.845 213.118,167.107 212.033,166.943 211.215 C 166.727 210.135,166.354 209.759,164.840 209.095 C 163.828 208.651,162.946 208.149,162.879 207.981 C 161.942 205.604,157.449 204.677,149.835 205.290 M253.400 205.019 C 253.180 205.086,251.438 205.260,249.529 205.404 C 246.135 205.661,246.036 205.698,245.129 207.041 C 244.589 207.841,243.698 208.548,243.000 208.733 C 242.227 208.937,241.387 209.664,240.637 210.779 C 239.998 211.730,239.154 212.591,238.763 212.694 C 235.147 213.639,236.205 234.400,239.869 234.400 C 240.266 234.400,241.593 235.849,241.613 236.305 C 241.683 237.852,249.208 240.448,253.743 240.489 C 256.613 240.514,264.329 238.455,264.603 237.590 C 264.734 237.178,265.153 236.742,265.534 236.621 C 265.915 236.500,266.543 235.866,266.929 235.213 C 267.315 234.559,268.271 233.346,269.052 232.517 C 271.165 230.277,271.204 230.120,271.225 223.827 C 271.244 218.057,270.629 213.613,269.809 213.587 C 269.041 213.562,267.725 212.174,267.342 210.986 C 267.067 210.134,266.426 209.542,265.065 208.885 C 264.022 208.382,262.974 207.541,262.734 207.016 C 262.249 205.951,261.630 205.730,258.183 205.394 C 256.872 205.266,255.350 205.102,254.800 205.029 C 254.250 204.955,253.620 204.951,253.400 205.019 " stroke="none" fill="#fbfbf9" fill-rule="evenodd"></path><path id="path1" d="M104.733 76.196 C 101.076 77.541,99.212 80.803,99.982 84.511 C 100.802 88.463,103.751 89.600,113.178 89.600 C 120.713 89.600,121.753 89.960,123.521 93.175 C 125.304 96.418,126.332 96.985,131.339 97.488 C 137.235 98.080,139.666 96.715,139.923 92.666 C 140.135 89.340,137.952 89.674,160.400 89.534 C 182.572 89.396,181.456 89.229,183.731 93.013 C 185.914 96.642,188.596 97.803,194.121 97.514 C 199.797 97.217,201.547 95.132,199.807 90.740 C 199.386 89.678,201.547 89.277,208.643 89.100 C 217.576 88.878,219.671 87.820,220.288 83.218 C 220.664 80.417,217.872 77.007,214.465 76.108 C 211.605 75.353,106.797 75.437,104.733 76.196 M215.101 77.115 C 218.429 79.016,219.788 81.429,219.020 84.073 C 218.381 86.272,218.225 86.414,214.800 87.931 C 214.231 88.183,210.785 88.422,206.800 88.487 C 199.475 88.605,196.861 89.228,197.988 90.585 C 200.891 94.083,199.443 96.152,193.962 96.339 C 188.540 96.524,186.613 95.714,184.602 92.403 C 182.063 88.223,184.414 88.600,160.858 88.600 C 136.104 88.600,136.912 88.469,138.427 92.229 C 139.598 95.136,137.757 96.400,132.353 96.400 C 127.696 96.400,125.134 95.386,124.620 93.338 C 123.593 89.247,122.443 88.755,113.400 88.538 C 103.220 88.294,101.409 87.671,100.759 84.192 C 100.151 80.935,103.035 77.042,106.321 76.685 C 110.646 76.216,214.243 76.625,215.101 77.115 M99.508 108.752 C 98.145 108.979,96.459 110.163,93.335 113.088 L 92.387 113.977 92.493 159.569 L 92.600 205.162 94.084 206.681 C 94.900 207.517,96.250 208.559,97.084 208.997 C 97.918 209.434,98.690 209.900,98.800 210.031 C 99.479 210.841,102.902 212.381,104.559 212.623 C 106.619 212.923,107.451 213.269,109.406 214.635 C 110.884 215.668,111.573 215.936,114.600 216.657 C 115.920 216.971,117.360 217.324,117.800 217.441 C 119.795 217.974,122.948 214.387,124.164 210.200 C 125.120 206.908,125.598 206.002,127.058 204.707 C 127.749 204.093,128.426 203.151,128.561 202.613 C 128.697 202.071,129.610 201.081,130.603 200.398 C 131.592 199.718,132.400 198.997,132.400 198.796 C 132.400 198.177,134.023 196.881,135.140 196.608 C 135.723 196.466,136.830 195.861,137.600 195.263 C 140.893 192.708,142.052 192.375,150.200 191.649 C 157.070 191.037,165.447 192.480,167.800 194.680 C 168.240 195.092,169.380 195.812,170.334 196.281 C 173.366 197.771,178.818 203.440,180.186 206.524 C 180.692 207.666,181.459 208.917,181.891 209.305 C 182.667 210.004,183.032 211.266,184.211 217.328 C 185.459 223.753,184.993 223.603,203.749 223.587 C 217.229 223.575,218.676 223.510,219.427 222.882 C 220.179 222.252,222.353 216.861,223.895 211.800 C 224.980 208.241,225.308 207.546,226.686 205.897 C 227.432 205.005,228.287 203.687,228.587 202.968 C 228.888 202.250,229.643 201.335,230.267 200.935 C 230.890 200.536,232.080 199.460,232.911 198.545 C 233.743 197.630,234.895 196.763,235.472 196.618 C 236.048 196.473,237.618 195.582,238.960 194.638 C 241.214 193.053,241.735 192.873,245.800 192.281 C 253.742 191.125,254.127 191.128,262.600 192.416 C 265.311 192.828,266.167 193.163,268.200 194.602 C 269.520 195.537,271.021 196.431,271.535 196.589 C 272.960 197.027,278.686 202.712,279.597 204.595 C 280.041 205.511,281.017 206.977,281.767 207.854 C 283.104 209.415,283.478 210.574,284.394 216.000 C 284.896 218.972,285.631 220.521,287.291 222.100 L 288.867 223.600 295.478 223.600 L 302.090 223.600 304.845 220.928 L 307.600 218.257 307.600 199.919 L 307.600 181.582 305.900 179.702 C 304.965 178.668,303.930 177.531,303.600 177.175 C 303.270 176.819,302.100 176.306,301.000 176.035 C 297.086 175.071,294.611 174.261,293.411 173.554 C 292.742 173.159,290.666 172.552,288.797 172.205 C 286.929 171.857,284.847 171.399,284.172 171.187 C 283.496 170.974,282.685 170.800,282.368 170.800 C 282.052 170.800,280.957 170.355,279.934 169.810 C 277.998 168.780,275.738 168.148,272.000 167.593 C 268.605 167.090,266.338 166.464,264.733 165.587 C 262.325 164.272,256.933 164.021,230.794 164.010 C 197.808 163.996,200.673 165.888,200.876 144.254 C 201.010 129.902,201.106 129.265,203.233 128.589 C 203.703 128.440,204.530 127.932,205.071 127.459 C 206.594 126.128,208.312 125.900,218.172 125.723 C 228.434 125.537,228.800 125.429,228.800 122.567 C 228.800 121.138,228.474 120.701,226.291 119.206 C 225.493 118.659,224.742 117.849,224.624 117.406 C 224.505 116.963,223.628 116.081,222.676 115.447 C 221.723 114.812,220.776 113.912,220.572 113.447 C 220.367 112.981,219.184 112.060,217.942 111.400 C 216.699 110.740,215.286 109.840,214.800 109.400 C 213.914 108.598,104.147 107.981,99.508 108.752 M216.059 111.469 C 218.369 112.584,219.744 113.515,220.197 114.269 C 220.570 114.891,221.583 115.897,222.448 116.503 C 223.313 117.110,224.210 118.010,224.441 118.503 C 224.672 118.997,225.578 119.901,226.454 120.513 C 227.748 121.417,227.994 121.788,227.770 122.494 C 227.116 124.555,226.930 124.592,216.629 124.714 C 207.753 124.820,204.800 125.137,204.800 125.986 C 204.800 126.145,203.902 126.887,202.805 127.636 C 200.156 129.444,200.313 128.608,200.103 142.000 C 199.826 159.694,200.220 162.035,203.779 163.812 L 205.757 164.800 231.179 164.800 C 258.037 164.801,259.213 164.869,264.400 166.719 C 266.739 167.553,269.746 168.221,272.974 168.625 C 274.060 168.760,276.124 169.426,277.560 170.105 C 280.246 171.374,281.652 171.770,285.800 172.424 C 288.307 172.819,289.288 173.132,292.600 174.591 C 293.700 175.076,295.680 175.704,297.000 175.986 C 301.685 176.989,302.452 177.252,303.122 178.089 C 303.495 178.554,304.487 179.702,305.326 180.641 L 306.853 182.346 306.726 200.073 L 306.600 217.800 304.301 220.038 L 302.001 222.277 295.964 222.549 L 289.927 222.822 288.449 221.252 C 286.533 219.217,285.799 217.674,285.001 214.000 C 284.211 210.358,283.370 208.067,282.434 207.000 C 282.047 206.560,281.136 205.210,280.409 204.000 C 278.982 201.626,273.854 196.400,272.952 196.400 C 272.648 196.400,272.400 196.264,272.400 196.098 C 272.400 195.931,271.815 195.542,271.100 195.232 C 270.385 194.922,269.378 194.256,268.863 193.752 C 267.998 192.905,264.484 191.600,263.071 191.600 C 262.737 191.600,261.325 191.302,259.932 190.939 C 254.142 189.427,241.578 191.073,238.373 193.763 C 237.808 194.238,236.322 195.160,235.070 195.813 C 233.818 196.466,232.699 197.270,232.583 197.600 C 232.467 197.930,231.504 198.884,230.443 199.719 C 229.382 200.555,228.264 201.725,227.957 202.319 C 227.651 202.914,226.802 204.026,226.072 204.790 C 225.342 205.555,224.643 206.684,224.520 207.299 C 224.397 207.914,224.140 208.514,223.948 208.632 C 223.757 208.750,223.598 209.242,223.595 209.724 C 223.592 210.206,223.040 211.680,222.369 213.000 C 221.697 214.320,220.978 216.286,220.771 217.370 C 220.564 218.453,219.934 220.124,219.372 221.084 L 218.350 222.828 203.665 222.714 L 188.980 222.600 187.794 221.500 C 187.142 220.895,186.496 220.400,186.358 220.400 C 185.914 220.400,184.866 217.060,184.602 214.800 C 184.238 211.684,183.675 210.063,182.243 208.000 C 181.556 207.010,180.656 205.534,180.245 204.720 C 179.053 202.366,173.681 197.060,171.000 195.590 C 169.680 194.867,168.302 193.935,167.938 193.520 C 167.574 193.105,166.134 192.497,164.738 192.168 C 163.342 191.840,161.480 191.376,160.600 191.137 C 156.356 189.985,148.977 190.016,145.000 191.203 C 144.340 191.399,142.644 191.857,141.232 192.220 C 139.819 192.583,138.410 193.132,138.102 193.441 C 137.295 194.248,134.116 196.400,133.728 196.402 C 133.231 196.404,128.723 200.796,127.459 202.509 C 126.846 203.339,125.908 204.456,125.373 204.991 C 124.838 205.526,124.400 206.321,124.400 206.758 C 124.400 207.195,124.220 207.664,124.000 207.800 C 123.780 207.936,123.600 208.330,123.600 208.675 C 123.600 209.929,121.029 214.483,119.705 215.574 L 118.346 216.694 115.473 215.942 C 113.893 215.528,111.751 214.663,110.713 214.019 C 109.675 213.376,107.425 212.458,105.713 211.979 C 102.451 211.067,100.838 210.373,99.938 209.492 C 99.642 209.203,98.858 208.745,98.197 208.475 C 96.375 207.730,94.554 205.832,93.826 203.917 C 93.235 202.360,93.185 198.092,93.287 158.265 L 93.400 114.331 94.457 113.465 C 99.531 109.312,93.517 109.672,156.800 109.740 L 212.600 109.800 216.059 111.469 M126.448 125.197 C 125.705 125.375,124.985 125.687,124.848 125.890 C 124.712 126.094,123.973 126.607,123.207 127.030 C 121.361 128.051,120.888 128.523,120.361 129.870 C 119.687 131.595,119.400 150.859,119.963 156.596 C 120.818 165.302,117.883 164.600,153.418 164.600 C 186.353 164.600,183.513 164.935,185.598 160.803 L 186.800 158.423 186.800 145.199 C 186.800 134.789,186.682 131.700,186.244 130.687 C 185.386 128.703,182.344 125.759,180.772 125.391 C 178.948 124.963,128.181 124.782,126.448 125.197 M180.292 126.762 C 182.546 127.198,184.420 129.061,185.065 131.507 C 185.849 134.479,185.797 157.531,185.002 159.054 C 184.674 159.684,184.404 160.506,184.402 160.879 C 184.401 161.253,183.933 162.063,183.362 162.679 L 182.323 163.800 153.862 163.800 C 125.497 163.800,125.394 163.797,123.575 162.933 C 120.680 161.558,120.600 161.067,120.600 144.761 C 120.600 129.771,120.672 129.229,122.757 128.447 C 123.331 128.233,124.340 127.697,125.000 127.258 C 126.286 126.401,176.120 125.955,180.292 126.762 M215.275 138.176 C 212.213 139.287,210.854 149.207,213.432 151.630 L 214.464 152.600 234.132 152.730 C 255.378 152.870,255.416 152.867,256.740 150.748 C 257.262 149.911,256.285 148.597,253.793 146.786 C 253.349 146.464,252.694 145.742,252.338 145.182 C 251.981 144.622,251.049 143.726,250.267 143.189 C 249.484 142.653,248.671 141.835,248.459 141.371 C 248.248 140.906,247.383 140.210,246.537 139.824 C 245.692 139.437,244.268 138.779,243.374 138.360 C 241.384 137.430,217.760 137.275,215.275 138.176 M135.440 138.351 C 132.792 138.774,132.224 139.989,132.068 145.568 C 131.941 150.107,131.973 150.323,132.933 151.440 L 133.930 152.600 151.665 152.723 C 175.087 152.885,174.400 153.081,174.400 146.242 C 174.400 142.190,174.194 141.517,172.306 139.417 L 171.211 138.200 154.106 138.151 C 144.698 138.124,136.298 138.214,135.440 138.351 M242.805 139.200 C 243.242 139.420,243.958 139.780,244.395 140.000 C 244.832 140.220,245.415 140.400,245.691 140.400 C 246.179 140.400,248.844 142.820,251.358 145.548 C 252.041 146.289,252.946 147.189,253.370 147.548 C 253.793 147.906,254.583 148.621,255.123 149.135 L 256.107 150.071 255.242 150.935 C 254.010 152.167,216.731 152.309,214.500 151.090 L 213.200 150.379 213.228 146.290 C 213.280 138.800,213.187 138.842,229.705 138.818 C 237.151 138.807,242.325 138.958,242.805 139.200 M171.500 140.422 L 172.800 141.641 172.800 145.931 C 172.800 152.379,174.796 151.800,152.571 151.800 C 130.639 151.800,132.794 152.440,132.813 145.929 C 132.834 138.750,130.959 139.351,153.600 139.266 L 170.200 139.204 171.500 140.422 M147.800 203.270 C 147.140 203.481,145.701 203.935,144.603 204.278 C 143.504 204.621,142.334 205.199,142.003 205.562 C 141.671 205.926,140.590 206.845,139.600 207.606 C 136.982 209.617,137.006 209.587,135.385 213.035 C 134.568 214.776,133.606 216.534,133.249 216.942 C 132.726 217.539,132.600 218.632,132.600 222.569 L 132.600 227.456 134.578 231.428 C 136.500 235.288,140.858 240.400,142.226 240.400 C 142.481 240.400,144.109 241.141,145.845 242.047 C 150.400 244.425,158.696 244.433,160.162 242.061 C 160.270 241.887,161.394 241.397,162.661 240.972 C 165.416 240.048,169.000 236.653,171.661 232.445 C 172.710 230.787,173.736 223.215,173.253 220.690 C 173.033 219.540,172.734 217.702,172.588 216.605 C 172.273 214.238,171.660 212.955,170.196 211.600 C 169.601 211.050,168.960 210.199,168.771 209.709 C 168.581 209.219,167.521 208.167,166.413 207.371 C 165.306 206.576,164.400 205.766,164.400 205.573 C 164.400 203.720,151.835 201.977,147.800 203.270 M248.400 203.268 C 247.630 203.480,246.318 203.831,245.485 204.047 C 243.952 204.446,243.289 204.937,239.244 208.671 C 237.177 210.579,236.393 211.719,235.307 214.400 C 235.084 214.950,234.429 216.424,233.851 217.675 C 232.337 220.952,232.487 228.378,234.068 228.397 C 234.216 228.399,234.464 228.985,234.620 229.700 C 235.408 233.315,240.760 240.400,242.702 240.400 C 243.310 240.400,247.874 242.597,248.713 243.294 C 250.003 244.364,257.594 243.840,260.200 242.501 C 261.520 241.822,263.550 240.868,264.711 240.379 C 265.960 239.855,267.185 238.983,267.709 238.246 C 268.196 237.561,269.217 236.395,269.978 235.655 C 271.959 233.729,272.381 232.736,273.778 226.718 C 274.688 222.795,274.593 221.759,272.689 214.880 C 272.043 212.542,267.374 206.807,266.114 206.802 C 265.847 206.801,265.436 206.442,265.202 206.004 C 263.878 203.531,253.549 201.848,248.400 203.268 M158.600 204.244 C 161.623 204.786,162.424 205.097,163.600 206.182 C 164.370 206.893,165.589 207.878,166.309 208.371 C 167.029 208.864,167.973 209.963,168.406 210.812 C 168.840 211.662,169.421 212.502,169.697 212.679 C 172.598 214.533,173.450 227.504,170.946 231.705 C 168.566 235.698,163.416 240.400,161.422 240.400 C 161.145 240.400,160.037 240.871,158.960 241.447 C 155.692 243.192,151.332 243.264,147.804 241.631 C 146.292 240.931,144.348 240.143,143.484 239.879 C 142.045 239.440,141.343 238.907,139.570 236.910 C 139.223 236.519,138.495 235.840,137.952 235.400 C 137.393 234.947,136.473 233.298,135.832 231.600 C 135.209 229.950,134.418 228.150,134.073 227.600 C 132.956 225.818,133.203 219.424,134.475 217.200 C 135.041 216.210,135.819 214.547,136.205 213.504 C 136.590 212.461,137.390 211.111,137.982 210.504 C 139.276 209.176,142.656 206.344,143.555 205.834 C 143.910 205.633,144.304 205.313,144.430 205.123 C 144.557 204.933,145.813 204.592,147.220 204.366 C 148.628 204.139,149.859 203.874,149.957 203.777 C 150.356 203.377,155.236 203.641,158.600 204.244 M259.172 204.238 C 262.138 204.781,262.875 205.079,264.103 206.238 C 264.897 206.987,265.675 207.600,265.833 207.600 C 266.109 207.600,266.976 208.480,270.019 211.847 C 274.506 216.812,273.808 230.923,268.854 235.399 C 267.963 236.204,267.128 237.196,266.999 237.605 C 266.778 238.300,263.174 240.400,262.200 240.400 C 261.956 240.400,260.777 240.895,259.579 241.500 C 256.674 242.967,251.184 243.092,248.374 241.756 C 245.323 240.305,243.591 239.600,243.078 239.600 C 242.806 239.600,242.137 239.130,241.592 238.557 C 241.046 237.983,239.773 236.678,238.762 235.657 C 234.850 231.704,233.031 222.361,235.209 217.400 C 235.402 216.960,235.845 215.721,236.193 214.646 C 236.856 212.602,239.185 209.599,241.231 208.150 C 241.891 207.683,243.038 206.748,243.780 206.073 C 246.203 203.868,252.832 203.078,259.172 204.238 " stroke="none" fill="#e6d4b1" fill-rule="evenodd"></path><path id="path2" d="M106.321 76.685 C 103.035 77.042,100.151 80.935,100.759 84.192 C 101.409 87.671,103.220 88.294,113.400 88.538 C 122.443 88.755,123.593 89.247,124.620 93.338 C 125.134 95.386,127.696 96.400,132.353 96.400 C 137.757 96.400,139.598 95.136,138.427 92.229 C 136.912 88.469,136.104 88.600,160.858 88.600 C 184.414 88.600,182.063 88.223,184.602 92.403 C 186.613 95.714,188.540 96.524,193.962 96.339 C 199.443 96.152,200.891 94.083,197.988 90.585 C 196.861 89.228,199.475 88.605,206.800 88.487 C 210.785 88.422,214.231 88.183,214.800 87.931 C 218.225 86.414,218.381 86.272,219.020 84.073 C 219.788 81.429,218.429 79.016,215.101 77.115 C 214.243 76.625,110.646 76.216,106.321 76.685 M214.026 78.014 C 214.452 78.242,214.800 78.699,214.800 79.029 C 214.800 79.360,215.604 80.119,216.587 80.715 C 218.379 81.803,218.905 82.921,217.821 83.337 C 217.502 83.459,216.940 84.153,216.570 84.879 C 216.201 85.606,215.817 86.290,215.717 86.400 C 215.617 86.510,211.995 86.703,207.668 86.829 C 199.028 87.081,197.022 87.498,196.043 89.245 C 195.362 90.461,196.151 92.700,197.624 93.731 C 198.662 94.459,196.948 94.789,192.100 94.796 L 188.799 94.800 187.214 93.166 C 186.342 92.268,185.328 90.852,184.961 90.021 C 183.599 86.934,184.185 87.016,162.600 86.868 C 135.753 86.684,133.776 87.136,136.187 92.908 C 136.916 94.651,136.549 94.806,131.800 94.755 C 126.662 94.699,126.770 94.768,124.811 90.274 C 123.546 87.372,122.701 87.135,112.561 86.843 C 103.478 86.581,103.451 86.575,102.208 84.266 C 101.243 82.475,101.612 80.981,103.095 80.671 C 103.758 80.532,104.580 79.872,105.152 79.020 L 106.103 77.600 159.678 77.600 C 195.843 77.600,213.504 77.735,214.026 78.014 M99.563 110.140 C 98.225 110.568,97.106 111.297,94.457 113.465 L 93.400 114.331 93.287 158.265 C 93.185 198.092,93.235 202.360,93.826 203.917 C 94.554 205.832,96.375 207.730,98.197 208.475 C 98.858 208.745,99.642 209.203,99.938 209.492 C 100.838 210.373,102.451 211.067,105.713 211.979 C 107.425 212.458,109.675 213.376,110.713 214.019 C 111.751 214.663,113.893 215.528,115.473 215.942 L 118.346 216.694 119.705 215.574 C 121.029 214.483,123.600 209.929,123.600 208.675 C 123.600 208.330,123.780 207.936,124.000 207.800 C 124.220 207.664,124.400 207.195,124.400 206.758 C 124.400 206.321,124.838 205.526,125.373 204.991 C 125.908 204.456,126.846 203.339,127.459 202.509 C 128.723 200.796,133.231 196.404,133.728 196.402 C 134.116 196.400,137.295 194.248,138.102 193.441 C 138.410 193.132,139.819 192.583,141.232 192.220 C 142.644 191.857,144.340 191.399,145.000 191.203 C 148.977 190.016,156.356 189.985,160.600 191.137 C 161.480 191.376,163.342 191.840,164.738 192.168 C 166.134 192.497,167.574 193.105,167.938 193.520 C 168.302 193.935,169.680 194.867,171.000 195.590 C 173.681 197.060,179.053 202.366,180.245 204.720 C 180.656 205.534,181.556 207.010,182.243 208.000 C 183.675 210.063,184.238 211.684,184.602 214.800 C 184.866 217.060,185.914 220.400,186.358 220.400 C 186.496 220.400,187.142 220.895,187.794 221.500 L 188.980 222.600 203.665 222.714 L 218.350 222.828 219.372 221.084 C 219.934 220.124,220.564 218.453,220.771 217.370 C 220.978 216.286,221.697 214.320,222.369 213.000 C 223.040 211.680,223.592 210.206,223.595 209.724 C 223.598 209.242,223.757 208.750,223.948 208.632 C 224.140 208.514,224.397 207.914,224.520 207.299 C 224.643 206.684,225.342 205.555,226.072 204.790 C 226.802 204.026,227.651 202.914,227.957 202.319 C 228.264 201.725,229.382 200.555,230.443 199.719 C 231.504 198.884,232.467 197.930,232.583 197.600 C 232.699 197.270,233.818 196.466,235.070 195.813 C 236.322 195.160,237.808 194.238,238.373 193.763 C 241.578 191.073,254.142 189.427,259.932 190.939 C 261.325 191.302,262.737 191.600,263.071 191.600 C 264.484 191.600,267.998 192.905,268.863 193.752 C 269.378 194.256,270.385 194.922,271.100 195.232 C 271.815 195.542,272.400 195.931,272.400 196.098 C 272.400 196.264,272.648 196.400,272.952 196.400 C 273.854 196.400,278.982 201.626,280.409 204.000 C 281.136 205.210,282.047 206.560,282.434 207.000 C 283.370 208.067,284.211 210.358,285.001 214.000 C 285.799 217.674,286.533 219.217,288.449 221.252 L 289.927 222.822 295.964 222.549 L 302.001 222.277 304.301 220.038 L 306.600 217.800 306.726 200.073 L 306.853 182.346 305.326 180.641 C 304.487 179.702,303.495 178.554,303.122 178.089 C 302.452 177.252,301.685 176.989,297.000 175.986 C 295.680 175.704,293.700 175.076,292.600 174.591 C 289.288 173.132,288.307 172.819,285.800 172.424 C 281.652 171.770,280.246 171.374,277.560 170.105 C 276.124 169.426,274.060 168.760,272.974 168.625 C 269.746 168.221,266.739 167.553,264.400 166.719 C 259.213 164.869,258.037 164.801,231.179 164.800 L 205.757 164.800 203.779 163.812 C 200.220 162.035,199.826 159.694,200.103 142.000 C 200.313 128.608,200.156 129.444,202.805 127.636 C 203.902 126.887,204.800 126.145,204.800 125.986 C 204.800 125.137,207.753 124.820,216.629 124.714 C 226.930 124.592,227.116 124.555,227.770 122.494 C 227.994 121.788,227.748 121.417,226.454 120.513 C 225.578 119.901,224.672 118.997,224.441 118.503 C 224.210 118.010,223.313 117.110,222.448 116.503 C 221.583 115.897,220.570 114.891,220.197 114.269 C 219.744 113.515,218.369 112.584,216.059 111.469 L 212.600 109.800 156.800 109.740 C 115.687 109.695,100.622 109.801,99.563 110.140 M216.200 113.068 C 217.820 113.635,218.646 114.150,218.741 114.654 C 218.940 115.701,219.858 116.644,221.234 117.214 C 221.910 117.494,222.687 118.284,223.060 119.071 C 223.463 119.919,224.316 120.749,225.303 121.252 C 228.087 122.673,226.846 122.915,215.513 123.167 C 204.297 123.416,203.291 123.611,202.590 125.680 C 202.463 126.053,201.972 126.482,201.498 126.632 C 198.946 127.442,198.798 128.469,198.818 145.160 C 198.838 162.168,198.995 163.212,201.736 164.550 C 204.793 166.043,206.030 166.120,231.200 166.387 C 255.183 166.642,256.314 166.688,259.000 167.507 C 260.540 167.977,264.519 168.701,267.842 169.116 C 273.478 169.819,273.990 169.954,275.444 171.122 C 277.019 172.388,278.700 172.808,284.800 173.458 C 286.325 173.620,287.430 174.024,288.400 174.772 C 290.445 176.348,290.336 176.310,294.221 176.806 C 299.945 177.537,300.498 177.760,302.554 180.167 L 304.400 182.328 304.400 198.508 C 304.400 221.256,305.146 219.294,296.208 220.054 L 290.303 220.555 289.452 219.390 C 288.983 218.748,288.357 217.499,288.060 216.612 C 287.763 215.725,287.175 214.625,286.753 214.166 C 286.317 213.693,285.748 212.090,285.436 210.452 C 284.929 207.788,283.266 204.400,282.466 204.400 C 282.288 204.400,281.731 203.490,281.229 202.378 C 280.603 200.994,279.824 200.046,278.758 199.373 C 277.901 198.832,277.200 198.221,277.200 198.016 C 277.200 197.247,275.337 195.715,273.498 194.970 C 272.451 194.546,271.503 193.913,271.390 193.561 C 271.064 192.546,267.234 190.916,264.425 190.597 C 262.672 190.397,261.651 190.067,261.225 189.561 C 259.121 187.059,248.590 187.083,245.800 189.595 C 245.360 189.991,244.190 190.434,243.200 190.579 C 238.648 191.244,235.600 192.626,235.600 194.024 C 235.600 194.196,234.981 194.542,234.225 194.792 C 232.359 195.408,230.800 196.695,230.800 197.621 C 230.800 198.122,230.421 198.478,229.700 198.656 C 228.440 198.967,226.801 200.675,226.800 201.677 C 226.800 202.050,226.262 202.672,225.605 203.061 C 224.266 203.852,222.949 206.327,222.555 208.793 C 222.399 209.769,221.998 210.587,221.563 210.820 C 220.583 211.344,219.702 213.361,219.386 215.800 C 219.243 216.900,218.927 218.385,218.683 219.100 L 218.239 220.400 204.159 220.400 L 190.079 220.400 188.197 218.500 C 186.135 216.419,185.608 215.403,185.585 213.474 C 185.556 210.965,184.248 207.027,183.304 206.610 C 182.746 206.363,182.026 205.259,181.346 203.605 C 180.524 201.608,179.854 200.677,178.510 199.664 C 177.543 198.935,176.636 198.037,176.495 197.669 C 176.177 196.839,174.770 195.631,174.100 195.613 C 173.825 195.606,173.600 195.434,173.600 195.232 C 173.600 195.029,173.038 194.740,172.350 194.589 C 171.663 194.438,170.592 193.735,169.969 193.026 C 168.746 191.633,167.099 191.011,163.489 190.581 C 161.922 190.394,161.013 190.068,160.661 189.566 C 158.905 187.059,147.689 187.073,145.015 189.586 C 144.486 190.083,143.206 190.519,141.585 190.753 C 137.890 191.287,136.063 192.167,135.492 193.688 C 135.350 194.067,134.732 194.495,134.117 194.641 C 132.569 195.007,130.400 196.697,130.400 197.538 C 130.400 197.979,129.923 198.375,129.100 198.617 C 128.100 198.912,127.590 199.439,126.892 200.900 C 126.393 201.945,125.715 202.800,125.386 202.800 C 124.608 202.800,123.413 204.791,122.783 207.138 C 122.508 208.162,121.881 209.450,121.390 210.000 C 120.275 211.250,119.600 212.543,119.600 213.430 C 119.600 214.978,113.761 215.450,113.250 213.943 C 112.755 212.482,109.961 211.260,105.690 210.637 C 104.593 210.477,103.550 209.977,102.784 209.245 C 102.127 208.617,100.550 207.724,99.280 207.261 C 95.348 205.828,95.600 209.110,95.602 159.284 C 95.605 109.578,95.268 113.019,100.200 112.366 C 106.239 111.566,213.767 112.217,216.200 113.068 M125.485 123.488 C 124.872 123.580,123.788 124.238,123.076 124.950 C 122.365 125.662,121.472 126.363,121.093 126.509 C 118.904 127.349,118.803 128.162,118.801 144.954 C 118.800 165.527,118.537 164.819,126.600 165.981 C 130.555 166.551,177.032 166.531,180.176 165.958 C 181.509 165.715,182.977 165.449,183.437 165.366 C 184.344 165.204,185.889 163.801,187.551 161.631 L 188.600 160.262 188.600 144.958 L 188.600 129.655 186.600 127.672 C 185.500 126.582,184.181 125.245,183.668 124.701 C 182.895 123.880,182.221 123.668,179.708 123.456 C 176.447 123.180,127.334 123.209,125.485 123.488 M180.772 125.391 C 182.344 125.759,185.386 128.703,186.244 130.687 C 186.682 131.700,186.800 134.789,186.800 145.199 L 186.800 158.423 185.598 160.803 C 183.513 164.935,186.353 164.600,153.418 164.600 C 117.883 164.600,120.818 165.302,119.963 156.596 C 119.400 150.859,119.687 131.595,120.361 129.870 C 120.888 128.523,121.361 128.051,123.207 127.030 C 123.973 126.607,124.712 126.094,124.848 125.890 C 124.985 125.687,125.705 125.375,126.448 125.197 C 128.181 124.782,178.948 124.963,180.772 125.391 M215.624 139.765 C 213.395 140.931,213.262 141.291,213.228 146.290 L 213.200 150.379 214.500 151.090 C 216.731 152.309,254.010 152.167,255.242 150.935 L 256.107 150.071 255.123 149.135 C 254.583 148.621,253.793 147.906,253.370 147.548 C 252.946 147.189,252.041 146.289,251.358 145.548 C 248.844 142.820,246.179 140.400,245.691 140.400 C 245.415 140.400,244.832 140.220,244.395 140.000 C 243.958 139.780,243.242 139.420,242.805 139.200 C 240.929 138.255,217.583 138.741,215.624 139.765 M135.640 139.494 C 133.262 139.784,132.828 140.770,132.813 145.929 C 132.794 152.440,130.639 151.800,152.571 151.800 C 174.796 151.800,172.800 152.379,172.800 145.931 L 172.800 141.641 171.500 140.422 L 170.200 139.204 153.600 139.266 C 144.470 139.300,136.388 139.403,135.640 139.494 M170.643 141.500 C 171.472 142.592,171.408 150.235,170.567 150.557 C 169.724 150.881,138.225 150.870,135.856 150.546 L 134.000 150.291 134.000 146.022 L 134.000 141.754 135.700 141.337 C 138.989 140.530,170.017 140.675,170.643 141.500 M244.030 141.271 C 246.111 141.700,246.366 141.872,246.975 143.252 C 247.444 144.315,248.036 144.906,248.971 145.244 C 249.887 145.575,250.499 146.172,250.936 147.162 C 251.396 148.204,252.042 148.807,253.285 149.351 C 254.782 150.007,254.898 150.143,254.200 150.423 C 253.260 150.800,218.686 150.917,216.850 150.550 L 215.600 150.300 215.600 146.163 C 215.600 140.481,214.659 140.836,229.776 140.816 C 237.462 140.806,242.568 140.969,244.030 141.271 M149.957 203.777 C 149.859 203.874,148.628 204.139,147.220 204.366 C 145.813 204.592,144.557 204.933,144.430 205.123 C 144.304 205.313,143.910 205.633,143.555 205.834 C 142.656 206.344,139.276 209.176,137.982 210.504 C 137.390 211.111,136.590 212.461,136.205 213.504 C 135.819 214.547,135.041 216.210,134.475 217.200 C 133.203 219.424,132.956 225.818,134.073 227.600 C 134.418 228.150,135.209 229.950,135.832 231.600 C 136.473 233.298,137.393 234.947,137.952 235.400 C 138.495 235.840,139.223 236.519,139.570 236.910 C 141.343 238.907,142.045 239.440,143.484 239.879 C 144.348 240.143,146.292 240.931,147.804 241.631 C 151.332 243.264,155.692 243.192,158.960 241.447 C 160.037 240.871,161.145 240.400,161.422 240.400 C 163.416 240.400,168.566 235.698,170.946 231.705 C 173.450 227.504,172.598 214.533,169.697 212.679 C 169.421 212.502,168.840 211.662,168.406 210.812 C 167.973 209.963,167.029 208.864,166.309 208.371 C 165.589 207.878,164.370 206.893,163.600 206.182 C 161.757 204.480,151.127 202.606,149.957 203.777 M248.065 204.270 C 245.835 204.707,244.804 205.141,243.780 206.073 C 243.038 206.748,241.891 207.683,241.231 208.150 C 239.185 209.599,236.856 212.602,236.193 214.646 C 235.845 215.721,235.402 216.960,235.209 217.400 C 233.031 222.361,234.850 231.704,238.762 235.657 C 239.773 236.678,241.046 237.983,241.592 238.557 C 242.137 239.130,242.806 239.600,243.078 239.600 C 243.591 239.600,245.323 240.305,248.374 241.756 C 251.184 243.092,256.674 242.967,259.579 241.500 C 260.777 240.895,261.956 240.400,262.200 240.400 C 263.174 240.400,266.778 238.300,266.999 237.605 C 267.128 237.196,267.963 236.204,268.854 235.399 C 273.808 230.923,274.506 216.812,270.019 211.847 C 266.976 208.480,266.109 207.600,265.833 207.600 C 265.675 207.600,264.897 206.987,264.103 206.238 C 261.617 203.892,254.471 203.016,248.065 204.270 M159.361 205.635 C 161.064 205.967,162.449 206.891,162.879 207.981 C 162.946 208.149,163.828 208.651,164.840 209.095 C 166.354 209.759,166.727 210.135,166.943 211.215 C 167.107 212.033,167.845 213.118,168.903 214.094 L 170.600 215.660 170.737 221.872 C 170.899 229.267,170.726 230.491,169.412 231.194 C 168.875 231.481,168.171 232.275,167.847 232.958 C 167.522 233.641,166.929 234.502,166.529 234.872 C 166.128 235.242,165.332 235.972,164.759 236.495 C 164.187 237.018,163.646 237.661,163.559 237.924 C 163.471 238.188,162.229 238.674,160.799 239.004 C 159.370 239.335,157.390 239.805,156.400 240.049 C 154.344 240.557,151.071 240.546,149.600 240.028 C 149.050 239.834,147.117 239.343,145.305 238.938 C 142.494 238.308,141.953 238.053,141.624 237.200 C 141.036 235.681,140.261 234.881,139.090 234.587 C 138.477 234.433,137.932 233.957,137.800 233.460 C 135.441 224.571,135.285 223.195,136.182 219.200 C 136.503 217.770,136.869 215.938,136.995 215.130 C 137.230 213.631,141.394 208.800,142.451 208.800 C 142.711 208.800,143.586 208.082,144.396 207.204 C 146.381 205.054,152.883 204.372,159.361 205.635 M258.183 205.394 C 261.630 205.730,262.249 205.951,262.734 207.016 C 262.974 207.541,264.022 208.382,265.065 208.885 C 266.426 209.542,267.067 210.134,267.342 210.986 C 267.725 212.174,269.041 213.562,269.809 213.587 C 270.629 213.613,271.244 218.057,271.225 223.827 C 271.204 230.120,271.165 230.277,269.052 232.517 C 268.271 233.346,267.315 234.559,266.929 235.213 C 266.543 235.866,265.915 236.500,265.534 236.621 C 265.153 236.742,264.734 237.178,264.603 237.590 C 264.329 238.455,256.613 240.514,253.743 240.489 C 249.208 240.448,241.683 237.852,241.613 236.305 C 241.593 235.849,240.266 234.400,239.869 234.400 C 236.205 234.400,235.147 213.639,238.763 212.694 C 239.154 212.591,239.998 211.730,240.637 210.779 C 241.387 209.664,242.227 208.937,243.000 208.733 C 243.698 208.548,244.589 207.841,245.129 207.041 C 246.036 205.698,246.135 205.661,249.529 205.404 C 251.438 205.260,253.180 205.086,253.400 205.019 C 253.620 204.951,254.250 204.955,254.800 205.029 C 255.350 205.102,256.872 205.266,258.183 205.394 " stroke="none" fill="#f4e4d4" fill-rule="evenodd"></path><path id="path3" d="M166.400 1.000 L 166.400 2.000 160.900 2.051 C 157.875 2.079,154.738 2.078,153.930 2.050 C 151.417 1.960,150.448 2.561,150.156 4.388 L 149.898 6.000 147.649 6.044 C 144.847 6.098,142.325 6.244,141.800 6.383 C 141.580 6.441,141.018 6.459,140.551 6.422 C 139.367 6.330,138.291 7.517,138.512 8.673 C 138.752 9.930,138.510 10.029,135.109 10.075 C 131.094 10.130,130.470 10.421,130.156 12.388 C 129.875 14.145,129.785 14.182,126.112 14.065 C 123.385 13.978,122.454 14.524,122.156 16.388 C 122.006 17.320,121.666 18.021,121.349 18.050 C 121.047 18.078,120.215 18.127,119.500 18.160 C 118.560 18.203,118.214 18.402,118.250 18.879 C 118.370 20.435,115.837 22.083,113.214 22.155 C 110.472 22.231,109.853 22.713,110.182 24.515 C 110.411 25.768,110.155 25.945,107.830 26.134 C 106.287 26.259,106.257 26.292,106.119 28.008 C 105.950 30.124,106.279 29.870,103.337 30.154 C 99.718 30.503,98.889 30.918,98.586 32.534 C 98.353 33.775,98.177 33.925,96.716 34.121 C 94.695 34.392,94.391 34.701,94.113 36.771 C 93.901 38.355,93.833 38.427,92.771 38.194 C 91.225 37.854,89.961 39.134,90.099 40.898 C 90.195 42.135,90.142 42.187,88.900 42.066 C 88.183 41.996,87.600 42.127,87.600 42.357 C 87.600 42.587,87.299 42.659,86.931 42.518 C 86.423 42.323,86.323 42.423,86.518 42.931 C 86.661 43.302,86.582 43.600,86.342 43.600 C 86.092 43.600,85.981 44.089,86.079 44.757 C 86.238 45.840,86.147 45.929,84.676 46.126 C 82.700 46.391,82.390 46.709,82.116 48.752 C 81.897 50.380,81.694 50.564,80.276 50.417 C 79.214 50.306,78.394 51.154,78.405 52.351 C 78.415 53.486,77.981 57.743,77.840 57.890 C 77.793 57.939,76.968 58.042,76.007 58.119 L 74.260 58.260 74.119 60.007 C 73.949 62.132,73.916 62.168,72.203 62.119 C 70.702 62.076,69.953 62.679,70.059 63.847 C 70.228 65.720,69.968 67.200,69.470 67.200 C 68.843 67.200,67.200 68.859,67.200 69.492 C 67.200 69.735,66.975 70.008,66.700 70.100 C 66.425 70.192,66.178 70.837,66.150 71.533 C 66.059 73.849,66.005 74.000,65.267 74.000 C 64.863 74.000,64.401 74.133,64.238 74.295 C 64.076 74.457,63.641 74.592,63.272 74.595 C 62.902 74.598,62.583 74.870,62.561 75.200 C 62.540 75.530,62.393 76.096,62.234 76.459 C 62.076 76.821,61.979 77.361,62.020 77.659 C 62.412 80.509,61.993 82.000,60.800 82.000 C 60.140 82.000,59.600 82.174,59.600 82.387 C 59.600 82.601,59.299 82.659,58.931 82.518 C 58.423 82.323,58.323 82.423,58.518 82.931 C 58.659 83.299,58.615 83.600,58.419 83.600 C 58.223 83.600,58.053 85.050,58.042 86.822 C 58.017 90.550,57.942 90.754,56.673 90.512 C 55.517 90.291,54.330 91.367,54.422 92.551 C 54.459 93.018,54.446 93.535,54.394 93.700 C 54.136 94.521,54.096 95.059,54.050 98.349 L 54.000 101.898 52.388 102.156 C 50.561 102.448,49.960 103.417,50.050 105.930 C 50.231 111.036,49.971 115.200,49.470 115.200 C 48.648 115.200,47.071 117.086,47.329 117.759 C 47.493 118.187,47.374 118.288,46.914 118.112 C 46.484 117.947,46.365 118.020,46.558 118.332 C 46.717 118.589,46.663 118.800,46.437 118.800 C 45.977 118.800,46.006 188.940,46.467 189.400 C 46.614 189.547,47.469 189.766,48.367 189.886 L 50.000 190.105 50.025 194.953 C 50.073 204.302,50.331 205.593,52.149 205.606 C 53.755 205.618,53.963 206.090,54.060 209.955 C 54.126 212.588,54.307 213.743,54.677 213.885 C 54.964 213.995,55.200 214.305,55.200 214.573 C 55.200 215.183,56.888 216.800,57.526 216.800 C 57.801 216.800,58.014 217.429,58.033 218.300 C 58.139 223.054,58.800 224.799,60.700 225.344 C 61.756 225.646,62.009 225.930,62.050 226.858 C 62.078 227.486,62.123 228.405,62.150 228.900 C 62.183 229.491,62.490 229.841,63.045 229.921 C 64.798 230.171,66.004 232.045,66.073 234.627 C 66.152 237.541,66.475 238.000,68.449 238.000 C 69.969 238.000,70.001 238.030,70.030 239.500 C 70.100 243.046,70.917 244.833,72.700 245.344 C 74.002 245.716,74.223 246.189,74.056 248.246 C 73.963 249.387,74.699 249.915,76.600 250.070 L 78.189 250.200 78.194 252.000 L 78.200 253.800 80.100 253.922 C 81.966 254.042,82.000 254.068,82.000 255.389 C 82.000 257.599,83.418 260.401,84.801 260.923 C 85.728 261.273,86.000 261.622,86.000 262.462 C 86.000 264.634,86.641 265.521,88.472 265.883 C 90.108 266.207,90.182 266.284,90.137 267.611 C 90.074 269.464,90.593 270.000,92.449 270.000 C 94.079 270.000,94.052 269.960,94.150 272.500 C 94.198 273.759,94.260 273.804,96.100 273.922 C 98.064 274.048,98.386 274.639,98.037 277.470 C 98.005 277.728,98.147 278.043,98.352 278.170 C 98.557 278.297,98.629 278.767,98.512 279.214 C 98.196 280.425,99.469 281.600,101.097 281.600 L 102.470 281.600 102.200 283.200 C 102.015 284.294,102.075 284.800,102.388 284.800 C 102.641 284.800,102.748 284.961,102.626 285.158 C 102.342 285.618,103.343 286.000,104.833 286.000 C 105.661 286.000,106.013 286.203,106.045 286.700 C 106.069 287.085,106.114 287.940,106.145 288.600 C 106.197 289.739,106.297 289.806,108.100 289.922 C 110.128 290.052,110.006 289.881,110.151 292.794 C 110.183 293.450,110.472 293.837,111.000 293.933 C 112.693 294.240,113.888 295.922,114.167 298.393 C 114.467 301.045,114.882 301.547,116.899 301.695 C 118.306 301.798,118.325 301.824,118.183 303.382 C 117.999 305.401,118.517 306.000,120.449 306.000 C 121.398 306.000,122.019 306.194,122.048 306.500 C 122.074 306.775,122.119 307.630,122.148 308.400 C 122.199 309.778,122.230 309.802,124.100 309.922 C 125.740 310.027,126.005 310.164,126.034 310.922 C 126.184 314.752,126.862 316.363,128.654 317.152 C 129.727 317.625,129.937 317.960,130.107 319.472 C 130.349 321.622,130.284 321.553,132.445 321.923 C 134.124 322.210,134.200 322.284,134.200 323.612 C 134.200 325.555,134.614 326.000,136.424 326.000 C 137.949 326.000,138.002 326.045,138.050 327.400 C 138.078 328.170,138.123 329.025,138.150 329.300 C 138.180 329.603,138.947 329.848,140.100 329.922 C 141.992 330.043,142.000 330.050,142.046 331.522 C 142.090 332.919,142.130 333.235,142.383 334.200 C 142.441 334.420,142.459 334.982,142.422 335.449 C 142.332 336.608,143.422 337.600,144.786 337.600 C 146.046 337.600,146.411 338.162,146.124 339.662 C 145.864 341.021,146.913 342.000,148.629 342.000 C 150.076 342.000,150.006 341.871,150.151 344.800 C 150.195 345.701,150.388 345.812,152.100 345.922 C 154.064 346.048,154.364 346.543,154.029 349.105 C 153.992 349.383,154.241 349.718,154.581 349.848 C 154.922 349.979,155.200 350.305,155.200 350.573 C 155.200 351.287,156.937 352.800,157.758 352.800 C 158.318 352.800,158.415 353.028,158.231 353.900 C 157.765 356.100,158.474 357.359,160.428 357.800 C 162.130 358.184,162.197 358.255,162.131 359.596 C 162.040 361.443,162.577 362.000,164.449 362.000 C 165.302 362.000,166.015 362.135,166.034 362.300 C 166.052 362.465,166.097 363.320,166.134 364.200 L 166.200 365.800 168.100 365.922 C 169.996 366.044,170.000 366.047,170.030 367.522 C 170.100 371.026,170.909 372.773,172.745 373.386 C 173.963 373.792,174.097 373.991,174.170 375.509 C 174.269 377.551,174.327 377.613,176.367 377.886 C 177.265 378.007,178.020 378.307,178.045 378.553 C 178.069 378.799,178.114 379.450,178.145 380.000 C 178.231 381.566,178.725 382.000,180.424 382.000 C 181.949 382.000,182.002 382.045,182.050 383.400 C 182.078 384.170,182.123 385.025,182.150 385.300 C 182.180 385.603,182.947 385.848,184.100 385.922 C 185.862 386.035,186.001 386.122,186.016 387.122 C 186.090 392.124,186.592 393.600,188.220 393.600 C 189.506 393.600,190.452 394.653,190.171 395.771 C 189.857 397.023,190.935 398.000,192.629 398.000 C 193.825 398.000,194.000 398.128,194.000 399.000 L 194.000 400.000 200.000 400.000 L 206.000 400.000 206.000 399.000 C 206.000 398.109,206.165 398.000,207.520 398.000 C 209.430 398.000,210.000 397.436,210.000 395.544 C 210.000 394.103,210.063 394.035,211.698 393.711 C 213.531 393.349,213.847 392.770,213.953 389.575 C 214.004 388.028,215.538 386.196,217.000 385.935 C 217.646 385.820,217.824 385.427,217.922 383.896 L 218.044 382.000 219.542 382.000 C 221.424 382.000,222.000 381.431,222.000 379.573 C 222.000 378.158,222.059 378.097,223.633 377.886 C 225.663 377.614,225.650 377.628,225.899 375.420 C 226.073 373.880,226.238 373.600,226.976 373.600 C 228.925 373.600,229.969 371.565,229.990 367.722 L 230.000 366.044 231.900 365.922 L 233.800 365.800 233.922 363.900 L 234.044 362.000 235.542 362.000 C 237.424 362.000,238.000 361.431,238.000 359.571 C 238.000 358.165,238.069 358.091,239.612 357.844 C 241.344 357.568,242.000 356.638,242.000 354.462 C 242.000 353.629,242.272 353.273,243.168 352.935 C 244.591 352.397,246.000 349.717,246.000 347.547 L 246.000 346.044 247.900 345.922 L 249.800 345.800 249.922 343.900 C 250.042 342.033,250.067 342.000,251.393 342.000 C 253.177 342.000,254.000 341.107,254.000 339.171 C 254.000 337.653,254.046 337.600,255.351 337.600 C 257.209 337.600,257.527 337.050,257.840 333.298 L 258.112 330.039 259.956 329.920 L 261.800 329.800 261.922 327.900 L 262.044 326.000 263.542 326.000 C 265.424 326.000,266.000 325.431,266.000 323.573 C 266.000 322.158,266.059 322.097,267.633 321.886 C 269.658 321.615,269.651 321.622,269.892 319.479 C 270.076 317.847,270.196 317.693,271.534 317.359 C 273.184 316.949,273.914 315.320,273.969 311.922 L 274.000 310.044 275.900 309.922 L 277.800 309.800 277.922 307.900 L 278.044 306.000 279.542 306.000 C 281.430 306.000,282.000 305.431,282.000 303.544 C 282.000 302.103,282.063 302.035,283.698 301.711 C 285.531 301.349,285.847 300.770,285.953 297.575 C 286.004 296.028,287.538 294.196,289.000 293.935 C 289.644 293.821,289.824 293.427,289.921 291.917 L 290.042 290.042 291.921 289.921 L 293.800 289.800 293.922 287.900 C 294.042 286.033,294.067 286.000,295.393 286.000 C 297.177 286.000,298.000 285.107,298.000 283.171 C 298.000 281.725,298.088 281.600,299.100 281.594 C 301.180 281.582,301.938 280.038,301.983 275.722 L 302.000 274.044 303.900 273.922 L 305.800 273.800 305.922 271.900 L 306.044 270.000 307.542 270.000 C 309.424 270.000,310.000 269.431,310.000 267.571 C 310.000 266.165,310.069 266.091,311.612 265.844 C 313.300 265.575,314.000 264.636,314.000 262.646 C 314.000 262.013,314.387 261.574,315.300 261.172 C 316.919 260.459,317.955 258.431,317.981 255.922 L 318.000 254.044 319.900 253.922 L 321.800 253.800 321.922 251.900 C 322.042 250.033,322.067 250.000,323.393 250.000 C 325.157 250.000,326.000 249.104,326.000 247.229 C 326.000 245.865,326.128 245.679,327.300 245.344 C 328.920 244.880,329.693 243.393,329.924 240.300 L 330.096 238.000 331.568 238.000 C 333.547 238.000,334.000 237.426,334.000 234.920 C 334.000 233.426,334.157 232.800,334.530 232.800 C 335.153 232.800,336.800 231.143,336.800 230.517 C 336.800 230.280,337.070 229.982,337.400 229.855 C 337.842 229.686,338.000 228.988,338.000 227.213 C 338.000 225.476,338.149 224.800,338.530 224.800 C 339.153 224.800,340.800 223.143,340.800 222.517 C 340.800 222.280,341.070 221.982,341.400 221.855 C 341.851 221.682,342.000 220.957,342.000 218.934 C 342.000 216.072,343.189 214.000,344.832 214.000 C 345.803 214.000,346.000 213.197,346.000 209.238 L 346.000 205.741 347.500 205.371 C 349.500 204.876,349.925 203.221,349.968 195.757 L 350.000 190.114 351.675 189.757 C 354.100 189.240,354.029 190.448,353.909 152.111 C 353.789 113.780,353.901 115.401,351.310 114.659 L 350.020 114.290 349.910 108.245 C 349.832 103.965,349.666 102.225,349.341 102.286 C 349.073 102.337,348.965 102.055,349.082 101.609 C 349.309 100.741,347.607 98.800,346.618 98.800 C 346.104 98.800,346.000 98.164,346.000 95.029 C 346.000 90.901,345.486 89.741,343.839 90.154 C 342.308 90.539,342.038 89.953,341.916 85.986 L 341.800 82.200 340.600 82.145 C 337.786 82.015,338.000 82.320,338.000 78.424 C 338.000 74.628,337.821 74.246,336.000 74.145 C 335.450 74.114,334.775 74.069,334.500 74.045 C 334.143 74.013,334.000 73.035,334.000 70.629 C 334.000 66.922,333.436 65.754,331.839 66.154 C 330.538 66.481,330.067 65.949,329.928 63.993 C 329.830 62.626,329.639 62.199,329.121 62.195 C 327.496 62.184,326.098 60.078,325.927 57.383 C 325.736 54.386,325.743 54.397,323.633 54.114 C 322.052 53.902,322.000 53.847,322.000 52.396 C 322.000 50.551,321.432 50.050,319.520 50.208 L 318.039 50.330 317.920 48.265 L 317.800 46.200 316.000 46.200 L 314.200 46.200 314.000 44.200 C 313.786 42.065,313.975 42.201,311.022 42.050 C 310.147 42.005,310.031 41.799,309.922 40.100 C 309.792 38.069,309.979 38.201,307.022 38.050 C 306.147 38.005,306.031 37.799,305.922 36.100 C 305.806 34.297,305.739 34.197,304.600 34.145 C 303.940 34.114,303.085 34.069,302.700 34.045 C 302.161 34.010,302.000 33.642,302.000 32.449 C 302.000 30.592,301.464 30.074,299.610 30.137 C 298.270 30.182,298.209 30.120,297.921 28.437 C 297.524 26.108,297.730 26.215,293.300 26.022 C 293.025 26.010,292.800 25.761,292.800 25.470 C 292.800 24.847,291.143 23.200,290.517 23.200 C 290.280 23.200,289.985 22.938,289.862 22.617 C 289.739 22.296,289.224 22.052,288.719 22.073 C 286.159 22.184,286.000 22.088,286.000 20.424 C 286.000 18.193,285.968 18.181,279.922 18.043 L 278.044 18.000 277.922 16.103 L 277.800 14.205 275.008 14.089 C 271.988 13.963,270.183 12.883,269.921 11.045 C 269.790 10.131,269.816 10.136,264.900 10.051 L 262.000 10.000 261.994 8.700 C 261.982 6.179,261.957 6.170,255.100 6.043 C 253.478 6.013,252.800 5.844,252.800 5.470 C 252.800 4.843,251.141 3.200,250.508 3.200 C 250.265 3.200,249.994 2.982,249.905 2.715 C 249.740 2.221,248.118 2.098,240.900 2.033 C 237.229 2.000,237.200 1.992,237.200 1.000 L 237.200 0.000 201.800 0.000 L 166.400 0.000 166.400 1.000 M216.144 75.546 C 219.416 76.640,220.800 78.965,220.800 83.372 C 220.800 88.621,218.964 89.583,208.334 89.906 L 201.668 90.109 201.234 91.831 C 200.995 92.779,200.800 94.098,200.800 94.763 C 200.800 95.555,200.355 96.479,199.510 97.441 L 198.220 98.910 194.188 98.682 C 191.970 98.556,189.625 98.236,188.978 97.970 C 184.758 96.238,184.480 96.038,183.209 93.816 C 182.512 92.597,181.690 91.600,181.383 91.600 C 181.076 91.600,180.154 91.223,179.334 90.763 C 178.019 90.024,177.420 89.954,174.222 90.162 C 172.230 90.292,164.104 90.508,156.165 90.642 L 141.729 90.887 141.289 92.143 C 141.047 92.834,140.733 94.046,140.592 94.835 C 140.451 95.624,139.839 96.851,139.233 97.562 L 138.130 98.854 133.965 98.706 C 127.830 98.487,124.773 97.218,123.221 94.244 C 121.796 91.516,120.227 90.986,112.740 90.706 C 102.914 90.338,99.834 88.888,99.189 84.325 C 98.419 78.877,100.746 75.870,106.232 75.218 C 111.124 74.638,214.347 74.945,216.144 75.546 M215.169 108.300 C 215.847 108.685,216.498 109.297,216.615 109.660 C 216.733 110.023,217.317 110.442,217.914 110.591 C 219.354 110.951,221.600 112.687,221.600 113.441 C 221.600 113.771,222.225 114.302,222.988 114.621 C 223.865 114.987,224.712 115.794,225.288 116.811 C 225.790 117.697,226.607 118.526,227.104 118.655 C 228.690 119.065,231.282 125.252,230.286 126.248 C 229.381 127.153,224.776 127.601,216.280 127.612 L 207.000 127.623 204.600 128.936 C 201.554 130.602,201.705 129.763,201.647 145.338 C 201.599 158.295,201.828 160.400,203.286 160.400 C 203.459 160.400,203.600 160.642,203.600 160.938 C 203.600 163.029,202.996 162.983,233.742 163.209 C 264.435 163.435,265.446 163.508,267.739 165.643 C 268.179 166.054,269.094 166.468,269.770 166.564 C 270.447 166.659,272.530 166.947,274.400 167.205 C 278.175 167.724,281.019 168.623,282.139 169.653 C 282.842 170.299,285.416 170.897,289.800 171.433 C 292.413 171.752,295.231 172.772,296.064 173.699 C 296.429 174.106,297.419 174.530,298.264 174.643 C 302.240 175.171,303.367 175.670,305.462 177.831 C 309.105 181.587,308.801 179.654,308.796 198.989 C 308.791 217.531,308.713 218.792,307.506 219.882 C 307.069 220.277,305.876 221.438,304.856 222.463 L 303.000 224.326 297.185 224.600 C 286.121 225.122,284.224 223.828,283.404 215.200 C 283.030 211.271,282.555 209.923,281.042 208.495 C 280.283 207.779,279.544 206.657,279.400 206.002 C 278.962 204.007,271.743 197.147,269.489 196.585 C 268.878 196.433,267.819 195.715,267.136 194.992 C 266.353 194.161,265.361 193.588,264.447 193.438 C 254.439 191.797,242.137 192.484,240.533 194.774 C 240.023 195.502,238.282 196.443,234.700 197.927 C 234.095 198.178,233.600 198.648,233.600 198.971 C 233.600 199.575,231.549 201.288,230.300 201.728 C 229.915 201.864,229.600 202.299,229.600 202.695 C 229.600 203.466,227.887 206.213,226.791 207.200 C 225.762 208.126,224.925 210.332,224.465 213.331 C 224.235 214.833,223.496 217.238,222.823 218.676 C 222.150 220.114,221.600 221.506,221.600 221.770 C 221.600 222.034,221.048 222.779,220.373 223.425 L 219.147 224.600 203.273 224.600 L 187.400 224.600 186.099 223.672 C 184.274 222.370,184.040 221.774,183.193 216.252 C 182.501 211.747,182.335 211.242,181.120 209.944 C 180.394 209.168,179.569 207.767,179.287 206.831 C 178.601 204.555,171.160 197.052,169.200 196.660 C 168.488 196.518,167.426 195.851,166.838 195.178 C 163.800 191.698,143.162 191.429,139.914 194.827 C 138.796 195.996,135.727 197.600,134.606 197.600 C 134.316 197.600,133.717 198.214,133.274 198.965 C 132.831 199.716,131.868 200.616,131.134 200.965 C 130.181 201.419,129.586 202.121,129.051 203.423 C 128.639 204.426,127.853 205.540,127.304 205.900 C 126.279 206.571,124.800 209.477,124.800 210.819 C 124.800 213.611,123.210 216.076,120.219 217.919 C 118.282 219.113,118.217 219.124,117.219 218.435 C 116.200 217.730,113.945 217.056,111.076 216.598 C 110.185 216.456,108.940 215.816,108.076 215.057 C 106.687 213.837,105.024 213.241,101.145 212.577 C 100.284 212.430,99.100 211.772,98.244 210.964 C 97.449 210.214,96.529 209.600,96.199 209.600 C 95.870 209.600,95.600 209.461,95.600 209.291 C 95.600 209.121,94.979 208.648,94.221 208.239 C 91.206 206.615,91.400 209.996,91.400 159.200 C 91.400 109.898,91.324 111.674,93.433 111.613 C 93.672 111.606,94.392 111.048,95.033 110.374 C 97.940 107.319,91.674 107.603,156.268 107.601 C 210.454 107.600,214.010 107.642,215.169 108.300 M127.378 127.997 C 126.266 128.160,124.527 128.660,123.514 129.108 L 121.672 129.923 121.407 132.462 C 121.261 133.858,121.200 140.490,121.271 147.200 L 121.400 159.400 122.524 160.869 C 124.344 163.248,123.738 163.202,152.960 163.177 C 183.744 163.151,182.867 163.213,183.339 160.995 C 183.526 160.118,183.841 159.087,184.039 158.705 C 184.532 157.756,184.479 133.828,183.979 131.661 C 183.051 127.635,183.135 127.646,153.600 127.676 C 140.290 127.689,128.490 127.833,127.378 127.997 M240.958 136.361 C 242.667 136.574,243.510 136.896,244.024 137.531 C 244.415 138.013,245.279 138.516,245.946 138.649 C 247.367 138.933,249.600 140.796,249.600 141.697 C 249.600 142.040,250.117 142.502,250.748 142.722 C 252.138 143.206,253.600 144.699,253.600 145.632 C 253.600 146.031,254.028 146.421,254.634 146.573 C 256.276 146.985,257.600 148.569,257.600 150.120 C 257.600 153.454,255.933 153.687,233.471 153.501 C 210.069 153.308,211.632 153.861,211.613 145.761 C 211.595 138.580,212.380 136.950,216.117 136.404 C 218.808 136.011,237.882 135.978,240.958 136.361 M172.083 137.500 C 175.134 139.877,175.600 141.006,175.600 146.017 C 175.600 153.598,175.565 153.610,153.629 153.571 C 130.256 153.529,131.198 153.835,131.202 146.278 C 131.207 136.018,130.022 136.541,153.436 136.460 L 170.671 136.400 172.083 137.500 M158.200 202.546 C 161.932 202.967,164.390 203.917,165.142 205.228 C 165.500 205.852,166.171 206.457,166.634 206.573 C 167.772 206.858,169.600 208.741,169.600 209.628 C 169.600 210.023,169.936 210.453,170.347 210.583 C 171.739 211.025,172.392 212.246,173.044 215.628 C 173.402 217.483,173.912 219.745,174.178 220.656 C 174.600 222.100,174.519 223.022,173.545 227.856 C 172.932 230.905,172.423 233.441,172.415 233.492 C 172.407 233.543,171.320 234.776,170.000 236.232 C 168.680 237.689,167.600 239.017,167.600 239.184 C 167.600 239.552,163.726 241.600,163.029 241.600 C 162.755 241.600,161.718 242.234,160.724 243.008 C 157.856 245.242,149.071 245.522,146.029 243.475 C 145.314 242.994,143.534 241.970,142.073 241.200 C 140.613 240.430,139.209 239.378,138.954 238.863 C 138.698 238.347,137.943 237.593,137.275 237.187 C 136.160 236.509,135.745 235.846,134.465 232.700 C 134.219 232.095,133.827 231.600,133.594 231.600 C 130.853 231.600,130.906 215.455,133.650 214.584 C 134.063 214.453,134.400 214.034,134.400 213.652 C 134.400 212.341,136.465 208.807,137.635 208.116 C 138.276 207.737,138.800 207.298,138.800 207.141 C 138.800 206.983,139.151 206.743,139.580 206.606 C 140.008 206.470,140.457 206.050,140.577 205.672 C 140.950 204.498,143.324 203.493,148.000 202.531 C 153.610 201.375,154.171 201.317,155.000 201.805 C 155.440 202.063,156.880 202.397,158.200 202.546 M257.892 202.400 C 260.514 202.400,264.444 203.745,265.571 205.028 C 266.192 205.735,267.082 206.436,267.549 206.584 C 268.016 206.732,268.932 207.630,269.585 208.579 C 270.238 209.527,271.029 210.402,271.342 210.522 C 272.103 210.814,273.062 212.801,273.396 214.775 C 273.545 215.656,273.989 216.787,274.384 217.289 C 276.187 219.581,276.210 226.149,274.422 228.068 C 273.970 228.554,273.600 229.361,273.600 229.861 C 273.600 231.978,271.570 236.358,270.575 236.387 C 270.099 236.402,268.400 238.558,268.400 239.148 C 268.400 239.498,267.314 240.092,263.600 241.773 C 262.830 242.121,261.606 242.843,260.880 243.377 C 257.668 245.738,248.166 245.269,245.200 242.604 C 244.650 242.109,243.327 241.380,242.259 240.983 C 240.876 240.468,240.028 239.821,239.306 238.730 C 238.749 237.889,238.147 237.200,237.967 237.200 C 237.123 237.200,235.607 235.164,234.979 233.188 C 234.596 231.985,233.962 230.640,233.571 230.200 C 231.046 227.364,230.968 218.668,233.445 216.191 C 233.979 215.657,234.524 214.631,234.656 213.910 C 235.018 211.941,236.536 209.534,238.395 207.984 C 239.308 207.223,240.703 206.019,241.495 205.310 C 243.141 203.835,245.566 202.935,248.935 202.549 C 250.219 202.402,251.929 202.055,252.735 201.778 C 253.943 201.362,254.437 201.373,255.549 201.837 C 256.291 202.147,257.345 202.400,257.892 202.400 " stroke="none" fill="#dcbe85" fill-rule="evenodd"></path><path id="path4" d="M106.232 75.218 C 100.746 75.870,98.419 78.877,99.189 84.325 C 99.834 88.888,102.914 90.338,112.740 90.706 C 120.227 90.986,121.796 91.516,123.221 94.244 C 124.773 97.218,127.830 98.487,133.965 98.706 L 138.130 98.854 139.233 97.562 C 139.839 96.851,140.451 95.624,140.592 94.835 C 140.733 94.046,141.047 92.834,141.289 92.143 L 141.729 90.887 156.165 90.642 C 164.104 90.508,172.230 90.292,174.222 90.162 C 177.420 89.954,178.019 90.024,179.334 90.763 C 180.154 91.223,181.076 91.600,181.383 91.600 C 181.690 91.600,182.512 92.597,183.209 93.816 C 184.480 96.038,184.758 96.238,188.978 97.970 C 189.625 98.236,191.970 98.556,194.188 98.682 L 198.220 98.910 199.510 97.441 C 200.355 96.479,200.800 95.555,200.800 94.763 C 200.800 94.098,200.995 92.779,201.234 91.831 L 201.668 90.109 208.334 89.906 C 218.964 89.583,220.800 88.621,220.800 83.372 C 220.800 78.965,219.416 76.640,216.144 75.546 C 214.347 74.945,111.124 74.638,106.232 75.218 M214.465 76.108 C 217.872 77.007,220.664 80.417,220.288 83.218 C 219.671 87.820,217.576 88.878,208.643 89.100 C 201.547 89.277,199.386 89.678,199.807 90.740 C 201.547 95.132,199.797 97.217,194.121 97.514 C 188.596 97.803,185.914 96.642,183.731 93.013 C 181.456 89.229,182.572 89.396,160.400 89.534 C 137.952 89.674,140.135 89.340,139.923 92.666 C 139.666 96.715,137.235 98.080,131.339 97.488 C 126.332 96.985,125.304 96.418,123.521 93.175 C 121.753 89.960,120.713 89.600,113.178 89.600 C 103.751 89.600,100.802 88.463,99.982 84.511 C 99.212 80.803,101.076 77.541,104.733 76.196 C 106.797 75.437,211.605 75.353,214.465 76.108 M97.400 108.375 C 96.740 108.800,95.675 109.700,95.033 110.374 C 94.392 111.048,93.672 111.606,93.433 111.613 C 91.324 111.674,91.400 109.898,91.400 159.200 C 91.400 209.996,91.206 206.615,94.221 208.239 C 94.979 208.648,95.600 209.121,95.600 209.291 C 95.600 209.461,95.870 209.600,96.199 209.600 C 96.529 209.600,97.449 210.214,98.244 210.964 C 99.100 211.772,100.284 212.430,101.145 212.577 C 105.024 213.241,106.687 213.837,108.076 215.057 C 108.940 215.816,110.185 216.456,111.076 216.598 C 113.945 217.056,116.200 217.730,117.219 218.435 C 118.217 219.124,118.282 219.113,120.219 217.919 C 123.210 216.076,124.800 213.611,124.800 210.819 C 124.800 209.477,126.279 206.571,127.304 205.900 C 127.853 205.540,128.639 204.426,129.051 203.423 C 129.586 202.121,130.181 201.419,131.134 200.965 C 131.868 200.616,132.831 199.716,133.274 198.965 C 133.717 198.214,134.316 197.600,134.606 197.600 C 135.727 197.600,138.796 195.996,139.914 194.827 C 143.162 191.429,163.800 191.698,166.838 195.178 C 167.426 195.851,168.488 196.518,169.200 196.660 C 171.160 197.052,178.601 204.555,179.287 206.831 C 179.569 207.767,180.394 209.168,181.120 209.944 C 182.335 211.242,182.501 211.747,183.193 216.252 C 184.040 221.774,184.274 222.370,186.099 223.672 L 187.400 224.600 203.273 224.600 L 219.147 224.600 220.373 223.425 C 221.048 222.779,221.600 222.034,221.600 221.770 C 221.600 221.506,222.150 220.114,222.823 218.676 C 223.496 217.238,224.235 214.833,224.465 213.331 C 224.925 210.332,225.762 208.126,226.791 207.200 C 227.887 206.213,229.600 203.466,229.600 202.695 C 229.600 202.299,229.915 201.864,230.300 201.728 C 231.549 201.288,233.600 199.575,233.600 198.971 C 233.600 198.648,234.095 198.178,234.700 197.927 C 238.282 196.443,240.023 195.502,240.533 194.774 C 242.137 192.484,254.439 191.797,264.447 193.438 C 265.361 193.588,266.353 194.161,267.136 194.992 C 267.819 195.715,268.878 196.433,269.489 196.585 C 271.743 197.147,278.962 204.007,279.400 206.002 C 279.544 206.657,280.283 207.779,281.042 208.495 C 282.555 209.923,283.030 211.271,283.404 215.200 C 284.224 223.828,286.121 225.122,297.185 224.600 L 303.000 224.326 304.856 222.463 C 305.876 221.438,307.069 220.277,307.506 219.882 C 308.713 218.792,308.791 217.531,308.796 198.989 C 308.801 179.654,309.105 181.587,305.462 177.831 C 303.367 175.670,302.240 175.171,298.264 174.643 C 297.419 174.530,296.429 174.106,296.064 173.699 C 295.231 172.772,292.413 171.752,289.800 171.433 C 285.416 170.897,282.842 170.299,282.139 169.653 C 281.019 168.623,278.175 167.724,274.400 167.205 C 272.530 166.947,270.447 166.659,269.770 166.564 C 269.094 166.468,268.179 166.054,267.739 165.643 C 265.446 163.508,264.435 163.435,233.742 163.209 C 202.996 162.983,203.600 163.029,203.600 160.938 C 203.600 160.642,203.459 160.400,203.286 160.400 C 201.828 160.400,201.599 158.295,201.647 145.338 C 201.705 129.763,201.554 130.602,204.600 128.936 L 207.000 127.623 216.280 127.612 C 224.776 127.601,229.381 127.153,230.286 126.248 C 231.282 125.252,228.690 119.065,227.104 118.655 C 226.607 118.526,225.790 117.697,225.288 116.811 C 224.712 115.794,223.865 114.987,222.988 114.621 C 222.225 114.302,221.600 113.771,221.600 113.441 C 221.600 112.687,219.354 110.951,217.914 110.591 C 217.317 110.442,216.733 110.023,216.615 109.660 C 215.916 107.495,218.976 107.600,156.268 107.601 C 99.967 107.603,98.572 107.621,97.400 108.375 M214.800 109.400 C 215.286 109.840,216.699 110.740,217.942 111.400 C 219.184 112.060,220.367 112.981,220.572 113.447 C 220.776 113.912,221.723 114.812,222.676 115.447 C 223.628 116.081,224.505 116.963,224.624 117.406 C 224.742 117.849,225.493 118.659,226.291 119.206 C 228.474 120.701,228.800 121.138,228.800 122.567 C 228.800 125.429,228.434 125.537,218.172 125.723 C 208.312 125.900,206.594 126.128,205.071 127.459 C 204.530 127.932,203.703 128.440,203.233 128.589 C 201.106 129.265,201.010 129.902,200.876 144.254 C 200.673 165.888,197.808 163.996,230.794 164.010 C 256.933 164.021,262.325 164.272,264.733 165.587 C 266.338 166.464,268.605 167.090,272.000 167.593 C 275.738 168.148,277.998 168.780,279.934 169.810 C 280.957 170.355,282.052 170.800,282.368 170.800 C 282.685 170.800,283.496 170.974,284.172 171.187 C 284.847 171.399,286.929 171.857,288.797 172.205 C 290.666 172.552,292.742 173.159,293.411 173.554 C 294.611 174.261,297.086 175.071,301.000 176.035 C 302.100 176.306,303.270 176.819,303.600 177.175 C 303.930 177.531,304.965 178.668,305.900 179.702 L 307.600 181.582 307.600 199.919 L 307.600 218.257 304.845 220.928 L 302.090 223.600 295.478 223.600 L 288.867 223.600 287.291 222.100 C 285.631 220.521,284.896 218.972,284.394 216.000 C 283.478 210.574,283.104 209.415,281.767 207.854 C 281.017 206.977,280.041 205.511,279.597 204.595 C 278.686 202.712,272.960 197.027,271.535 196.589 C 271.021 196.431,269.520 195.537,268.200 194.602 C 266.167 193.163,265.311 192.828,262.600 192.416 C 254.127 191.128,253.742 191.125,245.800 192.281 C 241.735 192.873,241.214 193.053,238.960 194.638 C 237.618 195.582,236.048 196.473,235.472 196.618 C 234.895 196.763,233.743 197.630,232.911 198.545 C 232.080 199.460,230.890 200.536,230.267 200.935 C 229.643 201.335,228.888 202.250,228.587 202.968 C 228.287 203.687,227.432 205.005,226.686 205.897 C 225.308 207.546,224.980 208.241,223.895 211.800 C 222.353 216.861,220.179 222.252,219.427 222.882 C 218.676 223.510,217.229 223.575,203.749 223.587 C 184.993 223.603,185.459 223.753,184.211 217.328 C 183.032 211.266,182.667 210.004,181.891 209.305 C 181.459 208.917,180.692 207.666,180.186 206.524 C 178.818 203.440,173.366 197.771,170.334 196.281 C 169.380 195.812,168.240 195.092,167.800 194.680 C 166.066 193.058,163.886 192.474,156.400 191.624 C 152.047 191.129,141.995 192.278,140.085 193.489 C 139.488 193.867,138.370 194.666,137.600 195.263 C 136.830 195.861,135.723 196.466,135.140 196.608 C 134.023 196.881,132.400 198.177,132.400 198.796 C 132.400 198.997,131.592 199.718,130.603 200.398 C 129.610 201.081,128.697 202.071,128.561 202.613 C 128.426 203.151,127.749 204.093,127.058 204.707 C 125.598 206.002,125.120 206.908,124.164 210.200 C 122.948 214.387,119.795 217.974,117.800 217.441 C 117.360 217.324,115.920 216.971,114.600 216.657 C 111.573 215.936,110.884 215.668,109.406 214.635 C 107.451 213.269,106.619 212.923,104.559 212.623 C 102.902 212.381,99.479 210.841,98.800 210.031 C 98.690 209.900,97.918 209.434,97.084 208.997 C 96.250 208.559,94.900 207.517,94.084 206.681 L 92.600 205.162 92.493 159.569 L 92.387 113.977 93.335 113.088 C 96.459 110.163,98.145 108.979,99.508 108.752 C 104.147 107.981,213.914 108.598,214.800 109.400 M125.000 127.258 C 124.340 127.697,123.331 128.233,122.757 128.447 C 120.672 129.229,120.600 129.771,120.600 144.761 C 120.600 161.067,120.680 161.558,123.575 162.933 C 125.394 163.797,125.497 163.800,153.862 163.800 L 182.323 163.800 183.362 162.679 C 183.933 162.063,184.401 161.253,184.402 160.879 C 184.404 160.506,184.674 159.684,185.002 159.054 C 185.797 157.531,185.849 134.479,185.065 131.507 C 184.420 129.061,182.546 127.198,180.292 126.762 C 176.120 125.955,126.286 126.401,125.000 127.258 M180.030 128.126 C 182.703 128.695,183.449 129.362,183.979 131.661 C 184.479 133.828,184.532 157.756,184.039 158.705 C 183.841 159.087,183.526 160.118,183.339 160.995 C 182.867 163.213,183.744 163.151,152.960 163.177 C 123.738 163.202,124.344 163.248,122.524 160.869 L 121.400 159.400 121.271 147.200 C 121.200 140.490,121.261 133.858,121.407 132.462 L 121.672 129.923 123.514 129.108 C 124.527 128.660,126.266 128.160,127.378 127.997 C 130.920 127.477,177.515 127.591,180.030 128.126 M216.117 136.404 C 212.380 136.950,211.595 138.580,211.613 145.761 C 211.632 153.861,210.069 153.308,233.471 153.501 C 255.933 153.687,257.600 153.454,257.600 150.120 C 257.600 148.569,256.276 146.985,254.634 146.573 C 254.028 146.421,253.600 146.031,253.600 145.632 C 253.600 144.699,252.138 143.206,250.748 142.722 C 250.117 142.502,249.600 142.040,249.600 141.697 C 249.600 140.796,247.367 138.933,245.946 138.649 C 245.279 138.516,244.415 138.013,244.024 137.531 C 242.906 136.150,223.280 135.358,216.117 136.404 M135.017 136.695 C 132.278 137.099,131.205 139.794,131.202 146.278 C 131.198 153.835,130.256 153.529,153.629 153.571 C 175.565 153.610,175.600 153.598,175.600 146.017 C 175.600 141.006,175.134 139.877,172.083 137.500 L 170.671 136.400 153.436 136.460 C 143.956 136.493,135.668 136.598,135.017 136.695 M243.374 138.360 C 244.268 138.779,245.692 139.437,246.537 139.824 C 247.383 140.210,248.248 140.906,248.459 141.371 C 248.671 141.835,249.484 142.653,250.267 143.189 C 251.049 143.726,251.981 144.622,252.338 145.182 C 252.694 145.742,253.349 146.464,253.793 146.786 C 256.285 148.597,257.262 149.911,256.740 150.748 C 255.416 152.867,255.378 152.870,234.132 152.730 L 214.464 152.600 213.432 151.630 C 210.854 149.207,212.213 139.287,215.275 138.176 C 217.760 137.275,241.384 137.430,243.374 138.360 M172.306 139.417 C 174.194 141.517,174.400 142.190,174.400 146.242 C 174.400 153.081,175.087 152.885,151.665 152.723 L 133.930 152.600 132.933 151.440 C 131.556 149.839,131.632 141.619,133.040 139.728 C 134.226 138.135,134.768 138.095,154.106 138.151 L 171.211 138.200 172.306 139.417 M152.600 201.624 C 144.278 203.129,141.038 204.219,140.577 205.672 C 140.457 206.050,140.008 206.470,139.580 206.606 C 139.151 206.743,138.800 206.983,138.800 207.141 C 138.800 207.298,138.276 207.737,137.635 208.116 C 136.465 208.807,134.400 212.341,134.400 213.652 C 134.400 214.034,134.063 214.453,133.650 214.584 C 130.906 215.455,130.853 231.600,133.594 231.600 C 133.827 231.600,134.219 232.095,134.465 232.700 C 135.745 235.846,136.160 236.509,137.275 237.187 C 137.943 237.593,138.698 238.347,138.954 238.863 C 139.209 239.378,140.613 240.430,142.073 241.200 C 143.534 241.970,145.314 242.994,146.029 243.475 C 149.071 245.522,157.856 245.242,160.724 243.008 C 161.718 242.234,162.755 241.600,163.029 241.600 C 163.726 241.600,167.600 239.552,167.600 239.184 C 167.600 239.017,168.680 237.689,170.000 236.232 C 171.320 234.776,172.407 233.543,172.415 233.492 C 172.423 233.441,172.932 230.905,173.545 227.856 C 174.519 223.022,174.600 222.100,174.178 220.656 C 173.912 219.745,173.402 217.483,173.044 215.628 C 172.392 212.246,171.739 211.025,170.347 210.583 C 169.936 210.453,169.600 210.023,169.600 209.628 C 169.600 208.741,167.772 206.858,166.634 206.573 C 166.171 206.457,165.500 205.852,165.142 205.228 C 164.390 203.917,161.932 202.967,158.200 202.546 C 156.880 202.397,155.440 202.063,155.000 201.805 C 154.493 201.506,153.614 201.440,152.600 201.624 M252.735 201.778 C 251.929 202.055,250.219 202.402,248.935 202.549 C 245.566 202.935,243.141 203.835,241.495 205.310 C 240.703 206.019,239.308 207.223,238.395 207.984 C 236.536 209.534,235.018 211.941,234.656 213.910 C 234.524 214.631,233.979 215.657,233.445 216.191 C 230.968 218.668,231.046 227.364,233.571 230.200 C 233.962 230.640,234.596 231.985,234.979 233.188 C 235.607 235.164,237.123 237.200,237.967 237.200 C 238.147 237.200,238.749 237.889,239.306 238.730 C 240.028 239.821,240.876 240.468,242.259 240.983 C 243.327 241.380,244.650 242.109,245.200 242.604 C 248.166 245.269,257.668 245.738,260.880 243.377 C 261.606 242.843,262.830 242.121,263.600 241.773 C 267.314 240.092,268.400 239.498,268.400 239.148 C 268.400 238.558,270.099 236.402,270.575 236.387 C 271.570 236.358,273.600 231.978,273.600 229.861 C 273.600 229.361,273.970 228.554,274.422 228.068 C 276.210 226.149,276.187 219.581,274.384 217.289 C 273.989 216.787,273.545 215.656,273.396 214.775 C 273.062 212.801,272.103 210.814,271.342 210.522 C 271.029 210.402,270.238 209.527,269.585 208.579 C 268.932 207.630,268.016 206.732,267.549 206.584 C 267.082 206.436,266.192 205.735,265.571 205.028 C 264.444 203.745,260.514 202.400,257.892 202.400 C 257.345 202.400,256.291 202.147,255.549 201.837 C 254.437 201.373,253.943 201.362,252.735 201.778 M159.151 203.416 C 162.196 204.052,164.400 204.957,164.400 205.573 C 164.400 205.766,165.306 206.576,166.413 207.371 C 167.521 208.167,168.581 209.219,168.771 209.709 C 168.960 210.199,169.601 211.050,170.196 211.600 C 171.660 212.955,172.273 214.238,172.588 216.605 C 172.734 217.702,173.033 219.540,173.253 220.690 C 173.736 223.215,172.710 230.787,171.661 232.445 C 169.000 236.653,165.416 240.048,162.661 240.972 C 161.394 241.397,160.270 241.887,160.162 242.061 C 158.696 244.433,150.400 244.425,145.845 242.047 C 144.109 241.141,142.481 240.400,142.226 240.400 C 140.858 240.400,136.500 235.288,134.578 231.428 L 132.600 227.456 132.600 222.569 C 132.600 218.632,132.726 217.539,133.249 216.942 C 133.606 216.534,134.568 214.776,135.385 213.035 C 137.006 209.587,136.982 209.617,139.600 207.606 C 140.590 206.845,141.671 205.926,142.003 205.562 C 142.334 205.199,143.504 204.621,144.603 204.278 C 145.701 203.935,147.140 203.481,147.800 203.270 C 149.697 202.662,155.920 202.742,159.151 203.416 M260.068 203.445 C 263.189 204.241,264.648 204.968,265.202 206.004 C 265.436 206.442,265.847 206.801,266.114 206.802 C 267.374 206.807,272.043 212.542,272.689 214.880 C 274.593 221.759,274.688 222.795,273.778 226.718 C 272.381 232.736,271.959 233.729,269.978 235.655 C 269.217 236.395,268.196 237.561,267.709 238.246 C 267.185 238.983,265.960 239.855,264.711 240.379 C 263.550 240.868,261.520 241.822,260.200 242.501 C 257.594 243.840,250.003 244.364,248.713 243.294 C 247.874 242.597,243.310 240.400,242.702 240.400 C 240.760 240.400,235.408 233.315,234.620 229.700 C 234.464 228.985,234.216 228.399,234.068 228.397 C 232.487 228.378,232.337 220.952,233.851 217.675 C 234.429 216.424,235.084 214.950,235.307 214.400 C 236.393 211.719,237.177 210.579,239.244 208.671 C 243.289 204.937,243.952 204.446,245.485 204.047 C 246.318 203.831,247.630 203.480,248.400 203.268 C 250.703 202.633,257.271 202.733,260.068 203.445 " stroke="none" fill="#e4cca0" fill-rule="evenodd"></path></g></svg>