<svg version="1" id="Layer_1" xmlns="http://www.w3.org/2000/svg" xmlns:xlink="http://www.w3.org/1999/xlink" x="0px" y="0px" width="30px" height="30px" viewBox="0 0 512 512" enable-background="new 0 0 512 512" xml:space="preserve"><g><g><g><g><path fill="#C24040" d="M440.8,134.6C422.6,75.9,375.4,28.3,317.6,10.4C256-8.7,191.7,1.6,141.4,38.8 C117.2,56.6,97.2,80,83.5,106.6c-14.2,27.5-21.7,58.4-21.7,89.5c0,42.4,13.4,82.7,38.8,116.5L256,511l155.3-198.1l0.2-0.3 C449.5,262,460.2,197.1,440.8,134.6z"></path></g></g></g><path fill="#FFFFFF" d="M317.4,129.2c0-11.8,0-22.9,0-34.9c7.6,0,14.8-0.1,22.1,0.2c0.7,0,2,3.1,2,4.7c0.2,14.2,0.2,28.4,0,42.6 c-0.1,4.1,1.1,6.3,3.9,8.3c7.6,5.3,14.9,11.1,22.6,16.3c3.3,2.3,4.7,4.8,4.6,9.5c-0.3,10.8-0.1,10.8-9.1,10.8c-4.3,0-8.5,0-12.8,0 c-0.3,0-0.5,0.2-1.4,0.4c0,60.3,0,49.3,0,110.1c-21.3,0-54.2,0-75.5,0c0-29.9,0-59.8,0-90.2c-20.1,0-15.2,0-35.1,0 c0,29.8,0,59.8,0,90.1c-21.1,0-54.1,0-75.4,0c0-60.4,0-49.6,0-110.5c-6.9,0-13.2-0.2-19.5,0.1c-3.1,0.1-3.7-1.2-4.1-4.8 c-1-8.9,1.8-13.9,8.4-18.6c34.8-25.2,69.3-51.2,103.8-77.1c2.6-2,4.4-2,7-0.1c18,13.5,36.2,26.7,54.3,40 C314.4,127.2,315.7,128,317.4,129.2z"></path></g></svg>