<?xml version="1.0" encoding="utf-8"?>
<!-- Generator: Adobe Illustrator 24.0.2, SVG Export Plug-In . SVG Version: 6.00 Build 0)  -->
<svg version="1.1" id="Layer_1" xmlns="http://www.w3.org/2000/svg" xmlns:xlink="http://www.w3.org/1999/xlink" x="0px" y="0px"
	 width="512px" height="512px" viewBox="0 0 512 512" enable-background="new 0 0 512 512" xml:space="preserve">
<g>
	<path fill="#000000" d="M256,21c31.7,0,62.5,6.2,91.5,18.5c28,11.8,53.1,28.8,74.7,50.4c21.6,21.6,38.5,46.7,50.4,74.7
		c12.2,29,18.5,59.7,18.5,91.5c0,31.7-6.2,62.5-18.5,91.5c-11.8,28-28.8,53.1-50.4,74.7c-21.6,21.6-46.7,38.5-74.7,50.4
		c-29,12.2-59.7,18.5-91.5,18.5s-62.5-6.2-91.5-18.5c-28-11.8-53.1-28.8-74.7-50.4c-21.6-21.6-38.5-46.7-50.4-74.7
		C27.2,318.5,21,287.7,21,256c0-31.7,6.2-62.5,18.5-91.5c11.8-28,28.8-53.1,50.4-74.7c21.6-21.6,46.7-38.5,74.7-50.4
		C193.5,27.2,224.3,21,256,21 M256,0C114.6,0,0,114.6,0,256s114.6,256,256,256s256-114.6,256-256S397.4,0,256,0L256,0z"/>
</g>
<g>
	<path fill="#000000" d="M464.4,285.4c-1.2-1-2.6-1.7-4.1-1.8c-54-6.1-76.5-13.5-87.4-19.6c-3.2-1.7-6.1-4-8.4-6.7l-98.1,86.8
		l97.9-86.7c-2.6-2.9-4.6-6.2-6-9.8c-11.5-29.2-9-79.6-8.6-89.6c-0.3-4.5-2.2-6.1-4.4-6.4c-0.7,0-1.3,0-1.9,0.2
		c-1.2,0.2-2.5,0.8-4,2c-7.2,7-43.2,42.2-72.8,52.9c-3.7,1.3-7.5,1.9-11.3,1.9v0.3c-3.5,0-6.9-0.6-10.2-1.9
		c-11.8-4.2-32.3-16.1-72.6-52.5c-0.5-0.5-1.1-0.9-1.8-1.2c-1-1.1-2.4-1.8-4-1.7c-2.2,0.3-4.1,1.9-4.4,6.4c0.4,10,2.9,60.4-8.6,89.6
		c-1.4,3.6-3.4,6.9-6,9.8l97.8,86.7l-98-86.8c-2.3,2.7-5.2,5-8.4,6.7c-10.9,6.1-33.4,13.5-87.4,19.6c-1.5,0.1-2.9,0.8-4.1,1.8
		c-1.4,1.3-2.2,2.8-1.1,4.7c0.9,1.7,2.7,2.7,4.7,2.5c11.2-0.6,61.9-2.9,84.8,2.5c10.2,2.2,41.2,11.2,57.4,21.7
		c11.7,7,45.7,30.6,56.9,38.8c0,0.3,0,0.5,0,0.7l5.1,3.8v0.3l5.5-3.2c0,0,0-0.4,0.1-1c10.3-7.7,45.6-32.2,57.6-39.4
		c16.2-10.5,47.2-19.5,57.4-21.7c22.9-5.4,73.6-3.1,84.8-2.5c2,0.2,3.8-0.8,4.7-2.5C466.6,288.2,465.8,286.7,464.4,285.4z
		 M212,293.7c-5.7-8.1-28.5-46.3-30.1-61.9c-1.9-8-7.6-43.5-9.4-64.4c10.6,11.1,28.6,30.6,40,46.7c2.7,3.6,4.7,7,6.5,10.2l0,0
		c0.1,0.3,0.3,0.4,0.4,0.6c5.1,9,18.9,38.2,21.9,57.4c1.9,10,5.1,35.9,7.1,54.3C235,321.8,215.6,299.9,212,293.7z M270.9,281.1
		c1.9-8.4,12.3-41.3,22-57.4l-0.1-0.3c1.5-2.5,2.9-4.6,4.3-6.1c4.7-6.7,28.1-35.2,42.4-50.2c-1.8,20.8-7.5,56.7-9.4,64.7
		c-1.6,15.6-24.4,53.8-30.1,61.9c-3.7,6.3-23.6,28.7-37,43.5C265.2,317,268.7,287.8,270.9,281.1z"/>
	
		<ellipse transform="matrix(0.9732 -0.2298 0.2298 0.9732 -35.4616 63.8363)" fill="#000000" cx="256.4" cy="184.2" rx="15.1" ry="15.1"/>
	
		<ellipse transform="matrix(0.9732 -0.2298 0.2298 0.9732 -51.8186 36.3529)" fill="#000000" cx="130.2" cy="240.7" rx="15.1" ry="15.1"/>
	
		<ellipse transform="matrix(0.7071 -0.7071 0.7071 0.7071 -58.374 340.4728)" fill="#000000" cx="381.8" cy="240.7" rx="15.1" ry="15.1"/>
</g>
</svg>
