<?xml version="1.0" encoding="utf-8"?>
<!-- Generator: Adobe Illustrator 24.0.2, SVG Export Plug-In . SVG Version: 6.00 Build 0)  -->
<svg version="1.1" id="Capa_1" xmlns="http://www.w3.org/2000/svg" xmlns:xlink="http://www.w3.org/1999/xlink" x="0px" y="0px"
	 width="512px" height="512px" viewBox="0 0 512 512" enable-background="new 0 0 512 512" xml:space="preserve">
<g>
	<g>
		<path fill="#FFFFFF" d="M198.5,21c9.9,0,18,8.1,18,18v159.5c0,9.9-8.1,18-18,18H39c-9.9,0-18-8.1-18-18V39c0-9.9,8.1-18,18-18
			H198.5 M198.5,0H39C17.5,0,0,17.5,0,39v159.5c0,21.5,17.5,39,39,39h159.5c21.5,0,39-17.5,39-39V39C237.5,17.5,220,0,198.5,0
			L198.5,0z"/>
	</g>
	<g>
		<path fill="#FFFFFF" d="M473,21c9.9,0,18,8.1,18,18v159.5c0,9.9-8.1,18-18,18H313.5c-9.9,0-18-8.1-18-18V39c0-9.9,8.1-18,18-18
			H473 M473,0H313.5c-21.5,0-39,17.5-39,39v159.5c0,21.5,17.5,39,39,39H473c21.5,0,39-17.5,39-39V39C512,17.5,494.5,0,473,0L473,0z"
			/>
	</g>
	<g>
		<path fill="#FFFFFF" d="M198.5,295.5c9.9,0,18,8.1,18,18V473c0,9.9-8.1,18-18,18H39c-9.9,0-18-8.1-18-18V313.5c0-9.9,8.1-18,18-18
			H198.5 M198.5,274.5H39c-21.5,0-39,17.5-39,39V473c0,21.5,17.5,39,39,39h159.5c21.5,0,39-17.5,39-39V313.5
			C237.5,292,220,274.5,198.5,274.5L198.5,274.5z"/>
	</g>
	<g>
		<path fill="#FFFFFF" d="M473,295.5c9.9,0,18,8.1,18,18V473c0,9.9-8.1,18-18,18H313.5c-9.9,0-18-8.1-18-18V313.5
			c0-9.9,8.1-18,18-18H473 M473,274.5H313.5c-21.5,0-39,17.5-39,39V473c0,21.5,17.5,39,39,39H473c21.5,0,39-17.5,39-39V313.5
			C512,292,494.5,274.5,473,274.5L473,274.5z"/>
	</g>
</g>
</svg>
