<?xml version="1.0" encoding="utf-8"?>
<!-- Generator: Adobe Illustrator 24.0.2, SVG Export Plug-In . SVG Version: 6.00 Build 0)  -->
<svg version="1.1" id="Layer_1" xmlns="http://www.w3.org/2000/svg" xmlns:xlink="http://www.w3.org/1999/xlink" x="0px" y="0px"
	 width="512px" height="512px" viewBox="0 0 512 512" enable-background="new 0 0 512 512" xml:space="preserve">
<g>
	<path fill="#000000" d="M419.9,1H132.9C99.4,1,72.2,28.2,72.2,61.7v26.2H43.7c-6.7,0-12.1,5.4-12.1,12.1c0,6.7,5.4,12.1,12.1,12.1
		h28.4v79.7H43.7c-6.7,0-12.1,5.4-12.1,12.1c0,6.7,5.4,12.1,12.1,12.1h28.4v79.7H43.7c-6.7,0-12.1,5.4-12.1,12.1
		c0,6.7,5.4,12.1,12.1,12.1h28.4v79.7H43.7c-6.7,0-12.1,5.4-12.1,12.1s5.4,12.1,12.1,12.1h28.4v26.2c0,33.5,27.2,60.7,60.7,60.7
		h286.9c33.5,0,60.7-27.2,60.7-60.7V61.7C480.5,28.2,453.4,1,419.9,1z M456.3,450.3c-0.1,20.1-16.3,36.4-36.4,36.4H132.9
		c-20.1-0.1-36.4-16.3-36.4-36.4v-26.2h28.4c6.7,0,12.1-5.4,12.1-12.1s-5.4-12.1-12.1-12.1H96.5v-79.7h28.4
		c6.7,0,12.1-5.4,12.1-12.1c0-6.7-5.4-12.1-12.1-12.1H96.5v-79.7h28.4c6.7,0,12.1-5.4,12.1-12.1c0-6.7-5.4-12.1-12.1-12.1H96.5
		v-79.7h28.4c6.7,0,12.1-5.4,12.1-12.1c0-6.7-5.4-12.1-12.1-12.1H96.5V61.7c0.1-20.1,16.3-36.4,36.4-36.4h286.9
		c20.1,0.1,36.4,16.3,36.4,36.4V450.3z"/>
	<path fill="#000000" d="M276.3,252.5c32.5,0,58.9-26.4,58.9-58.9s-26.4-58.9-58.9-58.9c-32.5,0-58.9,26.4-58.9,58.9
		C217.5,226.1,243.8,252.4,276.3,252.5z M276.3,158.9c19.1,0,34.6,15.5,34.6,34.6s-15.5,34.6-34.6,34.6c-19.1,0-34.6-15.5-34.6-34.6
		C241.8,174.4,257.2,158.9,276.3,158.9z"/>
	<path fill="#000000" d="M276.3,272c-50.5,0-90.1,40.9-90.1,93.3c0,6.7,5.4,12.1,12.1,12.1h155.9c6.7,0,12.1-5.4,12.1-12.1
		C366.4,313,326.9,272,276.3,272z M211.5,353.1c5.2-33.1,31.3-56.8,64.8-56.8c33.5,0,59.7,23.7,64.8,56.8H211.5z"/>
</g>
</svg>
