<?xml version="1.0" encoding="utf-8"?>
<!-- Generator: Adobe Illustrator 24.0.2, SVG Export Plug-In . SVG Version: 6.00 Build 0)  -->
<svg version="1.1" id="Layer_1" xmlns="http://www.w3.org/2000/svg" xmlns:xlink="http://www.w3.org/1999/xlink" x="0px" y="0px"
	 width="512px" height="512px" viewBox="0 0 512 512" enable-background="new 0 0 512 512" xml:space="preserve">
<g>
	<path fill="#FFFFFF" d="M509.4,217.2c-0.4-2.9-2-5.4-4.3-7.1L262.4,32.4c-3.8-2.8-8.9-2.8-12.8,0L6.9,210.1
		c-4.8,3.5-5.9,10.3-2.3,15.1c3.5,4.8,10.3,5.9,15.1,2.3L256,54.5l1.5,1.1l234.8,171.9c1.9,1.4,4.1,2.1,6.4,2.1
		c3.4,0,6.7-1.7,8.7-4.4C509.1,222.9,509.8,220,509.4,217.2z"/>
	<path fill="#FFFFFF" d="M298.5,471.7c0.4,5.7,5.2,10,10.8,10h133c6,0,10.8-4.8,10.8-10.8V245.9c0-6-4.8-10.8-10.8-10.8
		c-6,0-10.8,4.8-10.8,10.8v214.2H320V342c0-35.3-28.7-64-64-64s-64,28.7-64,64v118.1H80.6V245.9c0-6-4.8-10.8-10.8-10.8
		c-6,0-10.8,4.8-10.8,10.8v225.1c0,6,4.8,10.8,10.8,10.8h133c5.6,0,10.3-4.4,10.8-10c0-0.3,0-0.6,0-0.8V342
		c0-23.4,19-42.4,42.4-42.4c23.4,0,42.4,19,42.4,42.4v128.9C298.4,471.2,298.4,471.4,298.5,471.7z"/>
</g>
</svg>
