<?xml version="1.0" encoding="utf-8"?>
<!-- Generator: Adobe Illustrator 24.0.2, SVG Export Plug-In . SVG Version: 6.00 Build 0)  -->
<svg version="1.1" id="Capa_1" xmlns="http://www.w3.org/2000/svg" xmlns:xlink="http://www.w3.org/1999/xlink" x="0px" y="0px"
	 width="512px" height="512px" viewBox="0 0 512 512" enable-background="new 0 0 512 512" xml:space="preserve">
<path fill="#000000" d="M436.9,75.1C388.5,26.7,324.2,0,255.7,0c-9.1,0-18.4,0.5-27.5,1.5c-7.7,0.8-15.8,2.1-24.8,4
	c-1.6,0.3-3.2,0.7-4.7,1c-48.1,11-91.8,35.4-126.3,70.7c-3.2,3.3-6.3,6.7-9.4,10.1C18.1,139-4.1,205,0.6,273.3
	C5.3,341.6,36.3,404,88,448.9c46.9,40.9,106.3,63,168.2,63c3.3,0,6.7-0.1,10-0.2c65.5-2.5,126.9-29.6,172.8-76.4
	c3.2-3.3,6.4-6.7,9.4-10.1c41.1-46.8,63.6-106.8,63.6-169C512,187.9,485.3,123.5,436.9,75.1z M244.6,23.4v103.2
	c-27.4-0.6-54.9-3.8-81.7-9.6C182.6,63.5,212.2,29.7,244.6,23.4z M244.6,148.8v96.5H140.1c0.6-36.2,6-72.2,15.8-107
	C185,144.6,214.8,148.2,244.6,148.8z M90.4,90.7l1.8-1.8c1.3-1.3,2.7-2.6,4-3.9c1.1-1,2.2-2,3.3-3l1.4-1.2c1.5-1.3,3-2.6,4.5-3.9
	c1.2-1,2.5-2.1,3.7-3l0.7-0.6c1.6-1.3,3.3-2.7,5.1-4c1.4-1.1,2.9-2.1,4.6-3.3l0.9-0.6c1.4-1,2.9-2.1,4.3-3c1.7-1.2,3.5-2.3,4.8-3.1
	c1.5-0.9,3.4-2.2,5.4-3.3c1.6-1,3.3-1.9,4.9-2.9c1.9-1.1,3.7-2.1,5.6-3.1c1.7-0.9,3.4-1.8,5-2.6c1.7-0.9,3.6-1.8,5.8-2.8
	c1.7-0.8,3.4-1.6,5.1-2.3c2-0.8,4-1.7,6-2.5c1.7-0.7,3.5-1.4,5.2-2.1c2-0.8,4.1-1.5,6.1-2.2c1.7-0.6,3.5-1.2,5.3-1.8
	c1.4-0.4,2.8-0.9,4.1-1.3c-21.2,22.6-37.3,49.8-47,79.3c-17.9-4.9-35.3-11.5-51.8-19.8C89.6,91.5,90,91.1,90.4,90.7z M74.1,108.7
	c19.1,10.2,39.4,18.3,60.2,24c-10.3,36.6-15.8,74.4-16.4,112.5h-96C24.3,195.6,42.7,147.3,74.1,108.7z M74.1,403.9
	c-31.4-38.6-49.8-86.9-52.2-136.5h96c0.6,38,6.1,75.9,16.4,112.5C113.5,385.7,93.2,393.7,74.1,403.9z M183.9,479.1
	c-1.8-0.6-3.5-1.2-5.2-1.8c-1.7-0.6-3.9-1.4-6.1-2.2c-1.7-0.7-3.5-1.4-5.2-2c-2-0.8-4-1.7-6-2.5c-1.7-0.7-3.4-1.5-5.1-2.3
	c-2-0.9-3.9-1.9-5.9-2.8c-1.6-0.8-3.3-1.7-5-2.6c-1.9-1-3.8-2-5.7-3.1c-1.7-0.9-3.3-1.9-4.9-2.8c-1.6-1-3.4-2.1-5.5-3.4
	c-1.9-1.2-3.4-2.2-4.7-3.1c-1.8-1.2-3.6-2.5-5.3-3.7c-1.5-1.1-3.1-2.2-4.6-3.3c-1.8-1.4-3.6-2.8-5.1-4l-0.1-0.1
	c-1.4-1.1-2.9-2.3-4.3-3.5c-1.4-1.2-2.9-2.5-4.3-3.7l-1.6-1.4c-1.1-1-2.2-1.9-3.2-2.9c-1.3-1.2-2.6-2.5-3.8-3.7l-2.1-2.1
	c-0.3-0.3-0.7-0.7-1-1c16.5-8.3,33.9-14.9,51.8-19.8c9.6,29.5,25.8,56.7,47,79.3C186.6,479.9,185.2,479.5,183.9,479.1z M244.6,489.3
	c-32.4-6.3-62-40.2-81.7-93.6c26.8-5.8,54.3-9,81.7-9.6V489.3z M244.6,363.9c-29.8,0.6-59.6,4.1-88.7,10.6
	c-9.9-34.8-15.2-70.8-15.8-107h104.5L244.6,363.9z M437.3,108.7c31.4,38.6,49.8,86.9,52.2,136.5h-96c-0.6-38-6.1-75.9-16.4-112.5
	C398,127,418.2,118.9,437.3,108.7z M327.5,33.6c1.8,0.6,3.5,1.2,5.2,1.8c1.8,0.6,4,1.4,6.1,2.2c1.7,0.7,3.5,1.4,5.2,2l0.7,0.3
	c1.8,0.7,3.5,1.5,5.3,2.2c1.7,0.8,3.4,1.5,5.1,2.3c2,0.9,3.9,1.9,5.9,2.8c1.6,0.8,3.3,1.7,5,2.6c1.9,1,3.8,2,5.7,3.1
	c1.7,0.9,3.4,1.9,4.9,2.8c1.6,1,3.4,2.1,5.5,3.4c1.9,1.2,3.4,2.2,4.7,3.1c1.8,1.2,3.6,2.5,5.3,3.7c1.4,1,3,2.1,4.6,3.3
	c1.7,1.3,3.5,2.7,5.1,4l0.4,0.3c1.3,1.1,2.7,2.1,4,3.3c1.4,1.2,2.9,2.5,4.3,3.7l1.6,1.4c1.1,1,2.2,1.9,3.2,2.9
	c1.3,1.2,2.6,2.5,3.8,3.7l2.1,2.1c0.3,0.3,0.7,0.7,1,1c-16.5,8.3-33.9,14.9-51.8,19.8c-9.7-29.5-25.8-56.7-47-79.3
	C324.8,32.7,326.2,33.1,327.5,33.6z M266.8,23.4c32.4,6.3,62,40.2,81.7,93.6c-26.8,5.8-54.3,9-81.7,9.6V23.4z M266.8,148.8
	c29.8-0.6,59.6-4.1,88.7-10.6c9.9,34.8,15.2,70.8,15.8,107H266.8V148.8z M266.8,267.4h104.5c-0.6,36.2-6,72.2-15.8,107
	c-29.1-6.5-58.9-10-88.7-10.6V267.4z M266.8,489.3V386.1c27.4,0.6,54.9,3.8,81.7,9.6C328.8,449.1,299.2,482.9,266.8,489.3z M421,422
	l-1.8,1.8c-1.3,1.3-2.7,2.6-4,3.9c-0.8,0.7-1.6,1.4-2.4,2.1c-0.6,0.6-1.3,1.1-1.9,1.7l-0.4,0.4c-1.5,1.3-3,2.6-4.5,3.9
	c-1.3,1.1-2.6,2.1-3.9,3.1l-0.6,0.5c-1.6,1.3-3.3,2.7-5.1,4c-1.4,1.1-2.9,2.1-4.6,3.3l-0.9,0.7c-1.4,1-2.9,2-4.3,3
	c-1.4,1-3,2-4.8,3.1c-1.8,1.1-3.6,2.3-5.4,3.3l-1.8,1c-1.1,0.6-2.1,1.2-3.2,1.9c-1.9,1.1-3.7,2.1-5.6,3.1c-1.7,0.9-3.4,1.8-5,2.6
	c-1.7,0.9-3.6,1.8-5.8,2.8c-1.7,0.8-3.4,1.6-5.1,2.3c-1.9,0.8-3.8,1.6-5.8,2.4l-0.4,0.2c-1.7,0.7-3.3,1.3-5,2
	c-1.8,0.7-3.7,1.4-6.1,2.2c-1.7,0.6-3.5,1.2-5.2,1.8c-1.3,0.4-2.6,0.8-4.1,1.3c21.2-22.6,37.3-49.8,47-79.3
	c17.9,4.9,35.3,11.5,51.8,19.8C421.8,421.2,421.4,421.6,421,422z M437.3,403.9c-19.1-10.2-39.4-18.3-60.2-24
	c10.3-36.6,15.8-74.4,16.4-112.5h96C487.2,317.1,468.7,365.4,437.3,403.9z"/>
</svg>
