<?xml version="1.0" encoding="utf-8"?>
<!-- Generator: Adobe Illustrator 24.0.2, SVG Export Plug-In . SVG Version: 6.00 Build 0)  -->
<svg version="1.1" id="Capa_1" xmlns="http://www.w3.org/2000/svg" xmlns:xlink="http://www.w3.org/1999/xlink" x="0px" y="0px"
	 width="512px" height="512px" viewBox="0 0 512 512" enable-background="new 0 0 512 512" xml:space="preserve">
<g>
	<path fill="#000000" d="M56,0.9C25.1,0.9,0,26,0,56.9v398.3c0,30.9,25.1,56,56,56h199.1c6.5,0,11.7-5.3,11.7-11.7
		s-5.3-11.7-11.7-11.7H56c-17.9,0-32.5-14.6-32.5-32.5V56.9C23.4,38.9,38,24.3,56,24.3h199.1c6.5,0,11.7-5.3,11.7-11.7
		c0-6.5-5.3-11.7-11.7-11.7H56z"/>
	<path fill="#000000" d="M365.7,400.5c3.1,0,6-1.2,8.2-3.4l134.5-132.8c2.2-2.2,3.5-5.2,3.5-8.3c0-3.1-1.2-6.1-3.5-8.4L374,114.9
		c-2.2-2.2-5.2-3.4-8.3-3.4c-3.1,0-6.1,1.3-8.3,3.5c-2.2,2.2-3.4,5.2-3.4,8.3c0,3.1,1.3,6.1,3.5,8.3l114.2,112.7h-283
		c-6.5,0-11.7,5.3-11.7,11.7s5.3,11.7,11.7,11.7h283L357.5,380.4c-4.6,4.5-4.7,12-0.1,16.6C359.6,399.2,362.6,400.5,365.7,400.5z"/>
</g>
</svg>
