<?xml version="1.0" encoding="utf-8"?>
<!-- Generator: Adobe Illustrator 24.0.2, SVG Export Plug-In . SVG Version: 6.00 Build 0)  -->
<svg version="1.1" id="Layer_1" xmlns="http://www.w3.org/2000/svg" xmlns:xlink="http://www.w3.org/1999/xlink" x="0px" y="0px"
	 width="512px" height="512px" viewBox="0 0 512 512" enable-background="new 0 0 512 512" xml:space="preserve">
<g>
	<g>
		<path fill="#FFFFFF" d="M442,45h-18.5V32.5C423.5,14.6,408.9,0,391,0s-32.5,14.6-32.5,32.5V45h0h-25V32.5
			C333.5,14.6,318.9,0,301,0s-32.5,14.6-32.5,32.5V45h0h-25V32.5C243.5,14.6,228.9,0,211,0s-32.5,14.6-32.5,32.5V45h-25V32.5
			C153.5,14.6,138.9,0,121,0S88.5,14.6,88.5,32.5V45H70C31.4,45,0,76.4,0,115v327c0,38.6,31.4,70,70,70h372c38.6,0,70-31.4,70-70
			V115C512,76.4,480.6,45,442,45L442,45z M378.5,32.5c0-6.9,5.6-12.5,12.5-12.5s12.5,5.6,12.5,12.5v45c0,6.9-5.6,12.5-12.5,12.5
			s-12.5-5.6-12.5-12.5V32.5z M288.5,32.5c0-6.9,5.6-12.5,12.5-12.5s12.5,5.6,12.5,12.5v45c0,6.9-5.6,12.5-12.5,12.5
			s-12.5-5.6-12.5-12.5V32.5z M198.5,32.5c0-6.9,5.6-12.5,12.5-12.5s12.5,5.6,12.5,12.5v45c0,6.9-5.6,12.5-12.5,12.5
			s-12.5-5.6-12.5-12.5V32.5z M108.5,32.5c0-6.9,5.6-12.5,12.5-12.5s12.5,5.6,12.5,12.5v45c0,6.9-5.6,12.5-12.5,12.5
			s-12.5-5.6-12.5-12.5V32.5z M492,442c0,27.6-22.4,50-50,50H70c-27.6,0-50-22.4-50-50V115c0-27.6,22.4-50,50-50h18.5v12.5
			c0,17.9,14.6,32.5,32.5,32.5s32.5-14.6,32.5-32.5V65h25v12.5c0,17.9,14.6,32.5,32.5,32.5s32.5-14.6,32.5-32.5V65h25h0v12.5
			c0,17.9,14.6,32.5,32.5,32.5s32.5-14.6,32.5-32.5V65h25h0v12.5c0,17.9,14.6,32.5,32.5,32.5s32.5-14.6,32.5-32.5V65H442
			c27.6,0,50,22.4,50,50V442z"/>
		<path fill="#FFFFFF" d="M163.3,278.3c-2.1,6.5-0.6,13.6,4.1,18.5l29.7,31.4l-5.9,41.5c-1,6.8,1.8,13.6,7.3,17.6
			c3.3,2.4,7.1,3.7,11,3.7c2.7,0,5.4-0.6,7.9-1.8l39.1-18.6l37.3,18.3c6.1,3.2,13.4,2.8,19.1-1.1c5.8-3.9,8.8-10.7,7.9-17.6
			l-5.6-42.9l29.2-30.2c4.8-4.9,6.4-12,4.4-18.5c-2.1-6.5-7.5-11.3-14.2-12.6l-42.5-7.9l-19.7-37.1c-3.2-6-9.4-9.8-16.2-9.9
			c-6.8,0-13.1,3.6-16.4,9.6l-20.7,38l-41.5,7.3C170.9,267,165.4,271.8,163.3,278.3L163.3,278.3z M227.3,277.5
			c3-0.5,5.6-2.4,7.1-5.1l21.6-39.7l20.7,39c1.4,2.7,4,4.6,7,5.1l44.5,8.3l-30.7,31.7c-2.1,2.2-3.1,5.2-2.7,8.2l5.9,44.9L261,350.5
			c-2.7-1.3-5.9-1.4-8.7,0l-40.9,19.5l6.2-43.7c0.4-3-0.5-6.1-2.6-8.3l-31.1-32.9L227.3,277.5z"/>
		<path fill="#FFFFFF" d="M198.5,231c5.5,0,10-4.5,10-10s-4.5-10-10-10h0c-5.5,0-10,4.5-10,10S193,231,198.5,231z"/>
	</g>
</g>
</svg>
