<?xml version="1.0" encoding="utf-8"?>
<!-- Generator: Adobe Illustrator 24.0.2, SVG Export Plug-In . SVG Version: 6.00 Build 0)  -->
<svg version="1.1" id="Capa_1" xmlns="http://www.w3.org/2000/svg" xmlns:xlink="http://www.w3.org/1999/xlink" x="0px" y="0px"
	 width="512px" height="512px" viewBox="0 0 512 512" enable-background="new 0 0 512 512" xml:space="preserve">
<path fill="#FFFFFF" d="M467.8,431.9l-36.7-61.1c-16.9-28.2-25.8-60.4-25.8-93.3V224c0-67.5-45.1-124.7-106.7-143.1V42.7
	C298.7,19.1,279.5,0,256,0s-42.7,19.1-42.7,42.7v38.2C151.7,99.3,106.7,156.5,106.7,224v53.5c0,32.9-8.9,65.1-25.8,93.3l-36.7,61.1
	c-2,3.3-2,7.4-0.1,10.7c1.9,3.3,5.5,5.4,9.3,5.4h150.4c-0.7,3.5-1.1,7.1-1.1,10.7c0,29.4,23.9,53.3,53.3,53.3s53.3-23.9,53.4-53.3
	c0-3.6-0.4-7.2-1.1-10.7h150.4c3.8,0,7.4-2.1,9.3-5.4C469.8,439.3,469.8,435.1,467.8,431.9z M234.7,42.7c0-11.8,9.6-21.3,21.3-21.3
	s21.3,9.6,21.3,21.3v33.5c-7-1-14.1-1.5-21.3-1.5s-14.4,0.5-21.3,1.5V42.7z M288,458.7c0,17.6-14.4,32-32,32s-32-14.4-32-32
	c0-3.6,0.6-7.3,1.9-10.7h60.3C287.4,451.4,288,455.1,288,458.7z M72.2,426.7l26.9-44.9C118,350.3,128,314.2,128,277.5V224
	c0-70.6,57.4-128,128-128s128,57.4,128,128v53.5c0,36.7,10,72.8,28.9,104.3l27,44.9H72.2z"/>
</svg>
