<?xml version="1.0" encoding="utf-8"?>
<!-- Generator: Adobe Illustrator 24.0.2, SVG Export Plug-In . SVG Version: 6.00 Build 0)  -->
<svg version="1.1" id="Layer_1" xmlns="http://www.w3.org/2000/svg" xmlns:xlink="http://www.w3.org/1999/xlink" x="0px" y="0px"
	 width="512px" height="512px" viewBox="0 0 512 512" enable-background="new 0 0 512 512" xml:space="preserve">
<g>
	<g>
		<path fill="#FFFFFF" d="M279.9,512h-47.8c-16.1,0-29.8-12.1-31.7-28.2l-5.1-40c-10.2-3.3-20-7.4-29.3-12.1l-31.9,24.8
			c-12.9,10-31.1,8.9-42.3-2.7l-33.6-33.6c-11.5-11.1-12.6-29.3-2.6-42.2L80.3,346c-4.8-9.3-8.9-19.1-12.1-29.3l-40.1-5.1
			C12.1,309.7,0,296,0,279.9v-47.8c0-16.1,12.1-29.8,28.2-31.7l40-5.1c3.3-10.2,7.4-20,12.1-29.3l-24.7-31.9
			c-10-12.9-8.9-31.1,2.7-42.4l33.6-33.6c11.1-11.5,29.3-12.6,42.2-2.6L166,80.3c9.3-4.8,19.1-8.8,29.3-12.1l5.1-40.1
			C202.3,12.1,216,0,232.1,0h47.8c16.1,0,29.8,12.1,31.7,28.2l5.1,40c10.2,3.3,20,7.4,29.3,12.1l31.9-24.8
			c12.9-10,31.1-8.9,42.3,2.7l33.6,33.6c11.5,11.1,12.6,29.3,2.6,42.2L431.7,166c4.8,9.3,8.9,19.1,12.1,29.3l40.1,5.1
			c16,1.9,28.1,15.6,28.1,31.7v47.8c0,16.1-12.1,29.8-28.2,31.7l-40,5.1c-3.3,10.2-7.4,20-12.1,29.3l24.8,31.9
			c10,12.9,8.9,31.1-2.7,42.3l-33.6,33.6c-11.1,11.5-29.3,12.6-42.2,2.6L346,431.7c-9.3,4.8-19.1,8.9-29.3,12.1l-5.1,40.1
			C309.7,499.9,296,512,279.9,512L279.9,512z M164.9,408.3c1.8,0,3.6,0.4,5.2,1.3c11.8,6.6,24.5,11.9,37.8,15.7
			c4.1,1.2,7.1,4.7,7.6,8.9l6,46.9c0.6,5.4,5.3,9.5,10.5,9.5h47.8c5.3,0,9.9-4.1,10.5-9.4l6-47c0.5-4.2,3.5-7.7,7.6-8.9
			c13.4-3.8,26.1-9.1,37.8-15.7c3.7-2.1,8.4-1.7,11.7,0.9l37.3,29c4.3,3.3,10.3,3.1,14-0.7l33.8-33.8c3.9-3.8,4.2-9.8,0.8-14.1
			l-29-37.3c-2.6-3.4-3-8-0.9-11.7c6.6-11.8,11.9-24.5,15.7-37.8c1.2-4.1,4.7-7.1,8.9-7.6l46.9-6c5.4-0.7,9.5-5.3,9.5-10.6v-47.8
			c0-5.3-4.1-9.9-9.4-10.5l-47-6c-4.2-0.5-7.7-3.5-8.9-7.6c-3.8-13.4-9.1-26.1-15.7-37.8c-2.1-3.7-1.7-8.4,0.9-11.7l29-37.3
			c3.3-4.3,3.1-10.3-0.7-14l-33.8-33.8c-3.7-3.9-9.8-4.2-14.1-0.8l-37.3,29c-3.4,2.6-8,3-11.8,0.9c-11.7-6.6-24.4-11.8-37.8-15.7
			c-4.1-1.2-7.1-4.7-7.6-8.9l-6-46.9c-0.7-5.4-5.3-9.5-10.6-9.5h-47.8c-5.3,0-9.9,4.1-10.5,9.4l-6,47c-0.5,4.2-3.5,7.7-7.6,8.9
			c-13.4,3.8-26.1,9.1-37.8,15.7c-3.7,2.1-8.4,1.7-11.8-0.9l-37.3-29c-4.3-3.3-10.3-3.1-14,0.7L73.3,107c-3.9,3.8-4.2,9.8-0.8,14.1
			l29,37.3c2.6,3.4,3,8,0.9,11.7c-6.6,11.8-11.9,24.5-15.7,37.8c-1.2,4.1-4.7,7.1-8.9,7.6l-46.9,6c-5.4,0.6-9.5,5.3-9.5,10.5v47.8
			c0,5.3,4.1,9.9,9.4,10.5l47,6c4.2,0.5,7.7,3.5,8.9,7.6c3.8,13.4,9.1,26.1,15.7,37.8c2.1,3.7,1.7,8.4-0.9,11.7l-29,37.3
			c-3.3,4.3-3.1,10.3,0.7,14l33.8,33.8c3.7,3.9,9.7,4.2,14.1,0.8l37.3-29C160.3,409.1,162.6,408.3,164.9,408.3L164.9,408.3z"/>
	</g>
	<g>
		<path fill="#FFFFFF" d="M256,362.7c-58.8,0-106.7-47.9-106.7-106.7S197.2,149.3,256,149.3S362.7,197.2,362.7,256
			S314.8,362.7,256,362.7z M256,170.7c-47.1,0-85.3,38.3-85.3,85.3s38.3,85.3,85.3,85.3s85.3-38.3,85.3-85.3S303.1,170.7,256,170.7z
			"/>
	</g>
</g>
</svg>
