<?xml version="1.0" encoding="utf-8"?>
<!-- Generator: Adobe Illustrator 24.0.2, SVG Export Plug-In . SVG Version: 6.00 Build 0)  -->
<svg version="1.1" id="outline" xmlns="http://www.w3.org/2000/svg" xmlns:xlink="http://www.w3.org/1999/xlink" x="0px" y="0px"
	 width="512px" height="512px" viewBox="0 0 512 512" enable-background="new 0 0 512 512" xml:space="preserve">
<g>
	<path fill="#FFFFFF" d="M452,0H68c-4.7,0-8.5,3.8-8.5,8.5v494.9c0,4.7,3.8,8.5,8.5,8.5h384c4.7,0,8.5-3.8,8.5-8.5V8.5
		C460.5,3.8,456.7,0,452,0z M443.5,494.9H76.5V17.1h366.9V494.9z"/>
	<path fill="#FFFFFF" d="M127.7,140.8c18.9,0,34.1-15.3,34.1-34.1c0-18.9-15.3-34.1-34.1-34.1s-34.1,15.3-34.1,34.1
		C93.6,125.5,108.9,140.8,127.7,140.8z M127.7,89.6c9.4,0,17.1,7.6,17.1,17.1s-7.6,17.1-17.1,17.1s-17.1-7.6-17.1-17.1
		C110.7,97.2,118.3,89.6,127.7,89.6z"/>
	<rect x="187.5" y="81.1" fill="#FFFFFF" width="25.6" height="17.1"/>
	<rect x="230.1" y="81.1" fill="#FFFFFF" width="76.8" height="17.1"/>
	<rect x="272.8" y="115.2" fill="#FFFFFF" width="17.1" height="17.1"/>
	<rect x="187.5" y="115.2" fill="#FFFFFF" width="68.3" height="17.1"/>
	<path fill="#FFFFFF" d="M102.1,200.5v128c0,4.7,3.8,8.5,8.5,8.5h298.7c4.7,0,8.5-3.8,8.5-8.5v-128c0-4.7-3.8-8.5-8.5-8.5H110.7
		C106,192,102.1,195.8,102.1,200.5z M400.8,320h-73.7l-36.4-30.8l28.8-23.1c10.1-8.1,24.6-7.9,34.4,0.6l46.8,40.1V320z M119.2,209.1
		h281.6v75.3l-35.7-30.6c-16.1-13.8-39.7-14.2-56.2-1L277.5,278l-49.3-41.7c-16.3-13.8-40.2-13.5-56.1,0.7l-52.9,47V209.1z
		 M119.2,306.8l64.2-57.1c9.6-8.5,24-8.7,33.8-0.4l83.6,70.7H119.2V306.8z"/>
</g>
</svg>
