<?xml version="1.0" encoding="utf-8"?>
<!-- Generator: Adobe Illustrator 24.0.2, SVG Export Plug-In . SVG Version: 6.00 Build 0)  -->
<svg version="1.0" id="Layer_1" xmlns="http://www.w3.org/2000/svg" xmlns:xlink="http://www.w3.org/1999/xlink" x="0px" y="0px"
	 width="512px" height="512px" viewBox="0 0 512 512" enable-background="new 0 0 512 512" xml:space="preserve">
<g>
	<g>
		<rect x="1" y="1" fill="#FFFFFF" width="510" height="510"/>
		<path fill="#006FE7" d="M463.9,1h-23.5v3.9h23.5V1L463.9,1z M416.8,1h-23.5v3.9h23.5V1L416.8,1z M369.8,1h-23.5v3.9h23.5V1
			L369.8,1z M322.7,1h-23.5v3.9h23.5V1L322.7,1z M275.6,1h-23.5v3.9h23.5V1L275.6,1z M228.5,1H205v3.9h23.5V1L228.5,1z M181.5,1H158
			v3.9h23.5V1L181.5,1z M134.4,1h-23.5v3.9h23.5V1L134.4,1z M87.3,1H63.8v3.9h23.5V1L87.3,1z M40.2,1H16.7v3.9h23.5V1L40.2,1z
			 M4.9,8.8H1v23.5h3.9V8.8L4.9,8.8z M4.9,55.9H1v23.5h3.9V55.9L4.9,55.9z M4.9,103H1v23.5h3.9V103L4.9,103z M4.9,150.1H1v23.5h3.9
			V150.1L4.9,150.1z M4.9,197.2H1v23.5h3.9V197.2L4.9,197.2z M4.9,244.2H1v23.5h3.9V244.2L4.9,244.2z M4.9,291.3H1v23.5h3.9V291.3
			L4.9,291.3z M4.9,338.4H1v23.5h3.9V338.4L4.9,338.4z M4.9,385.5H1V409h3.9V385.5L4.9,385.5z M4.9,432.5H1V456h3.9V432.5L4.9,432.5
			z M4.9,479.6H1v23.5h3.9V479.6L4.9,479.6z M40.2,507.1H16.7v3.9h23.5V507.1L40.2,507.1z M87.3,507.1H63.8v3.9h23.5V507.1
			L87.3,507.1z M134.4,507.1h-23.5v3.9h23.5V507.1L134.4,507.1z M181.5,507.1H158v3.9h23.5V507.1L181.5,507.1z M228.5,507.1H205v3.9
			h23.5V507.1L228.5,507.1z M275.6,507.1h-23.5v3.9h23.5V507.1L275.6,507.1z M322.7,507.1h-23.5v3.9h23.5V507.1L322.7,507.1z
			 M369.8,507.1h-23.5v3.9h23.5V507.1L369.8,507.1z M416.8,507.1h-23.5v3.9h23.5V507.1L416.8,507.1z M463.9,507.1h-23.5v3.9h23.5
			V507.1L463.9,507.1z M511,507.1h-23.5v3.9H511V507.1L511,507.1z M511,463.9h-3.9v23.5h3.9V463.9L511,463.9z M511,416.8h-3.9v23.5
			h3.9V416.8L511,416.8z M511,369.8h-3.9v23.5h3.9V369.8L511,369.8z M511,322.7h-3.9v23.5h3.9V322.7L511,322.7z M511,275.6h-3.9
			v23.5h3.9V275.6L511,275.6z M511,228.5h-3.9V252h3.9V228.5L511,228.5z M511,181.5h-3.9V205h3.9V181.5L511,181.5z M511,134.4h-3.9
			v23.5h3.9V134.4L511,134.4z M511,87.3h-3.9v23.5h3.9V87.3L511,87.3z M511,40.2h-3.9v23.5h3.9V40.2L511,40.2z M511,1h-23.5v3.9
			h19.6v11.8h3.9V1L511,1z"/>
	</g>
	<g>
		<path fill="#006FE7" d="M257.4,226.5h46.1v5.2h-46.1v48.2h-5.3v-48.2h-44.2v-5.2h44.2v-48.3h5.3V226.5z"/>
		<text transform="matrix(1 0 0 1 119.8008 368.418)"><tspan x="0" y="0" fill="#006FE7" font-family="'MyriadPro-Regular'" font-size="63.3206px">A</tspan><tspan x="38" y="0" fill="#006FE7" font-family="'MyriadPro-Regular'" font-size="63.3206px">dd</tspan><tspan x="109.4" y="0" fill="#006FE7" font-family="'MyriadPro-Regular'" font-size="63.3206px" letter-spacing="-2"> </tspan><tspan x="120.6" y="0" fill="#006FE7" font-family="'MyriadPro-Regular'" font-size="63.3206px" letter-spacing="-1">V</tspan><tspan x="154.9" y="0" fill="#006FE7" font-family="'MyriadPro-Regular'" font-size="63.3206px">ideo</tspan></text>
	</g>
</g>
</svg>
