<?xml version="1.0" encoding="utf-8"?>
<!-- Generator: Adobe Illustrator 24.0.2, SVG Export Plug-In . SVG Version: 6.00 Build 0)  -->
<svg version="1.1" id="Layer_1" xmlns="http://www.w3.org/2000/svg" xmlns:xlink="http://www.w3.org/1999/xlink" x="0px" y="0px"
	 width="512px" height="512px" viewBox="0 0 512 512" enable-background="new 0 0 512 512" xml:space="preserve">
<g>
	<g>
		<rect x="1" y="1" fill="#FFFFFF" width="510" height="510"/>
		<path fill="#006FE7" d="M463.9,1h-23.5v3.9h23.5V1L463.9,1z M416.8,1h-23.5v3.9h23.5V1L416.8,1z M369.8,1h-23.5v3.9h23.5V1
			L369.8,1z M322.7,1h-23.5v3.9h23.5V1L322.7,1z M275.6,1h-23.5v3.9h23.5V1L275.6,1z M228.5,1H205v3.9h23.5V1L228.5,1z M181.5,1
			h-23.5v3.9h23.5V1L181.5,1z M134.4,1h-23.5v3.9h23.5V1L134.4,1z M87.3,1H63.8v3.9h23.5V1L87.3,1z M40.2,1H16.7v3.9h23.5V1L40.2,1z
			 M4.9,8.8H1v23.5h3.9V8.8L4.9,8.8z M4.9,55.9H1v23.5h3.9V55.9L4.9,55.9z M4.9,103H1v23.5h3.9V103L4.9,103z M4.9,150.1H1v23.5h3.9
			V150.1L4.9,150.1z M4.9,197.2H1v23.5h3.9V197.2L4.9,197.2z M4.9,244.2H1v23.5h3.9V244.2L4.9,244.2z M4.9,291.3H1v23.5h3.9V291.3
			L4.9,291.3z M4.9,338.4H1v23.5h3.9V338.4L4.9,338.4z M4.9,385.5H1V409h3.9V385.5L4.9,385.5z M4.9,432.5H1v23.5h3.9V432.5
			L4.9,432.5z M4.9,479.6H1v23.5h3.9V479.6L4.9,479.6z M40.2,507.1H16.7v3.9h23.5V507.1L40.2,507.1z M87.3,507.1H63.8v3.9h23.5
			V507.1L87.3,507.1z M134.4,507.1h-23.5v3.9h23.5V507.1L134.4,507.1z M181.5,507.1h-23.5v3.9h23.5V507.1L181.5,507.1z M228.5,507.1
			H205v3.9h23.5V507.1L228.5,507.1z M275.6,507.1h-23.5v3.9h23.5V507.1L275.6,507.1z M322.7,507.1h-23.5v3.9h23.5V507.1L322.7,507.1
			z M369.8,507.1h-23.5v3.9h23.5V507.1L369.8,507.1z M416.8,507.1h-23.5v3.9h23.5V507.1L416.8,507.1z M463.9,507.1h-23.5v3.9h23.5
			V507.1L463.9,507.1z M511,507.1h-23.5v3.9H511V507.1L511,507.1z M511,463.9h-3.9v23.5h3.9V463.9L511,463.9z M511,416.8h-3.9v23.5
			h3.9V416.8L511,416.8z M511,369.8h-3.9v23.5h3.9V369.8L511,369.8z M511,322.7h-3.9v23.5h3.9V322.7L511,322.7z M511,275.6h-3.9
			v23.5h3.9V275.6L511,275.6z M511,228.5h-3.9v23.5h3.9V228.5L511,228.5z M511,181.5h-3.9V205h3.9V181.5L511,181.5z M511,134.4h-3.9
			v23.5h3.9V134.4L511,134.4z M511,87.3h-3.9v23.5h3.9V87.3L511,87.3z M511,40.2h-3.9v23.5h3.9V40.2L511,40.2z M511,1h-23.5v3.9
			h19.6v11.8h3.9V1L511,1z"/>
	</g>
	<g>
		<path fill="#006FE7" d="M257.4,226.5h46.1v5.2h-46.1v48.2h-5.3v-48.2h-44.2v-5.2h44.2v-48.3h5.3V226.5z"/>
		<path fill="#006FE7" d="M134.8,357.4h-18.7l-4.2,11.7h-6.1l17-44.6h5.1l17.1,44.6h-6L134.8,357.4z M117.9,352.6h15.2l-7.6-20.9
			L117.9,352.6z"/>
		<path fill="#006FE7" d="M148.9,352.2c0-5.1,1.2-9.2,3.6-12.3c2.4-3.1,5.6-4.6,9.5-4.6c3.9,0,7,1.3,9.2,4V322h5.7v47.1h-5.2
			l-0.3-3.6c-2.3,2.8-5.4,4.2-9.5,4.2c-3.8,0-7-1.6-9.4-4.7c-2.4-3.1-3.6-7.3-3.6-12.3V352.2z M154.5,352.8c0,3.8,0.8,6.7,2.3,8.8
			c1.6,2.1,3.7,3.2,6.4,3.2c3.6,0,6.2-1.6,7.9-4.8v-15.2c-1.7-3.1-4.3-4.7-7.8-4.7c-2.8,0-4.9,1.1-6.5,3.2
			C155.3,345.5,154.5,348.6,154.5,352.8z"/>
		<path fill="#006FE7" d="M184.3,352.2c0-5.1,1.2-9.2,3.6-12.3c2.4-3.1,5.6-4.6,9.5-4.6c3.9,0,7,1.3,9.2,4V322h5.7v47.1H207
			l-0.3-3.6c-2.3,2.8-5.4,4.2-9.5,4.2c-3.8,0-7-1.6-9.4-4.7c-2.4-3.1-3.6-7.3-3.6-12.3V352.2z M189.9,352.8c0,3.8,0.8,6.7,2.3,8.8
			s3.7,3.2,6.4,3.2c3.6,0,6.2-1.6,7.9-4.8v-15.2c-1.7-3.1-4.3-4.7-7.8-4.7c-2.8,0-4.9,1.1-6.5,3.2
			C190.7,345.5,189.9,348.6,189.9,352.8z"/>
		<path fill="#006FE7" d="M243.8,369.1h-5.9v-44.6h5.9V369.1z"/>
		<path fill="#006FE7" d="M259,335.9l0.2,3.7c2.4-2.9,5.7-4.3,9.8-4.3c4.6,0,7.8,1.8,9.5,5.3c1.1-1.6,2.5-2.9,4.3-3.9
			c1.8-1,3.9-1.5,6.3-1.5c7.3,0,11,3.9,11.1,11.6v22.2h-5.7v-21.9c0-2.4-0.5-4.1-1.6-5.3s-2.9-1.8-5.5-1.8c-2.1,0-3.8,0.6-5.2,1.9
			c-1.4,1.3-2.2,2.9-2.4,5.1v22H274v-21.7c0-4.8-2.4-7.2-7.1-7.2c-3.7,0-6.3,1.6-7.6,4.8v24.2h-5.7v-33.2H259z"/>
		<path fill="#006FE7" d="M329.1,369.1c-0.3-0.7-0.6-1.8-0.8-3.5c-2.6,2.7-5.8,4.1-9.4,4.1c-3.3,0-5.9-0.9-8-2.8
			c-2.1-1.8-3.1-4.2-3.1-7c0-3.5,1.3-6.1,3.9-8c2.6-1.9,6.3-2.9,11.1-2.9h5.5v-2.6c0-2-0.6-3.6-1.8-4.7c-1.2-1.2-2.9-1.8-5.2-1.8
			c-2,0-3.7,0.5-5.1,1.5s-2.1,2.3-2.1,3.7h-5.7c0-1.7,0.6-3.3,1.8-4.8c1.2-1.5,2.8-2.8,4.8-3.7s4.2-1.3,6.6-1.3c3.8,0,6.8,1,9,2.9
			c2.2,1.9,3.3,4.5,3.4,7.9v15.3c0,3,0.4,5.5,1.2,7.3v0.5H329.1z M319.7,364.7c1.8,0,3.5-0.5,5.1-1.4s2.7-2.1,3.5-3.6V353h-4.4
			c-6.9,0-10.4,2-10.4,6.1c0,1.8,0.6,3.2,1.8,4.2C316.3,364.2,317.9,364.7,319.7,364.7z"/>
		<path fill="#006FE7" d="M341.5,352.2c0-5.2,1.2-9.3,3.6-12.3s5.6-4.6,9.5-4.6c4,0,7.2,1.4,9.5,4.3l0.3-3.7h5.2v32.4
			c0,4.3-1.3,7.7-3.8,10.1c-2.5,2.5-6,3.7-10.3,3.7c-2.4,0-4.7-0.5-7-1.5c-2.3-1-4-2.4-5.2-4.2l2.9-3.4c2.4,3,5.4,4.5,8.9,4.5
			c2.8,0,4.9-0.8,6.5-2.3c1.5-1.6,2.3-3.7,2.3-6.6v-2.9c-2.3,2.6-5.4,3.9-9.3,3.9c-3.9,0-7-1.6-9.4-4.7S341.5,357.6,341.5,352.2z
			 M347.2,352.8c0,3.7,0.8,6.7,2.3,8.8c1.5,2.1,3.7,3.2,6.4,3.2c3.6,0,6.2-1.6,7.9-4.9v-15.1c-1.7-3.2-4.3-4.8-7.8-4.8
			c-2.8,0-4.9,1.1-6.5,3.2C347.9,345.5,347.2,348.6,347.2,352.8z"/>
		<path fill="#006FE7" d="M391.8,369.7c-4.5,0-8.2-1.5-11-4.4c-2.8-2.9-4.2-6.9-4.2-11.8v-1c0-3.3,0.6-6.2,1.9-8.8
			c1.3-2.6,3-4.6,5.3-6.1c2.3-1.5,4.7-2.2,7.3-2.2c4.3,0,7.7,1.4,10.1,4.3c2.4,2.8,3.6,6.9,3.6,12.2v2.4h-22.5
			c0.1,3.3,1,5.9,2.9,7.9c1.8,2,4.2,3,7,3c2,0,3.7-0.4,5.1-1.2c1.4-0.8,2.6-1.9,3.6-3.2l3.5,2.7
			C401.5,367.5,397.4,369.7,391.8,369.7z M391.1,339.9c-2.3,0-4.2,0.8-5.8,2.5c-1.5,1.7-2.5,4-2.9,7h16.6V349
			c-0.2-2.9-0.9-5.1-2.3-6.7C395.3,340.7,393.5,339.9,391.1,339.9z"/>
	</g>
</g>
</svg>
