<?xml version="1.0" encoding="utf-8"?>
<!-- Generator: Adobe Illustrator 24.0.2, SVG Export Plug-In . SVG Version: 6.00 Build 0)  -->
<svg version="1.1" id="Layer_1" xmlns="http://www.w3.org/2000/svg" xmlns:xlink="http://www.w3.org/1999/xlink" x="0px" y="0px"
	 width="512px" height="512px" viewBox="0 0 512 512" enable-background="new 0 0 512 512" xml:space="preserve">
<g>
	<g>
		<g>
			<path fill="#FFFFFF" d="M510.3,256c0-10.2-8.3-18.5-18.5-18.5l-217.3,0l0-217.3c0-10.2-8.3-18.5-18.5-18.5
				c-10.2,0-18.5,8.3-18.5,18.5l0,217.3l-217.3,0c-10.2,0-18.5,8.3-18.5,18.5c0,5.1,2.1,9.7,5.4,13.1s8,5.4,13.1,5.4l217.3,0v217.3
				c0,5.1,2.1,9.7,5.4,13.1c3.4,3.4,8,5.4,13.1,5.4c10.2,0,18.5-8.3,18.5-18.5l0-217.3h217.3C502,274.5,510.3,266.2,510.3,256z"/>
		</g>
	</g>
</g>
</svg>
