<?xml version="1.0" encoding="utf-8"?>
<!-- Generator: Adobe Illustrator 24.0.2, SVG Export Plug-In . SVG Version: 6.00 Build 0)  -->
<svg version="1.1" id="Capa_1" xmlns="http://www.w3.org/2000/svg" xmlns:xlink="http://www.w3.org/1999/xlink" x="0px" y="0px"
	 width="512px" height="512px" viewBox="0 0 512 512" enable-background="new 0 0 512 512" xml:space="preserve">
<ellipse fill="#FFFFFF" cx="255.7" cy="355.5" rx="168.8" ry="157.5"/>
<g>
	<path fill="#F9AF38" d="M408.6,214.7c-0.5-1.1-1.5-3.7-2.6-6.9c-3.9-10.8-11.3-9.6-11.3-9.6s1.5,2.5-1,9.1
		c-0.8,4.5-26.4,37.8-31,29.2c-0.4-0.7-0.5-1.6-0.4-2.4c1.4-12.5,1.9-25.4,1.5-38.3c-2.1-59.8-24-122.2-61.8-171.3
		c-0.1-0.1-0.2-0.3-0.3-0.4c-0.6-0.8-1.2-1.5-1.8-2.3c0,0,0,0,0,0v0c-1.6-2-3.3-4.1-4.9-6c-4.3-5.2-6.5-0.8-11.2-5.6
		c-1.5-1.6-4.2-0.6-4.5,1.6c-5.5,49.1-16.9,68-29.4,83.2c-15.7,16.8-39.6,36.6-49.5,63.1c-4.9,10.8-13.1,21.3-15.7,32
		c-0.4,2.2-3.3,2.4-4.5,1.1c-9.7-9.7-16.9-28.7-19.8-45.6c-1-5.7-4.6-1.2-4.5-6c0-1.5-1.9-2.3-3-1.2c-50.5,50.2-66.2,119.9-57,193.1
		c1.5,12.2,2,24.4,5,35.8c10.2,39.7,37.8,70.5,69.7,92.9c28.7,20.1,60.2,34,97.2,30.6c0,0,0,0,0,0c81.6-6.1,143-66.2,154.5-147.2
		C430.4,292.5,419.3,245.3,408.6,214.7L408.6,214.7z"/>
	<g>
		<path fill="#F48931" d="M264,491.1c-76.8,5-148.8-49.3-167.9-123.7C93,356,90.2,343.1,88.8,331c-9.2-73.2,16.8-152.4,67.3-202.6
			c1.1-1.1,3-0.3,3,1.2c-0.1,4.8,0.4,10.2,1.4,16c-40.2,50-60,120.1-51.8,185.4c1.5,12.2,4.3,25,7.3,36.5
			C133.3,435.4,195,486.6,264,491.1z"/>
		<path fill="#F48931" d="M364.4,238c0.1,0,0.2,0,0.3,0L364.4,238L364.4,238z"/>
		<path fill="#F48931" d="M200.4,147.1c-1.5,2.9-2.9,5.9-4.2,8.8l0,0C197.4,153,198.8,150,200.4,147.1z"/>
	</g>
	<path fill="#DF646E" d="M352.2,303.6c-2.2-5.5-2.8-7.2-4.1-9.9c-0.5-1-1.9-0.8-2.1,0.3c-0.7,3.6-0.9,6.1-2.7,10.9
		c-2.9,7.7-9,14.5-14.9,20.1c-0.8,0.8-1.9,0.5-2.5-0.2c-0.3-0.5-0.4-0.9-0.4-1.3c5.6-46.3-9.2-98.7-39.4-137.9
		c-0.1-0.1-0.1-0.2-0.2-0.3c-0.1-0.2-0.3-0.3-0.4-0.5c-4-5.2-7.3-7.9-11.8-12.6c-1-1-2.8-0.4-2.9,1c-3.6,32.2-9.3,49.1-17.4,59.1
		c-7.9,9.7-16,12.4-25.1,26.3c-8.3,12.7-12.8,24.1-15.3,34.5c-0.3,1.4-5.6,2.5-6.5,1.5c-2.6-3-5.7-7.3-8.3-13.2
		c-1.7-3.9-3-7.8-3.8-11.5c-1.4-6.2-3.5-7.3-3.5-11.1c0-1-1.2-1.5-2-0.8c-35.2,35-45.6,85.6-36,136c13.4,70.2,67.1,97.5,106,96.9
		c1.7,0,3.9,0.3,6.1,0.1c24-1.9,77.1-14.2,96.6-81.3c11.1-38.4,2.8-75.4-5.2-98.5C355.3,308.3,352.2,303.6,352.2,303.6L352.2,303.6z
		"/>
	<path fill="#DC4955" d="M216.3,272.7l-3.4,8.9C213.9,278.7,215,275.7,216.3,272.7z"/>
	<path fill="#DC4955" d="M265.7,491c-2.5,0.3-4.9,0.2-6.7,0.3c-38.9,0.4-97.7-25.6-111.1-95.8c-9.6-50.4,7.4-107,42.6-142
		c0.7-0.7,1.9-0.2,1.9,0.8c0,3.8,0.4,9.4,1.8,15.6c-25.5,34.8-36.8,82.5-28.6,125.6C177.8,459.3,227.5,486.8,265.7,491z"/>
	<g>
		<g>
			<path fill="#F5FCFF" d="M235.6,440.5c-1,0-2-0.2-2.9-0.6c-3.8-1.6-5.5-6-3.9-9.7l42.2-97.6c1.6-3.8,6-5.5,9.7-3.9
				c3.8,1.6,5.5,6,3.9,9.7L242.4,436C241.2,438.8,238.4,440.5,235.6,440.5L235.6,440.5z"/>
		</g>
		<g>
			<path fill="#F5FCFF" d="M218.9,380c-0.1,0-0.2,0-0.3,0c-14.1-0.2-25.5-13.1-25.3-28.8c0.2-15.6,11.7-28.3,25.6-28.3
				c0.1,0,0.2,0,0.3,0c7,0.1,13.6,3.3,18.4,9c4.5,5.4,7,12.4,6.9,19.8s-2.7,14.4-7.3,19.7C232.3,376.9,225.8,380,218.9,380
				L218.9,380z M219,337.7c-5.9,0-10.7,6.1-10.8,13.6c-0.1,7.6,4.7,13.8,10.6,13.8c2.7,0.1,5.2-1.2,7.3-3.5
				c2.3-2.6,3.6-6.2,3.6-10.1c0-3.9-1.2-7.5-3.4-10.1C224.3,339.1,221.7,337.8,219,337.7C219,337.7,219,337.7,219,337.7L219,337.7z"
				/>
		</g>
		<g>
			<path fill="#F5FCFF" d="M293,447.8c-0.1,0-0.2,0-0.3,0c-14.1-0.2-25.5-13.1-25.3-28.8c0.2-15.6,11.7-28.3,25.6-28.3
				c0.1,0,0.2,0,0.3,0c14.1,0.2,25.5,13.1,25.3,28.8v0C318.5,435.2,307,447.8,293,447.8L293,447.8z M293.1,405.5
				c-5.9,0-10.7,6.1-10.8,13.6c-0.1,7.6,4.7,13.8,10.6,13.8c5.9,0.1,10.8-6,10.9-13.6v0C303.9,411.8,299.2,405.6,293.1,405.5
				C293.2,405.5,293.2,405.5,293.1,405.5L293.1,405.5z M311.3,419.5L311.3,419.5L311.3,419.5z"/>
		</g>
	</g>
	<path fill="#DF646E" d="M202.4,42.8c-3.4,18.1-15.1,27.3-20.2,31.4c-0.9,0.8-2.3,0.5-2.9-0.6c-3.3-5.7-11-18.2-7.6-36.3
		c0.8-4.1,0.4-8.7,2.1-12.2c5.7-12.1,15.3-20.6,19.3-23.8c0.9-0.8,2.3-0.5,2.9,0.6c2.6,4.5,8.6,16.2,9.3,29.9
		C205.4,35.5,203.1,39,202.4,42.8L202.4,42.8z"/>
	<path fill="#DC4955" d="M204.5,43.1c-3.4,18.1-18,31.1-23.1,35.2c-0.9,0.8-2.3,0.5-2.9-0.6c-3.3-5.7-12.1-23.1-8.6-41.2
		c0.8-4.5,2.4-8.6,4.3-12.4c0.8,13.6,6.8,25.4,9.3,29.8c0.6,1,2,1.3,2.9,0.6c3.8-3.1,13.1-11.3,18.8-22.8
		C205.4,35.5,205.2,39.3,204.5,43.1L204.5,43.1z"/>
	<path fill="#DF646E" d="M421.6,100.1c3.6,16.4-4.7,29.1-7.9,34.3c-0.6,1-1.9,1.2-2.8,0.6c-5-3.4-17.2-11.2-20.8-27.5
		c-0.6-2.7-2.4-5.6-2.4-8.3c0.1-13.4,6.6-25.5,9.3-29.8c0.6-1,1.9-1.2,2.8-0.6c3.8,2.6,13.4,9.8,19.3,20.3
		C420.8,92.3,420.7,96.2,421.6,100.1z"/>
	<path fill="#DC4955" d="M414.7,137.7c-0.6,0.9-1.9,1.2-2.8,0.6c-5.1-3.4-19.9-14.7-23.4-31c-0.7-3.4-0.9-6.7-0.8-10
		c5.9,10.5,15.4,17.7,19.3,20.3c0.9,0.6,2.2,0.3,2.8-0.6c2.5-4.1,8.6-15.3,9.2-27.9c1.8,3.3,3.3,6.9,4.2,10.8
		C426.7,116.2,417.9,132.5,414.7,137.7z"/>
	<path fill="#DC4955" d="M285.5,184.8c-4.3,23.5-11.9,37.3-18.8,45.7c-7.9,9.7-15.2,12.9-24.3,26.8c-4.4,6.7-8.3,16.7-11.1,24.8
		c-2.8,7.9-10.2,13.1-18.6,13.2l-5,0c3.4-1.5,3-9.6,5.3-13.7c2.9-8.2,6.8-17.1,11.7-24.3c9.1-13.9,16.4-17,24.3-26.8
		c8.1-10,17.2-27.3,20.8-59.5c0.2-1.4,1.9-2,2.9-1c4,4.1,7.8,8.4,11.3,12.8C284.5,183.6,285,184.2,285.5,184.8L285.5,184.8z"/>
	<path fill="#DC4955" d="M356.3,311.3c-0.1,0.2-0.2,0.4-0.4,0.7c-5,8.5-14.2,13.5-24,13.5h-4.6l0,0c0.4,0,0.7-0.2,1-0.5
		c5.9-5.6,10.7-13.5,13.6-21.2c1.5-4,2.6-7.7,3.3-11c0,0,0,0,0,0c0.1-0.7,0.3-1.3,0.4-1.9c0.2-1.1,1.7-1.3,2.1-0.3
		c1.4,2.8,3.3,7,5.5,12.6v0C354.3,305.6,355.3,308.3,356.3,311.3L356.3,311.3z"/>
	<path fill="#F48931" d="M364.7,238h-0.3l0,0C364.5,238,364.6,238,364.7,238z"/>
	<g>
		<path fill="#F48931" d="M276.9,2.3c-5.5,49.1-19.3,75.6-31.8,90.8c-15.7,16.8-39.2,36.3-49,62.8l0,0c-2.3,5.1-4.4,10.6-6.2,16.1
			l0,0c-0.3,0.9-0.5,1.7-0.8,2.6c0,0,0,0,0,0c-1.7,5.3-3.2,10.6-4.4,15.5c-0.2,1.2-1.2,1.8-2.3,1.9v0h6.9c8.7,0,16.4-5.7,18.9-14.1
			c2.3-7.6,5.2-16.5,7.6-21.9l0,0c9.8-26.5,33.3-45.9,49-62.8c11.2-13.8,23.7-36.7,30-77.4c-4.3-5.2-8.8-10.2-13.5-15
			C279.8-0.8,277.1,0.1,276.9,2.3L276.9,2.3z"/>
		<path fill="#F48931" d="M392.9,185.1c-1.3,6.4-3.2,13.2-5.7,19.7c-0.1,0.7-0.7,2.1-1.6,4c-0.1,0.2-0.2,0.4-0.3,0.6
			c0,0.1-0.1,0.2-0.1,0.2c-0.4,0.8-0.8,1.7-1.3,2.6c-0.1,0.2-0.2,0.3-0.3,0.5c-5.1,9.9-14.4,24.8-19.2,24.9l-0.1,0.2l1,0
			c12.2-0.2,23.7-6,31.1-15.8c4.1-5.4,8-11,9.5-14.5C402.1,197,395.6,179,392.9,185.1L392.9,185.1z"/>
	</g>
</g>
</svg>
