<?xml version="1.0" encoding="utf-8"?>
<!-- Generator: Adobe Illustrator 24.0.2, SVG Export Plug-In . SVG Version: 6.00 Build 0)  -->
<svg version="1.1" id="Capa_1" xmlns="http://www.w3.org/2000/svg" xmlns:xlink="http://www.w3.org/1999/xlink" x="0px" y="0px"
	 width="512px" height="512px" viewBox="0 0 512 512" enable-background="new 0 0 512 512" xml:space="preserve">
<g>
	<path fill="#BD1D53" d="M95.8,28.1c-6,0-10.9,4.9-10.9,10.9v28.2H51.2c-13.6,0-26.4,5.5-36.2,15.4c-9.7,9.9-15,22.9-15,36.6v313.1
		c0,28.3,23,51.3,51.2,51.3h409.6c28.2,0,51.2-23,51.2-51.2V119.4c0.1-13.9-5.4-27-15.2-37c-9.7-9.7-22.4-15.1-35.8-15.1h-35V39.1
		c0-6-4.9-10.9-10.9-10.9c-6,0-10.9,4.9-10.9,10.9v28.2H267V39.1c0-6-4.9-10.9-10.9-10.9c-6,0-10.9,4.9-10.9,10.9v28.2H106.7V39.1
		C106.7,33.1,101.8,28.1,95.8,28.1z M245.1,89.2v22.1c0,6,4.9,10.9,10.9,10.9c6,0,10.9-4.9,10.9-10.9V89.2h137v22.1
		c0,6,4.9,10.9,10.9,10.9c6,0,10.9-4.9,10.9-10.9V89.2h35c16.2,0,29.3,13.5,29.3,30.1v313.1c0,16.1-13.1,29.3-29.2,29.5h-0.2H51.2
		c-16.2,0-29.3-13.2-29.3-29.3V119.4c0-16.6,13.2-30.1,29.3-30.1h33.6v22.1c0,6,4.9,10.9,10.9,10.9c6,0,10.9-4.9,10.9-10.9V89.2
		H245.1z"/>
	<path fill="#BD1D53" d="M385.4,203.7h23.6c6,0,10.9-4.9,10.9-10.9c0-6-4.9-10.9-10.9-10.9h-23.6c-6,0-10.9,4.9-10.9,10.9
		C374.4,198.8,379.3,203.7,385.4,203.7z"/>
	<path fill="#BD1D53" d="M197.1,203.7h23.6c6,0,10.9-4.9,10.9-10.9c0-6-4.9-10.9-10.9-10.9h-23.6c-6,0-10.9,4.9-10.9,10.9
		C186.1,198.8,191,203.7,197.1,203.7z"/>
	<path fill="#BD1D53" d="M385.4,295.1h23.6c6,0,10.9-4.9,10.9-10.9c0-6-4.9-10.9-10.9-10.9h-23.6c-6,0-10.9,4.9-10.9,10.9
		C374.4,290.2,379.3,295.1,385.4,295.1z"/>
	<path fill="#BD1D53" d="M290.5,295.1H314c6,0,10.9-4.9,10.9-10.9c0-6-4.9-10.9-10.9-10.9h-23.6c-6,0-10.9,4.9-10.9,10.9
		C279.5,290.2,284.4,295.1,290.5,295.1z"/>
	<path fill="#BD1D53" d="M197.1,295.1h23.6c6,0,10.9-4.9,10.9-10.9c0-6-4.9-10.9-10.9-10.9h-23.6c-6,0-10.9,4.9-10.9,10.9
		C186.1,290.2,191,295.1,197.1,295.1z"/>
	<path fill="#BD1D53" d="M125.8,273.2h-23.6c-6,0-10.9,4.9-10.9,10.9c0,6,4.9,10.9,10.9,10.9h23.6c6,0,10.9-4.9,10.9-10.9
		C136.8,278.1,131.9,273.2,125.8,273.2z"/>
	<path fill="#BD1D53" d="M385.4,388.6h23.6c6,0,10.9-4.9,10.9-10.9c0-6-4.9-10.9-10.9-10.9h-23.6c-6,0-10.9,4.9-10.9,10.9
		C374.4,383.7,379.3,388.6,385.4,388.6z"/>
	<path fill="#BD1D53" d="M290.5,388.6H314c6,0,10.9-4.9,10.9-10.9c0-6-4.9-10.9-10.9-10.9h-23.6c-6,0-10.9,4.9-10.9,10.9
		C279.5,383.7,284.4,388.6,290.5,388.6z"/>
	<path fill="#BD1D53" d="M197.1,388.6h23.6c6,0,10.9-4.9,10.9-10.9c0-6-4.9-10.9-10.9-10.9h-23.6c-6,0-10.9,4.9-10.9,10.9
		C186.1,383.7,191,388.6,197.1,388.6z"/>
	<path fill="#BD1D53" d="M125.7,366.7h-23.6c-6,0-10.9,4.9-10.9,10.9c0,6,4.9,10.9,10.9,10.9h23.6c6,0,10.9-4.9,10.9-10.9
		C136.6,371.6,131.7,366.7,125.7,366.7z"/>
	<path fill="#BD1D53" d="M290.5,203.7H314c6,0,10.9-4.9,10.9-10.9c0-6-4.9-10.9-10.9-10.9h-23.6c-6,0-10.9,4.9-10.9,10.9
		C279.5,198.8,284.4,203.7,290.5,203.7z"/>
</g>
</svg>
