<?xml version="1.0" encoding="utf-8"?>
<!-- Generator: Adobe Illustrator 24.0.2, SVG Export Plug-In . SVG Version: 6.00 Build 0)  -->
<svg version="1.1" id="Layer_1" xmlns="http://www.w3.org/2000/svg" xmlns:xlink="http://www.w3.org/1999/xlink" x="0px" y="0px"
	 width="469.3px" height="469.3px" viewBox="0 0 469.3 469.3" enable-background="new 0 0 469.3 469.3" xml:space="preserve">
<g>
	<g>
		<g>
			<path fill="#BD1D53" d="M458.7,192c5.9,0,10.7-4.7,10.7-10.6v-42.7c0-3.8-2-7.2-5.2-9.2L255.5,5.6c-0.1-0.1-0.2-0.1-0.3-0.2
				c-13-7.2-27.6-7.4-41.3,0.1L5.2,129.5C2,131.5,0,134.9,0,138.7v42.7c0,5.9,4.8,10.6,10.7,10.6h32v192C19.1,384,0,403.1,0,426.7
				v32c0,5.9,4.8,10.7,10.7,10.7h448c5.9,0,10.7-4.8,10.7-10.7v-32c0-23.5-19.1-42.7-42.7-42.7V192H458.7z M448,426.7V448H21.3
				v-21.3c0-11.8,9.6-21.3,21.3-21.3h10.7H416h10.7C438.4,405.3,448,414.9,448,426.7z M64,384V192h42.7v192H64z M128,384V192h64v192
				H128z M213.3,384V192H256v192H213.3z M277.3,384V192h64v192H277.3z M362.7,384V192h42.7v192H362.7z M21.3,170.7v-25.9L224.4,24.1
				c6.6-3.7,13.7-3.6,20.3-0.1L448,144.7v25.9H21.3z"/>
		</g>
	</g>
</g>
</svg>
