<?xml version="1.0" encoding="utf-8"?>
<!-- Generator: Adobe Illustrator 24.0.2, SVG Export Plug-In . SVG Version: 6.00 Build 0)  -->
<svg version="1.1" id="Capa_1" xmlns="http://www.w3.org/2000/svg" xmlns:xlink="http://www.w3.org/1999/xlink" x="0px" y="0px"
	 width="512px" height="512px" viewBox="0 0 512 512" enable-background="new 0 0 512 512" xml:space="preserve">
<g>
	<g>
		
			<linearGradient id="SVGID_1_" gradientUnits="userSpaceOnUse" x1="998.6851" y1="7429.9048" x2="557.6002" y2="7870.9902" gradientTransform="matrix(1 0 0 1 -561.6 -7354.9902)">
			<stop  offset="0" style="stop-color:#FFD9D9;stop-opacity:0"/>
			<stop  offset="0.9981" style="stop-color:#FFB3B3"/>
		</linearGradient>
		<path fill="url(#SVGID_1_)" d="M411.2,155.2c-30,0-54.3-24.3-54.3-54.3C356.8,45.2,311.7,0,256,0S155.2,45.2,155.2,100.8
			c0,30-24.3,54.3-54.3,54.3C45.2,155.2,0,200.3,0,256s45.2,100.8,100.8,100.8c30,0,54.3,24.3,54.3,54.3
			c0,55.7,45.2,100.8,100.8,100.8s100.8-45.2,100.8-100.8c0-30,24.3-54.3,54.3-54.3c55.7,0,100.8-45.2,100.8-100.8
			S466.8,155.2,411.2,155.2L411.2,155.2z"/>
		<g>
			<g>
				<path fill="#FFFFFF" d="M372.3,45.6v405.8c0,5.2-4.2,9.4-9.4,9.4H107c-5.2,0-9.4-4.2-9.4-9.4V45.6c0-5.2,4.2-9.4,9.4-9.4h255.9
					C368.1,36.2,372.3,40.4,372.3,45.6L372.3,45.6z"/>
				<g>
					<path fill="#EBEBFF" d="M372.3,346.6v60l-31.1-31.1c-3.3-3.3-3.4-8.6-0.4-12.1l-40.2-40.2c-42,32.9-103,30-141.6-8.6
						c-41.7-41.7-41.7-109.6,0-151.3s109.6-41.7,151.3,0c38.6,38.6,41.5,99.6,8.6,141.6l40.2,40.2c3.5-3,8.8-2.9,12.1,0.4
						L372.3,346.6z"/>
					<path fill="#EBEBFF" d="M139.9,380.3c0,23.3-18.9,42.3-42.3,42.3v-84.5C120.9,338.1,139.9,357,139.9,380.3L139.9,380.3z"/>
				</g>
				<path fill="#FFD9D9" d="M372.3,45.6v303.9H97.6V45.6c0-5.2,4.2-9.4,9.4-9.4h255.9C368.1,36.2,372.3,40.4,372.3,45.6L372.3,45.6z
					"/>
				<path fill="#FF9494" d="M372.3,346.6v2.9h-45.5l-26.3-26.3c-42,32.9-103,30-141.6-8.6c-41.7-41.7-41.7-109.6,0-151.3
					s109.6-41.7,151.3,0c38.6,38.6,41.5,99.6,8.6,141.6l40.2,40.2c3.5-3,8.8-2.9,12.1,0.4L372.3,346.6z"/>
				<path fill="#FF6C6C" d="M372.3,85V45.6c0-5.2-4.2-9.4-9.4-9.4H107c-5.2,0-9.4,4.2-9.4,9.4V85H372.3z"/>
				<g>
					<g>
						<g>
							<path fill="#8383FF" d="M179.5,85l36.8-48.8H107c-5.2,0-9.4,4.2-9.4,9.4V85L179.5,85z"/>
							<g>
								<path fill="#FFD9D9" d="M341.6,67.1H228.4c-2.6,0-4.7-2.1-4.7-4.7s2.1-4.7,4.7-4.7h113.3c2.6,0,4.7,2.1,4.7,4.7
									C346.3,65,344.2,67.1,341.6,67.1z"/>
							</g>
						</g>
					</g>
				</g>
				<g>
					<g>
						<g>
							<g>
								<path fill="#9494FF" d="M312.2,417.5H157.7c-2.8,0-5,2.2-5,5s2.2,5,5,5h154.5c2.8,0,5-2.2,5-5S315,417.5,312.2,417.5z"/>
							</g>
							<g>
								<path fill="#9494FF" d="M194.1,398h-36.4c-2.8,0-5,2.2-5,5s2.2,5,5,5h36.4c2.8,0,5-2.2,5-5S196.9,398,194.1,398z"/>
							</g>
							<g>
								<path fill="#9494FF" d="M218.2,398h75.7c2.8,0,5,2.2,5,5s-2.2,5-5,5H218c-2.9,0-5.3-2.5-5-5.5
									C213.2,399.9,215.6,398,218.2,398L218.2,398z"/>
							</g>
						</g>
					</g>
					<g>
						<circle fill="#9494FF" cx="175.7" cy="378.5" r="5"/>
						<circle fill="#9494FF" cx="159.4" cy="378.5" r="5"/>
					</g>
				</g>
				
					<linearGradient id="SVGID_2_" gradientUnits="userSpaceOnUse" x1="234.957" y1="53.195" x2="234.957" y2="477.795" gradientTransform="matrix(1 0 0 -1 0 514)">
					<stop  offset="0" style="stop-color:#FF4D4D;stop-opacity:0.4"/>
					<stop  offset="1" style="stop-color:#FF4D4D;stop-opacity:0"/>
				</linearGradient>
				<path fill="url(#SVGID_2_)" d="M372.3,45.6v405.8c0,5.2-4.2,9.4-9.4,9.4H107c-5.2,0-9.4-4.2-9.4-9.4V45.6c0-5.2,4.2-9.4,9.4-9.4
					h255.9C368.1,36.2,372.3,40.4,372.3,45.6L372.3,45.6z"/>
				<g>
					<path fill="#9494FF" d="M292.6,290.3l18.3-18.3l55.6,55.6l-18.3,18.3L292.6,290.3z"/>
					<path fill="#8383FF" d="M292.6,290.3l18.7,18.7c3.3-2.7,6.6-5.6,9.7-8.7s6-6.3,8.7-9.7L310.9,272L292.6,290.3z"/>
					<g>
						<path fill="#9494FF" d="M310.3,289.7c-41.7,41.7-109.6,41.7-151.3,0s-41.7-109.6,0-151.3s109.6-41.7,151.3,0
							S352,248,310.3,289.7z"/>
					</g>
					<ellipse fill="#FFD9D9" cx="234.6" cy="214.1" rx="80.5" ry="80.5"/>
					<path fill="#FFEEEE" d="M284.5,150.8l-113,113c-4.5-5.7-8.1-11.8-10.8-18.2L266.3,140C272.7,142.8,278.8,146.3,284.5,150.8
						L284.5,150.8z"/>
					<path fill="#FFEEEE" d="M314.4,203.4L224,293.8c-16.2-2.1-32-9.3-44.7-21.3l113.8-113.8C305.1,171.4,312.3,187.1,314.4,203.4
						L314.4,203.4z"/>
					<path fill="#FF9494" d="M454.1,416l-17.5,17.5c-3.5,3.5-9,3.5-12.5,0l-82.9-82.9c-3.5-3.5-3.5-9,0-12.5l17.5-17.5
						c3.5-3.5,9-3.5,12.5,0l82.9,82.9C457.5,406.9,457.5,412.5,454.1,416z"/>
					<path fill="#8383FF" d="M410.2,419.6l13.8,13.8c3.5,3.5,9,3.5,12.5,0l17.5-17.5c3.5-3.5,3.5-9,0-12.5l-13.8-13.8L410.2,419.6z"
						/>
					<path fill="#FF6C6C" d="M353.2,362.7l30-30l19.8,19.8l-30,30L353.2,362.7z"/>
				</g>
				<g>
					
						<ellipse transform="matrix(3.327794e-02 -0.9994 0.9994 3.327794e-02 -266.8589 446.9417)" fill="#FF6C6C" cx="97.6" cy="361.4" rx="42.3" ry="42.3"/>
					<path fill="#FFFFFF" d="M114.2,355.6c0-9.2-7.5-16.6-16.6-16.6S81,346.4,81,355.6c0,4.5,1.8,8.6,4.8,11.6
						c-2.9,3-4.8,7.1-4.8,11.6c0,2.8,2.2,5,5,5s5-2.2,5-5c0-3.6,3-6.6,6.6-6.6s6.6,3,6.6,6.6c0,2.8,2.2,5,5,5s5-2.2,5-5
						c0-4.5-1.8-8.6-4.8-11.6C112.4,364.2,114.2,360.1,114.2,355.6z M97.6,349c3.6,0,6.6,3,6.6,6.6s-3,6.6-6.6,6.6s-6.6-3-6.6-6.6
						S94,349,97.6,349z"/>
				</g>
			</g>
			<path fill="#8383FF" d="M438.3,154.9h-3v-3c0-2.8-2.2-5-5-5s-5,2.2-5,5v3h-3c-2.8,0-5,2.2-5,5s2.2,5,5,5h3v3c0,2.8,2.2,5,5,5
				s5-2.2,5-5v-3h3c2.8,0,5-2.2,5-5S441.1,154.9,438.3,154.9z"/>
			<path fill="#FF9D33" d="M68.3,251.5h-3v-3c0-2.8-2.2-5-5-5s-5,2.2-5,5v3h-3c-2.8,0-5,2.2-5,5c0,2.8,2.2,5,5,5h3v3
				c0,2.8,2.2,5,5,5s5-2.2,5-5v-3h3c2.8,0,5-2.2,5-5S71.1,251.5,68.3,251.5z"/>
			<path fill="#FF6C6C" d="M419.1,210.9c-1.3,0-2.6-0.5-3.5-1.5l-4.5-4.5l-4.5,4.5c-2,2-5.1,2-7.1,0c-2-2-2-5.1,0-7.1l8-8
				c2-2,5.1-2,7.1,0l8,8c2,2,2,5.1,0,7.1C421.7,210.4,420.4,210.9,419.1,210.9z"/>
			<path fill="#8383FF" d="M60.3,303.5c-1.3,0-2.6-0.5-3.5-1.5l-4.5-4.5l-4.5,4.5c-2,2-5.1,2-7.1,0c-2-2-2-5.1,0-7.1l8-8
				c2-2,5.1-2,7.1,0l8,8c2,2,2,5.1,0,7.1C62.9,303,61.6,303.5,60.3,303.5z"/>
			<path fill="#FF9D33" d="M460.3,370.4c-1.3,0-2.6-0.5-3.5-1.5l-4.5-4.5l-4.5,4.5c-2,2-5.1,2-7.1,0c-2-2-2-5.1,0-7.1l8-8
				c2-2,5.1-2,7.1,0l8,8c2,2,2,5.1,0,7.1C462.9,369.9,461.6,370.4,460.3,370.4z"/>
		</g>
	</g>
</g>
<g>
	<path fill="#3C58A0" d="M269.2,258.8h-0.5v28.5c12.2-5.4,22.4-13.5,29.5-23.4v-45.6l-47.7-19v53.2h18.7c2.1,0,3.8,1.4,3.8,3.1
		C272.9,257.3,271.2,258.8,269.2,258.8L269.2,258.8z"/>
	<path fill="#2A428C" d="M250.5,252.5h18.7c0,0,0,0,0,0v-0.4c-3.7-0.9-3.5-4.4-3.5-4.4s0-31.8,0-35.4s3.8-3.3,3.8-3.3l-0.5-2.4
		l-18.5-7.4L250.5,252.5L250.5,252.5z"/>
	<path fill="#DAE2FE" d="M177.8,273.9c11.7,10.7,27.7,18.1,45.7,20.1v-35.1h0h17.7v-35.7h-63.4V273.9z"/>
	<path fill="#BEC8F7" d="M194.4,233.1c0-5.5,5.3-9.9,11.8-9.9h-28.4v50.7c4.8,4.5,10.4,8.3,16.6,11.5V233.1z"/>
	<path fill="#DAE2FE" d="M184.9,194h49.2v29.5h-49.2V194z"/>
	<path fill="#BEC8F7" d="M198.1,216.5v-15.6c0-3.9,3.7-7,8.3-7h-21.6v29.5h21.6C201.9,223.5,198.1,220.4,198.1,216.5L198.1,216.5z"
		/>
	<g>
		<path fill="#DAE2FE" d="M209.5,174.8c-1.3,0-2.3-0.9-2.3-2v-8.1c0-1.1,1.1-2,2.3-2c1.3,0,2.3,0.9,2.3,2v8.1
			C211.8,173.9,210.8,174.8,209.5,174.8z"/>
	</g>
	<g>
		<path fill="#A8B7EF" d="M187.2,230c-1.3,0-2.3,0.9-2.3,2v47.6c1.5,1.1,3.1,2.1,4.7,3.1V232C189.5,230.9,188.5,230,187.2,230z"/>
		<path fill="#A8B7EF" d="M196.1,230c-1.3,0-2.3,0.9-2.3,2v53c1.5,0.8,3.1,1.6,4.7,2.3V232C198.5,230.9,197.4,230,196.1,230z"/>
		<path fill="#A8B7EF" d="M205,230c-1.3,0-2.3,0.9-2.3,2v57c1.5,0.6,3.1,1.1,4.7,1.6V232C207.4,230.9,206.3,230,205,230z"/>
		<path fill="#A8B7EF" d="M214,230c-1.3,0-2.3,0.9-2.3,2v59.8c1.5,0.4,3.1,0.7,4.7,1.1V232C216.3,230.9,215.2,230,214,230z"/>
	</g>
	<g>
		<path fill="#A8B7EF" d="M222.9,249.7c-1.3,0-2.3-0.9-2.3-2V232c0-1.1,1.1-2,2.3-2c1.3,0,2.3,0.9,2.3,2v15.7
			C225.2,248.8,224.2,249.7,222.9,249.7z"/>
	</g>
	<g>
		<path fill="#A8B7EF" d="M196.1,218.8c-1.3,0-2.3-0.9-2.3-2v-15.7c0-1.1,1.1-2,2.3-2s2.3,0.9,2.3,2v15.7
			C198.5,217.9,197.4,218.8,196.1,218.8z"/>
	</g>
	<g>
		<path fill="#A8B7EF" d="M205,218.8c-1.3,0-2.3-0.9-2.3-2v-15.7c0-1.1,1.1-2,2.3-2c1.3,0,2.3,0.9,2.3,2v15.7
			C207.4,217.9,206.3,218.8,205,218.8z"/>
	</g>
	<g>
		<path fill="#A8B7EF" d="M214,218.8c-1.3,0-2.3-0.9-2.3-2v-15.7c0-1.1,1.1-2,2.3-2c1.3,0,2.3,0.9,2.3,2v15.7
			C216.3,217.9,215.2,218.8,214,218.8z"/>
	</g>
	<g>
		<path fill="#A8B7EF" d="M222.9,218.8c-1.3,0-2.3-0.9-2.3-2v-15.7c0-1.1,1.1-2,2.3-2c1.3,0,2.3,0.9,2.3,2v15.7
			C225.2,217.9,224.2,218.8,222.9,218.8z"/>
	</g>
	<g>
		<path fill="#A8B7EF" d="M222.9,218.8c-1.3,0-2.3-0.9-2.3-2v-15.7c0-1.1,1.1-2,2.3-2c1.3,0,2.3,0.9,2.3,2v15.7
			C225.2,217.9,224.2,218.8,222.9,218.8z"/>
	</g>
	<g>
		<path fill="#A8B7EF" d="M231.8,249.7c-1.3,0-2.3-0.9-2.3-2V232c0-1.1,1.1-2,2.3-2c1.3,0,2.3,0.9,2.3,2v15.7
			C234.1,248.8,233.1,249.7,231.8,249.7L231.8,249.7z"/>
	</g>
	<path fill="#DAE2FE" d="M196.6,174.3h25.8V194h-25.8L196.6,174.3z"/>
	<path fill="#BEC8F7" d="M207.4,188v-7.8c0-3.3,3.2-5.9,7.1-5.9h-17.9V194h17.9C210.6,194,207.4,191.3,207.4,188z"/>
	<path fill="#FFC839" d="M222.9,258.9v35c3.5,0.4,7,0.6,10.6,0.6c12.9,0,25-2.7,35.7-7.5v-28.1H222.9z"/>
	<path fill="#FFB332" d="M239.5,285.6v-17.9c0-4.9,4.8-8.9,10.6-8.9h-27.3v35c3.5,0.4,7,0.6,10.6,0.6c4.1,0,8.2-0.3,12.2-0.8
		C242,292.3,239.5,289.2,239.5,285.6L239.5,285.6z"/>
	<g>
		<path fill="#73C3F9" d="M288,228.4h-27.6c-1.3,0-2.3-0.9-2.3-2c0-1.1,1.1-2,2.3-2H288c1.3,0,2.3,0.9,2.3,2
			C290.3,227.6,289.3,228.4,288,228.4z"/>
	</g>
	<g>
		<path fill="#73C3F9" d="M288,236.7h-27.6c-1.3,0-2.3-0.9-2.3-2c0-1.1,1.1-2,2.3-2H288c1.3,0,2.3,0.9,2.3,2
			C290.3,235.8,289.3,236.7,288,236.7z"/>
	</g>
	<g>
		<path fill="#73C3F9" d="M288,245h-27.6c-1.3,0-2.3-0.9-2.3-2s1.1-2,2.3-2H288c1.3,0,2.3,0.9,2.3,2S289.3,245,288,245z"/>
	</g>
	<g>
		<path fill="#73C3F9" d="M288,253.3h-9.1c-1.3,0-2.3-0.9-2.3-2s1.1-2,2.3-2h9.1c1.3,0,2.3,0.9,2.3,2S289.3,253.3,288,253.3z"/>
	</g>
	<g>
		<path fill="#73C3F9" d="M288,261.6h-9.1c-1.3,0-2.3-0.9-2.3-2s1.1-2,2.3-2h9.1c1.3,0,2.3,0.9,2.3,2S289.3,261.6,288,261.6z"/>
	</g>
	<g>
		<path fill="#73C3F9" d="M288,269.9h-11c-1.3,0-2.3-0.9-2.3-2c0-1.1,1.1-2,2.3-2h11c1.3,0,2.3,0.9,2.3,2
			C290.3,269,289.3,269.9,288,269.9z"/>
	</g>
	<path fill="#73C3F9" d="M288,274.2h-11c-1.3,0-2.3,0.9-2.3,2s1.1,2,2.3,2h7.1c1.6-1.2,3.1-2.5,4.6-3.8
		C288.5,274.3,288.3,274.2,288,274.2z"/>
	<g>
		<path fill="#4F71B6" d="M298.5,220.3c-0.3,0-0.7-0.1-1-0.2l-48.5-19.4c-1.2-0.5-1.7-1.6-1.1-2.6c0.6-1,2-1.4,3.1-0.9l48.5,19.4
			c1.2,0.5,1.7,1.6,1.1,2.6C300.2,219.9,299.4,220.3,298.5,220.3z"/>
	</g>
	<g>
		<path fill="#FF9100" d="M232.6,271c-1.3,0-2.3-0.9-2.3-2v-2.4c0-1.1,1.1-2,2.3-2c1.3,0,2.3,0.9,2.3,2v2.4
			C235,270.1,233.9,271,232.6,271L232.6,271z"/>
	</g>
	<g>
		<path fill="#FF9100" d="M241.6,271c-1.3,0-2.3-0.9-2.3-2v-2.4c0-1.1,1.1-2,2.3-2s2.3,0.9,2.3,2v2.4
			C243.9,270.1,242.9,271,241.6,271z"/>
	</g>
	<g>
		<path fill="#FF9100" d="M250.5,271c-1.3,0-2.3-0.9-2.3-2v-2.4c0-1.1,1.1-2,2.3-2s2.3,0.9,2.3,2v2.4
			C252.8,270.1,251.8,271,250.5,271z"/>
	</g>
	<g>
		<path fill="#FF9100" d="M259.4,271c-1.3,0-2.3-0.9-2.3-2v-2.4c0-1.1,1.1-2,2.3-2c1.3,0,2.3,0.9,2.3,2v2.4
			C261.8,270.1,260.7,271,259.4,271z"/>
	</g>
	<g>
		<path fill="#FF9100" d="M232.6,281.2c-1.3,0-2.3-0.9-2.3-2v-2.4c0-1.1,1.1-2,2.3-2c1.3,0,2.3,0.9,2.3,2v2.4
			C235,280.3,233.9,281.2,232.6,281.2L232.6,281.2z"/>
	</g>
	<g>
		<path fill="#FF9100" d="M241.6,281.2c-1.3,0-2.3-0.9-2.3-2v-2.4c0-1.1,1.1-2,2.3-2s2.3,0.9,2.3,2v2.4
			C243.9,280.3,242.9,281.2,241.6,281.2z"/>
	</g>
	<g>
		<path fill="#FF9100" d="M250.5,281.2c-1.3,0-2.3-0.9-2.3-2v-2.4c0-1.1,1.1-2,2.3-2s2.3,0.9,2.3,2v2.4
			C252.8,280.3,251.8,281.2,250.5,281.2z"/>
	</g>
	<g>
		<path fill="#FF9100" d="M259.4,281.2c-1.3,0-2.3-0.9-2.3-2v-2.4c0-1.1,1.1-2,2.3-2c1.3,0,2.3,0.9,2.3,2v2.4
			C261.8,280.3,260.7,281.2,259.4,281.2z"/>
	</g>
	<g>
		<path fill="#FF9100" d="M232.6,291.4c-1.3,0-2.3-0.9-2.3-2V287c0-1.1,1.1-2,2.3-2c1.3,0,2.3,0.9,2.3,2v2.4
			C235,290.5,233.9,291.4,232.6,291.4L232.6,291.4z"/>
	</g>
	<g>
		<path fill="#FF9100" d="M241.6,291.4c-1.3,0-2.3-0.9-2.3-2V287c0-1.1,1.1-2,2.3-2s2.3,0.9,2.3,2v2.4
			C243.9,290.5,242.9,291.4,241.6,291.4z"/>
	</g>
	<g>
		<path fill="#FF9100" d="M250.5,291.4c-1.3,0-2.3-0.9-2.3-2V287c0-1.1,1.1-2,2.3-2s2.3,0.9,2.3,2v2.4
			C252.8,290.5,251.8,291.4,250.5,291.4z"/>
	</g>
	<path fill="#FF9100" d="M259.4,285c-1.3,0-2.3,0.9-2.3,2v2.4c0,0.7,0.5,1.3,1.1,1.7c1.2-0.3,2.3-0.7,3.5-1.1
		c0.1-0.2,0.1-0.4,0.1-0.6V287C261.8,285.9,260.7,285,259.4,285z"/>
	<g>
		<path fill="#FFDD40" d="M269.2,259.1h-46.3c-2.3,0-4.2-1.6-4.2-3.5s1.9-3.5,4.2-3.5h46.3c2.3,0,4.2,1.6,4.2,3.5
			C273.4,257.6,271.5,259.1,269.2,259.1z"/>
	</g>
	<path fill="#FFC839" d="M242.1,255.6c0-2,1.9-3.5,4.2-3.5h-23.4c-2.3,0-4.2,1.6-4.2,3.5s1.9,3.5,4.2,3.5h23.4
		C244,259.1,242.1,257.6,242.1,255.6z"/>
	<g>
		<path fill="#E9EFFF" d="M222.4,176.3h-25.8c-1.3,0-2.3-0.9-2.3-2s1.1-2,2.3-2h25.8c1.3,0,2.3,0.9,2.3,2S223.7,176.3,222.4,176.3z"
			/>
	</g>
	<g>
		<path fill="#E9EFFF" d="M234.1,195.9h-49.2c-1.3,0-2.3-0.9-2.3-2c0-1.1,1.1-2,2.3-2h49.2c1.3,0,2.3,0.9,2.3,2
			C236.4,195,235.4,195.9,234.1,195.9z"/>
	</g>
	<g>
		<path fill="#E9EFFF" d="M241.2,225.2h-63.4c-1.3,0-2.3-0.9-2.3-2c0-1.1,1.1-2,2.3-2h63.4c1.3,0,2.3,0.9,2.3,2
			C243.5,224.3,242.5,225.2,241.2,225.2z"/>
	</g>
	<g>
		<path fill="#A8B7EF" d="M205,188.6c-1.3,0-2.3-0.9-2.3-2v-5.5c0-1.1,1.1-2,2.3-2c1.3,0,2.3,0.9,2.3,2v5.5
			C207.4,187.8,206.3,188.6,205,188.6z"/>
	</g>
	<g>
		<path fill="#A8B7EF" d="M214,188.6c-1.3,0-2.3-0.9-2.3-2v-5.5c0-1.1,1.1-2,2.3-2s2.3,0.9,2.3,2v5.5
			C216.3,187.8,215.2,188.6,214,188.6z"/>
	</g>
</g>
</svg>
