<?xml version="1.0" encoding="utf-8"?>
<!-- Generator: Adobe Illustrator 24.0.2, SVG Export Plug-In . SVG Version: 6.00 Build 0)  -->
<svg version="1.1" id="Capa_1" xmlns="http://www.w3.org/2000/svg" xmlns:xlink="http://www.w3.org/1999/xlink" x="0px" y="0px"
	 width="512px" height="512px" viewBox="0 0 512 512" style="enable-background:new 0 0 512 512;" xml:space="preserve">
<style type="text/css">
	.st0{fill:#BD1D53;}
</style>
<g>
	<path class="st0" d="M512,109.1c0-24.2-19.7-43.9-43.9-43.9H43.9C19.7,65.3,0,84.9,0,109.1v293.7c0,24.2,19.7,43.9,43.9,43.9h424.3
		c24.2,0,43.9-19.7,43.9-43.9V109.1z M35.7,89.3c2.5-1.1,5.4-1.6,8.2-1.6h424.3c2.6,0,5.1,0.5,8,1.5l8.1,3L256,290.1L28.1,92.5
		L35.7,89.3z M489.6,402.9c0,11.8-9.6,21.4-21.4,21.4H43.9c-11.8,0-21.4-9.6-21.4-21.4V117.3l226.2,196c2,1.8,4.7,2.7,7.4,2.7
		c2.7,0,5.3-1,7.4-2.7l226.2-196V402.9z"/>
</g>
</svg>
