<svg id="FilterReset" xmlns="http://www.w3.org/2000/svg" width="512.058" height="480" viewBox="0 0 512.058 480">
  <g id="Group_1079" data-name="Group 1079" transform="translate(0 -16)">
    <path id="Path_598" data-name="Path 598" d="M502,161.2a15.993,15.993,0,0,0-20.8,8.9L471.6,194C444.1,91.6,350.9,16,240,16,107.6,16,0,123.6,0,256S107.6,496,240,496a238.505,238.505,0,0,0,169.7-70.3,15.981,15.981,0,0,0-22.6-22.6A206.735,206.735,0,0,1,240,464C125.3,464,32,370.7,32,256S125.3,48,240,48c99.9,0,183.5,70.8,203.4,164.8l-32.1-32.1a15.981,15.981,0,1,0-22.6,22.6l64,64a8.339,8.339,0,0,0,1.2.8,16.585,16.585,0,0,0,3.9,2.6,14.238,14.238,0,0,0,6.1,1.3,17.331,17.331,0,0,0,3.2-.3,6.722,6.722,0,0,0,1.2-.6,18.471,18.471,0,0,0,4.5-2.1,18.753,18.753,0,0,0,1.8-1.2,16.9,16.9,0,0,0,4.2-5.7.1.1,0,0,1,.1-.1l32-80A15.957,15.957,0,0,0,502,161.2Z" fill="#fff"/>
  </g>
</svg>
