<?xml version="1.0" encoding="utf-8"?>
<!-- Generator: Adobe Illustrator 24.0.2, SVG Export Plug-In . SVG Version: 6.00 Build 0)  -->
<svg version="1.1" id="Layer_1" xmlns="http://www.w3.org/2000/svg" xmlns:xlink="http://www.w3.org/1999/xlink" x="0px" y="0px"
	 width="512px" height="512px" viewBox="0 0 512 512" enable-background="new 0 0 512 512" xml:space="preserve">
<g>
	<g>
		<path fill="#BD1D53" d="M502,161.2c-8.2-3.3-17.5,0.7-20.8,8.9l-9.6,23.9C444.1,91.6,350.9,16,240,16C107.6,16,0,123.6,0,256
			s107.6,240,240,240c64.1,0,124.4-25,169.7-70.3c6.2-6.2,6.2-16.4,0-22.6s-16.4-6.2-22.6,0C347.8,442.4,295.5,464,240,464
			c-114.7,0-208-93.3-208-208S125.3,48,240,48c99.9,0,183.5,70.8,203.4,164.8l-32.1-32.1c-6.2-6.2-16.4-6.2-22.6,0s-6.2,16.4,0,22.6
			l64,64c0.4,0.4,0.8,0.5,1.2,0.8c1.2,1,2.5,2,3.9,2.6c1.9,0.9,4,1.3,6.1,1.3c1.1,0,2.1-0.1,3.2-0.3c0.4-0.1,0.8-0.4,1.2-0.6
			c1.6-0.5,3.1-1.2,4.5-2.1c0.6-0.4,1.2-0.7,1.8-1.2c1.8-1.6,3.2-3.5,4.2-5.7c0,0,0-0.1,0.1-0.1l32-80
			C514.2,173.8,510.2,164.4,502,161.2z"/>
	</g>
</g>
</svg>
