<?xml version="1.0" encoding="utf-8"?>
<!-- Generator: Adobe Illustrator 24.0.2, SVG Export Plug-In . SVG Version: 6.00 Build 0)  -->
<svg version="1.1" id="Layer_1" xmlns="http://www.w3.org/2000/svg" xmlns:xlink="http://www.w3.org/1999/xlink" x="0px" y="0px"
	 width="512px" height="512px" viewBox="0 0 512 512" enable-background="new 0 0 512 512" xml:space="preserve">
<g>
	<path fill="#BD1D53" d="M447.6,492v-305c24.9-8.4,42.9-31.9,42.9-59.6s-18-51.3-42.9-59.6V20c0-11.1-9-20-20-20c-11.1,0-20,9-20,20
		v47.6c-24.9,8.4-42.9,31.9-42.9,59.6s18,51.3,42.9,59.6v305c0,11.1,9,20,20,20C438.7,512,447.6,503,447.6,492z M404.7,127.3
		c0-12.6,10.3-22.9,22.9-22.9s22.9,10.3,22.9,22.9s-10.3,22.9-22.9,22.9C415,150.2,404.7,139.9,404.7,127.3z"/>
	<path fill="#BD1D53" d="M276,492v-47.6c24.9-8.4,42.9-31.9,42.9-59.6c0-27.7-18-51.3-42.9-59.6V20c0-11.1-9-20-20-20
		c-11.1,0-20,9-20,20v305c-24.9,8.4-42.9,31.9-42.9,59.6c0,27.7,18,51.3,42.9,59.6V492c0,11.1,9,20,20,20C267.1,512,276,503,276,492
		z M233.1,384.7c0-12.6,10.3-22.9,22.9-22.9c12.6,0,22.9,10.3,22.9,22.9s-10.3,22.9-22.9,22.9C243.4,407.6,233.1,397.3,233.1,384.7z
		"/>
	<path fill="#BD1D53" d="M104.4,492V272.7c24.9-8.4,42.9-31.9,42.9-59.6s-18-51.3-42.9-59.6V20c0-11.1-9-20-20-20s-20,9-20,20v133.4
		c-24.9,8.4-42.9,31.9-42.9,59.6s18,51.3,42.9,59.6V492c0,11.1,9,20,20,20S104.4,503,104.4,492z M61.5,213.1
		c0-12.6,10.3-22.9,22.9-22.9s22.9,10.3,22.9,22.9S97,236,84.4,236S61.5,225.7,61.5,213.1z"/>
</g>
</svg>
