<?xml version="1.0" encoding="utf-8"?>
<!-- Generator: Adobe Illustrator 24.0.2, SVG Export Plug-In . SVG Version: 6.00 Build 0)  -->
<svg version="1.1" id="Layer_1" xmlns="http://www.w3.org/2000/svg" xmlns:xlink="http://www.w3.org/1999/xlink" x="0px" y="0px"
	 width="512px" height="512px" viewBox="0 0 512 512" enable-background="new 0 0 512 512" xml:space="preserve">
<g>
	<path fill="#767676" d="M185.3,112.4c-3.1,6-3.1,13.2,0,19.2l-9.6,9.9c-2.4,2.5-2.3,6.5,0.2,8.9c2.5,2.4,6.4,2.3,8.8-0.1l9.4-9.7
		c3,1.6,6.3,2.4,9.7,2.4h0.4c3.2-0.1,6.3-0.8,9.1-2.3l9.8,9.5c2.5,2.4,6.5,2.3,8.9-0.1s2.3-6.5-0.1-8.9l-9.6-9.3
		c3.2-6.1,3.3-13.3,0.1-19.4l9.4-9.7c2.4-2.5,2.3-6.5-0.2-8.9c-2.5-2.4-6.4-2.3-8.8,0.1l-9.2,9.5c-6.1-3.2-13.3-3.2-19.4,0l-9.8-9.5
		c-2.5-2.4-6.5-2.3-8.9,0.1c-2.4,2.5-2.3,6.5,0.1,8.9L185.3,112.4z M197.8,116.2c3-3.1,8-3.4,11.4-0.6c0.2,0.3,0.4,0.5,0.7,0.8
		c0.2,0.1,0.3,0.3,0.5,0.4c2.6,3.3,2.4,8-0.5,11.1c-3.2,3.3-8.5,3.4-11.8,0.2C194.7,124.8,194.6,119.5,197.8,116.2L197.8,116.2z"/>
	<path fill="#767676" d="M289.8,112.4c-3.1,6-3.1,13.2,0,19.2l-9.6,9.9c-2.4,2.5-2.3,6.5,0.2,8.9c2.5,2.4,6.4,2.3,8.8-0.1l9.4-9.7
		c3,1.6,6.3,2.4,9.7,2.4h0.4c3.2-0.1,6.3-0.8,9.1-2.3l9.8,9.5c2.5,2.4,6.5,2.3,8.9-0.1c2.4-2.5,2.3-6.5-0.1-8.9l0,0l-9.6-9.3
		c3.2-6.1,3.3-13.3,0.1-19.4l9.4-9.7c2.4-2.5,2.3-6.5-0.2-8.9c-2.5-2.4-6.4-2.3-8.8,0.1l-9.2,9.5c-6.1-3.2-13.3-3.2-19.4,0l-9.8-9.5
		c-2.5-2.4-6.5-2.3-8.9,0.1c-2.4,2.5-2.3,6.5,0.1,8.9L289.8,112.4z M302.3,116.2c3-3.1,8-3.4,11.4-0.6c0.2,0.3,0.4,0.5,0.7,0.8
		c0.2,0.1,0.3,0.3,0.5,0.4c2.6,3.3,2.4,8-0.5,11.1c-3.2,3.3-8.5,3.4-11.8,0.2C299.2,124.8,299.1,119.5,302.3,116.2L302.3,116.2z"/>
	<path fill="#767676" d="M419,169.6V40.1C419,18,401.1,0,379,0c0,0,0,0,0,0H134.7C112.5,0,94,18,94,40.1v129.3
		c-24.9,5-42.8,26.8-42.8,52.1v176.4c0,11,8.8,19.9,19.8,20h7.3v87.8c-0.1,3.3,2.4,6.1,5.8,6.3c0.1,0,0.1,0,0.2,0H124
		c3.5,0,6.5-2.7,6.6-6.3V418h250.8v87.8c0.2,3.5,3.1,6.3,6.6,6.3h39.6c3.3,0,6-2.7,6-6.1c0-0.1,0-0.1,0-0.2V418h7.3
		c11-0.1,19.8-9,19.8-20V221.5C460.7,196.6,443.4,175,419,169.6L419,169.6z M106.6,40.1c0-15.2,12.9-27.6,28.1-27.6h244.2
		c15.2,0,27.5,12.3,27.5,27.5c0,0,0,0,0,0.1v128.2c-29,0.6-52.2,24.2-52.2,53.1V257H157.8v-35.5c-0.1-28.6-22.7-52-51.2-53.1V40.1z
		 M371.8,269.6c1.8,0,3.3,1.5,3.3,3.3v49.8c0,1.8-1.5,3.3-3.3,3.3H139.2c-1.8,0-3.3-1.5-3.3-3.3v-49.8c0-1.8,1.5-3.3,3.3-3.3H371.8z
		 M118.1,499.5H90.9V418h27.2V499.5z M421.1,499.5h-27.2V418h27.2V499.5z M448.3,397.9c0,4.1-3.2,7.4-7.3,7.5H71
		c-4.1-0.1-7.3-3.4-7.3-7.5V221.5c0-22.5,18.2-40.8,40.8-40.8s40.8,18.2,40.8,40.8V257h-5.7c-8.7,0-16.3,6.8-16.3,15.5v50.3
		c0,8.7,7.5,15.7,16.3,15.7h232.9c8.7,0,16.3-6.9,16.3-15.7v-50.3c0-8.7-7.5-15.5-16.3-15.5h-5.7v-35.5c0-22.5,18.2-40.8,40.8-40.8
		c22.5,0,40.8,18.2,40.8,40.8L448.3,397.9z"/>
</g>
</svg>
