<?xml version="1.0" encoding="utf-8"?>
<!-- Generator: Adobe Illustrator 24.0.2, SVG Export Plug-In . SVG Version: 6.00 Build 0)  -->
<svg version="1.1" id="Capa_1" xmlns="http://www.w3.org/2000/svg" xmlns:xlink="http://www.w3.org/1999/xlink" x="0px" y="0px"
	 width="512px" height="512px" viewBox="0 0 512 512" style="enable-background:new 0 0 512 512;" xml:space="preserve">
<style type="text/css">
	.st0{fill:#BD1D53;}
</style>
<g>
	<path class="st0" d="M339.8,279.8l-18.5-6.4l16.1-11.1c39.1-27,62.5-71.3,62.5-118.6C399.9,64.4,335.4-0.2,256-0.2
		s-143.9,64.6-143.9,144c0,47.3,23.4,91.7,62.5,118.6l16.1,11.1l-18.5,6.4c-36.8,12.7-69.5,33.2-97.3,61.1
		C28.8,387,2.4,447.5,0,512.2h21.8C27,387.5,130.1,287.7,256,287.7s229,99.8,234.2,224.5H512c-2.4-64.7-28.8-125.2-74.8-171.3
		C409.3,313.1,376.6,292.5,339.8,279.8z M133.9,143.8c0-67.3,54.8-122.1,122.1-122.1s122.1,54.8,122.1,122.1S323.3,265.9,256,265.9
		S133.9,211.1,133.9,143.8z"/>
</g>
</svg>
