<?xml version="1.0" encoding="utf-8"?>
<!-- Generator: Adobe Illustrator 24.0.2, SVG Export Plug-In . SVG Version: 6.00 Build 0)  -->
<svg version="1.1" id="Layer_1" xmlns="http://www.w3.org/2000/svg" xmlns:xlink="http://www.w3.org/1999/xlink" x="0px" y="0px"
	 width="512px" height="512px" viewBox="0 0 512 512" style="enable-background:new 0 0 512 512;" xml:space="preserve">
<style type="text/css">
	.st0{fill:#BD1D53;}
</style>
<g>
	<path class="st0" d="M512,317.6V194.4h-51.3c-4.1-13.6-9.6-26.9-16.4-39.5l36.3-36.3l-87.2-87.2l-36.3,36.3
		c-12.6-6.8-25.8-12.3-39.5-16.4V0H194.4v51.3c-13.6,4.1-26.9,9.6-39.5,16.4l-36.3-36.3l-87.2,87.2l36.3,36.3
		c-6.8,12.6-12.3,25.8-16.4,39.5H0v123.3h51.3c4.1,13.6,9.6,26.9,16.4,39.5l-36.3,36.3l87.2,87.2l36.3-36.3
		c12.6,6.8,25.8,12.3,39.5,16.4V512h123.3v-51.3c13.6-4.1,26.9-9.6,39.5-16.4l36.3,36.3l87.2-87.2l-36.3-36.3
		c6.8-12.5,12.3-25.8,16.4-39.5H512z M443.9,295.8l-2.1,8.2l0,0c-4.5,17.4-11.4,34-20.5,49.4l-4.4,7.3l32.8,32.8l-56.3,56.3
		l-32.8-32.8l-7.3,4.4c-15.4,9.2-32,16.1-49.4,20.5l-8.2,2.1v46.2h-79.6v-46.2l-8.2-2.1c-17.4-4.5-34-11.4-49.4-20.5l-7.3-4.4
		l-32.8,32.8l-56.3-56.3l32.8-32.8l-4.4-7.3c-9.1-15.4-16-32-20.5-49.4l-2.1-8.2H21.9v-79.6h46.2l2.1-8.2
		c4.5-17.4,11.4-34,20.5-49.4l4.4-7.3l-32.8-32.8l56.3-56.3l32.8,32.8l7.3-4.4c15.4-9.1,32-16.1,49.4-20.5l8.2-2.1V21.9h79.6v46.2
		l8.2,2.1c17.4,4.5,34,11.4,49.4,20.5l7.3,4.4l32.8-32.8l56.3,56.3l-32.8,32.8l4.4,7.3c9.2,15.4,16.1,32,20.5,49.4l2.1,8.2h46.2
		v79.6H443.9z"/>
	<path class="st0" d="M256.1,109.9c-0.1,0-0.1,0-0.2,0c-39,0-75.6,15.2-103.2,42.7c-27.6,27.6-42.8,64.2-42.8,103.3
		c0,56.8,33.1,108.6,84.5,132.5v0.3l21.9,8.9v-0.9c12.9,3.7,26.2,5.5,39.7,5.5c2,0,4,0,6.1-0.1v0.6l21.9-2.7v-0.5
		c78.2-15.1,130.1-90.5,116.1-169.1C387.4,160.5,327,109.9,256.1,109.9z M212.6,287.6C199.6,276,192,260,191,242.7
		c-1-17.4,4.9-34,16.5-47c12.3-13.8,30-21.7,48.5-21.7c0.6,0,1.2,0,1.9,0l-36.3,36.3l7.9,55.3l55.3,7.9l36.3-36.3c0,0.6,0,1.2,0,1.8
		c-0.1,30.5-21,56.6-50.6,63.6l-8.5,1.9v75.6c-15.6,0.7-31-1.4-45.8-6.4v-82.9L212.6,287.6z M283.8,321.5c35.3-12.1,59-45,59.2-82.4
		c0-9.5-1.5-18.8-4.6-27.8l-5.7-16.5l-55.6,55.7l-28.3-4.1l-4.1-28.3l55.7-55.7l-16.6-5.7c-8.9-3-18.1-4.5-27.4-4.5
		c-0.1,0-0.3,0-0.4,0c-23.2,0-45,9-61.4,25.4C178.1,194,169,215.8,169,239c0,22.9,9.2,45.2,25.3,61.4v63.5
		c-57.8-33-79.5-106.5-48.2-165.9c15.5-29.3,41.5-50.9,73.2-60.7c31.7-9.8,65.3-6.6,94.7,8.9c29.3,15.5,50.9,41.5,60.7,73.2
		c9.8,31.7,6.6,65.3-8.9,94.7c-17,32.1-46.8,55-82,63.1V321.5z"/>
</g>
</svg>
