<?xml version="1.0" encoding="utf-8"?>
<!-- Generator: Adobe Illustrator 24.0.2, SVG Export Plug-In . SVG Version: 6.00 Build 0)  -->
<svg version="1.1" id="Layer_1" xmlns="http://www.w3.org/2000/svg" xmlns:xlink="http://www.w3.org/1999/xlink" x="0px" y="0px"
	 width="512px" height="512px" viewBox="0 0 512 512" enable-background="new 0 0 512 512" xml:space="preserve">
<path fill="#F46262" d="M407.8,305.2V7H38.2v306.7c0,22.1,17.9,40,40,40h378.1C429.5,353.6,407.8,331.9,407.8,305.2z"/>
<path fill="#E4EDFB" d="M456.3,353.6c-26.8,0-48.4-21.7-48.4-48.4v-78.4h96.9v78.4C504.7,331.9,483,353.6,456.3,353.6z"/>
<path fill="#E4EDFB" d="M143.5,416.4l-77.1,76.8c-6.6,6.6-15.2,9.9-23.8,9.9c-8.6,0-17.2-3.3-23.8-9.9c-13.1-13.1-13.1-34.4,0-47.6
	l74.9-74.5C105.6,390.5,122.9,406.3,143.5,416.4z"/>
<path fill="#EF4848" d="M345.9,308.7c0-82.6-67.2-149.8-149.8-149.8S46.2,226,46.2,308.7c0,11.4,1.3,22.6,3.7,33.3
	c7.2,7.2,17.2,11.7,28.2,11.7H339C343.5,339.4,345.9,324.3,345.9,308.7z"/>
<path fill="#BCC8D9" d="M143.5,416.4l-22.2,22.1c-19.7-11.4-36.6-27.1-49.3-45.9l21.7-21.6C105.6,390.5,122.9,406.3,143.5,416.4z"/>
<path fill="#E4EDFB" d="M315.9,308.7c0,66.2-53.7,119.9-119.9,119.9S76.2,374.9,76.2,308.7c0-66.2,53.7-119.9,119.9-119.9
	S315.9,242.5,315.9,308.7z"/>
<path fill="#92D8FF" d="M276,308.7c0,44.1-35.8,79.9-79.9,79.9s-79.9-35.8-79.9-79.9c0-44.1,35.8-79.9,79.9-79.9
	S276,264.5,276,308.7z"/>
<path fill="#BCC8D9" d="M437.8,335.1V226.8h-30v78.4c0,26.8,21.7,48.4,48.4,48.4C446.1,353.6,437.8,345.3,437.8,335.1z"/>
<path fill="#4ABEF0" d="M196.1,258.7c39,0,71.5,28,78.5,64.9c0.9-4.9,1.4-9.9,1.4-15c0-44.1-35.8-79.9-79.9-79.9
	c-44.1,0-79.9,35.8-79.9,79.9c0,5.1,0.5,10.1,1.4,15C124.6,286.7,157.1,258.7,196.1,258.7z"/>
<g>
	<path fill="#FFFFFF" d="M68.2,29.5h15v15h-15V29.5z"/>
	<path fill="#FFFFFF" d="M360.9,29.5h15v15h-15V29.5z"/>
	<path fill="#FFFFFF" d="M375.9,314.7h-15v-15h15V314.7z M375.9,284.7h-15v-15h15V284.7z M375.9,254.7h-15v-15h15V254.7z
		 M375.9,224.8h-15v-15h15V224.8z"/>
	<path fill="#FFFFFF" d="M106.5,157.3c-24.2,0-43.8-19.7-43.8-43.8h15c0,15.9,12.9,28.8,28.8,28.8s28.8-12.9,28.8-28.8V54.9h15v58.6
		C150.4,137.7,130.7,157.3,106.5,157.3z"/>
	<path fill="#FFFFFF" d="M216.2,157.3c-27.5,0-49.9-22.4-49.9-49.9V101c0-27.5,22.4-49.9,49.9-49.9s49.9,22.4,49.9,49.9v6.4
		C266.1,134.9,243.7,157.3,216.2,157.3z M216.2,66.1c-19.3,0-35,15.7-35,35v6.4c0,19.3,15.7,35,35,35s35-15.7,35-35V101
		C251.2,81.8,235.5,66.1,216.2,66.1z"/>
	<path fill="#FFFFFF" d="M329.7,112.4h-49.2V52.4h49.2c16.5,0,30,13.4,30,30C359.7,98.9,346.2,112.4,329.7,112.4z M295.5,97.4h34.2
		c8.3,0,15-6.7,15-15s-6.7-15-15-15h-34.2V97.4z"/>
	<path fill="#FFFFFF" d="M329.7,157.3h-49.2V97.4h49.2c16.5,0,30,13.4,30,30S346.2,157.3,329.7,157.3z M295.5,142.3h34.2
		c8.3,0,15-6.7,15-15s-6.7-15-15-15h-34.2V142.3z"/>
	<path fill="#FFFFFF" d="M221,275.2h15v15h-15V275.2z"/>
	<path fill="#FFFFFF" d="M234,304.2h15v15h-15V304.2z"/>
</g>
<path d="M283.5,308.7c0-48.2-39.2-87.4-87.4-87.4c-2.6,0-5.2,0.1-7.8,0.3l1.3,14.9c2.1-0.2,4.3-0.3,6.5-0.3
	c39.9,0,72.4,32.5,72.4,72.4s-32.5,72.4-72.4,72.4c-13.5,0-26.7-3.7-38.1-10.8l-7.9,12.7c13.8,8.5,29.7,13,45.9,13
	C244.3,396.1,283.5,356.9,283.5,308.7z"/>
<path d="M176.3,239l-4.1-14.4c-37.4,10.6-63.5,45.2-63.5,84.1c0,24.5,10.4,48,28.4,64.5l10.1-11.1c-15-13.7-23.5-33.2-23.5-53.4
	C123.7,276.4,145.3,247.8,176.3,239z"/>
<path d="M45.7,14.5H233v-15H30.8v192.3h15V14.5z"/>
<path d="M415.3,219.3V-0.5H248v15h152.3v290.7c0,16.2,6.9,30.7,17.9,41H317.8c3.7-11.8,5.6-24.4,5.6-37.5c0-32-11.9-62.7-33.6-86.2
	l-11,10.1c19.1,20.8,29.7,47.8,29.7,76.1c0,62-50.4,112.4-112.4,112.4S83.7,370.6,83.7,308.7c0-62,50.4-112.4,112.4-112.4
	c26.6,0,52.3,9.4,72.6,26.6l9.7-11.4c-22.9-19.4-52.2-30.1-82.3-30.1c-70.2,0-127.4,57.1-127.4,127.4c0,12.9,1.9,25.4,5.6,37.2
	c-16.1-1.9-28.5-15.6-28.5-32.2V206.8h-15v106.9c0,26.2,21.3,47.4,47.4,47.4H80c1.3,3,2.8,5.8,4.3,8.7l-70.8,70.5
	c-7.8,7.8-12.1,18.1-12.1,29.1c0,11,4.3,21.3,12.1,29.1c8,8,18.6,12,29.1,12c10.5,0,21.1-4,29.1-12l73.4-73.1
	c15.6,6.8,32.8,10.6,50.9,10.6c51.5,0,96-30.8,116.1-74.9h151.4l0-0.5c27.4-3.6,48.6-27.1,48.6-55.4v-85.9H415.3z M61.1,487.9
	c-10.2,10.2-26.8,10.2-37,0c-4.9-4.9-7.7-11.5-7.7-18.5c0-7,2.7-13.6,7.6-18.5l68.4-68.1c10.3,14.4,23.4,26.4,38.6,35.4L61.1,487.9z
	 M497.2,305.2c0,22.3-17.9,40.5-40.1,40.9l-1.2,0c-22.4-0.2-40.6-18.5-40.6-40.9v-70.9h81.9V305.2z"/>
</svg>
