<?xml version="1.0" encoding="utf-8"?>
<!-- Generator: Adobe Illustrator 24.0.2, SVG Export Plug-In . SVG Version: 6.00 Build 0)  -->
<svg version="1.1" id="Capa_1" xmlns="http://www.w3.org/2000/svg" xmlns:xlink="http://www.w3.org/1999/xlink" x="0px" y="0px"
	 width="512px" height="512px" viewBox="0 0 512 512" enable-background="new 0 0 512 512" xml:space="preserve">
<path fill="#C2C7D0" d="M491.9,456.3c6.9,0,12.6-5.8,12.6-12.8v-2.8c0-7-5.7-12.8-12.6-12.8"/>
<path fill="#ABB0B7" d="M491.9,456.3c6.9,0,12.6-5.8,12.6-12.8v-2.8c0-2-0.5-4-1.3-5.7c-2.1,4.2-6.3,7.1-11.2,7.1"/>
<path fill="none" stroke="#474D54" stroke-width="15" stroke-linecap="round" stroke-linejoin="round" stroke-miterlimit="10" d="
	M491.9,456.3c6.9,0,12.6-5.7,12.6-12.6v-2.8c0-6.9-5.7-12.6-12.6-12.6"/>
<path fill="#ABFFDB" d="M221.1,428.4c0-5.9,0-231.3,0-240c0-3.3,2.6-5.9,5.9-5.9h187.7V63.4c0-5.3-5.2-9-10.2-7.3L49.8,176.8
	C43.3,179,39,185.1,39,191.9v236.4L221.1,428.4L221.1,428.4z"/>
<path fill="#92E0C0" d="M61.4,172.8l-11.6,3.9C43.3,179,39,185.1,39,191.9v236.4h20V181.5C59,178.4,59.9,175.4,61.4,172.8z"/>
<path fill="#FFFFFF" d="M474.5,180.5H225c-3.3,0-5.9,2.6-5.9,5.9c0,8.7,0,236.1,0,242h261.6c0-5.4,0-237.3,0-241.8
	C480.6,183.2,477.9,180.5,474.5,180.5z"/>
<path fill="#E4EAF8" d="M239.1,428.4c0-5.9,0-233.3,0-242c0-3.3,2.6-5.9,5.9-5.9h-20c-3.3,0-5.9,2.6-5.9,5.9c0,8.7,0,236.1,0,242
	H239.1L239.1,428.4L239.1,428.4z"/>
<path fill="#FFC850" d="M474.5,180.5H225c-3.3,0-5.9,2.6-5.9,5.9c0,3.3,0,42.9,0,91h261.6c0-49,0-89.1,0-90.8
	C480.6,183.2,477.9,180.5,474.5,180.5z"/>
<path fill="#FEA82F" d="M219.1,186.4c0,3.3,0,42.9,0,91h20c0-46.9,0-87.4,0-91c0-3.3,2.6-5.9,5.9-5.9h-20
	C221.8,180.5,219.1,183.1,219.1,186.4z"/>
<path fill="#FFC850" d="M411.6,305.7H287.9c-1.6,0-2.9,1.3-2.9,2.9c0,4.3,0,116.9,0,119.8h129.7c0-2.7,0-117.5,0-119.7
	C414.7,307,413.3,305.7,411.6,305.7z"/>
<path fill="#FEA82F" d="M349.8,305.7h-61.9c-1.6,0-2.9,1.3-2.9,2.9c0,4.3,0,116.9,0,119.8h64.8L349.8,305.7L349.8,305.7z"/>
<path fill="#FF8031" d="M307.9,305.7h-20c-1.6,0-2.9,1.3-2.9,2.9c0,4.3,0,116.9,0,119.8h20c0-2.9,0-115.5,0-119.8
	C305,307,306.3,305.7,307.9,305.7z"/>
<rect x="77.5" y="390.6" fill="#6DC296" width="103.3" height="37.8"/>
<rect x="77.5" y="352.9" fill="#92E0C0" width="103.3" height="37.8"/>
<rect x="77.5" y="315.1" fill="#6DC296" width="103.3" height="37.8"/>
<rect x="77.5" y="390.6" fill="#5FA77E" width="20" height="37.8"/>
<rect x="77.5" y="352.9" fill="#6DC296" width="20" height="37.8"/>
<rect x="77.5" y="315.1" fill="#5FA77E" width="20" height="37.8"/>
<path fill="#92E0C0" d="M180.8,315.1v-30.3c0-4.1-3.3-7.4-7.4-7.4H84.9c-4.1,0-7.4,3.3-7.4,7.4v30.3H180.8z"/>
<path fill="#6DC296" d="M104.9,277.4h-20c-4.1,0-7.4,3.3-7.4,7.4v30.3h20v-30.3C97.5,280.7,100.8,277.4,104.9,277.4z"/>
<path fill="#C2C7D0" d="M491.9,427.8c-12.1,0-467.4,0-471.8,0c-6.9,0-12.6,5.8-12.6,12.8v2.8c0,7,5.7,12.8,12.6,12.8
	c4.3,0,465.8,0,471.8,0"/>
<path fill="#ABB0B7" d="M491.9,442.1c-6,0-467.5,0-471.8,0c-4.9,0-9.2-2.9-11.2-7.1c-0.8,1.7-1.3,3.7-1.3,5.7v2.8
	c0,7,5.7,12.8,12.6,12.8c4.3,0,465.8,0,471.8,0"/>
<g>
	<path fill="#FFFFFF" d="M292,238.5c-1,1.7-2.6,2.3-4.1,2.3c-1.4,0-2.9-0.5-3.9-2.3l-7.5-13.7v30.3c0,2.5-3.1,3.8-6.1,3.8
		s-6.1-1.3-6.1-3.8v-47.6c0-4.5,3.1-6.1,6.1-6.1c4.4,0,6.3,0.5,9.5,6.1l8.1,14.1l8.1-14.1c3.2-5.7,5.1-6.1,9.5-6.1
		c3.1,0,6.1,1.6,6.1,6.1v47.6c0,2.5-3.1,3.8-6.1,3.8s-6.1-1.3-6.1-3.8v-29.5L292,238.5z"/>
	<path fill="#FFFFFF" d="M316.4,253.9c0-0.2,0.1-0.6,0.2-0.9l14.6-47.9c0.9-2.8,4.4-4.1,8-4.1c3.6,0,7.2,1.3,8,4.1l14.7,47.9
		c0.1,0.3,0.2,0.6,0.2,0.9c0,2.9-4.5,5-7.9,5c-2,0-3.5-0.6-4-2.3l-2.7-9.8h-16.6l-2.7,9.8c-0.5,1.6-2,2.3-4,2.3
		C320.8,258.9,316.4,256.8,316.4,253.9z M344.9,237.3l-5.7-21.1l-5.7,21.1H344.9z"/>
	<path fill="#FFFFFF" d="M371.9,258.9c-2.7,0-5.3-1.3-5.3-3.8v-50c0-2.6,3.1-3.7,6.1-3.7s6.1,1.1,6.1,3.7v43.1h17.9
		c2.4,0,3.5,2.7,3.5,5.3c0,2.7-1.2,5.3-3.5,5.3L371.9,258.9L371.9,258.9L371.9,258.9z"/>
	<path fill="#FFFFFF" d="M410.6,258.9c-2.7,0-5.3-1.3-5.3-3.8v-50c0-2.6,3.1-3.7,6.1-3.7s6.1,1.1,6.1,3.7v43.1h17.9
		c2.4,0,3.5,2.7,3.5,5.3c0,2.7-1.2,5.3-3.5,5.3L410.6,258.9L410.6,258.9L410.6,258.9z"/>
</g>
<g>
	<path fill="#474D54" d="M238.5,448.8H20.1c-2.8,0-5.1-2.3-5.1-5.1v-2.8c0-2.8,2.3-5.1,5.1-5.1h471.8c4.1,0,7.5-3.4,7.5-7.5
		s-3.4-7.5-7.5-7.5h-3.8v-73.6c0-4.1-3.4-7.5-7.5-7.5s-7.5,3.4-7.5,7.5v73.6H226.6v-136h246.6v27.4c0,4.1,3.4,7.5,7.5,7.5
		s7.5-3.4,7.5-7.5V186.6c0-6.3-4.3-11.6-10.1-13.1c-0.1,0-0.1,0-0.2,0c-0.4-0.1-0.8-0.2-1.2-0.2c-0.1,0-0.2,0-0.3-0.1s-0.2,0-0.3,0
		c-0.5-0.1-1-0.1-1.6-0.1h-52.3v-19.9c4-0.1,7.2-3.4,7.2-7.5s-3.2-7.4-7.2-7.5v-15.7c4-0.1,7.2-3.4,7.2-7.5s-3.2-7.4-7.2-7.5v-44
		c0-4.9-2.4-9.5-6.4-12.4c-4-2.8-9.1-3.6-13.7-2L47.4,169.7c-9.5,3.2-15.9,12.2-15.9,22.2v228.9H20.1C9,420.9,0,429.9,0,440.9v2.8
		c0,11.1,9,20.1,20.1,20.1h218.4c4.1,0,7.5-3.4,7.5-7.5S242.6,448.8,238.5,448.8z M473.2,269.9H226.6V188h246.6V269.9L473.2,269.9z
		 M46.5,191.9c0-3.6,2.3-6.9,5.8-8L407,63.2c0.1,0,0.1,0,0.2,0s0.1,0.1,0.1,0.2v44h-57.3c-4.1,0-7.5,3.4-7.5,7.5s3.4,7.5,7.5,7.5
		h57.3v15.7h-57.3c-4.1,0-7.5,3.4-7.5,7.5s3.4,7.5,7.5,7.5h57.3V173H225c-0.5,0-0.9,0-1.4,0.1c-0.1,0-0.2,0-0.3,0s-0.2,0-0.3,0
		s-0.2,0-0.3,0.1c-0.2,0-0.3,0.1-0.5,0.1c-6,1.3-10.5,6.7-10.5,13.1v234.5H46.5V191.9z"/>
	<path fill="#474D54" d="M491.9,448.8H273.5c-4.1,0-7.5,3.4-7.5,7.5s3.4,7.5,7.5,7.5h218.4c4.1,0,7.5-3.4,7.5-7.5
		S496.1,448.8,491.9,448.8z"/>
</g>
</svg>
