<?xml version="1.0" encoding="utf-8"?>
<!-- Generator: Adobe Illustrator 24.0.2, SVG Export Plug-In . SVG Version: 6.00 Build 0)  -->
<svg version="1.0" id="Layer_1" xmlns="http://www.w3.org/2000/svg" xmlns:xlink="http://www.w3.org/1999/xlink" x="0px" y="0px"
	 width="512px" height="512px" viewBox="0 0 512 512" enable-background="new 0 0 512 512" xml:space="preserve">
<g>
	<g>
		<g>
			<path fill="#E549A6" d="M440.8,134.6C422.6,75.9,375.4,28.3,317.6,10.4C256-8.7,191.7,1.6,141.4,38.8
				C117.2,56.6,97.2,80,83.5,106.6c-14.2,27.5-21.7,58.4-21.7,89.5c0,42.4,13.4,82.7,38.8,116.5L256,511l155.3-198.1l0.2-0.3
				C449.5,262,460.2,197.1,440.8,134.6z"/>
		</g>
	</g>
	<path fill="#FFFFFF" d="M392.5,204.3c-3.1-14.9-14.6-24.5-29.8-24.6c4.6-2.1,6.6-14.4,6.6-19.5c0-10.9,0.1-21.8-0.1-32.7
		c-0.1-3.5-0.5-7.2-1.6-10.6c-4.1-12.4-15.1-20-28.9-20c-58.5,0-98.7,0-157.1,0c-1,0-2,0-3,0.1c-14.2,0.7-26.9,13.1-27.3,27.2
		c-0.4,12.4-0.2,24.8-0.1,37.1c0,4,2.2,18.2,6.2,18.3c0,0,0.1,0,0.1,0c-17.2,0.1-30,12.9-30,30.1c-0.1,26.9,0,53.8,0,80.7
		c0,1,0.1,2,0.3,3c0.7,2.9,3.1,4.5,5.9,4.3c2.8-0.2,5-2.2,5.4-5c0.2-1.5,0.1-2.9,0.1-4.4c0-4.6,0-9.2,0-13.9c86.9,0,155.1,0,242,0
		c0,1.1,0,2.1,0,3.1c0,4.7-0.1,9.4,0,14.1c0.1,3.6,2.3,5.9,5.5,6.1c3.3,0.2,5-1.9,6.3-4.5c0-29.4,0-58.8,0-88.2
		C392.8,204.9,392.6,204.6,392.5,204.3z M272,158.4c0.1-2.5,0-5,0-7.5c0.3-10.7,7.2-18.2,17.5-18.4c13.1-0.3,26.2-0.2,39.4,0
		c7.4,0.1,13.5,4.9,15.7,11.9c1.3,4.2,2.1,8.6,3.4,12.8c1.2,4,1.5,19.4-2.9,22.4c-25.3,0-48.8,0-71.9,0
		C271.9,171.7,271.9,160.7,272,158.4z M171.6,160.7c1.3-5.6,2.5-11.2,4.4-16.6c2.4-7,7.7-11.3,15.1-11.5c13.6-0.4,27.2-0.3,40.7,0
		c7.4,0.1,13.8,5.2,15.5,12.4c1,4.1,0.8,8.6,1,12.9c0.1,2.4,0.2,13.7-1,21.8c-23.1,0-46.6,0-72,0
		C172.6,177.5,170.9,163.7,171.6,160.7z"/>
</g>
</svg>
