<?xml version="1.0" encoding="utf-8"?>
<!-- Generator: Adobe Illustrator 24.0.2, SVG Export Plug-In . SVG Version: 6.00 Build 0)  -->
<svg version="1.0" id="Layer_1" xmlns="http://www.w3.org/2000/svg" xmlns:xlink="http://www.w3.org/1999/xlink" x="0px" y="0px"
	 width="512px" height="512px" viewBox="0 0 512 512" enable-background="new 0 0 512 512" xml:space="preserve">
<g>
	<g>
		<g>
			<g>
				<path fill="#F89C1C" d="M440.8,134.6C422.6,75.9,375.4,28.3,317.6,10.4C256-8.7,191.7,1.6,141.4,38.8
					C117.2,56.6,97.2,80,83.5,106.6c-14.2,27.5-21.7,58.4-21.7,89.5c0,42.4,13.4,82.7,38.8,116.5L256,511l155.3-198.1l0.2-0.3
					C449.5,262,460.2,197.1,440.8,134.6z"/>
			</g>
		</g>
	</g>
	<g>
		<g>
			<path fill="#FFFFFF" d="M201,181.9c37.5,0,74.6,0,112.1,0c0,56.1,0,69.1,0,125.5c-37.2,0-74.4,0-112.1,0
				C201,251.6,201,238.6,201,181.9z M223.5,232.3c9.2,0,18.2,0,27.4,0c0-9.6,0-18.8,0-28.3c-9.3,0-18.1,0-27.4,0
				C223.5,213.5,223.5,222.8,223.5,232.3z M290.3,233.2c0-10.2,0-19.7,0-29c-9.7,0-18.7,0-27.5,0c0,10,0,19.5,0,29
				C272.2,233.2,281,233.2,290.3,233.2z M250.9,255.4c-9.7,0-18.5,0-27.6,0c0,9.2,0,17.9,0,26.7c9.4,0,18.5,0,27.6,0
				C250.9,273,250.9,264.6,250.9,255.4z M290.4,282.3c0-9.5,0-18.1,0-26.7c-9.3,0-18,0-26.8,0c0,9.2,0,17.8,0,26.7
				C272.7,282.3,281.3,282.3,290.4,282.3z"/>
		</g>
		<path fill="#FFFFFF" d="M296.2,168.9c3.9,0,7.8,0.2,11.5,0.4c-1.6-2.3-3.4-5-5.2-7.6c-12.2-17.6-24.3-35.1-36.5-52.7
			c-3-4.3-6-8.6-9-12.9c-1.1-1.5-1.6-1.5-2.7,0c-0.2,0.2-0.3,0.5-0.5,0.7c-14.4,20.9-28.9,41.7-43.3,62.6c-2.1,3.1-4.2,6.2-6.5,9.5
			c0.8,0,1.3,0,1.8,0C235.9,168.8,266,168.8,296.2,168.9z"/>
	</g>
</g>
</svg>
