<?xml version="1.0" encoding="utf-8"?>
<!-- Generator: Adobe Illustrator 24.0.2, SVG Export Plug-In . SVG Version: 6.00 Build 0)  -->
<svg version="1.0" id="Layer_1" xmlns="http://www.w3.org/2000/svg" xmlns:xlink="http://www.w3.org/1999/xlink" x="0px" y="0px"
	 width="512px" height="512px" viewBox="0 0 512 512" enable-background="new 0 0 512 512" xml:space="preserve">
<g>
	<g>
		<g>
			<path fill="#CDBC00" d="M440.8,134.6C422.6,75.9,375.4,28.3,317.6,10.4C256-8.7,191.7,1.6,141.4,38.8
				C117.2,56.6,97.2,80,83.5,106.6c-14.2,27.5-21.7,58.4-21.7,89.5c0,42.4,13.4,82.7,38.8,116.5L256,511l155.3-198.1l0.2-0.3
				C449.5,262,460.2,197.1,440.8,134.6z"/>
		</g>
	</g>
	<path fill="#FFFFFF" d="M303.4,118.1c0-4.6-0.1-8.8-0.1-13.1c-32.2,0.3-64.2,0.7-96.4,1c0,4.4,0.1,8.7,0.1,13.2
		c-9,0.1-17.7,0.2-26.5,0.3c-0.1,0.4-0.2,0.6-0.2,0.8c0.3,25.8,0.5,51.6,0.8,77.4c0,0.7,1.2,107.4,1.2,108c-0.1,3.9,0,7.8,0.1,11.8
		c23-0.2,45.8-0.5,68.8-0.7c-0.1-13.4-0.3-26.7-0.4-40.1c4.4,0,8.6-0.1,13.1-0.1c0.1,13.4,0.3,26.8,0.4,40.1
		c22.6-0.2,44.9-0.5,67.3-0.7c-0.7-66.1-1.4-132-2-198.2C320.9,118,312.3,118,303.4,118.1z M263.9,237.4l0.1,10.2l-16.1,0.2
		l-0.1-10.2c-14.3-2-21.8-10.2-22.9-22.9l20.6-0.2c0.9,6,4.3,9.6,10.4,9.5c6.3-0.1,8-3.3,8-7.2c0-4.8-2.6-7.5-12.2-10.6
		c-19-5.9-25.4-12.8-25.5-24.7c-0.1-12.7,7.7-20.9,20.9-23.1l-0.1-8l16.1-0.2l0.1,8.3c12.8,2.2,20,9.6,20.5,21.2l-20.2,0.2
		c-0.5-4-2.2-8.3-8.8-8.2c-4,0-7,2.5-7,6.6c0,4.4,2.2,6.3,12.4,9.7c19,6,25.6,13.5,25.7,25.4C285.9,227.5,277.6,235.2,263.9,237.4z"
		/>
</g>
</svg>
