<?xml version="1.0" encoding="utf-8"?>
<!-- Generator: Adobe Illustrator 24.0.2, SVG Export Plug-In . SVG Version: 6.00 Build 0)  -->
<svg version="1.0" id="Layer_1" xmlns="http://www.w3.org/2000/svg" xmlns:xlink="http://www.w3.org/1999/xlink" x="0px" y="0px"
	 width="512px" height="512px" viewBox="0 0 512 512" enable-background="new 0 0 512 512" xml:space="preserve">
<g>
	<g>
		<g>
			<g>
				<path fill="#C24040" d="M440.8,134.6C422.6,75.9,375.4,28.3,317.6,10.4C256-8.7,191.7,1.6,141.4,38.8
					C117.2,56.6,97.2,80,83.5,106.6c-14.2,27.5-21.7,58.4-21.7,89.5c0,42.4,13.4,82.7,38.8,116.5L256,511l155.3-198.1l0.2-0.3
					C449.5,262,460.2,197.1,440.8,134.6z"/>
			</g>
		</g>
	</g>
	<g>
		<path fill="#FFFFFF" d="M364.6,141.2c-32.8-21.5-65.7-43-98.6-64.4c-2.8-1.8-6.4-2.5-10.1-3.9c-3.7,1.5-7.5,2.4-10.6,4.4
			c-32.7,21.2-65.3,42.6-97.9,63.9c-4.1,2.7-6.1,6.7-6.3,11.4c-0.2,5.8,2.3,10.3,7.4,13.2c5.2,2.9,10.1,2.1,15-1.1
			c29.5-19.3,59-38.5,88.5-57.9c3-2,5.5-2.1,8.6,0c20,13.2,40,26.3,60.1,39.4c9.4,6.2,18.9,12.4,28.4,18.5
			c6.8,4.3,15.6,2.3,19.9-4.5C372.8,154.1,370.9,145.3,364.6,141.2z"/>
		<path fill="#FFFFFF" d="M336.2,170.3c0.1-2.2-0.7-3.3-2.5-4.4c-25.2-16.3-50.5-32.6-75.6-49c-1.7-1.1-2.8-0.9-4.4,0.1
			c-25.2,16.5-50.4,33-75.7,49.4c-1.7,1.1-2.3,2.2-2.3,4.2c0.1,34.6,0,103.7,0,103.7l0,11c0,0,63.3,0,89.4,0c17,0,54,0,71.2,0
			c0-16.1-0.2-97.3-0.2-98.9C336.1,181.2,336.1,175.7,336.2,170.3z M264.5,247.5v10.2h-16.2v-10.2c-14.4-2.2-21.8-10.4-22.8-23.3
			h20.7c0.8,6,4.2,9.7,10.4,9.7c6.3,0,8.1-3.3,8.1-7.2c0-4.8-2.5-7.6-12.2-10.8c-19.1-6.1-25.4-13.1-25.4-25.1
			c0-12.8,7.9-20.9,21.2-23v-8.1h16.2v8.4c12.8,2.4,20,9.9,20.4,21.5h-20.3c-0.5-4-2.1-8.4-8.8-8.4c-4,0-7.1,2.4-7.1,6.6
			c0,4.4,2.2,6.4,12.4,9.9c19,6.2,25.6,13.8,25.6,25.8C286.7,237.8,278.3,245.4,264.5,247.5z"/>
	</g>
</g>
</svg>
