<?xml version="1.0" encoding="utf-8"?>
<!-- Generator: Adobe Illustrator 24.0.2, SVG Export Plug-In . SVG Version: 6.00 Build 0)  -->
<svg version="1.0" id="Layer_1" xmlns="http://www.w3.org/2000/svg" xmlns:xlink="http://www.w3.org/1999/xlink" x="0px" y="0px"
	 width="512px" height="512px" viewBox="0 0 512 512" enable-background="new 0 0 512 512" xml:space="preserve">
<g>
	<g>
		<g>
			<g>
				<path fill="#B67154" d="M440.8,134.6C422.6,75.9,375.4,28.3,317.6,10.4C256-8.7,191.7,1.6,141.4,38.8
					C117.2,56.6,97.2,80,83.5,106.6c-14.2,27.5-21.7,58.4-21.7,89.5c0,42.4,13.4,82.7,38.8,116.5L256,511l155.3-198.1l0.2-0.3
					C449.5,262,460.2,197.1,440.8,134.6z"/>
			</g>
		</g>
	</g>
	<g>
		<path fill="#FFFFFF" d="M185.3,95.5c47.3,0,94.1,0,141.5,0c0,70.8,0,141.3,0,212.5c-46.9,0-93.9,0-141.5,0
			C185.3,237.5,185.3,167,185.3,95.5z M213.6,159.2c11.7,0,23,0,34.6,0c0-12.2,0-23.8,0-35.8c-11.8,0-22.8,0-34.6,0
			C213.6,135.4,213.6,147.1,213.6,159.2z M297.9,160.2c0-12.9,0-24.8,0-36.6c-12.3,0-23.6,0-34.7,0c0,12.7,0,24.6,0,36.6
			C275.1,160.2,286.1,160.2,297.9,160.2z M248.2,188.3c-12.2,0-23.4,0-34.9,0c0,11.6,0,22.6,0,33.7c11.9,0,23.4,0,34.9,0
			C248.2,210.5,248.2,199.9,248.2,188.3z M298.1,222.2c0-12,0-22.8,0-33.7c-11.7,0-22.8,0-33.8,0c0,11.7,0,22.4,0,33.7
			C275.7,222.2,286.5,222.2,298.1,222.2z"/>
	</g>
</g>
</svg>
