<?xml version="1.0" encoding="utf-8"?>
<!-- Generator: Adobe Illustrator 24.0.2, SVG Export Plug-In . SVG Version: 6.00 Build 0)  -->
<svg version="1.0" id="Layer_1" xmlns="http://www.w3.org/2000/svg" xmlns:xlink="http://www.w3.org/1999/xlink" x="0px" y="0px"
	 width="512px" height="512px" viewBox="0 0 512 512" enable-background="new 0 0 512 512" xml:space="preserve">
<g>
	<g>
		<g>
			<g>
				<path fill="#ED3C3B" d="M440.8,134.6C422.6,75.9,375.4,28.3,317.6,10.4C256-8.7,191.7,1.6,141.4,38.8
					C117.2,56.6,97.2,80,83.5,106.6c-14.2,27.5-21.7,58.4-21.7,89.5c0,42.4,13.4,82.7,38.8,116.5L256,511l155.3-198.1l0.2-0.3
					C449.5,262,460.2,197.1,440.8,134.6z"/>
			</g>
		</g>
	</g>
	<g>
		<path fill="#FFFFFF" d="M356.6,142.9c0.1-2.7-0.9-4.2-3.1-5.6c-31.7-20.4-63.3-40.9-94.9-61.5c-2.2-1.4-3.5-1.2-5.5,0.1
			c-31.6,20.7-63.3,41.4-95,62c-2.1,1.4-2.9,2.8-2.9,5.3c0.1,43.4,0.1,130.2,0.1,130.2l-0.1,13.8c0,0,79.5,0,112.3,0
			c21.3,0,67.8,0,89.4,0c0-20.3-0.2-122.1-0.3-124.2C356.4,156.5,356.4,149.7,356.6,142.9z M266.5,239.8v12.8h-20.4v-12.8
			c-18.1-2.7-27.4-13.1-28.6-29.3h26c1.1,7.5,5.2,12.2,13,12.2c7.9,0,10.2-4.1,10.2-9.1c0-6-3.1-9.5-15.3-13.5
			c-24-7.7-31.9-16.4-31.9-31.5c0-16.1,9.9-26.3,26.7-28.9v-10.1h20.4v10.5c16.1,3,25.1,12.4,25.6,27h-25.5c-0.6-5-2.6-10.5-11-10.5
			c-5.1,0-8.9,3-8.9,8.3c0,5.5,2.7,8,15.5,12.5c23.9,7.8,32.2,17.3,32.2,32.4C294.4,227.6,283.8,237.2,266.5,239.8z"/>
	</g>
</g>
</svg>
