<?xml version="1.0" encoding="utf-8"?>
<!-- Generator: Adobe Illustrator 24.0.2, SVG Export Plug-In . SVG Version: 6.00 Build 0)  -->
<svg version="1.0" id="Layer_1" xmlns="http://www.w3.org/2000/svg" xmlns:xlink="http://www.w3.org/1999/xlink" x="0px" y="0px"
	 width="512px" height="512px" viewBox="0 0 512 512" enable-background="new 0 0 512 512" xml:space="preserve">
<g>
	<g>
		<g>
			<g>
				<path fill="#874291" d="M440.8,134.6C422.6,75.9,375.4,28.3,317.6,10.4C256-8.7,191.7,1.6,141.4,38.8
					C117.2,56.6,97.2,80,83.5,106.6c-14.2,27.5-21.7,58.4-21.7,89.5c0,42.4,13.4,82.7,38.8,116.5L256,511l155.3-198.1l0.2-0.3
					C449.5,262,460.2,197.1,440.8,134.6z"/>
			</g>
		</g>
	</g>
	<g>
		<path fill="#FFFFFF" d="M275.3,133.3c2.5,4.4,4.2,9.1,5.2,14.1c0.2,0.9,1.3,1.8,2.2,1.8c19,0,38.1,0,57.1,0c0.3,0,0.6,0,0.8,0
			c0.2-2-0.3-6.3-1.1-8.5c-1-2.8-2.8-4.7-5.8-5.4c-0.6-0.1-1.1-0.3-1.7-0.5c-0.7-0.3-1.1-0.8-1.1-1.6c0-1,0-2.1-0.1-3.1
			c-0.6-6.4-2.9-12.3-6.7-17.5c-5-6.7-11.5-11.2-19.4-13.8c-1.1-0.4-1.3-0.3-1.7,0.7c-0.5,1.2-1,2.4-1.4,3.7
			c-1.9,6.5-3.2,13.1-4.5,19.7c-0.2,1.2-0.5,2.4-0.7,3.5c0,0-0.1,0-0.1,0c0-0.2,0-0.5,0-0.7c0-7.8,0-15.6,0-23.3c0-2,0.1-4-0.1-6
			c0-0.8-0.4-1.6-0.8-2.3c-0.6-1.1-1.6-1.6-2.7-2.1c-2.6,0-5.2,0-7.7,0c-2.7,0.9-3.7,2.9-3.6,5.6c0.1,9.3,0,18.6,0,27.9
			c0,0.3,0,0.5,0,0.8c-0.1-0.1-0.2-0.2-0.2-0.3c-0.5-2.5-0.9-5.1-1.5-7.6c-1.2-5.3-2.5-10.5-3.8-15.8c-0.3-1.2-0.9-2.3-1.4-3.4
			c-0.2-0.5-0.6-0.7-1.2-0.5c-6.7,2.2-12.6,5.8-17.3,11.1c-0.7,0.8-1.3,1.6-2,2.4c1.1,0.7,2.1,1.2,3.1,1.9
			C264.7,118.9,270.9,125.3,275.3,133.3z"/>
		<path fill="#FFFFFF" d="M285.2,257.2c-5.1-4.2-10.8-7.5-16.7-10.5c-6.9-3.5-14-6.4-21.3-8.8c-0.7-0.2-1.4-0.7-2-1.2
			c-2.3-1.9-3-4.4-3.1-7.2c-0.1-2.4,0.5-4.8,1.1-7.1c0.2-0.9,0.7-1.4,1.2-2c2-2.2,4.1-4.3,6-6.6c3.5-4.1,6.1-8.7,7.6-13.8
			c1.1-3.8,1.7-7.8,2-11.7c0.1-1.9,0-3.7,0-5.7c-24.4,0-49,0-73.5,0c0,0.2,0,0.4,0,0.6c0,4.1,0.3,8.3,1,12.4
			c1.1,6.3,3.4,12.1,7.5,17c2.4,3,5.2,5.7,7.8,8.6c0.2,0.3,0.5,0.6,0.6,0.9c0.8,2.2,1.2,4.5,1.1,6.9c-0.2,3.9-2.9,7.6-6.5,9.1
			c-4.3,1.7-8.6,3.3-12.8,5.2c-8.2,3.7-16.1,8-23.3,13.6c-3.5,2.8-6.8,5.8-9.2,9.7c-1.5,2.4-2.6,5-2.7,7.9c0,2.1,0,4.3,0,6.4
			c0,2.9,1,5.5,2.8,7.8c2.2,2.9,5.1,4.9,8.3,6.6c3.9,2,8,3.4,12.2,4.5c6.2,1.6,12.5,2.6,18.8,3.2c5.3,0.5,10.7,1,16,1.2
			c6.5,0.3,13.1,0.4,19.6,0.3c6.3-0.1,12.5-0.3,18.8-0.7c5.6-0.4,11.1-1.1,16.6-1.9c5.8-0.8,11.5-2.1,17-4.2
			c4.2-1.5,8.1-3.5,11.5-6.5c2.7-2.5,4.5-5.5,4.8-9.2c0.2-2.1,0-4.2,0.1-6.3c0.1-3.1-0.8-6-2.4-8.6
			C291.7,263.1,288.6,260,285.2,257.2z"/>
		<path fill="#FFFFFF" d="M362,247.9c-0.6-3.4-2.3-6.3-4.5-9c-3.8-4.7-8.6-8.2-13.6-11.4c-9.3-5.9-19.4-10.3-29.8-13.8
			c-0.8-0.3-1.7-0.6-2.5-1.1c-2.6-1.7-3.6-4.3-3.7-7.3c-0.2-2.6,0.4-5.1,1.1-7.6c0.2-0.8,0.7-1.3,1.2-1.9c1.8-1.9,3.6-3.8,5.3-5.8
			c3.8-4.3,6.7-9.1,8.3-14.7c1.5-5.1,2-10.3,2.1-15.6c0-0.6,0-1.2,0-1.8c-12.4,0-24.8,0-37.2,0c0.1,0.3,0.2,0.5,0.2,0.7
			c2,5.3,2.8,10.9,2.4,16.6c-0.5,7.7-6.8,14-14.5,14.8c-0.4,0-0.6,0.1-0.7,0.6c-0.3,2.8-0.6,5.5-1.1,8.3c-1.4,7.6-4.2,14.7-8.7,21.1
			c-1.4,2-2.9,3.9-4.4,5.9c0.2,0.1,0.4,0.2,0.7,0.3c3.3,1.5,6.7,2.8,10,4.4c7.4,3.5,14.5,7.5,21.1,12.6c5.1,3.9,9.7,8.3,13.2,13.7
			c2.6,3.9,4.4,8.1,5.3,12.6c0.5,2.8,0.5,5.7,0.5,8.6c0,0.3,0,0.7,0,1.1c1.7-0.1,3.3-0.2,4.9-0.4c4.5-0.6,9.1-1.1,13.6-1.9
			c5.3-0.8,10.4-2.2,15.4-4.1c4-1.6,7.8-3.5,11-6.6c2.5-2.4,4.2-5.3,4.4-8.7c0.2-2.8,0.1-5.6,0.1-8.3
			C362.1,248.6,362,248.2,362,247.9z"/>
		<path fill="#FFFFFF" d="M273.5,164.5c-0.9-2.2-2.5-3.7-4.8-4.3c-0.6-0.2-1.3-0.4-2-0.5c-1.2-0.4-1.5-0.8-1.5-2c0-1-0.1-2-0.2-3
			c-0.8-7.9-4.1-14.8-9.5-20.6c-4.6-4.9-10.2-8.4-16.6-10.5c-1.1-0.4-1.3-0.3-1.7,0.7c-0.6,1.5-1.3,3.1-1.7,4.7
			c-1.9,6.7-3.2,13.5-4.5,20.3c-0.1,0.6-0.3,1.3-0.4,1.9c-0.1-9.8-0.1-19.6-0.1-29.3c0-0.3,0-0.7,0-1c-0.1-1.8-1.5-3.8-3.3-4
			c-2.7-0.2-5.4-0.3-8.1,0c-2,0.2-3.4,2.3-3.4,4.5c0,1.2,0,2.5,0,3.7c0,8.7,0,17.4,0,26.1c0,0-0.1,0-0.1,0c0-0.1-0.1-0.2-0.1-0.2
			c-0.4-2.2-0.8-4.3-1.2-6.5c-1.1-5.6-2.3-11.1-3.9-16.6c-0.4-1.3-1-2.5-1.5-3.8c-0.3-0.6-0.7-0.7-1.4-0.5c-4.9,1.6-9.4,4-13.4,7.3
			c-4.9,4.1-8.5,9.1-10.8,15c-1.5,3.8-2.2,7.8-2.2,11.9c0,1.1-0.3,1.5-1.3,1.9c-0.5,0.2-1.1,0.3-1.6,0.5c-2.8,0.7-4.6,2.4-5.6,5.1
			c-0.2,0.7-0.4,1.3-0.6,2c-0.5,2.2-0.7,4.4-0.6,6.7c34.6,0,69.2,0,103.8,0C275,170.6,274.8,167.4,273.5,164.5z"/>
	</g>
</g>
</svg>
