<?xml version="1.0" encoding="utf-8"?>
<!-- Generator: Adobe Illustrator 24.0.2, SVG Export Plug-In . SVG Version: 6.00 Build 0)  -->
<svg version="1.0" id="Layer_1" xmlns="http://www.w3.org/2000/svg" xmlns:xlink="http://www.w3.org/1999/xlink" x="0px" y="0px"
	 width="512px" height="512px" viewBox="0 0 512 512" enable-background="new 0 0 512 512" xml:space="preserve">
<g>
	<g>
		<g>
			<path fill="#61B35E" d="M440.8,134.6C422.6,75.9,375.4,28.3,317.6,10.4C256-8.7,191.7,1.6,141.4,38.8
				C117.2,56.6,97.2,80,83.5,106.6c-14.2,27.5-21.7,58.4-21.7,89.5c0,42.4,13.4,82.7,38.8,116.5L256,511l155.3-198.1l0.2-0.3
				C449.5,262,460.2,197.1,440.8,134.6z"/>
		</g>
	</g>
	<polygon fill="#FFFFFF" points="289.2,248.6 289.2,213 354.7,213 323.9,177.4 344.9,177.2 312.8,128.8 326.7,129.2 276.8,69.2 
		226.4,128.8 241.7,128.8 208.6,177.8 229,177.8 198.9,213 264.4,213 264.4,248.6 176,248.6 128.9,281.7 322.9,281.7 383.1,248.6 	
		"/>
</g>
</svg>
