<?xml version="1.0" encoding="utf-8"?>
<!-- Generator: Adobe Illustrator 24.0.2, SVG Export Plug-In . SVG Version: 6.00 Build 0)  -->
<svg version="1.0" id="Layer_1" xmlns="http://www.w3.org/2000/svg" xmlns:xlink="http://www.w3.org/1999/xlink" x="0px" y="0px"
	 width="512px" height="512px" viewBox="0 0 512 512" enable-background="new 0 0 512 512" xml:space="preserve">
<g>
	<g>
		<g>
			<g>
				<path fill="#019484" d="M440.8,134.6C422.6,75.9,375.4,28.3,317.6,10.4C256-8.7,191.7,1.6,141.4,38.8
					C117.2,56.6,97.2,80,83.5,106.6c-14.2,27.5-21.7,58.4-21.7,89.5c0,42.4,13.4,82.7,38.8,116.5L256,511l155.3-198.1l0.2-0.3
					C449.5,262,460.2,197.1,440.8,134.6z"/>
			</g>
		</g>
	</g>
	<g>
		<path fill="#FFFFFF" d="M350.1,131.9c-30.9-14.8-61.8-29.7-92.7-44.5c-1-0.5-1.8-0.5-2.8,0c-30.9,14.9-61.9,29.8-92.9,44.6
			c-1.3,0.6-1.7,1.3-1.7,2.7c0,54.3,0,108.6,0,162.9c0,0.6,0.1,1.3,0.1,2c9.5,0,18.8,0,28.4,0c0-44.3,0-88.6,0-133
			c45.1,0,89.9,0,134.9,0c0,44.4,0,88.6,0,132.9c9.6,0,18.9,0,28.5,0c0-0.8,0-1.5,0-2.2c0-54.1,0-108.3,0-162.4
			C351.9,133.3,351.5,132.6,350.1,131.9z"/>
		<path fill="#FFFFFF" d="M236.5,293.2c11.9,0,23.8,0,35.7,0c0-11.8,0-23.4,0-35.1c-11.9,0-23.7,0-35.7,0
			C236.5,269.9,236.5,281.5,236.5,293.2z"/>
		<path fill="#FFFFFF" d="M236.5,216.6c0,11.7,0,23.4,0,35.1c11.9,0,23.8,0,35.6,0c0-11.8,0-23.4,0-35.1
			C260.2,216.6,248.4,216.6,236.5,216.6z"/>
		<path fill="#FFFFFF" d="M312.1,258c-10.7,0.1-21.3,0.1-32,0c-1.3,0-1.7,0.4-1.7,1.7c0,10.7,0,21.3,0,32c0,1.3,0.4,1.7,1.7,1.7
			c10.7-0.1,21.3-0.1,32,0c1.3,0,1.7-0.4,1.7-1.7c-0.1-5.3,0-10.7,0-16c0-5.3,0-10.7,0-16C313.8,258.4,313.4,258,312.1,258z"/>
		<path fill="#FFFFFF" d="M194.9,293.2c11.7,0,23.3,0,35,0c0-11.8,0-23.4,0-35.1c-11.8,0-23.4,0-35,0
			C194.9,269.9,194.9,281.5,194.9,293.2z"/>
		<path fill="#FFFFFF" d="M194.9,210.1c11.8,0,23.4,0,35.1,0c0-11.7,0-23.3,0-35c-11.8,0-23.4,0-35.1,0
			C194.9,186.8,194.9,198.4,194.9,210.1z"/>
		<path fill="#FFFFFF" d="M194.9,251.7c11.7,0,23.3,0,35.1,0c0-11.8,0-23.4,0-35.1c-11.7,0-23.4,0-35.1,0
			C194.9,228.4,194.9,240,194.9,251.7z"/>
	</g>
</g>
</svg>
