<?xml version="1.0" encoding="utf-8"?>
<!-- Generator: Adobe Illustrator 24.0.2, SVG Export Plug-In . SVG Version: 6.00 Build 0)  -->
<svg version="1.0" id="Layer_1" xmlns="http://www.w3.org/2000/svg" xmlns:xlink="http://www.w3.org/1999/xlink" x="0px" y="0px"
	 width="512px" height="512px" viewBox="0 0 512 512" enable-background="new 0 0 512 512" xml:space="preserve">
<g>
	<g>
		<g>
			<g>
				<path fill="#743B3B" d="M440.8,134.6C422.6,75.9,375.4,28.3,317.6,10.4C256-8.7,191.7,1.6,141.4,38.8
					C117.2,56.6,97.2,80,83.5,106.6c-14.2,27.5-21.7,58.4-21.7,89.5c0,42.4,13.4,82.7,38.8,116.5L256,511l155.3-198.1l0.2-0.3
					C449.5,262,460.2,197.1,440.8,134.6z"/>
			</g>
		</g>
	</g>
	<g>
		<path fill="#FFFFFF" d="M299.6,169c4.9,0,9.8,0.3,14.5,0.5c-2-2.9-4.3-6.3-6.6-9.6c-15.3-22.2-30.7-44.3-46-66.5
			c-3.8-5.4-7.5-10.9-11.3-16.3c-1.3-1.9-2-1.9-3.5,0.1c-0.2,0.3-0.4,0.6-0.6,0.9c-18.2,26.3-36.5,52.6-54.7,78.9
			c-2.7,3.9-5.4,7.8-8.3,12c1,0,1.7,0,2.3,0C223.5,169,261.5,169,299.6,169z"/>
		<path fill="#FFFFFF" d="M183.1,288.2c14.7,0,29.3,0,44.1,0c0-0.3,0-0.5,0-0.7c0-0.5,0-2.1,0-5.6c0-9.3,5.6-17.2,14-20.3
			c13.9-5,28.5,5,28.6,19.8c0,2.6,0,4.1,0,4.9c0,0.6,0,1.3,0,1.9c15,0,29.5,0,44.2,0c0-46.7,0-53.7,0-100.4c-43.8,0-87.3,0-131,0
			C183.1,234.4,183.1,241.5,183.1,288.2z M246.3,226c-10.2-3.3-13.6-7-13.6-13.4c0-6.8,4.2-11.2,11.3-12.3V196h8.7v4.5
			c6.9,1.3,10.7,5.3,10.9,11.5h-10.8c-0.3-2.1-1.1-4.5-4.7-4.5c-2.2,0-3.8,1.3-3.8,3.5c0,2.4,1.2,3.4,6.6,5.3
			c10.2,3.3,13.7,7.4,13.7,13.8c0,7.6-4.5,11.7-11.9,12.8v5.5h-8.7v-5.5c-7.7-1.2-11.7-5.6-12.2-12.5H243c0.4,3.2,2.2,5.2,5.5,5.2
			c3.4,0,4.3-1.8,4.3-3.9C252.8,229.2,251.5,227.7,246.3,226z"/>
	</g>
</g>
</svg>
