<?xml version="1.0" encoding="utf-8"?>
<!-- Generator: Adobe Illustrator 24.0.2, SVG Export Plug-In . SVG Version: 6.00 Build 0)  -->
<svg version="1.1" id="Layer_1" xmlns="http://www.w3.org/2000/svg" xmlns:xlink="http://www.w3.org/1999/xlink" x="0px" y="0px"
	 width="512px" height="512px" viewBox="0 0 512 512" enable-background="new 0 0 512 512" xml:space="preserve">
<g>
	<path fill="#FFFFFF" d="M24.7,124h462.6c13.6,0,24.7-11.1,24.7-24.7c0-13.6-11.1-24.7-24.7-24.7H24.7C11.1,74.6,0,85.6,0,99.3
		C0,112.9,11.1,124,24.7,124z"/>
	<path fill="#FFFFFF" d="M487.3,388H24.7C11.1,388,0,399.1,0,412.7c0,13.6,11.1,24.7,24.7,24.7h462.6c13.6,0,24.7-11.1,24.7-24.7
		C512,399.1,500.9,388,487.3,388z"/>
	<path fill="#FFFFFF" d="M24.7,289h379.7c13.6,0,24.7-11.1,24.7-24.7c0-13.6-11.1-24.7-24.7-24.7H24.7C11.1,239.5,0,250.6,0,264.2
		C0,277.9,11.1,289,24.7,289z"/>
</g>
</svg>
