<?xml version="1.0" encoding="utf-8"?>
<!-- Generator: Adobe Illustrator 24.0.2, SVG Export Plug-In . SVG Version: 6.00 Build 0)  -->
<svg version="1.1" id="Capa_1" xmlns="http://www.w3.org/2000/svg" xmlns:xlink="http://www.w3.org/1999/xlink" x="0px" y="0px"
	 width="512px" height="512px" viewBox="0 0 512 512" style="enable-background:new 0 0 512 512;" xml:space="preserve">
<style type="text/css">
	.st0{fill:#BD1D53;}
</style>
<g>
	<g>
		<g>
			<path class="st0" d="M341.8,42.7h-0.2c-5.9,0-10.6,4.8-10.6,10.7S335.9,64,341.8,64s10.7-4.8,10.7-10.7S347.6,42.7,341.8,42.7z"
				/>
			<path class="st0" d="M256,469.3c11.8,0,21.3-9.6,21.3-21.3s-9.6-21.3-21.3-21.3s-21.3,9.6-21.3,21.3S244.2,469.3,256,469.3z"/>
			<path class="st0" d="M277.3,42.7h-42.7c-5.9,0-10.7,4.8-10.7,10.7S228.8,64,234.7,64h42.7c5.9,0,10.7-4.8,10.7-10.7
				S283.2,42.7,277.3,42.7z"/>
			<path class="st0" d="M362.7,0H149.3C119.9,0,96,23.9,96,53.3v405.3c0,29.4,23.9,53.3,53.3,53.3h213.3c29.4,0,53.3-23.9,53.3-53.3
				V53.3C416,23.9,392.1,0,362.7,0z M394.7,458.7c0,17.6-14.4,32-32,32H149.3c-17.6,0-32-14.4-32-32v-53.3h277.3L394.7,458.7
				L394.7,458.7z M394.7,384H117.3V106.7h277.3L394.7,384L394.7,384z M394.7,85.3H117.3v-32c0-17.6,14.4-32,32-32h213.3
				c17.6,0,32,14.4,32,32L394.7,85.3L394.7,85.3z"/>
		</g>
	</g>
</g>
</svg>
