<?xml version="1.0" encoding="utf-8"?>
<!-- Generator: Adobe Illustrator 24.0.2, SVG Export Plug-In . SVG Version: 6.00 Build 0)  -->
<svg version="1.1" id="Layer_1" xmlns="http://www.w3.org/2000/svg" xmlns:xlink="http://www.w3.org/1999/xlink" x="0px" y="0px"
	 width="512px" height="512px" viewBox="0 0 512 512" enable-background="new 0 0 512 512" xml:space="preserve">
<g>
	<circle fill="#FFFFFF" cx="256" cy="256" r="253"/>
	<g>
		<g>
			<linearGradient id="SVGID_1_" gradientUnits="userSpaceOnUse" x1="170.7" y1="181.7924" x2="260.2" y2="181.7924">
				<stop  offset="0" style="stop-color:#C41E56"/>
				<stop  offset="1" style="stop-color:#891739"/>
			</linearGradient>
			<path fill="url(#SVGID_1_)" d="M185.7,101c-1.7,0.2-3.2,1.5-3.5,5c0.3,7.9,2.3,47.5-6.8,70.5c-1.1,2.8-2.7,5.4-4.7,7.7l88.5,78.4
				l1-4.9c0,0-34.5-37.3-38.9-44.9c-4.5-6.4-22.4-36.4-23.7-48.7c-1.8-7.6-8-47.4-7.8-59.3C189.8,102.6,187.9,100.8,185.7,101z"/>
			<linearGradient id="SVGID_2_" gradientUnits="userSpaceOnUse" x1="251.8" y1="181.7924" x2="341.3" y2="181.7924">
				<stop  offset="0" style="stop-color:#C41E56"/>
				<stop  offset="1" style="stop-color:#891739"/>
			</linearGradient>
			<path fill="url(#SVGID_2_)" d="M326.3,101c1.7,0.2,3.2,1.5,3.5,5c-0.3,7.9-2.3,47.5,6.8,70.5c1.1,2.8,2.7,5.4,4.7,7.7l-88.5,78.4
				l-1-4.9c0,0,34.5-37.3,38.9-44.9c4.5-6.4,22.4-36.4,23.7-48.7c1.8-7.6,8-47.4,7.8-59.3C322.2,102.6,324.1,100.8,326.3,101z"/>
			<linearGradient id="SVGID_3_" gradientUnits="userSpaceOnUse" x1="90.7326" y1="223.9" x2="259.1" y2="223.9">
				<stop  offset="0" style="stop-color:#C41E56"/>
				<stop  offset="1" style="stop-color:#891739"/>
			</linearGradient>
			<path fill="url(#SVGID_3_)" d="M164,189.4c-8.6,4.8-26.3,10.6-68.8,15.4c-1.2,0.1-2.3,0.6-3.2,1.4c-1.1,1-1.7,2.2-0.9,3.7
				c0.7,1.3,2.1,2.1,3.7,2c8.8-0.5,48.7-2.3,66.7,2c8,1.7,32.4,8.8,45.2,17.1c10.6,6.3,44.4,29.9,47.4,32.6l5-1l-88.5-78.4
				C168.8,186.3,166.5,188.1,164,189.4z"/>
			<linearGradient id="SVGID_4_" gradientUnits="userSpaceOnUse" x1="252.9" y1="223.9" x2="421.2674" y2="223.9">
				<stop  offset="0" style="stop-color:#C41E56"/>
				<stop  offset="1" style="stop-color:#891739"/>
			</linearGradient>
			<path fill="url(#SVGID_4_)" d="M348,189.4c8.6,4.8,26.3,10.6,68.8,15.4c1.2,0.1,2.3,0.6,3.2,1.4c1.1,1,1.7,2.2,0.9,3.7
				c-0.7,1.3-2.1,2.1-3.7,2c-8.8-0.5-48.7-2.3-66.7,2c-8,1.7-32.4,8.8-45.2,17.1c-10.6,6.3-44.4,29.9-47.4,32.6l-5-1l88.5-78.4
				C343.2,186.3,345.5,188.1,348,189.4z"/>
			<circle fill="#971C41" cx="256.3" cy="126.6" r="11.9"/>
			<linearGradient id="SVGID_5_" gradientUnits="userSpaceOnUse" x1="145.1" y1="171.1" x2="168.85" y2="171.1">
				<stop  offset="0" style="stop-color:#C41E56"/>
				<stop  offset="1" style="stop-color:#891739"/>
			</linearGradient>
			<circle fill="url(#SVGID_5_)" cx="157" cy="171.1" r="11.9"/>
			<linearGradient id="SVGID_6_" gradientUnits="userSpaceOnUse" x1="343.1401" y1="171.1" x2="366.8901" y2="171.1">
				<stop  offset="0" style="stop-color:#C41E56"/>
				<stop  offset="1" style="stop-color:#891739"/>
			</linearGradient>
			<circle fill="url(#SVGID_6_)" cx="355" cy="171.1" r="11.9"/>
			<path fill="#E3E4E5" d="M221.8,150.2c2.1,2.9,3.8,5.6,5.2,8.1l2.5-8.2l3.7,13.7l4-13.4l4,13.7l3.5-13.8l4,13.5l3.8-13.7l3.2,11.6
				V146c-2.8,0-5.6-0.5-8.3-1.5c-9.3-3.3-25.4-12.7-57.1-41.3c-0.9-0.8-2-1.3-3.1-1.5c-1.4-0.2-2.8,0.2-3.4,1.8
				c-0.5,1.4-0.2,3,0.9,4.1C189.9,112.9,210.2,133.8,221.8,150.2v-0.3V150.2z"/>
			<path fill="#E3E4E5" d="M327.8,102c-1.3-1.2-3.3-1.4-6.1,0.7c-5.7,5.5-34,33.2-57.3,41.6c-2.9,1-5.9,1.5-8.9,1.5v15.7l0.6,2.2
				l3.8-13.7l3.8,13.5l3.8-13.5l4,13.7l3.8-13.9l3.7,13.3l3.9-12.9l2.1,7.3c1.2-2,2.3-3.6,3.4-4.8c4.5-6.4,30.2-37.5,39.2-45.2
				C329.3,106.2,329.4,103.5,327.8,102z"/>
			<path fill="#971C41" d="M248.6,163.8l-4-13.5l-3.5,13.8l-4-13.7l-4,13.4l-3.7-13.7l-2.5,8.2c0.1,0.2,0.2,0.3,0.3,0.5
				c4,7.1,14.9,30.1,17.2,45.2c2.3,12.1,7.1,54.1,7.1,58.2l4,3V161.6l-3.2-11.6L248.6,163.8z"/>
			<path fill="#740F2F" d="M279,163.3l-3.7-13.3l-3.8,13.9l-4-13.7l-3.8,13.5l-3.8-13.5l-3.8,13.7l-0.6-2.2v103.6l4.3-2.5
				c0,0,5.1-51.6,7.9-59.9c1.5-6.6,9.7-32.5,17.3-45.2l-2.1-7.3L279,163.3z"/>
		</g>
		<g>
			<g>
				<path d="M95.7,330h7.5l8.3,13.4l8.3-13.4h7.5v31.7h-6.9V341l-8.9,13.5h-0.2l-8.8-13.4v20.6h-6.8V330z"/>
				<path d="M132.1,367.4l2.3-5c0.9,0.5,2,1,2.9,1c1.2,0,1.8-0.4,2.4-1.6l-9.5-24.4h7.3l5.5,16.5l5.3-16.5h7.2l-9.3,24.9
					c-1.9,4.9-3.9,6.8-8,6.8C135.8,369.1,133.9,368.5,132.1,367.4z"/>
				<path fill="#971C41" d="M168.9,345.9L168.9,345.9c0-9.1,6.8-16.5,16.5-16.5c6,0,9.6,2,12.5,4.9l-4.4,5.1
					c-2.4-2.2-4.9-3.6-8.1-3.6c-5.3,0-9.2,4.4-9.2,9.9v0.1c0,5.4,3.8,10,9.2,10c3.6,0,5.8-1.4,8.3-3.7l4.4,4.5
					c-3.3,3.5-6.9,5.7-13,5.7C175.9,362.3,168.9,355.1,168.9,345.9z"/>
				<path fill="#971C41" d="M199.6,349.7L199.6,349.7c0-7.1,5.6-12.7,13.2-12.7c7.5,0,13.1,5.6,13.1,12.6v0.1
					c0,7-5.6,12.6-13.2,12.6C205.2,362.3,199.6,356.7,199.6,349.7z M219.1,349.7L219.1,349.7c0-3.7-2.6-6.8-6.4-6.8
					c-3.9,0-6.3,3-6.3,6.6v0.1c0,3.6,2.6,6.7,6.4,6.7C216.7,356.3,219.1,353.3,219.1,349.7z"/>
				<path fill="#971C41" d="M229.1,337.4h6.9v3.4c1.6-2,3.7-3.9,7.2-3.9c3.2,0,5.6,1.4,6.8,3.9c2.1-2.5,4.7-3.9,8-3.9
					c5.1,0,8.2,3.1,8.2,8.9v15.8h-6.9v-13.5c0-3.3-1.4-4.9-4-4.9s-4.2,1.7-4.2,4.9v13.5h-6.9v-13.5c0-3.3-1.4-4.9-4-4.9
					s-4.2,1.7-4.2,4.9v13.5h-6.9L229.1,337.4L229.1,337.4z"/>
				<path fill="#971C41" d="M270.3,337.4h6.9v3.4c1.6-2,3.7-3.9,7.2-3.9c3.2,0,5.6,1.4,6.8,3.9c2.1-2.5,4.7-3.9,8-3.9
					c5.1,0,8.2,3.1,8.2,8.9v15.8h-6.9v-13.5c0-3.3-1.4-4.9-4-4.9s-4.2,1.7-4.2,4.9v13.5h-6.9v-13.5c0-3.3-1.4-4.9-4-4.9
					s-4.2,1.7-4.2,4.9v13.5h-6.9V337.4z"/>
				<path fill="#971C41" d="M311.4,353.2v-15.7h6.9V351c0,3.3,1.5,4.9,4.2,4.9c2.6,0,4.3-1.7,4.3-4.9v-13.5h6.9v24.3h-6.9v-3.4
					c-1.6,2-3.6,3.9-7.1,3.9C314.4,362.2,311.4,358.7,311.4,353.2z"/>
				<path fill="#971C41" d="M338,337.4h6.9v3.4c1.6-2,3.6-3.9,7.1-3.9c5.2,0,8.2,3.4,8.2,9v15.7h-6.9v-13.5c0-3.3-1.5-4.9-4.2-4.9
					c-2.6,0-4.3,1.7-4.3,4.9v13.5H338V337.4z"/>
				<path fill="#971C41" d="M364.5,328.6h7.2v6.1h-7.2V328.6z M364.7,337.4h6.9v24.3h-6.9V337.4z"/>
				<path fill="#971C41" d="M377.4,354.8v-11.5h-2.9v-5.9h2.9v-6.2h6.9v6.2h5.7v5.9h-5.7v10.4c0,1.6,0.7,2.4,2.2,2.4
					c1.3,0,2.4-0.3,3.4-0.9v5.5c-1.4,0.9-3.1,1.4-5.4,1.4C380.2,362.1,377.4,360.4,377.4,354.8z"/>
				<path fill="#971C41" d="M392.9,367.4l2.3-5c0.9,0.5,2,1,2.9,1c1.2,0,1.8-0.4,2.4-1.6l-9.5-24.4h7.3l5.5,16.5l5.3-16.5h7.2
					l-9.3,24.9c-1.9,4.9-3.9,6.8-8,6.8C396.5,369.1,394.7,368.5,392.9,367.4z"/>
			</g>
			<g>
				<path fill="#971C41" d="M100.5,290.7c-1.3,1.3-2,2.8-2,4.6V314c0,2.6-0.7,3.6-2.9,4.1v3.7c2.3-0.2,4-1.1,5.2-2.6
					c1-1.3,1.5-3.1,1.5-5.3v-4.2h1.7c2,0,3.6-0.6,4.9-1.9c1.3-1.2,2-2.8,2-4.6v-14.4h-5.6C103.5,288.8,101.8,289.5,100.5,290.7z
					 M107.2,303.3c0,1.5-1.3,2.8-2.7,2.8h-2.2v-10.8c0-1.5,1.2-2.7,2.7-2.7h2.2V303.3z"/>
				<rect x="114.8" y="302.3" fill="#971C41" width="3.8" height="3.7"/>
				<path fill="#971C41" d="M126.7,290.7c-1.3,1.3-2,2.8-2,4.6V314c0,2.6-0.7,3.6-2.9,4.1v3.7c2.3-0.2,4-1.1,5.2-2.6
					c1-1.3,1.5-3.1,1.5-5.3v-4.2h1.7c2,0,3.6-0.6,4.9-1.9c1.3-1.2,2-2.8,2-4.6v-14.4h-5.6C129.7,288.8,128,289.5,126.7,290.7z
					 M133.4,303.3c0,1.5-1.3,2.8-2.7,2.8h-2.2v-10.8c0-1.5,1.2-2.7,2.7-2.7h2.2V303.3z"/>
				<rect x="141" y="302.3" fill="#971C41" width="3.8" height="3.7"/>
				<rect x="152" y="280" fill="#971C41" width="3.8" height="3.7"/>
				<path fill="#971C41" d="M152.7,288.8H152v3.7h0.5c4.3,0,7,2.5,7,6.5v3.3h-10.9v3.7h14.7v-6.8c0-2.4-0.5-4.3-1.4-5.7
					C159.9,290.4,156.8,288.8,152.7,288.8z"/>
				<rect x="185.7" y="318.1" fill="#971C41" width="3.8" height="3.8"/>
				<rect x="179.7" y="318.1" fill="#971C41" width="3.8" height="3.8"/>
				<rect x="202.7" y="280" fill="#971C41" width="3.8" height="3.7"/>
				<rect x="208.6" y="280" fill="#971C41" width="3.8" height="3.7"/>
				<rect x="215.3" y="310.2" fill="#971C41" width="3.8" height="3.7"/>
				<rect x="221.2" y="310.2" fill="#971C41" width="3.8" height="3.7"/>
				<path fill="#971C41" d="M247.1,302.3H241l0,0h-4.7h-1.1h1.3h-1.1h-10.2l0,0H225v-13.5h-3.8v13.5h-8.6h-0.2v-13.5h-3.8v13.5h-8.8
					l0,0h-5l0,0H186v3.7h4.8v2c0,1.4-0.9,2.1-2.6,2.1H181c-1.6,0-2.4-0.8-2.4-2.3v-12.5h-3.8v12.2c0,4.2,2.3,6.3,6.8,6.3h6.7
					c0.9,0,1.6-0.1,2.2-0.3c1-0.4,1.9-0.9,2.6-1.7c1-1.1,1.4-2.2,1.4-3.4v-1v-1.6h0.3h5h0.7h11.9h0.3h11.9h0.7h10.2h1.1h-1.3h1.1
					h4.7h0.7h9.2v-17.2h-3.8L247.1,302.3L247.1,302.3z"/>
				<rect x="247.1" y="280" fill="#971C41" width="3.8" height="3.7"/>
				<rect x="281.3" y="310.2" fill="#971C41" width="3.8" height="3.7"/>
				<rect x="275.4" y="310.2" fill="#971C41" width="3.8" height="3.7"/>
				<path fill="#971C41" d="M298.5,290.7c-1.3,1.3-2,2.7-2,4.6v7.1h-6.1l0,0h-5.1l0,0h-0.2v-13.5h-3.8v13.5h-8.8l0,0h-5.1l0,0h-0.2
					v-13.5h-5.6c-2,0-3.7,0.6-5,1.9c-1.3,1.3-2,2.7-2,4.6v4.3c0,1.9,0.7,3.4,2,4.6c1.3,1.2,3,1.8,5,1.8h1.7v1.6
					c0,0.7-0.1,1.2-0.2,1.5c-0.3,0.7-1,1.1-2,1.1h-6.4v3.7h5.3c1.8,0,3.2-0.2,4.1-0.6c0.6-0.3,1.1-0.7,1.7-1.3
					c1-1.2,1.5-2.6,1.5-4.3V306h0.2h5.1h0.7h11.5h0.7h5.1h0.7h5.5v3.7h5.5c1.9,0,3.6-0.6,4.9-1.9c1.4-1.2,2-2.8,2-4.6v-14.4h-5.6
					C301.5,288.8,299.9,289.5,298.5,290.7z M263.3,302.3h-2.2c-1.5,0-2.7-1.2-2.7-2.7v-4.4c0-1.5,1.2-2.7,2.7-2.7h2.2V302.3z
					 M305.3,303.3c0,1.5-1.3,2.8-2.7,2.8h-2.2v-10.8c0-1.5,1.2-2.7,2.7-2.7h2.2V303.3z"/>
				<path fill="#971C41" d="M346.6,292.6h-8.8v-1.9l12.9-9.5h-6.3l-10.5,7.6v7.4H347c1.5,0,2.7,1.2,2.7,2.7v3.4H339l0,0h-13.4l0,0
					h-0.2v-13.5h-5.6c-2,0-3.7,0.6-5,1.9s-2,2.7-2,4.6v4.3c0,1.9,0.7,3.4,2,4.6s3,1.8,5,1.8h1.7v1.6c0,0.7-0.1,1.2-0.2,1.5
					c-0.3,0.7-1,1.1-2,1.1h-6.4v3.7h5.3c1.8,0,3.2-0.2,4.1-0.6c0.6-0.3,1.1-0.7,1.7-1.3c1-1.2,1.5-2.6,1.5-4.3V306h0.2H339h-7.6
					h22.2v-7c0-1.8-0.7-3.4-2-4.6C350.3,293.2,348.6,292.6,346.6,292.6z M321.5,302.3h-2.2c-1.5,0-2.7-1.2-2.7-2.7v-4.4
					c0-1.5,1.2-2.7,2.7-2.7h2.2V302.3z"/>
				<rect x="375.9" y="318.1" width="3.8" height="3.8"/>
				<path d="M374.7,290.7c-1.3,1.3-2,2.7-2,4.6V306h8.4v2c0,1.4-0.9,2.1-2.6,2.1h-7.1c-1.6,0-2.4-0.8-2.4-2.3v-12.5h-4v12.2
					c0,4.2,2.3,6.3,6.8,6.3h6.7c1.2,0,2.2-0.2,3.2-0.7c2-1.1,3-3,3-5.6v-5.3h-8.2v-7.1c0-1.5,1.2-2.7,2.7-2.7h5.6v-3.7h-5.2
					C377.7,288.8,376,289.5,374.7,290.7z"/>
				<rect x="370" y="318.1" width="3.8" height="3.8"/>
				<path d="M410.8,288.8c-2,0-3.7,0.6-5,1.9s-2,2.7-2,4.6v7.1h-6.1l0,0h-5.1l0,0h-0.2V280h-3.8v26h3.4h0.7h5.1h0.7h5.5v3.7h5.5
					c1.9,0,3.6-0.6,4.9-1.9c1.4-1.2,2-2.8,2-4.6v-14.4L410.8,288.8L410.8,288.8z M412.5,303.3c0,1.5-1.3,2.8-2.7,2.8h-2.2v-10.8
					c0-1.5,1.2-2.7,2.7-2.7h2.2V303.3z"/>
			</g>
			<linearGradient id="SVGID_7_" gradientUnits="userSpaceOnUse" x1="91.5" y1="381.6" x2="420.5" y2="381.6">
				<stop  offset="0" style="stop-color:#C41E56"/>
				<stop  offset="1" style="stop-color:#891739"/>
			</linearGradient>
			
				<line fill="none" stroke="url(#SVGID_7_)" stroke-width="0.4038" stroke-miterlimit="10" x1="91.5" y1="381.6" x2="420.5" y2="381.6"/>
		</g>
		<g>
			<path d="M107.8,395c0-0.4,0.1-0.8,0.2-1.2c0.1-0.4,0.3-0.7,0.6-1c0.2-0.3,0.5-0.5,0.8-0.6s0.5-0.2,0.7-0.2c0.1,0,0.2,0,0.3,0.1
				c0.1,0.1,0.1,0.2,0.1,0.3c0,0.2-0.1,0.4-0.3,0.4s-0.4,0.1-0.6,0.2s-0.4,0.3-0.6,0.6c-0.1,0.3-0.2,0.5-0.2,0.8
				c0,0.2,0,0.3,0.1,0.5c0.1,0.1,0.2,0.2,0.3,0.2c0.1,0,0.3,0,0.4-0.1c0.1,0,0.2-0.1,0.3-0.2c0.1,0.1,0.1,0.2,0.2,0.3
				c0,0.1,0,0.2,0,0.3c0,0.1-0.1,0.3-0.2,0.4s-0.3,0.2-0.4,0.3c-0.2,0.1-0.3,0.1-0.5,0.1c-0.4,0-0.6-0.1-0.9-0.3
				C107.9,395.7,107.8,395.4,107.8,395z M111.5,395c0-0.4,0.1-0.8,0.2-1.2c0.1-0.4,0.3-0.7,0.6-1c0.2-0.3,0.5-0.5,0.8-0.6
				s0.5-0.2,0.7-0.2c0.1,0,0.2,0,0.3,0.1c0.1,0.1,0.1,0.2,0.1,0.3c0,0.2-0.1,0.4-0.3,0.4c-0.2,0-0.4,0.1-0.6,0.2s-0.4,0.3-0.6,0.6
				c-0.1,0.3-0.2,0.5-0.2,0.8c0,0.2,0,0.3,0.1,0.5c0.1,0.1,0.2,0.2,0.3,0.2c0.1,0,0.3,0,0.4-0.1c0.1,0,0.2-0.1,0.3-0.2
				c0.1,0.1,0.1,0.2,0.2,0.3c0,0.1,0,0.2,0,0.3c0,0.1-0.1,0.3-0.2,0.4s-0.3,0.2-0.4,0.3c-0.2,0.1-0.3,0.1-0.5,0.1
				c-0.4,0-0.6-0.1-0.9-0.3C111.6,395.7,111.5,395.4,111.5,395z"/>
			<path d="M131.7,393.7c0.1,0.1,0.2,0.2,0.2,0.4c0,0.1,0,0.3-0.1,0.4s-0.2,0.2-0.3,0.2s-0.3,0-0.4-0.1c-0.7-0.5-1.5-0.9-2.4-1.2
				c-0.9-0.3-1.8-0.4-2.8-0.4c-1.1,0-2.2,0.2-3.2,0.6s-1.8,1-2.6,1.8c-0.7,0.8-1.3,1.7-1.7,2.7c-0.4,1-0.6,2.2-0.6,3.4
				c0,1.3,0.2,2.4,0.6,3.4s1,1.9,1.7,2.7c0.7,0.8,1.6,1.3,2.6,1.8c1,0.4,2,0.6,3.2,0.6c1,0,1.9-0.1,2.8-0.5c0.9-0.3,1.7-0.7,2.4-1.2
				c0.1-0.1,0.3-0.1,0.4-0.1c0.1,0,0.3,0.1,0.3,0.2c0.1,0.1,0.1,0.3,0.1,0.4s-0.1,0.3-0.2,0.3c-0.4,0.3-1,0.6-1.6,0.9
				s-1.3,0.5-2.1,0.7c-0.7,0.2-1.4,0.3-2.2,0.3c-1.3,0-2.5-0.2-3.6-0.7s-2.1-1.1-2.9-2s-1.5-1.9-2-3c-0.5-1.2-0.7-2.4-0.7-3.8
				s0.2-2.6,0.7-3.8c0.5-1.2,1.2-2.2,2-3c0.8-0.9,1.8-1.5,2.9-2s2.3-0.7,3.6-0.7c1.1,0,2.1,0.2,3.1,0.5
				C130,392.7,130.9,393.2,131.7,393.7z"/>
			<path d="M147.2,404.1c0,1.3-0.3,2.5-0.8,3.5c-0.6,1.1-1.3,1.9-2.3,2.5s-2.1,0.9-3.3,0.9s-2.3-0.3-3.3-0.9s-1.8-1.4-2.3-2.5
				c-0.6-1.1-0.9-2.2-0.9-3.5s0.3-2.5,0.9-3.6c0.6-1.1,1.4-1.9,2.3-2.5s2.1-0.9,3.3-0.9c1.3,0,2.4,0.3,3.3,0.9
				c1,0.6,1.8,1.4,2.3,2.5S147.2,402.7,147.2,404.1z M146.1,404.1c0-1.1-0.2-2.2-0.7-3.1s-1.1-1.6-1.9-2.1c-0.8-0.5-1.8-0.8-2.8-0.8
				s-2,0.3-2.8,0.8s-1.5,1.2-2,2.1s-0.7,1.9-0.7,3.1c0,1.1,0.2,2.1,0.7,3s1.1,1.6,2,2.1c0.8,0.5,1.8,0.8,2.8,0.8
				c1.1,0,2-0.3,2.8-0.8s1.5-1.2,1.9-2.1C145.9,406.2,146.1,405.2,146.1,404.1z"/>
			<path d="M156.6,397.1c1.1,0,2,0.2,2.7,0.7c0.7,0.4,1.2,1,1.5,1.8s0.5,1.6,0.5,2.5v8.1c0,0.1-0.1,0.3-0.2,0.4
				c-0.1,0.1-0.2,0.2-0.4,0.2s-0.3-0.1-0.4-0.2c-0.1-0.1-0.1-0.2-0.1-0.4v-8c0-0.8-0.1-1.4-0.4-2.1c-0.3-0.6-0.7-1.1-1.2-1.5
				c-0.6-0.4-1.3-0.6-2.2-0.6c-0.8,0-1.5,0.2-2.3,0.6c-0.7,0.4-1.4,0.9-1.8,1.5c-0.5,0.6-0.7,1.3-0.7,2.1v8c0,0.1-0.1,0.3-0.2,0.4
				c-0.1,0.1-0.2,0.2-0.4,0.2s-0.3-0.1-0.4-0.2c-0.1-0.1-0.1-0.2-0.1-0.4V398c0-0.1,0.1-0.3,0.2-0.4c0.1-0.1,0.2-0.2,0.4-0.2
				s0.3,0.1,0.4,0.2c0.1,0.1,0.1,0.2,0.1,0.4v2.6l-0.7,1.3c0-0.6,0.2-1.2,0.5-1.8c0.3-0.6,0.8-1.1,1.3-1.5s1.2-0.8,1.8-1.1
				S156,397.1,156.6,397.1z"/>
			<path d="M171.8,397.1c1.1,0,2,0.2,2.7,0.7c0.7,0.4,1.2,1,1.5,1.8s0.5,1.6,0.5,2.5v8.1c0,0.1-0.1,0.3-0.2,0.4
				c-0.1,0.1-0.2,0.2-0.4,0.2s-0.3-0.1-0.4-0.2c-0.1-0.1-0.1-0.2-0.1-0.4v-8c0-0.8-0.1-1.4-0.4-2.1c-0.3-0.6-0.7-1.1-1.2-1.5
				c-0.6-0.4-1.3-0.6-2.2-0.6c-0.8,0-1.5,0.2-2.3,0.6c-0.7,0.4-1.4,0.9-1.8,1.5c-0.5,0.6-0.7,1.3-0.7,2.1v8c0,0.1-0.1,0.3-0.2,0.4
				c-0.1,0.1-0.2,0.2-0.4,0.2s-0.3-0.1-0.4-0.2c-0.1-0.1-0.1-0.2-0.1-0.4V398c0-0.1,0.1-0.3,0.2-0.4c0.1-0.1,0.2-0.2,0.4-0.2
				s0.3,0.1,0.4,0.2c0.1,0.1,0.1,0.2,0.1,0.4v2.6l-0.7,1.3c0-0.6,0.2-1.2,0.5-1.8c0.3-0.6,0.8-1.1,1.3-1.5s1.2-0.8,1.8-1.1
				S171.1,397.1,171.8,397.1z"/>
			<path d="M186.8,411c-1.3,0-2.5-0.3-3.5-0.8c-1-0.6-1.8-1.4-2.4-2.4c-0.6-1-0.9-2.2-0.9-3.6c0-1.5,0.3-2.7,0.9-3.8
				c0.6-1,1.3-1.8,2.2-2.4s1.9-0.8,2.9-0.8c0.7,0,1.5,0.1,2.2,0.4c0.7,0.2,1.3,0.6,1.9,1.1c0.6,0.5,1,1.1,1.3,1.9
				c0.3,0.7,0.5,1.6,0.6,2.7c0,0.1-0.1,0.3-0.2,0.4c-0.1,0.1-0.2,0.2-0.4,0.2h-10.8l-0.2-1h10.7l-0.3,0.2v-0.5
				c-0.1-0.9-0.4-1.7-0.9-2.4c-0.5-0.6-1.1-1.1-1.8-1.4s-1.4-0.5-2.2-0.5c-0.5,0-1.1,0.1-1.7,0.4c-0.6,0.2-1.1,0.6-1.6,1.1
				s-0.9,1.1-1.2,1.8c-0.3,0.7-0.5,1.6-0.5,2.6c0,1.1,0.2,2.1,0.6,3c0.4,0.9,1.1,1.6,1.9,2.2c0.9,0.5,1.9,0.8,3.2,0.8
				c0.6,0,1.2-0.1,1.7-0.3c0.5-0.2,1-0.5,1.4-0.8s0.8-0.7,1-1.1c0.1-0.2,0.3-0.2,0.5-0.2c0.1,0,0.2,0,0.3,0.1s0.1,0.2,0.1,0.3
				s0,0.2-0.1,0.3c-0.5,0.7-1.2,1.3-2.1,1.9C188.7,410.7,187.8,411,186.8,411z"/>
			<path d="M201.2,397.1c0.8,0,1.5,0.1,2.2,0.3c0.7,0.2,1.3,0.4,1.7,0.7c0.4,0.3,0.6,0.6,0.6,0.9c0,0.1,0,0.2-0.1,0.4
				c-0.1,0.1-0.2,0.2-0.4,0.2s-0.3-0.1-0.5-0.2c-0.1-0.1-0.2-0.2-0.4-0.4c-0.1-0.1-0.3-0.3-0.6-0.4c-0.2-0.1-0.6-0.2-1-0.3
				c-0.5-0.1-1-0.1-1.7-0.1c-1,0-2,0.3-2.8,0.8s-1.5,1.2-2,2.1s-0.8,1.9-0.8,3s0.2,2.1,0.7,3s1.1,1.6,2,2.1c0.8,0.5,1.8,0.8,2.9,0.8
				c0.8,0,1.4-0.1,1.8-0.2c0.4-0.1,0.8-0.3,1.1-0.5c0.4-0.2,0.6-0.4,0.8-0.6c0.1-0.2,0.3-0.3,0.5-0.3c0.1,0,0.3,0,0.3,0.1
				c0.1,0.1,0.1,0.2,0.1,0.3c0,0.2-0.2,0.5-0.6,0.8c-0.4,0.3-0.9,0.6-1.6,0.9c-0.7,0.3-1.5,0.4-2.5,0.4c-1.3,0-2.4-0.3-3.4-0.9
				s-1.8-1.4-2.3-2.5c-0.6-1.1-0.8-2.2-0.8-3.6c0-1.2,0.3-2.4,0.8-3.4c0.6-1.1,1.3-1.9,2.3-2.5C198.6,397.4,199.8,397.1,201.2,397.1
				z"/>
			<path d="M207.8,397.4h6.1c0.1,0,0.3,0.1,0.4,0.2c0.1,0.1,0.1,0.2,0.1,0.3c0,0.1,0,0.3-0.1,0.4s-0.2,0.1-0.4,0.1h-6.1
				c-0.1,0-0.2-0.1-0.3-0.2s-0.2-0.2-0.2-0.3c0-0.1,0.1-0.3,0.2-0.4C207.5,397.5,207.7,397.4,207.8,397.4z M210.5,393.5
				c0.2,0,0.3,0.1,0.4,0.2c0.1,0.1,0.1,0.2,0.1,0.4v13.8c0,0.6,0.1,1,0.2,1.3c0.1,0.3,0.3,0.4,0.6,0.5c0.2,0.1,0.5,0.1,0.7,0.1
				c0.1,0,0.2,0,0.3-0.1c0.1,0,0.2-0.1,0.3-0.1s0.2,0,0.3,0.1s0.1,0.2,0.1,0.3c0,0.2-0.1,0.3-0.3,0.4s-0.5,0.2-0.8,0.2
				c-0.1,0-0.3,0-0.6,0s-0.6-0.1-0.9-0.2c-0.3-0.1-0.6-0.4-0.8-0.8s-0.3-1-0.3-1.8V394c0-0.1,0.1-0.3,0.2-0.4
				C210.2,393.6,210.3,393.5,210.5,393.5z"/>
			<path d="M223.3,397.4h6.1c0.1,0,0.3,0.1,0.4,0.2c0.1,0.1,0.1,0.2,0.1,0.3c0,0.1,0,0.3-0.1,0.4s-0.2,0.1-0.4,0.1h-6.1
				c-0.1,0-0.2-0.1-0.3-0.2s-0.2-0.2-0.2-0.3c0-0.1,0.1-0.3,0.2-0.4C223.1,397.5,223.2,397.4,223.3,397.4z M226,393.5
				c0.2,0,0.3,0.1,0.4,0.2s0.1,0.2,0.1,0.4v13.8c0,0.6,0.1,1,0.2,1.3c0.1,0.3,0.3,0.4,0.6,0.5s0.5,0.1,0.7,0.1c0.1,0,0.2,0,0.3-0.1
				c0.1,0,0.2-0.1,0.3-0.1s0.2,0,0.3,0.1s0.1,0.2,0.1,0.3c0,0.2-0.1,0.3-0.3,0.4s-0.5,0.2-0.8,0.2c-0.1,0-0.3,0-0.6,0
				s-0.6-0.1-0.9-0.2c-0.3-0.1-0.6-0.4-0.8-0.8s-0.3-1-0.3-1.8V394c0-0.1,0.1-0.3,0.2-0.4S225.8,393.5,226,393.5z"/>
			<path d="M244.9,404.1c0,1.3-0.3,2.5-0.8,3.5c-0.6,1.1-1.3,1.9-2.3,2.5s-2.1,0.9-3.3,0.9s-2.3-0.3-3.3-0.9s-1.8-1.4-2.3-2.5
				c-0.6-1.1-0.9-2.2-0.9-3.5s0.3-2.5,0.9-3.6c0.6-1.1,1.4-1.9,2.3-2.5s2.1-0.9,3.3-0.9c1.3,0,2.4,0.3,3.3,0.9s1.8,1.4,2.3,2.5
				C244.6,401.6,244.9,402.7,244.9,404.1z M243.8,404.1c0-1.1-0.2-2.2-0.7-3.1s-1.1-1.6-1.9-2.1c-0.8-0.5-1.8-0.8-2.8-0.8
				s-2,0.3-2.8,0.8s-1.5,1.2-2,2.1s-0.7,1.9-0.7,3.1c0,1.1,0.2,2.1,0.7,3s1.1,1.6,2,2.1c0.8,0.5,1.8,0.8,2.8,0.8
				c1.1,0,2-0.3,2.8-0.8s1.5-1.2,1.9-2.1C243.6,406.2,243.8,405.2,243.8,404.1z"/>
			<path d="M264.1,411c-1.4,0-2.6-0.2-3.8-0.7c-1.2-0.5-2.2-1.1-3-2c-0.9-0.9-1.5-1.9-2-3c-0.5-1.2-0.7-2.4-0.7-3.8s0.2-2.6,0.7-3.8
				c0.5-1.2,1.1-2.2,2-3c0.9-0.9,1.9-1.5,3-2c1.2-0.5,2.4-0.7,3.8-0.7c1,0,1.9,0.1,2.8,0.4c0.9,0.2,1.7,0.6,2.4,1.1
				c0.1,0.1,0.2,0.1,0.2,0.2s0.1,0.2,0.1,0.3c0,0.2-0.1,0.3-0.2,0.4s-0.2,0.1-0.3,0.1c-0.1,0-0.1,0-0.2,0s-0.1,0-0.2-0.1
				c-0.7-0.4-1.4-0.7-2.1-0.9c-0.8-0.2-1.6-0.3-2.5-0.3c-1.6,0-3.1,0.4-4.4,1.1s-2.3,1.7-3,3c-0.7,1.3-1.1,2.7-1.1,4.4
				s0.4,3.1,1.1,4.4s1.7,2.3,3,3s2.7,1.1,4.4,1.1c0.9,0,1.8-0.1,2.6-0.4c0.9-0.3,1.6-0.6,2.3-1.1l-0.1,0.5v-6.6l0.4,0.3h-5.1
				c-0.1,0-0.3-0.1-0.4-0.2s-0.2-0.2-0.2-0.4c0-0.2,0.1-0.3,0.2-0.4s0.2-0.1,0.4-0.1h5.3c0.2,0,0.3,0.1,0.4,0.2s0.1,0.2,0.1,0.4v6.6
				c0,0.1,0,0.1-0.1,0.2c0,0.1-0.1,0.2-0.2,0.2c-0.8,0.5-1.6,1-2.6,1.3C266.1,410.8,265.1,411,264.1,411z"/>
			<path d="M274.4,410.7c-0.2,0-0.3-0.1-0.4-0.2s-0.1-0.2-0.1-0.4v-12.2c0-0.1,0.1-0.3,0.2-0.4s0.2-0.2,0.4-0.2
				c0.2,0,0.3,0.1,0.4,0.2s0.1,0.2,0.1,0.4v4.5l-0.4,0.7c0-0.7,0.1-1.4,0.4-2.1c0.2-0.7,0.6-1.4,1-2c0.5-0.6,1-1.1,1.7-1.5
				s1.4-0.6,2.3-0.6c0.2,0,0.5,0,0.8,0.1s0.4,0.2,0.4,0.5c0,0.2,0,0.3-0.1,0.4s-0.2,0.2-0.3,0.2c-0.1,0-0.2,0-0.4-0.1
				c-0.2-0.1-0.4-0.1-0.6-0.1c-0.6,0-1.1,0.2-1.7,0.5c-0.5,0.3-1,0.8-1.5,1.3c-0.4,0.6-0.8,1.2-1.1,1.8s-0.4,1.3-0.4,1.9v6.6
				c0,0.1-0.1,0.3-0.2,0.4C274.6,410.7,274.5,410.7,274.4,410.7z"/>
			<path d="M295.1,404.1c0,1.3-0.3,2.5-0.8,3.5c-0.6,1.1-1.3,1.9-2.3,2.5s-2.1,0.9-3.3,0.9c-1.2,0-2.3-0.3-3.3-0.9s-1.8-1.4-2.3-2.5
				c-0.6-1.1-0.9-2.2-0.9-3.5s0.3-2.5,0.9-3.6s1.4-1.9,2.3-2.5c1-0.6,2.1-0.9,3.3-0.9c1.3,0,2.4,0.3,3.3,0.9s1.8,1.4,2.3,2.5
				C294.9,401.6,295.1,402.7,295.1,404.1z M294.1,404.1c0-1.1-0.2-2.2-0.7-3.1s-1.1-1.6-1.9-2.1s-1.8-0.8-2.8-0.8s-2,0.3-2.8,0.8
				s-1.5,1.2-2,2.1s-0.7,1.9-0.7,3.1c0,1.1,0.2,2.1,0.7,3s1.1,1.6,2,2.1c0.8,0.5,1.8,0.8,2.8,0.8c1.1,0,2-0.3,2.8-0.8
				s1.5-1.2,1.9-2.1S294.1,405.2,294.1,404.1z"/>
			<path d="M314.6,397c0.1,0,0.3,0,0.4,0.1s0.2,0.2,0.2,0.4v0.1c0,0.1,0,0.1,0,0.1l-4.1,12.6c-0.1,0.1-0.1,0.2-0.2,0.3
				c-0.1,0.1-0.2,0.1-0.3,0.1c-0.2,0-0.4-0.1-0.5-0.3l-4.1-9.2l0.4,0.1l-3.6,9.1c-0.1,0.2-0.3,0.3-0.5,0.3c-0.1,0-0.2,0-0.3-0.1
				c-0.1-0.1-0.2-0.1-0.2-0.3l-4.2-12.6c0-0.1-0.1-0.2-0.1-0.3c0-0.2,0.1-0.3,0.2-0.4s0.2-0.1,0.4-0.1c0.1,0,0.2,0,0.3,0.1
				c0.1,0.1,0.2,0.1,0.2,0.3l3.9,12.2h-0.4l3.8-9.3c0.1-0.2,0.3-0.3,0.5-0.3c0.1,0,0.2,0,0.3,0.1c0.1,0.1,0.2,0.1,0.2,0.3l4,9.3
				h-0.5l3.9-12.2C314.2,397.2,314.4,397,314.6,397z"/>
			<path d="M333.6,392.2c1.4,0,2.5,0.4,3.4,1.2c0.8,0.8,1.3,1.9,1.3,3.3c0,0.7-0.1,1.4-0.4,2.1s-0.7,1.2-1.3,1.7
				c-0.6,0.4-1.3,0.7-2.1,0.8l-0.2-0.3c0.7,0,1.3,0.1,1.9,0.3c0.6,0.2,1.1,0.5,1.6,0.9c0.4,0.4,0.8,0.9,1,1.5
				c0.3,0.6,0.4,1.3,0.4,2.1c0,0.8-0.1,1.6-0.4,2.2s-0.7,1.1-1.2,1.6c-0.5,0.4-1.1,0.7-1.7,0.9c-0.7,0.2-1.3,0.3-2.1,0.3h-7.3
				c-0.1,0-0.3-0.1-0.4-0.2s-0.2-0.2-0.2-0.4v-17.5c0-0.1,0.1-0.3,0.2-0.4s0.2-0.2,0.4-0.2h7.1L333.6,392.2L333.6,392.2z
				 M333.5,393.3h-6.7l0.3-0.5v8.4l-0.3-0.5h6.7c1,0,1.9-0.4,2.6-1c0.7-0.7,1.1-1.7,1.1-3c0-1-0.3-1.8-1-2.5
				C335.6,393.6,334.7,393.3,333.5,393.3z M333.7,401.8H327l0.1-0.2v8.3l-0.1-0.2h6.7c1.3,0,2.3-0.3,3.2-0.9c0.8-0.6,1.3-1.6,1.3-3
				c0-0.9-0.2-1.7-0.6-2.3c-0.4-0.6-0.9-1-1.6-1.3C335.2,401.9,334.5,401.8,333.7,401.8z"/>
			<path d="M348.5,411c-1.3,0-2.5-0.3-3.5-0.8c-1-0.6-1.8-1.4-2.4-2.4s-0.9-2.2-0.9-3.6c0-1.5,0.3-2.7,0.9-3.8
				c0.6-1,1.3-1.8,2.2-2.4c0.9-0.6,1.9-0.8,2.9-0.8c0.7,0,1.5,0.1,2.2,0.4c0.7,0.2,1.3,0.6,1.9,1.1s1,1.1,1.3,1.9
				c0.3,0.7,0.5,1.6,0.6,2.7c0,0.1-0.1,0.3-0.2,0.4s-0.2,0.2-0.4,0.2h-10.8l-0.2-1h10.7l-0.3,0.2v-0.5c-0.1-0.9-0.4-1.7-0.9-2.4
				c-0.5-0.6-1.1-1.1-1.8-1.4c-0.7-0.3-1.4-0.5-2.2-0.5c-0.5,0-1.1,0.1-1.7,0.4c-0.6,0.2-1.1,0.6-1.6,1.1s-0.9,1.1-1.2,1.8
				c-0.3,0.7-0.5,1.6-0.5,2.6c0,1.1,0.2,2.1,0.6,3s1.1,1.6,1.9,2.2c0.9,0.5,1.9,0.8,3.2,0.8c0.6,0,1.2-0.1,1.7-0.3
				c0.5-0.2,1-0.5,1.4-0.8s0.8-0.7,1-1.1c0.1-0.2,0.3-0.2,0.5-0.2c0.1,0,0.2,0,0.3,0.1c0.1,0.1,0.1,0.2,0.1,0.3s0,0.2-0.1,0.3
				c-0.5,0.7-1.2,1.3-2.1,1.9C350.5,410.7,349.6,411,348.5,411z"/>
			<path d="M356,397.4h6.1c0.1,0,0.3,0.1,0.4,0.2s0.1,0.2,0.1,0.3c0,0.1,0,0.3-0.1,0.4s-0.2,0.1-0.4,0.1H356c-0.1,0-0.2-0.1-0.3-0.2
				c-0.1-0.1-0.2-0.2-0.2-0.3c0-0.1,0.1-0.3,0.2-0.4C355.7,397.5,355.8,397.4,356,397.4z M358.7,393.5c0.2,0,0.3,0.1,0.4,0.2
				s0.1,0.2,0.1,0.4v13.8c0,0.6,0.1,1,0.2,1.3c0.2,0.3,0.3,0.4,0.6,0.5c0.2,0.1,0.4,0.1,0.7,0.1c0.1,0,0.2,0,0.3-0.1
				c0.1,0,0.2-0.1,0.3-0.1c0.1,0,0.2,0,0.3,0.1c0.1,0.1,0.1,0.2,0.1,0.3c0,0.2-0.1,0.3-0.3,0.4c-0.2,0.1-0.5,0.2-0.8,0.2
				c-0.1,0-0.3,0-0.6,0c-0.3,0-0.6-0.1-0.9-0.2s-0.6-0.4-0.8-0.8c-0.2-0.4-0.3-1-0.3-1.8V394c0-0.1,0.1-0.3,0.2-0.4
				S358.5,393.5,358.7,393.5z"/>
			<path d="M364.3,397.4h6.1c0.1,0,0.3,0.1,0.4,0.2s0.1,0.2,0.1,0.3c0,0.1,0,0.3-0.1,0.4s-0.2,0.1-0.4,0.1h-6.1
				c-0.1,0-0.2-0.1-0.3-0.2s-0.2-0.2-0.2-0.3c0-0.1,0.1-0.3,0.2-0.4C364.1,397.5,364.2,397.4,364.3,397.4z M367,393.5
				c0.2,0,0.3,0.1,0.4,0.2s0.1,0.2,0.1,0.4v13.8c0,0.6,0.1,1,0.2,1.3s0.3,0.4,0.6,0.5c0.2,0.1,0.5,0.1,0.7,0.1c0.1,0,0.2,0,0.3-0.1
				c0.1,0,0.2-0.1,0.3-0.1s0.2,0,0.3,0.1c0.1,0.1,0.1,0.2,0.1,0.3c0,0.2-0.1,0.3-0.3,0.4c-0.2,0.1-0.5,0.2-0.8,0.2
				c-0.1,0-0.3,0-0.6,0c-0.3,0-0.6-0.1-0.9-0.2s-0.6-0.4-0.8-0.8c-0.2-0.4-0.3-1-0.3-1.8V394c0-0.1,0.1-0.3,0.2-0.4
				C366.8,393.6,366.9,393.5,367,393.5z"/>
			<path d="M379.6,411c-1.3,0-2.5-0.3-3.5-0.8c-1-0.6-1.8-1.4-2.4-2.4s-0.9-2.2-0.9-3.6c0-1.5,0.3-2.7,0.9-3.8
				c0.6-1,1.3-1.8,2.2-2.4c0.9-0.6,1.9-0.8,2.9-0.8c0.7,0,1.5,0.1,2.2,0.4c0.7,0.2,1.3,0.6,1.9,1.1s1,1.1,1.3,1.9
				c0.3,0.7,0.5,1.6,0.6,2.7c0,0.1-0.1,0.3-0.2,0.4s-0.2,0.2-0.4,0.2h-10.8l-0.2-1H384l-0.3,0.2v-0.5c-0.1-0.9-0.4-1.7-0.9-2.4
				c-0.5-0.6-1.1-1.1-1.8-1.4c-0.7-0.3-1.4-0.5-2.2-0.5c-0.5,0-1.1,0.1-1.7,0.4c-0.6,0.2-1.1,0.6-1.6,1.1s-0.9,1.1-1.2,1.8
				c-0.3,0.7-0.5,1.6-0.5,2.6c0,1.1,0.2,2.1,0.6,3s1.1,1.6,1.9,2.2c0.9,0.5,1.9,0.8,3.2,0.8c0.6,0,1.2-0.1,1.7-0.3
				c0.5-0.2,1-0.5,1.4-0.8s0.8-0.7,1-1.1c0.1-0.2,0.3-0.2,0.5-0.2c0.1,0,0.2,0,0.3,0.1c0.1,0.1,0.1,0.2,0.1,0.3s0,0.2-0.1,0.3
				c-0.5,0.7-1.2,1.3-2.1,1.9C381.6,410.7,380.7,411,379.6,411z"/>
			<path d="M388.8,410.7c-0.2,0-0.3-0.1-0.4-0.2s-0.1-0.2-0.1-0.4v-12.2c0-0.1,0.1-0.3,0.2-0.4s0.2-0.2,0.4-0.2
				c0.2,0,0.3,0.1,0.4,0.2s0.1,0.2,0.1,0.4v4.5l-0.5,0.7c0-0.7,0.1-1.4,0.4-2.1c0.2-0.7,0.6-1.4,1-2c0.5-0.6,1-1.1,1.7-1.5
				s1.4-0.6,2.3-0.6c0.2,0,0.5,0,0.8,0.1s0.4,0.2,0.4,0.5c0,0.2,0,0.3-0.1,0.4s-0.2,0.2-0.3,0.2c-0.1,0-0.2,0-0.4-0.1
				c-0.1-0.1-0.4-0.1-0.6-0.1c-0.6,0-1.1,0.2-1.7,0.5c-0.5,0.3-1,0.8-1.5,1.3c-0.5,0.6-0.8,1.2-1.1,1.8c-0.3,0.7-0.4,1.3-0.4,1.9
				v6.6c0,0.1-0.1,0.3-0.2,0.4C389.1,410.7,389,410.7,388.8,410.7z"/>
			<path d="M399.4,393.2c0,0.4-0.1,0.8-0.2,1.2c-0.1,0.4-0.3,0.7-0.6,1c-0.2,0.3-0.5,0.5-0.8,0.6s-0.5,0.2-0.7,0.2
				c-0.1,0-0.2,0-0.3-0.1c-0.1-0.1-0.1-0.2-0.1-0.3c0-0.2,0.1-0.4,0.3-0.4c0.2,0,0.4-0.1,0.6-0.2s0.4-0.3,0.6-0.6
				c0.1-0.3,0.2-0.5,0.2-0.8c0-0.2,0-0.3-0.1-0.5c-0.1-0.1-0.2-0.2-0.3-0.2c-0.1,0-0.3,0-0.4,0.1c-0.1,0-0.2,0.1-0.3,0.2
				c-0.1-0.1-0.1-0.2-0.2-0.3c0-0.1,0-0.2,0-0.3c0-0.1,0.1-0.3,0.2-0.4s0.3-0.2,0.4-0.3s0.3-0.1,0.5-0.1c0.4,0,0.6,0.1,0.9,0.3
				C399.3,392.5,399.4,392.8,399.4,393.2z M403.1,393.2c0,0.4-0.1,0.8-0.2,1.2c-0.1,0.4-0.3,0.7-0.6,1c-0.2,0.3-0.5,0.5-0.8,0.6
				s-0.5,0.2-0.7,0.2c-0.1,0-0.2,0-0.3-0.1c-0.1-0.1-0.1-0.2-0.1-0.3c0-0.2,0.1-0.4,0.3-0.4c0.2,0,0.4-0.1,0.6-0.2s0.4-0.3,0.6-0.6
				c0.1-0.3,0.2-0.5,0.2-0.8c0-0.2,0-0.3-0.1-0.5c-0.1-0.1-0.2-0.2-0.3-0.2c-0.1,0-0.3,0-0.4,0.1c-0.1,0-0.2,0.1-0.3,0.2
				c-0.1-0.1-0.1-0.2-0.2-0.3c0-0.1,0-0.2,0-0.3c0-0.1,0.1-0.3,0.2-0.4s0.3-0.2,0.4-0.3s0.3-0.1,0.5-0.1c0.4,0,0.6,0.1,0.9,0.3
				C403,392.5,403.1,392.8,403.1,393.2z"/>
		</g>
	</g>
</g>
</svg>
