<?xml version="1.0" encoding="utf-8"?>
<!-- Generator: Adobe Illustrator 24.0.2, SVG Export Plug-In . SVG Version: 6.00 Build 0)  -->
<svg version="1.1" id="Capa_1" xmlns="http://www.w3.org/2000/svg" xmlns:xlink="http://www.w3.org/1999/xlink" x="0px" y="0px"
	 width="512px" height="512px" viewBox="0 0 512 512" enable-background="new 0 0 512 512" xml:space="preserve">
<g>
	<path fill="#99DAFF" d="M256,15C122.9,15,15,122.9,15,256h482C497,122.9,389.1,15,256,15z"/>
	<path fill="#53ACF5" d="M497,256c0-133.1-107.9-241-241-241v241H497z"/>
	<path fill="#4793FF" d="M437,75C388.7,26.6,324.4,0,256,0S123.3,26.6,75,75C26.6,123.3,0,187.6,0,256h512
		C512,187.6,485.4,123.3,437,75L437,75z M120.7,241H30.5c2.1-32.5,11.2-63.2,25.7-90.5h76C125.6,178.8,121.7,209.3,120.7,241z
		 M75.3,120.5c26.3-35,62.4-62.1,104.3-77.2c-8,10.2-15.4,22.1-22.2,35.5c-6.4,12.8-12,26.8-16.9,41.6H75.3z M241,241h-90.3
		c1-32,5.2-62.7,12.3-90.5h78L241,241z M241,120.5h-68.8c3.6-9.9,7.6-19.4,12-28.2c16-31.9,36.1-52.9,56.8-59.8L241,120.5z
		 M271,32.5c20.7,6.9,40.8,27.9,56.8,59.8c4.4,8.8,8.4,18.3,12,28.2H271V32.5z M271,241v-90.5h78c7.1,27.8,11.3,58.5,12.3,90.5H271z
		 M354.6,78.9c-6.7-13.5-14.2-25.4-22.2-35.5c41.9,15.1,78,42.2,104.3,77.2h-65.3C366.7,105.7,361,91.7,354.6,78.9L354.6,78.9z
		 M379.8,150.5h76c14.5,27.3,23.6,58,25.7,90.5h-90.2C390.3,209.3,386.4,178.8,379.8,150.5z"/>
	<path fill="#424FDD" d="M256,0v256h256c0-68.4-26.6-132.7-75-181C388.7,26.6,324.4,0,256,0L256,0z M271,32.5
		c20.7,6.9,40.8,27.9,56.8,59.8c4.4,8.8,8.4,18.3,12,28.2H271V32.5z M271,241v-90.5h78c7.1,27.8,11.3,58.5,12.3,90.5H271z
		 M354.6,78.9c-6.7-13.5-14.2-25.4-22.2-35.5c41.9,15.1,78,42.2,104.3,77.2h-65.3C366.7,105.7,361,91.7,354.6,78.9L354.6,78.9z
		 M481.5,241h-90.2c-0.9-31.7-4.8-62.2-11.5-90.5h76C470.3,177.8,479.4,208.5,481.5,241z"/>
	<path fill="#EBFAFF" d="M497,512H15c-8.3,0-15-6.7-15-15V256c0-8.3,6.7-15,15-15h482c8.3,0,15,6.7,15,15v241
		C512,505.3,505.3,512,497,512z"/>
	<path fill="#C3E6FF" d="M497,241H256v271h241c8.3,0,15-6.7,15-15V256C512,247.7,505.3,241,497,241z"/>
	<path fill="#FFEA98" d="M30,271h452v211H30V271z"/>
	<path fill="#FFB454" d="M256,271h226v211H256V271z"/>
	<g>
		<path fill="#5E54AC" d="M146.2,330.9c-0.1-6.9-5.6-12.4-12.5-12.4c0,0-0.1,0-0.1,0c-6.9,0.1-12.4,5.7-12.4,12.6l0.5,50.8
			l-39.9-57.8c-3.1-4.5-8.8-6.5-14-4.8c-5.2,1.6-8.8,6.5-8.8,11.9V421c0,6.9,5.6,12.5,12.5,12.5c6.9,0,12.5-5.6,12.5-12.5v-49.7
			l38,55c3.6,5.2,9.7,7.5,15.4,5.7c5.9-1.8,9.7-7.3,9.7-13.9c0,0,0-0.1,0-0.1L146.2,330.9z"/>
		<path fill="#5E54AC" d="M215,343.5c6.9,0,12.5-5.6,12.5-12.5s-5.6-12.5-12.5-12.5H177c-6.9,0-12.5,5.6-12.5,12.5v90
			c0,6.9,5.6,12.5,12.5,12.5H215c6.9,0,12.5-5.6,12.5-12.5s-5.6-12.5-12.5-12.5h-25.4v-20h22.6c6.9,0,12.5-5.6,12.5-12.5
			s-5.6-12.5-12.5-12.5h-22.6v-20H215z"/>
		<path fill="#5E54AC" d="M354.2,318.9c-6.8-1.3-13.4,3-14.7,9.8l-9.5,47.6l-15.1-49c-2-6.6-9-10.3-15.6-8.3c-4.4,1.4-7.6,5-8.5,9.2
			l-14.9,48l-9.4-47.7c-1.3-6.8-7.9-11.2-14.7-9.8c-6.8,1.3-11.2,7.9-9.8,14.7l17.5,88.6c0.1,0.6,0.3,1.2,0.5,1.8
			c2.1,5.8,7.6,9.7,13.7,9.7h0.1c6.2,0,11.7-4,13.7-9.9c0-0.1,0.1-0.2,0.1-0.3l15.4-49.9l15.4,49.9c0.1,0.2,0.1,0.3,0.2,0.5
			c2.1,5.8,7.6,9.7,13.7,9.7h0.1c6.2,0,11.7-4,13.7-9.9c0.2-0.5,0.3-1,0.4-1.6l17.6-88.5C365.4,326.8,361,320.3,354.2,318.9
			L354.2,318.9z"/>
	</g>
	<path fill="#453D81" d="M354.2,318.9c-6.8-1.3-13.4,3-14.7,9.8l-9.5,47.6l-15.1-49c-2-6.6-9-10.3-15.6-8.3c-4.4,1.4-7.6,5-8.5,9.2
		l-14.9,48l-9.4-47.7c-1.1-5.4-5.4-9.2-10.5-9.9v85.6l3.5,17.8c0.1,0.6,0.3,1.2,0.5,1.8c2.1,5.8,7.6,9.7,13.7,9.7h0.1
		c6.2,0,11.7-4,13.7-9.9c0-0.1,0.1-0.2,0.1-0.3l15.4-49.9l15.4,49.9c0.1,0.2,0.1,0.3,0.2,0.5c2.1,5.8,7.6,9.7,13.7,9.7h0.1
		c6.2,0,11.7-4,13.7-9.9c0.2-0.5,0.3-1,0.4-1.6l17.6-88.5C365.4,326.8,361,320.3,354.2,318.9L354.2,318.9z"/>
	<path fill="#453D81" d="M427.3,365c-10.8-4-20.9-8.3-24.3-9.8c-1.8-1.6-1.8-3.7-1.6-4.6c0.2-1.4,1.2-4.7,6.3-6.2
		c12.1-3.7,23.5,5.4,23.6,5.5l-0.1-0.1l0,0c2.2,1.8,5,2.9,8.1,2.9c6.9,0,12.5-5.6,12.5-12.5c0-4-1.9-7.6-4.8-9.8
		c-2.9-2.3-22.7-17.1-46.5-10c-12.9,3.9-22,14.1-23.8,26.6c-1.7,11.8,3.4,23.1,13.3,29.5c0.6,0.4,1.1,0.7,1.7,0.9
		c0.5,0.2,13,5.8,26.9,10.9c2.8,1.1,12.1,4.9,11,10.9c-0.8,4.5-6.4,9.2-14.5,9.2c-8.6,0-16.9-3.5-22.1-9.2
		c-4.6-5.1-12.5-5.5-17.7-0.9s-5.5,12.5-0.9,17.7c10,11.1,24.9,17.4,40.6,17.4c19.6,0,36-12.5,39.1-29.8
		C456.6,390.6,450.7,373.6,427.3,365L427.3,365z"/>
</g>
</svg>
