<?xml version="1.0" encoding="utf-8"?>
<!-- Generator: Adobe Illustrator 24.0.2, SVG Export Plug-In . SVG Version: 6.00 Build 0)  -->
<svg version="1.1" id="Layer_1" xmlns="http://www.w3.org/2000/svg" xmlns:xlink="http://www.w3.org/1999/xlink" x="0px" y="0px"
	 width="511px" height="511px" viewBox="0 0 511 511" style="enable-background:new 0 0 511 511;" xml:space="preserve">
<style type="text/css">
	.st0{fill:#BD1D53;}
</style>
<g>
	<circle class="st0" cx="374.1" cy="349.2" r="20.8"/>
	<circle class="st0" cx="217" cy="349.2" r="20.8"/>
	<circle class="st0" cx="138.9" cy="349.2" r="20.8"/>
	<circle class="st0" cx="295" cy="349.2" r="20.8"/>
	<path class="st0" d="M467.8,428.2c-5.7,0-10.4,4.7-10.4,10.4c0,28.7-23.3,52-52,52H105.6c-28.7,0-52-23.3-52-52V268
		c0-28.7,23.3-52,52-52h299.7c28.7,0,52,23.3,52,52v77c0,5.7,4.7,10.4,10.4,10.4c5.7,0,10.4-4.7,10.4-10.4v-77
		c0-40.2-32.7-72.8-72.8-72.8h-35.4v-83.8c0-61.7-51.4-111.8-114.5-111.8S141,49.7,141,111.3v83.8h-35.3
		c-40.2,0-72.8,32.7-72.8,72.8v170.7c0,40.2,32.7,72.8,72.8,72.8h299.7c40.2,0,72.8-32.7,72.8-72.8
		C478.2,432.9,473.5,428.2,467.8,428.2z M161.8,111.3c0-50.2,42-91,93.7-91s93.7,40.8,93.7,91v83.8H161.8V111.3z"/>
</g>
</svg>
