<?xml version="1.0" encoding="utf-8"?>
<!-- Generator: Adobe Illustrator 24.0.2, SVG Export Plug-In . SVG Version: 6.00 Build 0)  -->
<svg version="1.1" id="Capa_1" xmlns="http://www.w3.org/2000/svg" xmlns:xlink="http://www.w3.org/1999/xlink" x="0px" y="0px"
	 width="477.7px" height="477.7px" viewBox="0 0 477.7 477.7" enable-background="new 0 0 477.7 477.7" xml:space="preserve">
<g>
	<g>
		<g>
			<path fill="#BD1D53" d="M440,29.7H240c-2.1,0-4.1,0.8-5.6,2.2l-232,224c-1.5,1.5-2.4,3.5-2.4,5.7c0,2.1,0.8,4.2,2.3,5.7l208,208
				c1.5,1.5,3.5,2.3,5.7,2.3h0.1c2.1,0,4.2-0.9,5.7-2.4l224-232c1.4-1.5,2.2-3.5,2.2-5.6v-200C448,33.3,444.4,29.7,440,29.7z
				 M432,234.5L215.9,458.3L19.4,261.8L243.2,45.7H432V234.5z"/>
			<path fill="#BD1D53" d="M384,125.7c17.7,0,32-14.3,32-32s-14.3-32-32-32s-32,14.3-32,32S366.3,125.7,384,125.7z M384,77.7
				c8.8,0,16,7.2,16,16s-7.2,16-16,16s-16-7.2-16-16S375.2,77.7,384,77.7z"/>
			
				<rect x="216" y="82.4" transform="matrix(0.7071 -0.7071 0.7071 0.7071 -0.6329 185.8291)" fill="#BD1D53" width="16" height="22.6"/>
			
				<rect x="248" y="114.3" transform="matrix(0.7071 -0.7071 0.7071 0.7071 -13.8659 217.8222)" fill="#BD1D53" width="16" height="22.6"/>
			
				<rect x="280" y="146.3" transform="matrix(0.7071 -0.7071 0.7071 0.7071 -27.1178 249.8234)" fill="#BD1D53" width="16" height="22.6"/>
			
				<rect x="312" y="178.3" transform="matrix(0.7071 -0.7071 0.7071 0.7071 -40.3733 281.8223)" fill="#BD1D53" width="16" height="22.6"/>
			
				<rect x="344" y="210.3" transform="matrix(0.7071 -0.7071 0.7071 0.7071 -53.6271 313.8222)" fill="#BD1D53" width="16" height="22.6"/>
			
				<rect x="376" y="242.3" transform="matrix(0.7071 -0.7071 0.7071 0.7071 -66.8879 345.8259)" fill="#BD1D53" width="16" height="22.6"/>
			
				<rect x="452.7" y="5.7" transform="matrix(0.7071 -0.7071 0.7071 0.7071 126.2501 332.1134)" fill="#BD1D53" width="22.6" height="16"/>
		</g>
	</g>
</g>
</svg>
