<?xml version="1.0" encoding="utf-8"?>
<!-- Generator: Adobe Illustrator 24.0.2, SVG Export Plug-In . SVG Version: 6.00 Build 0)  -->
<svg version="1.1" id="Layer_1" xmlns="http://www.w3.org/2000/svg" xmlns:xlink="http://www.w3.org/1999/xlink" x="0px" y="0px"
	 width="512px" height="512px" viewBox="0 0 512 512" enable-background="new 0 0 512 512" xml:space="preserve">
<path fill="#6A7193" d="M445.6,251.9c-4.1,0-7.5-3.4-7.5-7.5v-50.3c0-4.1,3.4-7.5,7.5-7.5c4.1,0,7.5,3.4,7.5,7.5v50.3
	C453.1,248.5,449.7,251.9,445.6,251.9z"/>
<path fill="#FF76A4" d="M96.6,76.4c55.5,8.2,105.7,8.2,161.2,0c24.6-3.6,44.9,20.1,44.9,44.9V356H51.6V121.3
	C51.6,96.5,72,72.7,96.6,76.4z"/>
<path fill="#ED5176" d="M257.7,76.4c-3,0.4-6,0.9-8.9,1.3c17.2,5.5,29.7,24.3,29.7,43.7V356h24.2V121.3
	C302.7,96.5,282.3,72.7,257.7,76.4z"/>
<path fill="#ED5176" d="M354.3,223.3c0-24.7-20.3-44.7-45.1-44.2c-24.2,0.5-43.3,20.9-43.3,45.1v94.7c0,8.4-6.8,15.2-15.2,15.2
	H103.7c-8.4,0-15.2-6.8-15.2-15.2v-94.7c0-24.2-19.1-44.6-43.3-45.1C20.3,178.6,0,198.6,0,223.3c0,17.8,10.5,33.1,25.6,40.1v102.7
	c0,17,13.8,30.8,30.8,30.8h241.5c17,0,30.8-13.8,30.8-30.8V263.4C343.8,256.4,354.3,241,354.3,223.3z"/>
<path fill="#BA365F" d="M309.1,179.1c-4,0.1-7.9,0.7-11.6,1.8c18.3,5.4,31.6,22.4,31.6,42.4c0,15.9-8.3,29.8-20.9,37.6
	c-3,1.8-4.7,5.2-4.7,8.6v96.6c0,17-13.8,30.8-30.8,30.8h25.1c17,0,30.8-13.8,30.8-30.8V263.4c15.1-7,25.6-22.3,25.6-40.1
	C354.3,198.6,334,178.6,309.1,179.1z"/>
<path fill="#F9AA4B" d="M71.4,397v31.3c0,4,3.2,7.2,7.2,7.2h12.5c4,0,7.2-3.2,7.2-7.2V397H71.4z"/>
<path fill="#F9AA4B" d="M256,397v31.3c0,4,3.2,7.2,7.2,7.2h12.5c4,0,7.2-3.2,7.2-7.2V397H256z"/>
<g>
	<path fill="#BA365F" d="M136.3,149h-2.9v-2.9c0-4.1-3.4-7.5-7.5-7.5c-4.1,0-7.5,3.4-7.5,7.5v2.9h-2.9c-4.1,0-7.5,3.4-7.5,7.5
		c0,4.1,3.4,7.5,7.5,7.5h2.9v2.9c0,4.1,3.4,7.5,7.5,7.5c4.1,0,7.5-3.4,7.5-7.5V164h2.9c4.1,0,7.5-3.4,7.5-7.5
		C143.8,152.4,140.4,149,136.3,149z"/>
	<path fill="#BA365F" d="M238.8,149h-2.9v-2.9c0-4.1-3.4-7.5-7.5-7.5c-4.1,0-7.5,3.4-7.5,7.5v2.9H218c-4.1,0-7.5,3.4-7.5,7.5
		c0,4.1,3.4,7.5,7.5,7.5h2.9v2.9c0,4.1,3.4,7.5,7.5,7.5c4.1,0,7.5-3.4,7.5-7.5V164h2.9c4.1,0,7.5-3.4,7.5-7.5
		C246.3,152.4,243,149,238.8,149z"/>
	<path fill="#BA365F" d="M88.5,318.9c0,8.4,6.8,15.2,15.2,15.2h146.9c8.4,0,15.2-6.8,15.2-15.2v-40.3H88.5V318.9z"/>
</g>
<path fill="#CE675D" d="M371.6,253.1v9.3c0,4.8,3.9,8.7,8.7,8.7h123c4.8,0,8.7-3.9,8.7-8.7v-9.3c0-4.8-3.9-8.7-8.7-8.7h-123
	C375.5,244.4,371.6,248.3,371.6,253.1z"/>
<path fill="#AA4B44" d="M503.3,244.4h-20.9c4.8,0,8.7,3.9,8.7,8.7v9.3c0,4.8-3.9,8.7-8.7,8.7h20.9c4.8,0,8.7-3.9,8.7-8.7v-9.3
	C512,248.3,508.1,244.4,503.3,244.4z"/>
<path fill="#FFCD34" d="M388.2,399.7V271.1h107.1v128.6c0,2.7-2.2,4.9-4.9,4.9h-97.3C390.4,404.6,388.2,402.4,388.2,399.7z"/>
<path fill="#E69012" d="M473.9,271.1v128.6c0,2.7-2.2,4.9-4.9,4.9h21.5c2.7,0,4.9-2.2,4.9-4.9V271.1H473.9z"/>
<path fill="#CE675D" d="M396.1,404.6v25.8c0,2.8,2.3,5.1,5.1,5.1h11.4c2.8,0,5.1-2.3,5.1-5.1v-25.8H396.1z"/>
<path fill="#CE675D" d="M463.1,404.6v25.8c0,2.8,2.3,5.1,5.1,5.1h11.4c2.8,0,5.1-2.3,5.1-5.1v-25.8H463.1z"/>
<path fill="#C8E7F7" d="M480.6,194.1h-70c-4.4,0-7.4-4.3-5.9-8.4l17-46.8c0.9-2.5,3.3-4.1,5.9-4.1h36.1c2.6,0,5,1.7,5.9,4.1l17,46.8
	C488,189.8,484.9,194.1,480.6,194.1z"/>
<path fill="#8CBCD6" d="M486.5,185.7l-17-46.8c-0.9-2.5-3.3-4.1-5.9-4.1h-25.1c2.7,0,5,1.7,5.9,4.1l17,46.8c1.5,4.1-1.6,8.4-5.9,8.4
	h25.1C484.9,194.1,488,189.8,486.5,185.7z"/>
<path fill="#E69012" d="M495.3,345.3v-15H388.2v15H495.3z"/>
<path fill="#B56B09" d="M473.9,330.3v15h21.5v-15H473.9z"/>
<path fill="#CE675D" d="M447.3,296.3h-11c-4.1,0-7.5-3.4-7.5-7.5c0-4.1,3.4-7.5,7.5-7.5h11c4.1,0,7.5,3.4,7.5,7.5
	C454.8,292.9,451.4,296.3,447.3,296.3z"/>
<path fill="#CE675D" d="M447.3,366.2h-11c-4.1,0-7.5-3.4-7.5-7.5c0-4.1,3.4-7.5,7.5-7.5h11c4.1,0,7.5,3.4,7.5,7.5
	C454.8,362.9,451.4,366.2,447.3,366.2z"/>
</svg>
