<?xml version="1.0" encoding="utf-8"?>
<!-- Generator: Adobe Illustrator 24.0.2, SVG Export Plug-In . SVG Version: 6.00 Build 0)  -->
<svg version="1.0" id="Layer_1" xmlns="http://www.w3.org/2000/svg" xmlns:xlink="http://www.w3.org/1999/xlink" x="0px" y="0px"
	 width="512px" height="512px" viewBox="0 0 512 512" enable-background="new 0 0 512 512" xml:space="preserve">
<g>
	<path fill="#FF0400" d="M0.5,255c1.2-1,2.6-1.9,3.7-3.1c14.2-15.7,28.2-31.4,42.6-46.9c2.9-3.1,3.3-5.9,2.4-9.7
		c-4.6-20.8-9-41.6-13.5-62.3c-0.3-1.3-0.4-2.6-0.7-4.3c1.2-0.5,2.3-1.1,3.5-1.4c20.5-6.7,41-13.4,61.6-19.9
		c3.9-1.2,5.9-3.2,7.1-7.2c6.2-20,12.7-39.9,19.2-59.8c0.6-1.7,1.2-3.4,2-5.6c12.8,2.7,25.5,5.4,38.1,8.1
		c10.1,2.2,20.2,4.2,30.2,6.6c3.1,0.7,5.2,0,7.5-2.1c15.6-14.3,31.3-28.4,47-42.5c1.5-1.3,3-2.6,4.8-4.3c3.9,3.5,7.8,6.9,11.6,10.3
		c13.6,12.3,27.1,24.6,40.8,36.7c1.5,1.3,4.5,2.2,6.4,1.8c21.2-4.3,42.3-8.9,63.4-13.4c1.6-0.3,3.2-0.6,5.4-1c0.7,1.9,1.4,3.7,2,5.5
		c6.5,20.2,13.2,40.4,19.5,60.7c1,3.3,2.7,4.8,5.9,5.8c20.9,6.6,41.7,13.4,62.6,20.2c1.1,0.3,2.1,0.8,3.6,1.4
		c-2.7,12.8-5.4,25.4-8.1,38.1c-2.1,9.9-4.1,19.8-6.5,29.7c-0.8,3.4,0,5.8,2.4,8.4c14.3,15.6,28.4,31.3,42.5,47
		c1.2,1.3,2.4,2.7,3.9,4.4c-4,4.5-8,9-12,13.4c-11.3,12.5-22.4,25-33.9,37.3c-2.9,3.1-3.8,5.9-2.8,10.1c4.7,20.7,9.1,41.5,13.5,62.3
		c0.3,1.4,0.4,2.9,0.7,4.7c-14.4,4.7-28.6,9.3-42.8,13.9c-7.9,2.6-15.8,5.3-23.7,7.6c-2.9,0.9-4.3,2.3-5.2,5.2
		c-6.4,20.3-13,40.5-19.6,60.7c-0.6,1.9-1.3,3.7-2.1,6c-12.7-2.7-25.2-5.4-37.7-8c-10.6-2.2-21.1-4.6-31.7-6.6
		c-1.5-0.3-3.8,0-4.9,0.9c-17.4,15.5-34.6,31.1-51.9,46.8c-0.3,0.3-0.4,0.8-0.5,1.3c-0.7,0-1.3,0-2,0c-0.2-0.4-0.2-1-0.5-1.3
		c-17.2-15.6-34.5-31.2-51.9-46.7c-1.2-1-3.6-1.2-5.3-0.9c-15,3.1-29.9,6.3-44.8,9.5c-8,1.7-16.1,3.4-24.1,5
		c-0.6-1.6-0.9-2.5-1.3-3.5c-6.8-21-13.7-41.9-20.3-63c-1-3.1-2.5-4.6-5.5-5.6c-10-3-19.9-6.3-29.9-9.6
		c-12.1-3.9-24.2-7.9-36.5-11.9c0.3-1.9,0.5-3.3,0.8-4.8c4.5-20.8,8.9-41.5,13.5-62.3c0.9-3.9,0.3-6.6-2.5-9.7
		C32.4,291.5,18.3,275.7,4.2,260c-1.1-1.2-2.4-2.1-3.7-3.1C0.5,256.3,0.5,255.6,0.5,255z"/>
	<g>
		<path fill="#FFFFFF" d="M284.1,166.7c0.5-0.9,0.9-1.9,1.2-2.9c6.3-16.9,12.6-33.7,18.9-50.6c2-5.4,1.5-7.1-3.2-10.3
			c-1.3,0-2.5,0-3.8,0c-1.6,2.1-3.6,4.1-4.6,6.4c-3.5,8.6-6.6,17.3-9.8,26c-3.3,8.9-6.6,17.8-9.9,26.7c-1.2,3.4,0,6.4,2.9,7.7
			C278.6,170.9,282.4,169.5,284.1,166.7z"/>
		<path fill="#FFFFFF" d="M361.9,297.9c-48.9-48.8-97.8-97.5-146.7-146.3c-0.7-0.7-1.5-1.5-2.3-2.1c-2.8-2.1-7-2.2-9.9-0.3
			c-2.7,1.8-4.2,5.7-3,9c0.7,1.8,1.9,3.5,3.2,5c5.8,6.3,14.4,16-4.2,44.8c-31.1,47.9-43.9,74.7-72.1,119.3c-2.6,4-11.5,1.4-14.3,5.7
			c18.4,18.4,45.8,50.4,64.1,68.7c2.9-1.9,2.9-10.9,5.9-12.9c3-2,6.1-4,9.2-6.1c0.9,0.9,1.8,1.7,2.6,2.5c11.5,11.5,9.2,9.5,20.7,21
			c4,4,7.9,4.2,12.3,0.6c0.6-0.5,1-1.1,1.6-1.5c31.4-20.7,47.6-27.3,74.5-47.2c0.5-0.4,0.9-0.9,1.3-1.4c3.5-3.9,3.5-8.4-0.1-12.2
			c-2.6-2.8-5.3-5.4-8-8.1c-4.3-4.2-8.5-8.4-12.9-12.7c0.8-0.6,1.2-1,1.6-1.2l26.1-15.9c9.1-5,34.1-0.9,40,5c3.2,3.2,8,3.7,11.2,1.2
			c3.1-2.4,4.1-7.4,1.9-11.2C363.9,300.1,362.9,298.9,361.9,297.9z M286.5,350.2c-26,17.8-37.8,21.2-65.1,37.8
			c-9.3-9.2-4.9-5.2-14.7-14.9c20.6-13.4,41.4-27,61.7-40.2C274.7,338.9,280.7,344.7,286.5,350.2z"/>
		<path fill="#FFFFFF" d="M304.4,199.2c2.5,2.3,5.7,2.3,8.5-0.4c15.7-15.6,31.4-31.3,47-47.1c1.1-1.1,1.6-2.8,2-3.5
			c-0.1-3.7-1.3-5.6-3.8-6.6c-2.9-1.2-5.3-0.1-7.4,2c-15.1,15.2-30.3,30.3-45.5,45.5c-0.4,0.4-0.9,0.9-1.3,1.4
			C301.6,193.4,301.8,196.8,304.4,199.2z"/>
		<path fill="#FFFFFF" d="M398.9,200.4c-1.4-3.6-4.4-5.2-8.1-3.8c-18.4,6.7-36.7,13.5-55.1,20.4c-3.5,1.3-5,3.9-4.3,7.1
			c0.6,3.1,3.2,5,7.2,5.1c0.3-0.1,1.2-0.1,2-0.4c18.2-6.8,36.5-13.6,54.7-20.5C399,207,400.3,203.9,398.9,200.4z"/>
	</g>
</g>
</svg>
