<?xml version="1.0" encoding="utf-8"?>
<!-- Generator: Adobe Illustrator 24.0.2, SVG Export Plug-In . SVG Version: 6.00 Build 0)  -->
<svg version="1.1" id="Capa_1" xmlns="http://www.w3.org/2000/svg" xmlns:xlink="http://www.w3.org/1999/xlink" x="0px" y="0px"
	 width="512px" height="512px" viewBox="0 0 512 512" enable-background="new 0 0 512 512" xml:space="preserve">
<path fill="#55A2F0" d="M117.1,247.1h-61c-1.9,0-3.5,1.6-3.5,3.5v40.6c0,1.9,1.6,3.5,3.5,3.5h61c1.9,0,3.5-1.6,3.5-3.5v-40.6
	C120.6,248.7,119,247.1,117.1,247.1z"/>
<path fill="#4B9EE2" d="M117.1,247.1H86.6v47.5h30.5c1.9,0,3.5-1.6,3.5-3.5v-40.6C120.6,248.7,119,247.1,117.1,247.1z"/>
<path fill="#2D5872" d="M403.1,58.3c-4.2,0-7.6,3.4-7.6,7.6v76.6c0,4.2,3.4,7.6,7.6,7.6s7.6-3.4,7.6-7.6V65.9
	C410.7,61.7,407.3,58.3,403.1,58.3z"/>
<path fill="#FF4C4C" d="M415.9,171.5h-25.6c-4.4,0-8-3.6-8-8v-28c0-4.4,3.6-8,8-8h25.6c4.4,0,8,3.6,8,8v28
	C423.9,167.9,420.3,171.5,415.9,171.5z"/>
<path fill="#F33A3A" d="M452,252.5h-97.8c-4.2,0-7.6-3.4-7.6-7.6v-73.8c0-4.2,3.4-7.6,7.6-7.6H452c4.2,0,7.6,3.4,7.6,7.6v73.8
	C459.6,249.1,456.2,252.5,452,252.5z"/>
<path fill="#FF4C4C" d="M483.3,512H311.7V199.9h167.4c2.3,0,4.2,1.9,4.2,4.2V512z"/>
<path fill="#F33A3A" d="M479.1,199.9h-46.6c2.3,0,4.2,1.9,4.2,4.2V512h46.6V204.1C483.3,201.8,481.5,199.9,479.1,199.9z"/>
<g>
	<path fill="#E1EFFB" d="M451.2,274.3h-98.4c-3.5,0-6.3-2.8-6.3-6.3v-14.6c0-3.5,2.8-6.3,6.3-6.3h98.4c3.5,0,6.3,2.8,6.3,6.3V268
		C457.5,271.5,454.7,274.3,451.2,274.3z"/>
	<path fill="#E1EFFB" d="M451.2,336.6h-98.4c-3.5,0-6.3-2.8-6.3-6.3v-14.6c0-3.5,2.8-6.3,6.3-6.3h98.4c3.5,0,6.3,2.8,6.3,6.3v14.6
		C457.5,333.8,454.7,336.6,451.2,336.6z"/>
	<path fill="#E1EFFB" d="M451.2,399h-98.4c-3.5,0-6.3-2.8-6.3-6.3v-14.6c0-3.5,2.8-6.3,6.3-6.3h98.4c3.5,0,6.3,2.8,6.3,6.3v14.6
		C457.5,396.2,454.7,399,451.2,399z"/>
	<path fill="#E1EFFB" d="M451.2,461.3h-98.4c-3.5,0-6.3-2.8-6.3-6.3v-14.6c0-3.5,2.8-6.3,6.3-6.3h98.4c3.5,0,6.3,2.8,6.3,6.3V455
		C457.5,458.5,454.7,461.3,451.2,461.3z"/>
</g>
<path fill="#FFB125" d="M356.3,512H158.1c-3.2,0-5.7-2.6-5.7-5.7V14.9c0-3.2,2.6-5.7,5.7-5.7h198.2c3.2,0,5.7,2.6,5.7,5.7v491.3
	C362.1,509.4,359.5,512,356.3,512z"/>
<g>
	<path fill="#FF901D" d="M356.3,9.2h-46.6c3.2,0,5.7,2.6,5.7,5.7v491.3c0,3.2-2.6,5.7-5.7,5.7h46.6c3.2,0,5.7-2.6,5.7-5.7V14.9
		C362.1,11.8,359.5,9.2,356.3,9.2z"/>
	<path fill="#FF901D" d="M371.1,0H140.9c-1.6,0-2.8,1.3-2.8,2.8v19.3c0,1.6,1.3,2.8,2.8,2.8h230.1c1.6,0,2.8-1.3,2.8-2.8V2.8
		C373.9,1.3,372.6,0,371.1,0z"/>
</g>
<g>
	<path fill="#E1EFFB" d="M209.9,93.9H182c-2,0-3.6-1.6-3.6-3.6v-34c0-2,1.6-3.6,3.6-3.6h27.9c2,0,3.6,1.6,3.6,3.6v34.1
		C213.4,92.3,211.8,93.9,209.9,93.9z"/>
	<path fill="#E1EFFB" d="M271.2,93.9h-27.9c-2,0-3.6-1.6-3.6-3.6v-34c0-2,1.6-3.6,3.6-3.6h27.9c2,0,3.6,1.6,3.6,3.6v34.1
		C274.7,92.3,273.1,93.9,271.2,93.9z"/>
	<path fill="#E1EFFB" d="M332.4,93.9h-27.9c-2,0-3.6-1.6-3.6-3.6v-34c0-2,1.6-3.6,3.6-3.6h27.9c2,0,3.6,1.6,3.6,3.6v34.1
		C336,92.3,334.4,93.9,332.4,93.9z"/>
	<path fill="#E1EFFB" d="M209.9,185.8H182c-2,0-3.6-1.6-3.6-3.6v-34.1c0-2,1.6-3.6,3.6-3.6h27.9c2,0,3.6,1.6,3.6,3.6v34.1
		C213.4,184.2,211.8,185.8,209.9,185.8z"/>
	<path fill="#E1EFFB" d="M271.2,185.8h-27.9c-2,0-3.6-1.6-3.6-3.6v-34.1c0-2,1.6-3.6,3.6-3.6h27.9c2,0,3.6,1.6,3.6,3.6v34.1
		C274.7,184.2,273.1,185.8,271.2,185.8z"/>
	<path fill="#E1EFFB" d="M332.4,185.8h-27.9c-2,0-3.6-1.6-3.6-3.6v-34.1c0-2,1.6-3.6,3.6-3.6h27.9c2,0,3.6,1.6,3.6,3.6v34.1
		C336,184.2,334.4,185.8,332.4,185.8z"/>
	<path fill="#E1EFFB" d="M209.9,277.6H182c-2,0-3.6-1.6-3.6-3.6V240c0-2,1.6-3.6,3.6-3.6h27.9c2,0,3.6,1.6,3.6,3.6V274
		C213.4,276,211.8,277.6,209.9,277.6z"/>
	<path fill="#E1EFFB" d="M271.2,277.6h-27.9c-2,0-3.6-1.6-3.6-3.6V240c0-2,1.6-3.6,3.6-3.6h27.9c2,0,3.6,1.6,3.6,3.6V274
		C274.7,276,273.1,277.6,271.2,277.6z"/>
	<path fill="#E1EFFB" d="M332.4,277.6h-27.9c-2,0-3.6-1.6-3.6-3.6V240c0-2,1.6-3.6,3.6-3.6h27.9c2,0,3.6,1.6,3.6,3.6V274
		C336,276,334.4,277.6,332.4,277.6z"/>
	<path fill="#E1EFFB" d="M271.2,369.5h-27.9c-2,0-3.6-1.6-3.6-3.6v-34.1c0-2,1.6-3.6,3.6-3.6h27.9c2,0,3.6,1.6,3.6,3.6v34.1
		C274.7,367.9,273.1,369.5,271.2,369.5z"/>
	<path fill="#E1EFFB" d="M332.4,369.5h-27.9c-2,0-3.6-1.6-3.6-3.6v-34.1c0-2,1.6-3.6,3.6-3.6h27.9c2,0,3.6,1.6,3.6,3.6v34.1
		C336,367.9,334.4,369.5,332.4,369.5z"/>
	<path fill="#E1EFFB" d="M271.2,461.3h-27.9c-2,0-3.6-1.6-3.6-3.6v-34.1c0-2,1.6-3.6,3.6-3.6h27.9c2,0,3.6,1.6,3.6,3.6v34.1
		C274.7,459.7,273.1,461.3,271.2,461.3z"/>
	<path fill="#E1EFFB" d="M332.4,461.3h-27.9c-2,0-3.6-1.6-3.6-3.6v-34.1c0-2,1.6-3.6,3.6-3.6h27.9c2,0,3.6,1.6,3.6,3.6v34.1
		C336,459.7,334.4,461.3,332.4,461.3z"/>
</g>
<path fill="#61AFF6" d="M243.9,512H33c-2.4,0-4.4-2-4.4-4.4V284.2c0-2.4,2-4.4,4.4-4.4h210.9c2.4,0,4.4,2,4.4,4.4v223.4
	C248.3,510,246.3,512,243.9,512z"/>
<path fill="#55A2F0" d="M243.9,279.8h-47.5c2.4,0,4.4,2,4.4,4.4v223.4c0,2.4-2,4.4-4.4,4.4h47.5c2.4,0,4.4-2,4.4-4.4V284.2
	C248.3,281.8,246.3,279.8,243.9,279.8z"/>
<g>
	<path fill="#E1EFFB" d="M86.6,343.2H59c-2.4,0-4.4-2-4.4-4.4v-17.6c0-2.4,2-4.4,4.4-4.4h27.6c2.4,0,4.4,2,4.4,4.4v17.6
		C91,341.2,89,343.2,86.6,343.2z"/>
	<path fill="#E1EFFB" d="M150.9,343.2h-27.6c-2.4,0-4.4-2-4.4-4.4v-17.6c0-2.4,2-4.4,4.4-4.4h27.6c2.4,0,4.4,2,4.4,4.4v17.6
		C155.3,341.2,153.3,343.2,150.9,343.2z"/>
	<path fill="#E1EFFB" d="M215.1,343.2h-27.6c-2.4,0-4.4-2-4.4-4.4v-17.6c0-2.4,2-4.4,4.4-4.4h27.6c2.4,0,4.4,2,4.4,4.4v17.6
		C219.5,341.2,217.6,343.2,215.1,343.2z"/>
	<path fill="#E1EFFB" d="M86.6,404.9H59c-2.4,0-4.4-2-4.4-4.4v-17.6c0-2.4,2-4.4,4.4-4.4h27.6c2.4,0,4.4,2,4.4,4.4v17.6
		C91,402.9,89,404.9,86.6,404.9z"/>
	<path fill="#E1EFFB" d="M150.9,404.9h-27.6c-2.4,0-4.4-2-4.4-4.4v-17.6c0-2.4,2-4.4,4.4-4.4h27.6c2.4,0,4.4,2,4.4,4.4v17.6
		C155.3,402.9,153.3,404.9,150.9,404.9z"/>
	<path fill="#E1EFFB" d="M215.1,404.9h-27.6c-2.4,0-4.4-2-4.4-4.4v-17.6c0-2.4,2-4.4,4.4-4.4h27.6c2.4,0,4.4,2,4.4,4.4v17.6
		C219.5,402.9,217.6,404.9,215.1,404.9z"/>
	<path fill="#E1EFFB" d="M86.6,466.6H59c-2.4,0-4.4-2-4.4-4.4v-17.6c0-2.4,2-4.4,4.4-4.4h27.6c2.4,0,4.4,2,4.4,4.4v17.6
		C91,464.6,89,466.6,86.6,466.6z"/>
	<path fill="#E1EFFB" d="M150.9,466.6h-27.6c-2.4,0-4.4-2-4.4-4.4v-17.6c0-2.4,2-4.4,4.4-4.4h27.6c2.4,0,4.4,2,4.4,4.4v17.6
		C155.3,464.6,153.3,466.6,150.9,466.6z"/>
	<path fill="#E1EFFB" d="M215.1,466.6h-27.6c-2.4,0-4.4-2-4.4-4.4v-17.6c0-2.4,2-4.4,4.4-4.4h27.6c2.4,0,4.4,2,4.4,4.4v17.6
		C219.5,464.6,217.6,466.6,215.1,466.6z"/>
</g>
<path fill="#2D5872" d="M490.4,488.5H21.6c-6.5,0-11.7,5.3-11.7,11.7l0,0c0,6.5,5.3,11.7,11.7,11.7h468.7c6.5,0,11.7-5.3,11.7-11.7
	l0,0C502.1,493.8,496.8,488.5,490.4,488.5z"/>
<path fill="#1D4859" d="M502,499c0-0.1,0-0.2,0-0.2c0-0.4-0.1-0.7-0.2-1.1c0,0,0-0.1,0-0.1c-0.1-0.4-0.2-0.8-0.3-1.1c0,0,0,0,0,0
	c-0.1-0.4-0.3-0.8-0.5-1.1v0l0,0c-1.9-4-5.9-6.7-10.6-6.7h-34.9v3c0,5.8-4.7,10.4-10.4,10.4H21.6c-4.7,0-8.7-2.8-10.6-6.7
	c-0.7,1.5-1.1,3.2-1.1,5l0,0c0,6.5,5.3,11.7,11.7,11.7h433.8h34.9c6.5,0,11.7-5.3,11.7-11.7l0,0C502.1,499.8,502.1,499.4,502,499z"
	/>
</svg>
