<?xml version="1.0" encoding="utf-8"?>
<!-- Generator: Adobe Illustrator 24.0.2, SVG Export Plug-In . SVG Version: 6.00 Build 0)  -->
<svg version="1.1" id="Layer_1" xmlns="http://www.w3.org/2000/svg" xmlns:xlink="http://www.w3.org/1999/xlink" x="0px" y="0px"
	 width="511px" height="511px" viewBox="0 0 511 511" enable-background="new 0 0 511 511" xml:space="preserve">
<g>
	<path fill="#BD1D53" d="M0,52.7v405.5C0,487.3,23.7,511,52.7,511h405.5c29.1,0,52.7-23.7,52.7-52.7V212.8l-22.7,22.7v222.7
		c0,16.6-13.5,30-30,30H52.7c-16.6,0-30-13.5-30-30V52.7c0-16.6,13.5-30,30-30h223L298.5,0H52.7C23.7,0,0,23.7,0,52.7z"/>
	<path fill="#BD1D53" d="M507.6,131.3L379.8,3.6l-16.1,16.1l99.3,99.3H285.5c-95.8,0-173.8,77.9-173.8,173.7
		c0,41.4,18.2,76.2,35.5,100.1l17.8-14.1c-15.1-20.9-30.6-51-30.6-86c0-83.2,67.8-150.9,151.1-150.9h179.6L363.8,243l16.1,16.1
		L507.6,131.3z"/>
</g>
</svg>
