<?xml version="1.0" encoding="utf-8"?>
<!-- Generator: Adobe Illustrator 24.0.2, SVG Export Plug-In . SVG Version: 6.00 Build 0)  -->
<svg version="1.1" id="Capa_1" xmlns="http://www.w3.org/2000/svg" xmlns:xlink="http://www.w3.org/1999/xlink" x="0px" y="0px"
	 width="512px" height="512px" viewBox="0 0 512 512" enable-background="new 0 0 512 512" xml:space="preserve">
<g>
	<path fill="#767676" d="M499.6,369h-1.5v-55.5c0-15.2-12-27.6-26.9-28.4V88.7c0-34.3-27.9-62.1-62.1-62.1H182.9
		c-4.1,0-7.5,3.4-7.5,7.5s3.4,7.5,7.5,7.5H409c26,0,47.1,21.1,47.1,47.1v196.4h-43.2c1.5-3.2,2.3-6.8,2.3-10.6
		c0-14.1-11.5-25.6-25.6-25.6h-16.3c-4.1,0-7.5,3.4-7.5,7.5s3.4,7.5,7.5,7.5h16.3c5.9,0,10.6,4.8,10.6,10.6
		c0,5.9-4.8,10.6-10.6,10.6H327c-5.9,0-10.6-4.8-10.6-10.6s4.8-10.6,10.6-10.6h47.8c4.1,0,7.5-3.4,7.5-7.5s-3.4-7.5-7.5-7.5H327
		c-14.1,0-25.6,11.5-25.6,25.6c0,3.8,0.8,7.4,2.3,10.6h-95.4c1.5-3.2,2.3-6.8,2.3-10.6c0-14.1-11.5-25.6-25.6-25.6h-62.7
		c-14.1,0-25.6,11.5-25.6,25.6c0,3.8,0.8,7.4,2.3,10.6H55.8V88.7c0-26,21.1-47.1,47.1-47.1h85.2c4.1,0,7.5-3.4,7.5-7.5
		s-3.4-7.5-7.5-7.5H103c-34.3,0-62.1,27.9-62.1,62.1v196.5c-15,0.8-26.9,13.2-26.9,28.4V369h-1.5C5.6,369,0,374.6,0,381.5v37.7
		c0,6.9,5.6,12.4,12.4,12.4h25.2l-9.5,17c-4.3,7.8-4.2,17,0.3,24.7s12.5,12.2,21.4,12.2c9,0,17.3-4.9,21.7-12.7l23-41.2H171
		c4.1,0,7.5-3.4,7.5-7.5s-3.4-7.5-7.5-7.5H15V384h482v32.5H156.6c-4.1,0-7.5,3.4-7.5,7.5s3.4,7.5,7.5,7.5h260.8l23,41.2
		c4.4,7.9,12.7,12.7,21.7,12.7c8.9,0,16.9-4.6,21.4-12.2s4.6-16.9,0.3-24.7l-9.5-17h25.2c6.9,0,12.4-5.6,12.4-12.4v-37.7
		C512,374.6,506.4,369,499.6,369z M77.3,431.5l-18.9,33.9c-1.7,3.1-5,5-8.6,5c-3.6,0-6.7-1.8-8.5-4.8c-1.8-3.1-1.9-6.6-0.1-9.8
		l13.6-24.3L77.3,431.5z M470.7,455.9c1.7,3.1,1.7,6.7-0.1,9.8s-4.9,4.8-8.5,4.8c-3.6,0-6.9-1.9-8.6-5l-18.9-33.9h22.5L470.7,455.9z
		 M111.8,274.5c0-5.9,4.8-10.6,10.6-10.6H185c5.9,0,10.6,4.8,10.6,10.6c0,5.9-4.8,10.6-10.6,10.6h-62.7
		C116.5,285.1,111.8,280.3,111.8,274.5z M28.9,369v-55.5c0-7.4,6-13.4,13.4-13.4h427.4c7.4,0,13.4,6,13.4,13.4V369L28.9,369z"/>
</g>
</svg>
