<?xml version="1.0" encoding="utf-8"?>
<!-- Generator: Adobe Illustrator 24.0.2, SVG Export Plug-In . SVG Version: 6.00 Build 0)  -->
<svg version="1.1" id="Layer_1" xmlns="http://www.w3.org/2000/svg" xmlns:xlink="http://www.w3.org/1999/xlink" x="0px" y="0px"
	 width="512px" height="512px" viewBox="0 0 512 512" enable-background="new 0 0 512 512" xml:space="preserve">
<circle fill="#323232" cx="256" cy="256" r="256"/>
<g>
	<g>
		<path fill="#FFFFFF" d="M376.1,363.6l-65.7-65.7c12.7-15.7,20.4-35.7,20.4-57.5c0-50.5-41.1-91.5-91.5-91.5s-91.5,41.1-91.5,91.5
			s41.1,91.5,91.5,91.5c21.8,0,41.8-7.7,57.5-20.4l65.7,65.7c1.9,1.9,4.3,2.8,6.8,2.8c2.5,0,4.9-0.9,6.8-2.8
			C379.9,373.4,379.9,367.3,376.1,363.6z M239.3,312.6c-39.8,0-72.2-32.4-72.2-72.2s32.4-72.2,72.2-72.2s72.2,32.4,72.2,72.2
			S279.1,312.6,239.3,312.6z"/>
	</g>
</g>
</svg>
