<?xml version="1.0" encoding="utf-8"?>
<!-- Generator: Adobe Illustrator 24.0.2, SVG Export Plug-In . SVG Version: 6.00 Build 0)  -->
<svg version="1.1" id="Capa_1" xmlns="http://www.w3.org/2000/svg" xmlns:xlink="http://www.w3.org/1999/xlink" x="0px" y="0px"
	 width="512px" height="512px" viewBox="0 0 512 512" enable-background="new 0 0 512 512" xml:space="preserve">
<g>
	<g id="Page-1">
		<g id="_x30_21---Spanner" transform="translate(-1 -1)">
			<path id="Shape" fill="#02A9F4" d="M483.4,178.2c-1.3-1-3-1.1-4.4-0.4c-1.4,0.7-2.3,2.2-2.3,3.7v45.9c0,2.5-1.2,4.9-3.1,6.5
				l-16.7,13.4c-3.1,2.4-7.4,2.4-10.5,0L429.5,234c-2-1.6-3.1-4-3.1-6.5v-45.9c0-1.6-0.9-3-2.3-3.7c-1.4-0.7-3.1-0.6-4.4,0.4
				c-15.8,11.4-24.3,30.3-22.3,49.7c2,19.4,14.2,36.2,32,44.1L420,440c-0.6,11.7,5.2,22.8,15.3,28.9c10,6,22.6,6,32.6,0
				c10-6,15.9-17.2,15.3-28.9l-9.5-168c17.8-7.9,30-24.7,32-44.1C507.7,208.5,499.2,189.6,483.4,178.2z M460.4,448.8
				c-4.9,4.9-12.9,4.9-17.8,0c-4.9-4.9-4.9-12.9,0-17.8c4.9-4.9,12.9-4.9,17.8,0c2.4,2.4,3.7,5.5,3.7,8.9S462.8,446.5,460.4,448.8
				L460.4,448.8z"/>
			<g>
				<path id="Shape_1_" fill="#0377BC" d="M410.9,187c1.3-1,3-1.1,4.4-0.4c1.4,0.7,2.3,2.2,2.3,3.7v45.9c0,2.5,1.2,4.9,3.1,6.5
					l16.7,13.4c3.1,2.4,7.4,2.4,10.5,0l16.7-13.4c1.2-1,2.1-2.3,2.6-3.8l-10.5,8.5c-3.1,2.4-7.4,2.4-10.5,0L429.5,234
					c-2-1.6-3.1-4-3.1-6.5v-45.9c0-1.6-0.9-3-2.3-3.7c-1.4-0.7-3.1-0.6-4.4,0.4c-4.1,3-7.7,6.5-10.8,10.4
					C409.6,188.1,410.2,187.5,410.9,187z"/>
				<path id="Shape_2_" fill="#0377BC" d="M483.4,178.2c-1.3-1-3-1.1-4.4-0.4c-1.4,0.7-2.3,2.2-2.3,3.7l0,7.2
					c23.4,18.6,27.3,52.7,8.7,76.1c13.3-10.6,20.9-26.8,20.5-43.8C505.5,204,497.2,188.1,483.4,178.2L483.4,178.2z"/>
				<path id="Shape_3_" fill="#0377BC" d="M464.8,280.8l9.5,168c0.4,6.8-1.5,13.6-5.3,19.3c9.4-6.2,14.7-16.9,14.1-28.1l-9.3-164.3
					C471,277.7,468,279.4,464.8,280.8L464.8,280.8z"/>
			</g>
			<path id="Shape_4_" fill="#F5F5F5" d="M454.5,405.2c-1.2,1.2-3,1.5-4.5,0.9c-1.6-0.6-2.6-2.2-2.6-3.8v-4.2c0-2.3,1.9-4.1,4.2-4.1
				c2.3,0,4.1,1.8,4.2,4.1v4.2C455.7,403.4,455.3,404.4,454.5,405.2z"/>
			<path id="Shape_5_" fill="#F5F5F5" d="M454.5,384.3c-1.2,1.2-3,1.5-4.5,0.9c-1.6-0.6-2.6-2.2-2.6-3.8v-79.5
				c0-2.3,1.9-4.1,4.2-4.1c2.3,0,4.1,1.8,4.2,4.1v79.5C455.7,382.5,455.3,383.5,454.5,384.3L454.5,384.3z"/>
			<path id="Shape_6_" d="M463.4,451.8c3.1-3.1,4.9-7.4,4.9-11.8c0-2.3-1.9-4.1-4.2-4.1c-2.3,0-4.1,1.8-4.2,4.1c0,3.4-2,6.5-5.2,7.8
				c-3.1,1.3-6.8,0.6-9.2-1.8c-2.4-2.4-3.1-6-1.8-9.2c1.3-3.1,4.4-5.2,7.8-5.2c2.3,0,4.1-1.9,4.1-4.2s-1.8-4.1-4.1-4.2
				c-7.6,0-14.2,5.1-16.1,12.4c-2,7.3,1.2,15,7.8,18.8C449.7,458.2,458,457.1,463.4,451.8L463.4,451.8z"/>
		</g>
	</g>
	<rect x="180.3" y="305.3" fill="#F8B64C" width="151.3" height="124.4"/>
	<rect x="144.7" y="420.9" fill="#54C0EB" width="222.6" height="91.1"/>
	<g>
		<path fill="#40596B" d="M512,453.4v58.6H316.8l8.3-91.1l6.5-71.8v-0.3l149,58.6C499.5,414.8,512,433,512,453.4"/>
		<path fill="#40596B" d="M195.2,511.9H0v-58.6c0-20.4,12.4-38.6,31.4-46.1l149-58.6v0.3l6.5,71.8L195.2,511.9z"/>
	</g>
	<g>
		<path fill="#334A5E" d="M367.2,457.9c-1.1,0.4-1.3,1.9-0.4,2.8l0.4,0.4l51.7,50.9H316.8l8.3-91.1l6.5-71.8l95.9,79.2
			c1,0.7,0.7,2.3-0.4,2.9L367.2,457.9z"/>
		<path fill="#334A5E" d="M195.2,511.9H93l51.6-50.8l0.5-0.5c0.9-0.9,0.5-2.3-0.5-2.8l-59.8-26.7c-1.2-0.5-1.4-2.1-0.4-2.9l96-79.2
			l6.5,71.8L195.2,511.9z"/>
	</g>
	<g opacity="0.1">
		<g>
			<polygon fill="#40596B" points="331.6,305.3 331.6,349.1 277.6,392.6 215.3,346.3 248.5,305.3 			"/>
		</g>
	</g>
	<g>
		<path fill="#F8B64C" d="M175.7,206.1c1.7,19.1-7.6,35.6-20.7,36.7c-13.1,1.2-25.1-13.4-26.8-32.6c-1.7-19.1,7.6-35.6,20.7-36.7
			C162,172.4,174,187,175.7,206.1"/>
		<path fill="#F8B64C" d="M383.8,210.3c-1.7,19.1-13.7,33.7-26.8,32.6c-13.1-1.1-22.4-17.6-20.8-36.7c1.7-19.1,13.7-33.7,26.8-32.6
			C376.2,174.7,385.4,191.1,383.8,210.3"/>
	</g>
	<path fill="#FFD15C" d="M366.4,156v36.3c-0.1,7.7-0.5,15.4-1.5,22.9c-1.6,12.6-4.3,25-8,36.9c-9.1,28.9-24.3,55.6-44.9,78.1
		l-10.6,11.5c-9.6,10.6-23.3,16.5-37.6,16.5h-16c-14.2,0-27.8-6.1-37.4-16.5l-10.4-11.5c-14.6-15.9-26.6-34-35.4-53.3
		c-9-19.4-14.9-40.2-17.5-61.6c-1-7.6-1.5-15.3-1.5-22.9c-0.1-0.9-0.1-1.6-0.1-2.5v-33.2c0-10.5,1.5-20.7,4.3-30.3
		c13.1-46.2,55.7-80.1,106.2-80.1c50.4,0,93,33.9,106.1,80.1C364.9,135.8,366.4,145.8,366.4,156"/>
	<g>
		<polygon fill="#84DBFF" points="256,410.1 331.6,348.7 320.2,474.6 		"/>
		<polygon fill="#84DBFF" points="256,410.1 180.3,348.7 191.7,474.6 		"/>
	</g>
	<path fill="#FF7058" d="M379.1,135.4v7H132.8v-7c0-42.6,22.4-79.9,56-100.9c18.3-11.5,39.9-18.1,63-18.1h8.2
		c23.1,0,44.7,6.6,63,18.1C356.7,55.4,379.1,92.8,379.1,135.4"/>
	<path fill="#F1543F" d="M327.3,68.7l-9,73.7l-1.4,11.8H195l-1.4-11.8l-9-73.7c-1.4-11.7,0-23.5,4.2-34.3
		c18.3-11.5,39.9-18.1,63-18.1h8.2c23.1,0,44.7,6.6,63,18.1C327.2,45.2,328.7,56.9,327.3,68.7"/>
	<path fill="#FF7058" d="M306.5,142.4h-101l-9.1-75.1C192,31.5,219.9,0,256,0c36,0,63.9,31.5,59.6,67.3L306.5,142.4z"/>
	<path fill="#F1543F" d="M379.2,176.4H132.7c-9.4,0-17-7.6-17-17c0-9.4,7.6-17,17-17h246.5c9.4,0,17,7.6,17,17
		S388.6,176.4,379.2,176.4"/>
	<path fill="#F8B64C" d="M366.4,176.3v16H145.7c-0.1-0.9-0.1-1.6-0.1-2.5v-13.5H366.4z"/>
</g>
</svg>
