<?xml version="1.0" encoding="utf-8"?>
<!-- Generator: Adobe Illustrator 24.0.2, SVG Export Plug-In . SVG Version: 6.00 Build 0)  -->
<svg version="1.1" id="Layer_1" xmlns="http://www.w3.org/2000/svg" xmlns:xlink="http://www.w3.org/1999/xlink" x="0px" y="0px"
	 width="512px" height="512px" viewBox="0 0 512 512" enable-background="new 0 0 512 512" xml:space="preserve">
<g>
	<g>
		<path fill="#1DD06B" d="M256,0C114.8,0,0,114.8,0,256c0,141.2,114.8,256,256,256c141.2,0,256-114.8,256-256
			C512,114.8,397.2,0,256,0z"/>
	</g>
	<path fill="#FFFFFF" d="M347.7,179.6L224.1,296.3l-59.3-61c-6.6-6.8-17.4-6.9-24.2-0.3c-6.8,6.6-6.9,17.4-0.3,24.2l71.1,73
		c6.6,6.6,17.3,6.9,24.2,0.5l135.9-128.2c3.3-3.1,5.2-7.4,5.4-11.9s-1.6-8.9-4.7-12.2C365.6,173.4,354.7,173.1,347.7,179.6z"/>
</g>
</svg>
