<?xml version="1.0" encoding="utf-8"?>
<!-- Generator: Adobe Illustrator 24.0.2, SVG Export Plug-In . SVG Version: 6.00 Build 0)  -->
<svg version="1.1" id="Capa_1" xmlns="http://www.w3.org/2000/svg" xmlns:xlink="http://www.w3.org/1999/xlink" x="0px" y="0px"
	 width="512px" height="512px" viewBox="0 0 512 512" enable-background="new 0 0 512 512" xml:space="preserve">
<g>
	<g>
		<path fill="#2F4859" d="M430,340.8l37.6-0.2c7.2,0,13,5.7,13.1,12.9l0.4,74.7c0,7.2-5.7,13-12.9,13.1l-37.6,0.2
			c-7.2,0-13-5.7-13.1-12.9l-0.4-74.7C417,346.6,422.8,340.8,430,340.8z"/>
		<path fill="#2F4859" d="M47,343l37.6-0.2c7.2,0,13,5.7,13.1,12.9l0.4,74.7c0,7.2-5.7,13-12.9,13.1l-37.6,0.2
			c-7.2,0-13-5.7-13.1-12.9l-0.4-74.7C34,348.9,39.8,343.1,47,343z"/>
		<path fill="#2F4859" d="M472.7,158.7c-3.1,0.3-5.5,3-5.5,6.1c0.8,6.2-3.2,11.9-9.2,13.4l-9.4,0.1l4.8,14c0,0,60.3-0.4,58.5-20.2
			C510.6,156.9,484.4,157.6,472.7,158.7z"/>
		<path fill="#2F4859" d="M39.3,158.7c3.1,0.3,5.5,3,5.5,6.1c-0.8,6.2,3.2,11.9,9.2,13.4l9.4,0.1l-4.8,14c0,0-60.3-0.4-58.5-20.2
			C1.4,156.9,27.6,157.6,39.3,158.7z"/>
	</g>
	<path fill="#FE7058" d="M498.5,276.3c-1.1-14.7-5.4-29-12.5-42l-25.4-46.6c0,0-45.1-101.7-63.9-109.8
		c-18.2-7.8-134.2-9.6-141.9-9.7h-0.4c-7.7,0.2-123.7,3.3-141.7,11.4C94,88,50.1,190.2,50.1,190.2l-24.8,46.9
		c-6.9,13-11,27.4-12,42.1c-1.7,32.5,1.8,65.2,10.4,96.6c4.1,14.8,17.6,25.1,33,24.9l199.8-1.2h0.4l199.8-1.2
		c15.4,0,28.8-10.4,32.7-25.3C497.5,341.5,500.7,308.9,498.5,276.3L498.5,276.3z"/>
	<path fill="#3A556A" d="M158.8,336.8l194.7-1.2c3.5,0,6.3,2.8,6.3,6.3l0.2,33.2c0,3.5-2.8,6.3-6.3,6.3l-194.7,1.2
		c-3.5,0-6.3-2.8-6.3-6.3l-0.2-33.2C152.5,339.6,155.3,336.8,158.8,336.8L158.8,336.8z"/>
	<path fill="#2F4859" d="M400.4,93.3c-2-4.4-6.4-7.3-11.3-7.4l-133.1-2.7h-0.4l-133.1,4.3c-4.9,0.2-9.2,3.1-11.2,7.5l-38.2,85.9
		l183-1.1h0.4l183.1-1.1L400.4,93.3z"/>
	<path fill="#EBF0F3" d="M443.7,330c-12.8,0.1-23.2,10.5-23.1,23.4s10.5,23.2,23.4,23.1s23.2-10.5,23.1-23.4c0,0,0,0,0,0
		C467,340.3,456.5,329.9,443.7,330z"/>
	<path fill="#EBF0F3" d="M70.6,332.2c-12.8,0.1-23.2,10.5-23.1,23.4c0.1,12.8,10.5,23.2,23.4,23.1c12.8-0.1,23.2-10.5,23.1-23.4
		C93.9,342.5,83.4,332.1,70.6,332.2L70.6,332.2z"/>
	<path fill="#3A556A" d="M169,277.8h169.5V299H169V277.8z"/>
	<path fill="#E1E6E9" d="M476.3,244.6c-0.6-5-5-8.5-10-7.9c-0.4,0-0.8,0.1-1.1,0.2l-77.5,18.9c-2.3,0.6-4.3,2-5.6,4.1l-15.4,25.4
		c-2.6,4.3-1.2,9.8,3.1,12.4c1.4,0.8,3,1.3,4.7,1.3h75.7c1.8,0,3.5-0.5,5-1.5C473,285.7,478.6,267.2,476.3,244.6L476.3,244.6z"/>
	<path fill="#BDBEC1" d="M439.6,251.8c-9.4,0.4-16.7,8.3-16.3,17.7c0.4,9.4,8.3,16.7,17.7,16.3c9.4-0.4,16.7-8.3,16.3-17.7
		C456.8,258.7,448.9,251.4,439.6,251.8L439.6,251.8z"/>
	<path fill="#BDBEC1" d="M403.6,268c-7.1,0.3-12.7,6.3-12.4,13.4c0.3,7.1,6.3,12.7,13.4,12.4s12.7-6.3,12.4-13.4c0,0,0,0,0,0
		C416.7,273.2,410.7,267.7,403.6,268z"/>
	<path fill="#E1E6E9" d="M35.7,244.6c0.6-5,5-8.5,10-7.9c0.4,0,0.8,0.1,1.1,0.2l77.5,18.9c2.3,0.6,4.3,2,5.6,4.1l15.4,25.4
		c2.6,4.3,1.2,9.8-3.1,12.4c-1.4,0.8-3,1.3-4.7,1.3H61.8c-1.8,0-3.5-0.5-5-1.5C39,285.7,33.4,267.2,35.7,244.6L35.7,244.6z"/>
	<path fill="#BDBEC1" d="M72.4,251.8c9.4,0.4,16.7,8.3,16.3,17.7c-0.4,9.4-8.3,16.7-17.7,16.3c-9.4-0.4-16.7-8.3-16.3-17.7
		C55.2,258.7,63.1,251.4,72.4,251.8L72.4,251.8z"/>
	<path fill="#BDBEC1" d="M108.4,268c7.1,0.3,12.7,6.3,12.4,13.4c-0.3,7.1-6.3,12.7-13.4,12.4s-12.7-6.3-12.4-13.4c0,0,0,0,0,0
		C95.3,273.2,101.3,267.7,108.4,268z"/>
</g>
</svg>
