<?xml version="1.0" encoding="utf-8"?>
<!-- Generator: Adobe Illustrator 24.0.2, SVG Export Plug-In . SVG Version: 6.00 Build 0)  -->
<svg version="1.1" id="Layer_1" xmlns="http://www.w3.org/2000/svg" xmlns:xlink="http://www.w3.org/1999/xlink" x="0px" y="0px"
	 width="511px" height="511px" viewBox="0 0 511 511" style="enable-background:new 0 0 511 511;" xml:space="preserve">
<style type="text/css">
	.st0{fill:#1DD06B;}
	.st1{fill:#FFFFFF;}
</style>
<path class="st0" d="M357.9,149.6l92.7,117.8L501,224l-85.5-111.1L357.9,149.6z"/>
<path class="st0" d="M162.2,149.6l-101.7,124L10,230.1l94.6-117.2L162.2,149.6z"/>
<path class="st1" d="M450.6,267.4l-92.7-117.8h-75l-58.6,16.9l-62.1-17l-101.7,124l50.3,67.8l-5.3,5.3c-9.9,9.9-9.9,26,0,35.9
	c8.5,8.5,21.7,9.7,31.5,3.5v1.2c-9.9,9.9-9.9,26,0,35.9s25.9,9.9,35.8,0.1v0.1c-9.9,9.9-9.9,26,0,35.9s26,9.9,35.9,0l4.9-4.9v0.5
	c-9.9,9.9-9.9,26,0,35.9s26,9.9,35.9,0l11.8-11.8c1.3-1.3,2.9-3.6,4.8-6.6c-1.2,2.4-2.8,4.6-4.8,6.6l-0.1,0.1l9.7,7.8
	c9.9,9.9,26,9.9,35.9,0s9.9-26,0-35.9l0,0c9.9,9.9,26,9.9,35.9,0s9.9-26,0-35.9l0,0c9.9,9.9,26,9.9,35.9,0s9.9-26,0-35.9l0,0
	c9.9,9.9,26,9.9,35.9,0s9.9-26,0-35.9L450.6,267.4z"/>
<path class="st0" d="M508.9,217.9l-85.5-111.1c-3.2-4.1-8.9-5.1-13.3-2.3l-55.2,35.1h-72c-0.9,0-1.9,0.2-2.8,0.5l-55.8,16.1
	l-57.9-15.8L110,104.5c-4.3-2.7-10-1.8-13.2,2.2L2.2,223.8c-3.4,4.2-2.8,10.4,1.3,13.9l49.6,42.7l44.5,59.9
	c-13,13.9-12.8,35.7,0.8,49.3c6,6,13.6,9.4,21.5,10.2c-0.3,1.8-0.4,3.6-0.4,5.4c0,9.5,3.7,18.4,10.4,25c6.7,6.7,15.6,10.4,25,10.4
	c0.1,0,0.3,0,0.4,0c0,0.2,0,0.5,0,0.7c0,9.5,3.7,18.4,10.4,25c6.7,6.7,15.6,10.4,25,10.4c1.9,0,3.7-0.2,5.5-0.4
	c0.8,7.9,4.2,15.5,10.2,21.6c6.9,6.9,16,10.4,25,10.4s18.1-3.5,25-10.4l5.4-5.4l2.3,1.8c6.8,6.6,15.7,9.9,24.6,9.9
	c9.1,0,18.1-3.5,25-10.4c7-7,10.5-16.3,10.4-25.6c9.2,0.1,18.5-3.3,25.6-10.3c7-7,10.5-16.3,10.4-25.6c9.6,0.2,18.8-3.5,25.6-10.4
	c7-7,10.5-16.3,10.4-25.6c9.3,0.1,18.5-3.3,25.6-10.4c12-12,13.6-30.6,4.7-44.3l32.5-68l48.8-42
	C511.5,228.2,512.2,222.1,508.9,217.9z M106.8,126.2l40.5,25.7L59.2,259.2l-35.3-30.4L106.8,126.2z M112.5,353.7l12.2-12.2
	c0.4-0.4,0.8-0.7,1.2-1c2.4-1.9,5.3-3.1,8.3-3.4c0.1,0,0.2,0,0.3,0c0.4,0,0.9-0.1,1.3-0.1c4.2,0.1,8.1,1.8,11,4.8
	c5.7,6,5.4,15.8-0.7,21.8l-11.8,11.8c-6,6-15.7,6-21.7,0C106.5,369.4,106.5,359.7,112.5,353.7z M143.9,416
	c-2.9-2.9-4.5-6.8-4.5-10.9s1.6-8,4.5-10.9l23.7-23.7c4.5-4.5,11.7-5.8,17.5-3c6,2.8,9.3,9.3,8.5,15.9c-0.5,3.5-2.1,6.8-4.6,9.3
	L165.7,416c-2.9,2.9-6.8,4.5-10.9,4.5C150.7,420.5,146.8,418.9,143.9,416z M179.7,452.2c-2.9-2.9-4.5-6.8-4.5-10.9s1.6-8,4.5-10.9
	l23.7-23.7c4.9-4.8,12.6-5.9,18.6-2.4c5.4,3.2,8.3,9.4,7.3,15.5c-0.5,3.4-2.1,6.6-4.6,9l-23.3,23.3c-2.9,2.9-6.8,4.5-10.9,4.5
	C186.5,456.7,182.6,455.1,179.7,452.2z M220.5,483.7c-6-6-6-15.7,0-21.7l12.2-12.2c0.4-0.4,0.8-0.7,1.2-1l0,0c2-1.6,4.3-2.7,6.8-3.2
	c0.1,0,0.1,0,0.2,0c0.4-0.1,0.9-0.1,1.3-0.2c0.2,0,0.4,0,0.5,0c0.4,0,0.7,0,1.1,0c4.2,0.1,8.1,1.8,11,4.8c0.4,0.4,0.7,0.8,1,1.2
	c4.6,6,4,15-1.7,20.7l-11.8,11.8C236.2,489.7,226.5,489.7,220.5,483.7z M407.4,371.8c-6,6-15.7,6-21.7,0c-0.2-0.2-0.4-0.4-0.7-0.6
	l-64.4-65.1c-3.9-3.9-10.2-4-14.2-0.1c-3.9,3.9-4,10.2-0.1,14.2l65.1,65.8l0,0c6,6,6,15.7,0,21.7c-2.9,2.9-6.8,4.5-10.9,4.5
	s-8-1.6-10.9-4.5l-43.6-44c-3.9-3.9-10.2-4-14.2-0.1c-3.9,3.9-4,10.2-0.1,14.2l42.9,43.3c0.2,0.3,0.5,0.5,0.7,0.8c6,6,6,15.7,0,21.7
	s-15.8,6-21.7,0l-23.8-24c-3.9-3.9-10.2-4-14.2-0.1c-3.9,3.9-4,10.2-0.1,14.2l23.1,23.4c0.2,0.3,0.5,0.5,0.7,0.8c6,6,6,15.7,0,21.7
	s-15.7,6-21.7,0c-0.7-0.7-1.5-1.2-2.3-1.8c-0.7-0.5-0.8-0.8-0.5-1.6c0.3-0.8,0.8-1.5,1.2-2.3c0.4-0.9,0.7-1.8,1-2.8
	c1.5-5,2-10.3,1.3-15.4c-1.3-9.9-6.7-18.8-15-24.4c-4.4-3-9.6-5-14.9-5.8c2.6-11.4-0.5-23.7-8.6-32.2c-6.6-7-15.6-10.9-25.2-11.1
	c-0.4,0-0.7,0-1.1,0c0.2-9.2-3.1-18.3-9.5-25c-6.6-7-15.6-10.9-25.2-11.1c-2.9,0-5.8,0.3-8.5,0.9c-1.2-8.3-5.4-16-11.7-21.5
	s-14.2-8.5-22.6-8.6c-8.9-0.1-17.6,3.1-24.2,9.1l-38.7-52.2l92.7-112.9l29.5,8.1l-38.6,68.1c-4.7,8.2-5.8,17.8-3.3,26.9
	c2.5,9.1,8.4,16.7,16.7,21.4c0.5,0.3,1,0.6,1.6,0.8c0,0,0.1,0,0.1,0.1c1.4,0.7,2.8,1.3,4.2,1.8c6.7,2.3,14,2.6,21,0.6
	c9.1-2.5,16.7-8.4,21.4-16.7l25.1-44.2l44.8,3.2l119.2,119.2C413.4,356.1,413.4,365.8,407.4,371.8z M411.5,325.9L299.7,214.1
	c-0.2-0.2-0.4-0.4-0.7-0.6c-1.6-1.3-3.6-2.2-5.7-2.3l-54.8-3.9c-3.8-0.3-7.6,1.8-9.4,5.1L201,262.1c-2,3.6-5.3,6.1-9.3,7.2
	s-8.1,0.6-11.7-1.4c-3.6-2-6.1-5.3-7.2-9.3c-1.1-4-0.6-8.1,1.4-11.7l37.6-66.4l15.2-4.4c0.1,0,0.2-0.1,0.3-0.1l56.9-16.4H353
	l85.8,109.1L411.5,325.9z M452,253l-79.4-100.9l40.5-25.8l74.2,96.3L452,253z"/>
<path class="st0" d="M309.6,120.8c2.6,0,5.1-1,7.1-2.9l68.4-68.4c3.9-3.9,3.9-10.3,0-14.2s-10.3-3.9-14.2,0l-68.4,68.4
	c-3.9,3.9-3.9,10.3,0,14.2C304.5,119.8,307,120.8,309.6,120.8z"/>
<path class="st0" d="M194.3,117.9c2,2,4.5,2.9,7.1,2.9s5.1-1,7.1-2.9c3.9-3.9,3.9-10.3,0-14.2l-68.4-68.4c-3.9-3.9-10.3-3.9-14.2,0
	s-3.9,10.3,0,14.2L194.3,117.9z"/>
<path class="st0" d="M255.5,120.8c5.5,0,10-4.5,10-10V54.1c0-5.5-4.5-10-10-10s-10,4.5-10,10v56.6
	C245.5,116.3,250,120.8,255.5,120.8z"/>
<path class="st0" d="M246.3,17.8c1.6,3.9,5.6,6.4,9.7,6.2c4.1-0.2,7.8-3,9-6.9c1.3-4-0.1-8.5-3.4-11c-3.4-2.6-8.1-2.7-11.7-0.4
	C246,8.3,244.5,13.5,246.3,17.8z"/>
</svg>
